<svg width="25" height="25" viewBox="0 0 25 25" fill="none" xmlns="http://www.w3.org/2000/svg">
<path d="M12.07 23.25C6.15001 23.25 1.32001 18.43 1.32001 12.5C1.32001 6.57 6.15001 1.75 12.07 1.75C17.99 1.75 22.82 6.57 22.82 12.5C22.82 18.43 18 23.25 12.07 23.25ZM12.07 3.25C6.97001 3.25 2.82001 7.4 2.82001 12.5C2.82001 17.6 6.97001 21.75 12.07 21.75C17.17 21.75 21.32 17.6 21.32 12.5C21.32 7.4 17.17 3.25 12.07 3.25Z" />
<path d="M12.1 19.75C9.95001 19.75 7.93001 18.7 6.70001 16.93C6.46001 16.59 6.55001 16.12 6.89001 15.89C7.23001 15.65 7.70001 15.74 7.93001 16.08C8.88001 17.44 10.44 18.26 12.1 18.26C13.76 18.26 15.32 17.45 16.27 16.08C16.51 15.74 16.97 15.66 17.31 15.89C17.65 16.13 17.73 16.59 17.5 16.93C16.27 18.7 14.25 19.75 12.1 19.75Z" />
</svg>
