<svg width="32" height="32" viewBox="0 0 32 32" fill="none" xmlns="http://www.w3.org/2000/svg">
<path d="M16 2.66699C8.65334 2.66699 2.66667 8.65366 2.66667 16.0003C2.66667 23.347 8.65334 29.3337 16 29.3337C23.3467 29.3337 29.3333 23.347 29.3333 16.0003C29.3333 8.65366 23.3467 2.66699 16 2.66699ZM21.3333 17.0003H17V21.3337C17 21.8803 16.5467 22.3337 16 22.3337C15.4533 22.3337 15 21.8803 15 21.3337V17.0003H10.6667C10.12 17.0003 9.66667 16.547 9.66667 16.0003C9.66667 15.4537 10.12 15.0003 10.6667 15.0003H15V10.667C15 10.1203 15.4533 9.66699 16 9.66699C16.5467 9.66699 17 10.1203 17 10.667V15.0003H21.3333C21.88 15.0003 22.3333 15.4537 22.3333 16.0003C22.3333 16.547 21.88 17.0003 21.3333 17.0003Z" fill="#FFC42C"/>
</svg>
