<svg width="41" height="40" viewBox="0 0 41 40" fill="none" xmlns="http://www.w3.org/2000/svg">
<path fill-rule="evenodd" clip-rule="evenodd" d="M8.04945 36.6667C7.98357 36.6667 7.9177 36.6667 7.85182 36.6008C7.72007 36.5349 7.65419 36.4032 7.72007 36.2714L9.10347 29.2885H6.73193C5.1509 29.2885 3.83337 28.0369 3.83337 26.4559V6.23189C3.83337 4.65087 5.1509 3.33334 6.73193 3.33334H34.6634C36.2444 3.33334 37.562 4.65087 37.562 6.23189V26.4559C37.562 28.0369 36.2444 29.2885 34.6634 29.2885H21.8176L8.1812 36.6008C8.11532 36.6667 8.11532 36.6667 8.04945 36.6667Z" fill="#CC9043"/>
<path fill-rule="evenodd" clip-rule="evenodd" d="M5.90654 5C4.74801 5 3.83337 5.93361 3.83337 7.11618V26.2241C3.83337 27.3444 4.74801 28.278 5.90654 28.278H8.46752C8.58947 28.278 8.65045 28.3403 8.71142 28.4025C8.7724 28.4647 8.7724 28.5892 8.7724 28.6515L7.55289 35L19.687 28.3403C19.748 28.278 19.748 28.278 19.809 28.278H33.4269C34.5854 28.278 35.5 27.3444 35.5 26.2241V7.11618C35.5 5.93361 34.5854 5 33.4269 5H5.90654Z" fill="#FFC42C"/>
<path fill-rule="evenodd" clip-rule="evenodd" d="M20.5001 25C15.9249 25 12.1667 21.2842 12.1667 16.6394C12.1667 12.0492 15.9249 8.33334 20.5001 8.33334C25.0752 8.33334 28.8334 12.0492 28.8334 16.6394C28.8334 21.2842 25.0752 25 20.5001 25Z" fill="#FBFBFB"/>
<path fill-rule="evenodd" clip-rule="evenodd" d="M21.0358 18.083H19.9643C19.3096 18.083 18.8334 17.556 18.8334 16.8314V11.2516C18.8334 10.5929 19.3096 10 19.9643 10H21.0358C21.6905 10 22.1667 10.5929 22.1667 11.2516V16.8314C22.1667 17.556 21.6905 18.083 21.0358 18.083Z" fill="#03A1FA"/>
<path fill-rule="evenodd" clip-rule="evenodd" d="M20.5 22.5362C19.5805 22.5362 18.8334 21.8345 18.8334 20.8988C18.8334 19.9631 19.5805 19.2029 20.5 19.2029C21.4196 19.2029 22.1667 19.9631 22.1667 20.8988C22.1667 21.8345 21.4196 22.5362 20.5 22.5362Z" fill="#03A1FA"/>
</svg>
