<svg width="20" height="20" viewBox="0 0 20 20" fill="none" xmlns="http://www.w3.org/2000/svg">
<path d="M2.91667 15.6252C2.57501 15.6252 2.29167 15.3418 2.29167 15.0002V5.83349C2.29167 2.15849 3.40834 1.04182 7.08334 1.04182H12.9167C16.5917 1.04182 17.7083 2.15849 17.7083 5.83349V14.1668C17.7083 14.3002 17.7083 14.4252 17.7 14.5585C17.675 14.9002 17.3667 15.1668 17.0333 15.1418C16.6917 15.1168 16.425 14.8168 16.45 14.4752C16.4583 14.3752 16.4583 14.2668 16.4583 14.1668V5.83349C16.4583 2.85849 15.9 2.29182 12.9167 2.29182H7.08334C4.10001 2.29182 3.54167 2.85849 3.54167 5.83349V15.0002C3.54167 15.3418 3.25834 15.6252 2.91667 15.6252Z" fill="#202C38"/>
<path d="M14.1667 18.9585H5.83334C3.88334 18.9585 2.29167 17.3668 2.29167 15.4168V14.8752C2.29167 13.2168 3.64167 11.8752 5.29167 11.8752H17.0833C17.425 11.8752 17.7083 12.1585 17.7083 12.5002V15.4168C17.7083 17.3668 16.1167 18.9585 14.1667 18.9585ZM5.29167 13.1252C4.32501 13.1252 3.54167 13.9085 3.54167 14.8752V15.4168C3.54167 16.6835 4.56667 17.7085 5.83334 17.7085H14.1667C15.4333 17.7085 16.4583 16.6835 16.4583 15.4168V13.1252H5.29167Z" fill="#202C38"/>
<path d="M13.3333 6.45848H6.66667C6.32501 6.45848 6.04167 6.17515 6.04167 5.83348C6.04167 5.49181 6.32501 5.20848 6.66667 5.20848H13.3333C13.675 5.20848 13.9583 5.49181 13.9583 5.83348C13.9583 6.17515 13.675 6.45848 13.3333 6.45848Z" fill="#202C38"/>
<path d="M10.8333 9.37515H6.66667C6.32501 9.37515 6.04167 9.09182 6.04167 8.75015C6.04167 8.40849 6.32501 8.12515 6.66667 8.12515H10.8333C11.175 8.12515 11.4583 8.40849 11.4583 8.75015C11.4583 9.09182 11.175 9.37515 10.8333 9.37515Z" fill="#202C38"/>
</svg>
