<svg width="32" height="32" viewBox="0 0 32 32" fill="none" xmlns="http://www.w3.org/2000/svg">
<rect width="32" height="32" rx="16" fill="#FFC42C"/>
<path d="M22.06 12.653C21.4933 12.0264 20.5467 11.713 19.1733 11.713H19.0133V11.6864C19.0133 10.5664 19.0133 9.17969 16.5067 9.17969H15.4933C12.9867 9.17969 12.9867 10.573 12.9867 11.6864V11.7197H12.8267C11.4467 11.7197 10.5067 12.033 9.94 12.6597C9.28 13.393 9.3 14.3797 9.36667 15.053L9.37334 15.0997L9.41746 15.563C9.43172 15.7127 9.51247 15.8482 9.63863 15.9302C9.79899 16.0344 10.0202 16.1754 10.16 16.253C10.2533 16.313 10.3533 16.3664 10.4533 16.4197C11.5933 17.0464 12.8467 17.4664 14.12 17.673C14.18 18.2997 14.4533 19.033 15.9133 19.033C17.3733 19.033 17.66 18.3064 17.7067 17.6597C19.0667 17.4397 20.38 16.9664 21.5667 16.273C21.6067 16.253 21.6333 16.233 21.6667 16.213C21.9104 16.0752 22.1626 15.908 22.3964 15.7414C22.5099 15.6605 22.5821 15.5343 22.5975 15.3958L22.6 15.373L22.6333 15.0597C22.64 15.0197 22.64 14.9864 22.6467 14.9397C22.7 14.2664 22.6867 13.3464 22.06 12.653ZM16.7267 17.2197C16.7267 17.9264 16.7267 18.033 15.9067 18.033C15.0867 18.033 15.0867 17.9064 15.0867 17.2264V16.3864H16.7267V17.2197ZM13.94 11.713V11.6864C13.94 10.553 13.94 10.133 15.4933 10.133H16.5067C18.06 10.133 18.06 10.5597 18.06 11.6864V11.7197H13.94V11.713Z" fill="#202C38"/>
<path d="M21.6456 17.2837C22.0003 17.1178 22.4077 17.3986 22.3723 17.7886L22.16 20.1268C22.02 21.4601 21.4733 22.8201 18.54 22.8201H13.46C10.5267 22.8201 9.98 21.4601 9.84 20.1335L9.63929 17.9256C9.60424 17.5402 10.0022 17.2596 10.3558 17.417C11.1155 17.755 12.256 18.2379 13.0297 18.4541C13.1933 18.4998 13.3258 18.6182 13.4039 18.7691C13.8248 19.5819 14.6865 20.0135 15.9133 20.0135C17.1282 20.0135 17.9999 19.5652 18.4226 18.7493C18.5008 18.5983 18.6338 18.4799 18.7974 18.4338C19.6223 18.2014 20.845 17.6581 21.6456 17.2837Z" fill="#202C38"/>
</svg>
