<svg width="17" height="16" viewBox="0 0 17 16" fill="none" xmlns="http://www.w3.org/2000/svg">
<g id="vuesax/outline/calendar-2">
<g id="calendar-2">
<g id="Vector">
<mask id="path-1-inside-1_6601_13261" fill="white">
<path d="M5.83331 3.83301C5.55998 3.83301 5.33331 3.60634 5.33331 3.33301V1.33301C5.33331 1.05967 5.55998 0.833008 5.83331 0.833008C6.10665 0.833008 6.33331 1.05967 6.33331 1.33301V3.33301C6.33331 3.60634 6.10665 3.83301 5.83331 3.83301Z"/>
</mask>
<path d="M5.83331 3.83301C5.55998 3.83301 5.33331 3.60634 5.33331 3.33301V1.33301C5.33331 1.05967 5.55998 0.833008 5.83331 0.833008C6.10665 0.833008 6.33331 1.05967 6.33331 1.33301V3.33301C6.33331 3.60634 6.10665 3.83301 5.83331 3.83301Z" fill="#676E72"/>
<path d="M5.83331 2.58301C6.25034 2.58301 6.58331 2.91599 6.58331 3.33301H4.08331C4.08331 4.2967 4.86962 5.08301 5.83331 5.08301V2.58301ZM6.58331 3.33301V1.33301H4.08331V3.33301H6.58331ZM6.58331 1.33301C6.58331 1.75003 6.25034 2.08301 5.83331 2.08301V-0.416992C4.86962 -0.416992 4.08331 0.369319 4.08331 1.33301H6.58331ZM5.83331 2.08301C5.41629 2.08301 5.08331 1.75003 5.08331 1.33301H7.58331C7.58331 0.369319 6.797 -0.416992 5.83331 -0.416992V2.08301ZM5.08331 1.33301V3.33301H7.58331V1.33301H5.08331ZM5.08331 3.33301C5.08331 2.91599 5.41629 2.58301 5.83331 2.58301V5.08301C6.797 5.08301 7.58331 4.2967 7.58331 3.33301H5.08331Z" fill="#676E72" mask="url(#path-1-inside-1_6601_13261)"/>
</g>
<g id="Vector_2">
<mask id="path-3-inside-2_6601_13261" fill="white">
<path d="M11.1667 3.83301C10.8934 3.83301 10.6667 3.60634 10.6667 3.33301V1.33301C10.6667 1.05967 10.8934 0.833008 11.1667 0.833008C11.44 0.833008 11.6667 1.05967 11.6667 1.33301V3.33301C11.6667 3.60634 11.44 3.83301 11.1667 3.83301Z"/>
</mask>
<path d="M11.1667 3.83301C10.8934 3.83301 10.6667 3.60634 10.6667 3.33301V1.33301C10.6667 1.05967 10.8934 0.833008 11.1667 0.833008C11.44 0.833008 11.6667 1.05967 11.6667 1.33301V3.33301C11.6667 3.60634 11.44 3.83301 11.1667 3.83301Z" fill="#676E72"/>
<path d="M11.1667 2.58301C11.5837 2.58301 11.9167 2.91599 11.9167 3.33301H9.41669C9.41669 4.2967 10.203 5.08301 11.1667 5.08301V2.58301ZM11.9167 3.33301V1.33301H9.41669V3.33301H11.9167ZM11.9167 1.33301C11.9167 1.75003 11.5837 2.08301 11.1667 2.08301V-0.416992C10.203 -0.416992 9.41669 0.369319 9.41669 1.33301H11.9167ZM11.1667 2.08301C10.7497 2.08301 10.4167 1.75003 10.4167 1.33301H12.9167C12.9167 0.369319 12.1304 -0.416992 11.1667 -0.416992V2.08301ZM10.4167 1.33301V3.33301H12.9167V1.33301H10.4167ZM10.4167 3.33301C10.4167 2.91599 10.7497 2.58301 11.1667 2.58301V5.08301C12.1304 5.08301 12.9167 4.2967 12.9167 3.33301H10.4167Z" fill="#676E72" mask="url(#path-3-inside-2_6601_13261)"/>
</g>
<g id="Vector_3">
<mask id="path-5-inside-3_6601_13261" fill="white">
<path d="M14.1666 6.55957H2.83331C2.55998 6.55957 2.33331 6.3329 2.33331 6.05957C2.33331 5.78624 2.55998 5.55957 2.83331 5.55957H14.1666C14.44 5.55957 14.6666 5.78624 14.6666 6.05957C14.6666 6.3329 14.44 6.55957 14.1666 6.55957Z"/>
</mask>
<path d="M14.1666 6.55957H2.83331C2.55998 6.55957 2.33331 6.3329 2.33331 6.05957C2.33331 5.78624 2.55998 5.55957 2.83331 5.55957H14.1666C14.44 5.55957 14.6666 5.78624 14.6666 6.05957C14.6666 6.3329 14.44 6.55957 14.1666 6.55957Z" fill="#676E72"/>
<path d="M14.1666 5.30957H2.83331V7.80957H14.1666V5.30957ZM2.83331 5.30957C3.25034 5.30957 3.58331 5.64255 3.58331 6.05957H1.08331C1.08331 7.02326 1.86962 7.80957 2.83331 7.80957V5.30957ZM3.58331 6.05957C3.58331 6.47659 3.25034 6.80957 2.83331 6.80957V4.30957C1.86962 4.30957 1.08331 5.09588 1.08331 6.05957H3.58331ZM2.83331 6.80957H14.1666V4.30957H2.83331V6.80957ZM14.1666 6.80957C13.7496 6.80957 13.4166 6.47659 13.4166 6.05957H15.9166C15.9166 5.09588 15.1303 4.30957 14.1666 4.30957V6.80957ZM13.4166 6.05957C13.4166 5.64255 13.7496 5.30957 14.1666 5.30957V7.80957C15.1303 7.80957 15.9166 7.02326 15.9166 6.05957H13.4166Z" fill="#676E72" mask="url(#path-5-inside-3_6601_13261)"/>
</g>
<path id="Vector_4" d="M11.1667 15.1663H5.83333C3.4 15.1663 2 13.7663 2 11.333V5.66634C2 3.23301 3.4 1.83301 5.83333 1.83301H11.1667C13.6 1.83301 15 3.23301 15 5.66634V11.333C15 13.7663 13.6 15.1663 11.1667 15.1663ZM5.83333 2.83301C3.92667 2.83301 3 3.75967 3 5.66634V11.333C3 13.2397 3.92667 14.1663 5.83333 14.1663H11.1667C13.0733 14.1663 14 13.2397 14 11.333V5.66634C14 3.75967 13.0733 2.83301 11.1667 2.83301H5.83333Z" fill="#676E72"/>
<path id="Vector_5" d="M6.16667 9.66635C6.08 9.66635 5.99333 9.64636 5.91333 9.61302C5.83333 9.57969 5.76001 9.53301 5.69334 9.47301C5.63334 9.40634 5.58666 9.33302 5.55332 9.25302C5.51999 9.17302 5.5 9.08635 5.5 8.99968C5.5 8.82635 5.57334 8.65302 5.69334 8.52635C5.76001 8.46635 5.83333 8.41967 5.91333 8.38634C6.03333 8.33301 6.16667 8.31967 6.30001 8.34634C6.34001 8.35301 6.38 8.36634 6.42 8.38634C6.46 8.39967 6.5 8.41969 6.54 8.44636C6.57333 8.47302 6.60666 8.49969 6.63999 8.52635C6.66666 8.55969 6.69999 8.59302 6.71999 8.62635C6.74666 8.66635 6.76668 8.70635 6.78001 8.74635C6.80001 8.78635 6.81334 8.82634 6.82001 8.86634C6.82667 8.91301 6.83333 8.95302 6.83333 8.99968C6.83333 9.17302 6.75999 9.34634 6.63999 9.47301C6.51333 9.59301 6.34 9.66635 6.16667 9.66635Z" fill="#676E72"/>
<path id="Vector_6" d="M8.49998 9.66658C8.32665 9.66658 8.15332 9.59324 8.02665 9.47324C7.99999 9.43991 7.97332 9.40658 7.94666 9.37325C7.91999 9.33325 7.89997 9.29325 7.88664 9.25325C7.86664 9.21325 7.85331 9.17326 7.84664 9.13326C7.83997 9.08659 7.83331 9.04658 7.83331 8.99992C7.83331 8.91325 7.8533 8.82658 7.88664 8.74658C7.91997 8.66658 7.96665 8.59325 8.02665 8.52659C8.21332 8.33992 8.51332 8.27991 8.75332 8.38657C8.83998 8.41991 8.90664 8.46659 8.97331 8.52659C9.09331 8.65325 9.16665 8.82658 9.16665 8.99992C9.16665 9.04658 9.15999 9.08659 9.15332 9.13326C9.14665 9.17326 9.13332 9.21325 9.11332 9.25325C9.09999 9.29325 9.07997 9.33325 9.0533 9.37325C9.02664 9.40658 8.99997 9.43991 8.97331 9.47324C8.90664 9.53324 8.83998 9.57992 8.75332 9.61326C8.67332 9.64659 8.58665 9.66658 8.49998 9.66658Z" fill="#676E72"/>
<path id="Vector_7" d="M6.16667 11.9996C6.08 11.9996 5.99333 11.9796 5.91333 11.9463C5.83333 11.9129 5.76001 11.8663 5.69334 11.8063C5.63334 11.7396 5.58666 11.6729 5.55332 11.5863C5.51999 11.5063 5.5 11.4196 5.5 11.3329C5.5 11.1596 5.57334 10.9863 5.69334 10.8596C5.76001 10.7996 5.83333 10.7529 5.91333 10.7196C6.16 10.6129 6.45333 10.6729 6.63999 10.8596C6.66666 10.8929 6.69999 10.9263 6.71999 10.9596C6.74666 10.9996 6.76668 11.0396 6.78001 11.0796C6.80001 11.1196 6.81334 11.1596 6.82001 11.2063C6.82667 11.2463 6.83333 11.2929 6.83333 11.3329C6.83333 11.5063 6.75999 11.6796 6.63999 11.8063C6.51333 11.9263 6.34 11.9996 6.16667 11.9996Z" fill="#676E72"/>
</g>
</g>
</svg>
