<svg width="16" height="16" viewBox="0 0 16 16" fill="none" xmlns="http://www.w3.org/2000/svg">
<g clip-path="url(#clip0_1479_72141)">
<mask id="mask0_1479_72141" style="mask-type:luminance" maskUnits="userSpaceOnUse" x="0" y="0" width="16" height="16">
<path d="M16 0H0V16H16V0Z" fill="white"/>
<path d="M12.7135 13.7715C12.7135 14.203 12.3637 14.5527 11.9323 14.5527C11.5008 14.5527 11.151 14.203 11.151 13.7715C11.151 13.34 11.5008 12.9902 11.9323 12.9902C12.3637 12.9902 12.7135 13.34 12.7135 13.7715Z" fill="white"/>
<path d="M8.026 13.7715C8.026 14.203 7.67622 14.5527 7.24475 14.5527C6.81325 14.5527 6.4635 14.203 6.4635 13.7715C6.4635 13.34 6.81325 12.9902 7.24475 12.9902C7.67622 12.9902 8.026 13.34 8.026 13.7715Z" fill="white"/>
</mask>
<g mask="url(#mask0_1479_72141)">
<path fill-rule="evenodd" clip-rule="evenodd" d="M4.81431 11.5399C4.86656 11.7669 5.06863 11.9277 5.30157 11.9277H13.8755C14.1084 11.9277 14.3105 11.7669 14.3627 11.5399L15.8622 5.02466C15.8964 4.87622 15.861 4.7203 15.7662 4.60113C15.6713 4.48195 15.5273 4.41252 15.375 4.41252H3.80201C3.64968 4.41252 3.50567 4.48195 3.41081 4.60113C3.31594 4.7203 3.28058 4.87622 3.31475 5.02466L4.81431 11.5399ZM5.69956 10.9277L4.43016 5.41252H14.7468L13.4775 10.9277H5.69956Z" fill=""/>
<path fill-rule="evenodd" clip-rule="evenodd" d="M3.91418 5.40024C4.18328 5.3383 4.35123 5.06994 4.28929 4.80083L3.48726 1.31605C3.43502 1.08905 3.23294 0.928195 3 0.928195H0.625C0.348858 0.928195 0.125 1.15205 0.125 1.42819C0.125 1.70434 0.348858 1.92819 0.625 1.92819H2.60201L3.31477 5.02512C3.37671 5.29423 3.64507 5.46217 3.91418 5.40024Z" fill=""/>
<path d="M12.7135 13.7715C12.7135 14.203 12.3637 14.5527 11.9323 14.5527C11.5008 14.5527 11.151 14.203 11.151 13.7715C11.151 13.34 11.5008 12.9902 11.9323 12.9902C12.3637 12.9902 12.7135 13.34 12.7135 13.7715Z" fill=""/>
<path d="M8.026 13.7715C8.026 14.203 7.67622 14.5527 7.24475 14.5527C6.81325 14.5527 6.4635 14.203 6.4635 13.7715C6.4635 13.34 6.81325 12.9902 7.24475 12.9902C7.67622 12.9902 8.026 13.34 8.026 13.7715Z" fill=""/>
</g>
</g>
<defs>
<clipPath id="clip0_1479_72141">
<rect width="16" height="16" fill="white"/>
</clipPath>
</defs>
</svg>
