<svg width="20" height="20" viewBox="0 0 20 20" fill="none" xmlns="http://www.w3.org/2000/svg">
<path d="M17.6263 4.16435C16.8707 3.40864 15.8659 2.99249 14.7972 2.99249C13.7286 2.99249 12.7238 3.40864 11.9681 4.16435L5.66111 10.4713C4.72514 11.4073 4.72514 12.9302 5.66116 13.8663C6.59718 14.8023 8.12017 14.8022 9.05614 13.8662L13.2092 9.71315C13.5217 9.40065 13.5217 8.89401 13.2092 8.58151C12.8967 8.269 12.39 8.269 12.0775 8.58151L7.9245 12.7345C7.61253 13.0466 7.10483 13.0466 6.7928 12.7346C6.48078 12.4226 6.48078 11.9149 6.79275 11.6029L13.0998 5.29605C13.5532 4.84266 14.156 4.59294 14.7972 4.59294C15.4385 4.59294 16.0413 4.84266 16.4947 5.29605C17.4307 6.23207 17.4307 7.75501 16.4948 8.69103L9.62199 15.5637C8.06192 17.1236 5.52363 17.1236 3.96372 15.5637C3.20802 14.808 2.79181 13.8033 2.79181 12.7346C2.79181 11.6659 3.20802 10.6611 3.96372 9.90541L10.8364 3.03266C11.1489 2.72015 11.1489 2.21352 10.8364 1.90101C10.5239 1.58856 10.0172 1.58851 9.70473 1.90101L2.83208 8.77377C1.77406 9.83174 1.19141 11.2384 1.19141 12.7346C1.19141 14.2308 1.77406 15.6375 2.83208 16.6954C3.92419 17.7875 5.35826 18.3335 6.7928 18.3333C8.22703 18.3332 9.66173 17.7872 10.7536 16.6954L17.6264 9.82262C19.1863 8.2626 19.1863 5.72437 17.6263 4.16435Z" fill="#676E72"/>
</svg>
