<svg width="72" height="72" viewBox="0 0 72 72" fill="none" xmlns="http://www.w3.org/2000/svg">
<rect width="72" height="72" fill="#FFF4D9"/>
<circle cx="36" cy="36" r="36" fill="#FFF4D9"/>
<path opacity="0.5" d="M51 28.1876V43.8124C51 45.7126 49.4626 47.25 47.5624 47.25H24.4376C24.1249 47.25 23.8251 47.2125 23.55 47.125C22.0751 46.7375 21 45.3999 21 43.8124V28.1876C21 26.2874 22.5374 24.75 24.4376 24.75H47.5624C49.4626 24.75 51 26.2874 51 28.1876Z" fill="#F5B102"/>
<path opacity="0.5" d="M29.7499 31.0001C29.7499 32.3807 28.6307 33.4999 27.2501 33.4999C25.8692 33.4999 24.75 32.3807 24.75 31.0001C24.75 29.6192 25.8692 28.5 27.2501 28.5C28.6307 28.5 29.7499 29.6192 29.7499 31.0001Z" fill="#F5B102"/>
<path d="M51 40.9274V43.8147C51 45.7149 49.4626 47.2523 47.5624 47.2523H24.4375C24.1249 47.2523 23.825 47.2148 23.5499 47.1273L38.825 31.8522C39.6749 31.0024 41.075 31.0024 41.925 31.8522L51 40.9274Z" fill="#F5B102"/>
<path d="M42.3249 47.2505H24.4376C24.1249 47.2505 23.8251 47.2129 23.55 47.1255C22.0751 46.738 21 45.4004 21 43.8129V43.4254L28.1999 36.2254C29.05 35.3754 30.4501 35.3754 31.2999 36.2254L42.3249 47.2505Z" fill="#FFC42C"/>
</svg>
