<svg width="160" height="167" viewBox="0 0 160 167" fill="none" xmlns="http://www.w3.org/2000/svg">
<g id="Frame 8884">
<g id="54">
<g id="Group 721">
<g id="Group 664">
<path id="Vector" d="M76.1486 138.948C104.149 138.948 126.849 116.248 126.849 88.1475C126.849 60.0475 104.049 37.3475 76.1486 37.3475C48.1486 37.3475 25.4486 60.0475 25.4486 88.1475C25.4486 116.248 48.1486 138.948 76.1486 138.948Z" fill="#EAEEF9"/>
<path id="Vector_2" d="M123.549 54.8475C125.813 54.8475 127.649 53.0119 127.649 50.7475C127.649 48.4832 125.813 46.6475 123.549 46.6475C121.284 46.6475 119.449 48.4832 119.449 50.7475C119.449 53.0119 121.284 54.8475 123.549 54.8475Z" fill="#EAEEF9"/>
<path id="Vector_3" d="M129.549 38.8475C131.095 38.8475 132.349 37.5939 132.349 36.0475C132.349 34.5011 131.095 33.2475 129.549 33.2475C128.002 33.2475 126.749 34.5011 126.749 36.0475C126.749 37.5939 128.002 38.8475 129.549 38.8475Z" fill="#EAEEF9"/>
<path id="Vector_4" d="M28.1486 54.7475C29.695 54.7475 30.9486 53.4939 30.9486 51.9475C30.9486 50.4011 29.695 49.1475 28.1486 49.1475C26.6022 49.1475 25.3486 50.4011 25.3486 51.9475C25.3486 53.4939 26.6022 54.7475 28.1486 54.7475Z" fill="#EAEEF9"/>
<path id="Vector_5" d="M11.0486 108.747C13.9205 108.747 16.2486 106.419 16.2486 103.547C16.2486 100.676 13.9205 98.3475 11.0486 98.3475C8.17675 98.3475 5.84863 100.676 5.84863 103.547C5.84863 106.419 8.17675 108.747 11.0486 108.747Z" fill="#EAEEF9"/>
</g>
<path id="Vector_6" d="M153.417 72.1978H148.456V67.2366H144.204V72.1978H139.243V76.5919H144.204V81.5531H148.456V76.5919H153.417V72.1978Z" fill="url(#paint0_linear_1212_53722)"/>
<path id="Vector_7" d="M71.3167 25.2501H67.0757V21.009H63.4405V25.2501H59.1995V29.0064H63.4405V33.2475H67.0757V29.0064H71.3167V25.2501Z" fill="url(#paint1_linear_1212_53722)"/>
<path id="Vector_8" d="M21.4015 67.5619H17.778V63.9383H14.6721V67.5619H11.0486V70.7713H14.6721V74.3948H17.778V70.7713H21.4015V67.5619Z" fill="url(#paint2_linear_1212_53722)"/>
<g id="Group 701">
<g id="Vector_9" filter="url(#filter0_d_1212_53722)">
<path d="M111.813 78.3509L101.799 53.8993C100.014 49.5524 95.3566 47.0684 90.7768 48.0775L64.928 53.6664C62.7545 54.1322 60.8915 55.607 59.8048 57.5476L35.198 104.433C34.1889 106.373 34.8875 108.857 36.9057 109.866L81.4619 133.309C83.4025 134.318 85.8864 133.619 86.8956 131.601L111.502 84.716C112.589 82.7754 112.667 80.4467 111.813 78.3509ZM87.0508 68.4926C83.8682 66.8625 82.6262 62.9037 84.334 59.7211C85.9641 56.5385 89.9229 55.2965 93.1055 57.0043C96.2881 58.6344 97.53 62.5932 95.8223 65.7758C94.1922 68.9584 90.2334 70.2003 87.0508 68.4926Z" fill="url(#paint3_linear_1212_53722)"/>
</g>
<path id="Vector_10" d="M90.2334 62.5156C110.493 52.0363 118.489 36.4339 107.932 29.6806C97.3748 22.9274 86.9732 29.6806 84.334 49.3195" stroke="#ADB6C8" stroke-width="5" stroke-miterlimit="10" stroke-linecap="round" stroke-linejoin="round"/>
</g>
</g>
<g id="Group 723">
<path id="Vector_11" d="M84.946 96.3437C86.3166 97.1024 88.1417 96.578 88.9004 95.2074C89.6591 93.8369 89.1346 92.0118 87.7641 91.2531C86.3935 90.4944 84.5684 91.0188 83.8097 92.3894C82.9968 93.8578 83.4776 95.5308 84.946 96.3437Z" fill="#AAB2C5"/>
<path id="Vector_12" d="M77.1357 99.9245L75.8631 99.22C76.0868 96.2743 73.7356 93.8216 70.8336 93.7499C69.7358 93.6538 68.519 94.0034 67.6397 94.6677L66.367 93.9632C69.1239 91.5245 73.5153 91.9091 75.8019 94.7097C76.8473 96.0558 77.4696 97.9351 77.1357 99.9245Z" fill="#AAB2C5"/>
<path id="Vector_13" d="M65.3667 85.5051C66.7372 86.2638 68.5623 85.7393 69.321 84.3688C70.0797 82.9982 69.5553 81.1731 68.1847 80.4144C66.8142 79.6557 64.9891 80.1801 64.2304 81.5507C63.5154 83.0733 63.9961 84.7463 65.3667 85.5051Z" fill="#AAB2C5"/>
</g>
</g>
</g>
<defs>
<filter id="filter0_d_1212_53722" x="12.7402" y="36.8537" width="121.652" height="129.913" filterUnits="userSpaceOnUse" color-interpolation-filters="sRGB">
<feFlood flood-opacity="0" result="BackgroundImageFix"/>
<feColorMatrix in="SourceAlpha" type="matrix" values="0 0 0 0 0 0 0 0 0 0 0 0 0 0 0 0 0 0 127 0" result="hardAlpha"/>
<feOffset dy="11"/>
<feGaussianBlur stdDeviation="11"/>
<feColorMatrix type="matrix" values="0 0 0 0 0.397708 0 0 0 0 0.47749 0 0 0 0 0.575 0 0 0 0.27 0"/>
<feBlend mode="normal" in2="BackgroundImageFix" result="effect1_dropShadow_1212_53722"/>
<feBlend mode="normal" in="SourceGraphic" in2="effect1_dropShadow_1212_53722" result="shape"/>
</filter>
<linearGradient id="paint0_linear_1212_53722" x1="146.331" y1="67.7339" x2="146.331" y2="75.7696" gradientUnits="userSpaceOnUse">
<stop stop-color="#B0BACC"/>
<stop offset="1" stop-color="#969EAE"/>
</linearGradient>
<linearGradient id="paint1_linear_1212_53722" x1="65.2591" y1="21.4342" x2="65.2591" y2="28.3035" gradientUnits="userSpaceOnUse">
<stop stop-color="#B0BACC"/>
<stop offset="1" stop-color="#969EAE"/>
</linearGradient>
<linearGradient id="paint2_linear_1212_53722" x1="16.2259" y1="64.3016" x2="16.2259" y2="70.1707" gradientUnits="userSpaceOnUse">
<stop stop-color="#B0BACC"/>
<stop offset="1" stop-color="#969EAE"/>
</linearGradient>
<linearGradient id="paint3_linear_1212_53722" x1="73.5411" y1="45.8665" x2="73.5411" y2="134.693" gradientUnits="userSpaceOnUse">
<stop stop-color="#FDFEFF"/>
<stop offset="0.9964" stop-color="#ECF0F5"/>
</linearGradient>
</defs>
</svg>
