<svg width="160" height="160" viewBox="0 0 160 160" fill="none" xmlns="http://www.w3.org/2000/svg">
<g id="Frame 8884">
<g id="Empty Cart">
<g id="Group 47197">
<g id="Group">
<g id="63">
<g id="Group 870">
<g id="Group 867">
<g id="Group_2">
<path id="Vector" d="M58.6457 92.282C58.6483 92.3287 58.6536 92.4221 58.7037 92.4653C58.7064 92.512 58.7591 92.602 58.7618 92.6486C58.8119 92.6919 58.8172 92.7853 58.8673 92.8285C58.9174 92.8718 58.9676 92.915 59.0203 93.0049C59.2763 93.3146 59.7196 93.5637 60.2103 93.8094C60.308 93.8492 60.4531 93.8856 60.5507 93.9254C60.6008 93.9686 60.6958 93.9617 60.746 94.005C60.7961 94.0482 60.8911 94.0413 60.9412 94.0846L61.1338 94.1175C61.3766 94.1937 61.6668 94.2664 61.9544 94.2924C62.0996 94.3288 62.1946 94.3219 62.3397 94.3582C62.4347 94.3513 62.5323 94.3912 62.6748 94.3808C62.7698 94.3739 62.8674 94.4137 62.9624 94.4069C63.7276 94.4451 64.4374 94.3468 65.0416 94.0686C67.1341 93.1199 67.8968 91.4238 67.8968 91.4238C67.8968 91.4238 68.4747 91.5225 69.3823 91.5505C71.1054 91.66 73.9735 91.7802 76.4301 91.3677C77.2323 91.2158 78.0767 90.967 78.9659 90.6682C79.2456 90.5541 79.5253 90.4401 79.8525 90.3226C80.4119 90.0945 80.9212 89.8232 81.4779 89.5484C82.9609 88.7846 84.3357 87.7942 85.4677 86.7276C85.6049 86.6239 85.7395 86.4735 85.8767 86.3698C86.5074 85.7146 87.0404 85.0197 87.431 84.335C88.2042 82.8257 89.2755 81.5291 90.4445 80.2723C92.1993 78.4105 94.2998 76.7581 96.205 75.026C96.796 74.5143 97.3845 73.956 97.9281 73.4478C99.6908 71.726 101.248 69.7379 102.266 67.5076C103.369 65.0836 103.245 62.8892 102.911 60.335C102.903 60.195 102.523 58.5348 102.615 58.4812C103.438 57.859 104.011 57.0205 104.288 56.0159C104.937 53.9998 104.51 51.4993 103.515 49.9306C103.41 49.7507 103.304 49.5708 103.201 49.4376C102.159 47.8724 100.911 46.0408 99.5576 44.8731L97.1012 42.7541L76.8681 44.221C76.8681 44.221 76.707 45.5922 76.4695 47.2971C76.4299 47.4406 76.4378 47.5807 76.3982 47.7242C76.3665 48.0078 76.3348 48.2913 76.2557 48.5784C76.2161 48.7219 76.224 48.8619 76.1844 49.0055C76.187 49.0521 76.187 49.0521 76.1422 49.1023C76.1131 49.4326 76.034 49.7196 76.0049 50.0498C75.8677 50.9974 75.6776 51.855 75.4322 52.576C75.4348 52.6227 75.3926 52.7196 75.3952 52.7662C75.2739 53.1501 75.1498 53.4872 75.0205 53.731C73.9834 55.6346 68.4842 61.2839 64.6132 64.518C60.7421 67.7521 59.1718 72.8822 58.583 81.0352C57.849 89.1519 58.3687 90.755 58.6457 92.282Z" fill="#EAEEF9"/>
<path id="Vector_2" opacity="0.3" d="M58.6613 92.2748C58.8917 93.8097 62.8838 94.9781 64.9846 94.0266C67.1331 93.0717 67.8511 91.3741 67.8511 91.3741C67.8511 91.3741 72.6247 91.9687 76.4209 91.3647C79.266 90.8765 83.0358 88.9579 85.4439 86.6677L84.7079 79.5743C84.7079 79.5743 84.0698 73.3672 83.6302 70.672C83.2383 67.9734 85.4344 67.8613 85.1405 64.3563C84.799 60.8547 85.8775 54.5233 87.4143 48.6759L80.6593 44.3693L76.365 47.1722C76.0682 49.5446 75.5197 52.5464 74.9606 53.6683C73.9194 55.5774 68.3984 61.2432 64.512 64.4868C60.6256 67.7304 59.0491 72.8755 58.458 81.0523C57.8615 89.1355 58.3833 90.7433 58.6613 92.2748Z" fill="#C4D1E4"/>
<path id="Vector_3" opacity="0.2" d="M58.6821 92.2831C58.6847 92.3297 58.69 92.423 58.7401 92.4663C58.7427 92.5129 58.7954 92.6028 58.7981 92.6494C58.8482 92.6926 58.8534 92.7859 58.9035 92.8291C58.9536 92.8723 59.0037 92.9155 59.0564 93.0054C59.3122 93.3147 59.7551 93.5636 60.2455 93.8091C60.3431 93.8489 60.4881 93.8852 60.5856 93.925C60.6357 93.9682 60.7307 93.9613 60.7807 94.0045C60.8308 94.0477 60.9258 94.0409 60.9759 94.0841L61.1683 94.1169C61.4109 94.193 61.7009 94.2657 61.9883 94.2917C62.1333 94.328 62.2282 94.3211 62.3732 94.3575C63.014 93.8895 63.3778 93.5821 63.3778 93.5821C63.3778 93.5821 63.3778 93.5821 62.9983 91.9234C62.8744 91.4171 62.7399 90.7243 62.5449 89.8017C61.7093 85.9746 61.7044 78.2934 66.9856 78.1447C66.1948 74.2676 68.133 69.771 69.8759 66.8812C71.669 64.0346 73.1771 65.4241 74.9435 67.1696C75.0886 66.3628 74.0552 63.2527 72.853 60.5295C75.1309 62.8937 77.0794 63.6424 82.1839 63.7407C79.8004 62.0399 79.4604 61.081 77.3776 57.1101C79.7637 58.0144 84.5808 58.9299 87.4494 59.0967C94.3811 59.4841 100.295 58.7275 104.147 56.0595C104.796 54.0452 104.369 51.5469 103.375 49.9796C103.27 49.7999 103.164 49.6202 103.061 49.4871C99.3886 49.4255 93.1424 49.363 87.2759 49.2731C82.9835 49.2095 78.881 49.1322 76.1151 49.0985C76.1178 49.1451 76.1178 49.1451 76.0729 49.1952C76.0439 49.5252 75.9648 49.812 75.9358 50.142C75.7986 51.0887 75.6088 51.9455 75.3635 52.6659C75.3661 52.7126 75.324 52.8093 75.3266 52.8559C75.2053 53.2394 75.0813 53.5763 74.9521 53.8199C73.9158 55.7217 68.4208 61.366 64.5527 64.5973C60.6846 67.8285 59.1155 72.954 58.5271 81.0998C57.886 89.1558 58.4053 90.7575 58.6821 92.2831Z" fill="#BFC8D6"/>
</g>
<g id="Group_3">
<path id="Vector_4" d="M98.8196 54.4904C98.3582 54.8418 97.8476 55.1487 97.3352 55.4088C96.6368 55.772 95.8892 56.0907 95.1398 56.3625C92.8442 57.1805 90.4413 57.6754 87.9677 57.5639C85.9224 57.478 83.7734 57.1627 81.8434 56.3673C81.1691 56.1193 80.4912 55.7777 79.9081 55.4314C76.5533 53.3932 74.6876 51.797 74.8213 47.8494C74.955 43.9017 75.4563 40.8741 75.4563 40.8741C75.4912 40.5439 75.9016 40.1012 76.033 39.8132C76.2575 39.4736 76.4327 39.0896 76.6571 38.75C77.0586 38.0732 77.5057 37.3472 77.9563 36.7148C78.9488 35.3518 80.1399 34.2134 81.5823 33.4379C83.9091 32.1961 86.6036 31.8744 89.214 31.8383C91.1117 31.7908 93.0621 31.8814 94.8919 32.5411C96.4812 33.1188 97.7986 34.0385 98.9371 35.2486C100.174 36.5477 101.088 38.0974 102.141 39.5463C102.141 39.5463 102.872 42.5126 103.307 46.432C103.742 50.3514 102.004 52.08 98.8196 54.4904Z" fill="#EAEEF9"/>
<path id="Vector_5" d="M83.7935 46.9296C83.2424 47.4265 82.5956 49.1488 79.9479 48.2477C76.1915 46.9323 76.3878 42.134 78.3695 40.5331C81.9169 37.6336 85.7118 38.7123 86.4173 42.2452C87.1318 46.0124 84.8975 45.9827 83.7935 46.9296Z" fill="#BFC8D6"/>
<path id="Vector_6" d="M77.4759 34.8739C78.6636 33.5446 80.1593 34.0348 79.4579 35.6222C78.3169 38.1723 76.4545 39.3 75.3 48.9546C75.0795 50.6592 69.5424 46.6535 69.9302 40.6124C69.9821 39.4807 71.3996 39.175 71.3996 39.175C72.2502 38.9915 75.6037 36.99 77.4759 34.8739Z" fill="#989FB0"/>
<path id="Vector_7" d="M97.173 52.7957C97.2178 53.9649 96.9293 55.1039 96.3968 56.0676C95.7919 56.3788 95.1378 56.6457 94.4837 56.9125C92.4705 57.6218 90.3518 58.0552 88.2608 57.9717C86.503 57.9186 84.5925 57.5918 82.9061 56.926C82.2037 55.93 81.8291 54.824 81.7807 53.5612C81.6337 49.726 84.9727 46.4672 89.2352 46.2552C93.4503 46.0456 97.026 48.9605 97.173 52.7957Z" fill="#BFC8D6"/>
<path id="Vector_8" d="M81.6413 46.5191C83.1865 46.4422 84.3917 45.1422 84.3332 43.6154C84.2747 42.0886 82.9747 40.9133 81.4295 40.9902C79.8844 41.0671 78.6792 42.3671 78.7377 43.8939C78.7962 45.4206 80.0962 46.596 81.6413 46.5191Z" fill="white"/>
<path id="Vector_9" d="M84.0592 43.9143C84.104 45.0857 83.1459 46.1193 81.9604 46.1783C80.7749 46.2373 79.7414 45.3028 79.6965 44.1314C79.8934 44.3094 80.1359 44.4382 80.4204 44.424C80.942 44.3981 81.4001 43.9528 81.3785 43.3905C81.3588 42.8751 80.9158 42.4746 80.3924 42.4537C80.7592 42.1069 81.2737 41.8935 81.7953 41.8675C83.0282 41.8062 84.0125 42.6961 84.0592 43.9143Z" fill="#989FB0"/>
<path id="Vector_10" d="M97.1086 45.8438C98.6537 45.7669 99.8589 44.4669 99.8004 42.9401C99.7419 41.4133 98.4419 40.238 96.8968 40.3149C95.3516 40.3918 94.1464 41.6918 94.2049 43.2186C94.2634 44.7453 95.5634 45.9207 97.1086 45.8438Z" fill="white"/>
<path id="Vector_11" d="M94.5035 43.485C94.5483 44.6564 95.5819 45.5908 96.7674 45.5318C97.9528 45.4728 98.911 44.4393 98.8661 43.2679C98.6836 43.4647 98.4519 43.6171 98.1674 43.6313C97.6457 43.6572 97.1554 43.2591 97.1339 42.6968C97.1141 42.1814 97.5247 41.7385 98.0446 41.6657C97.6526 41.3566 97.1238 41.1951 96.6022 41.221C95.4167 41.28 94.4568 42.2667 94.5035 43.485Z" fill="#989FB0"/>
<path id="Vector_12" d="M89.2299 46.6923C88.8514 46.7111 88.4747 46.7765 88.0998 46.8886C87.632 47.0521 86.9313 47.3206 86.9546 47.9271C86.9833 48.6735 88.808 49.284 89.2811 49.2605C89.7542 49.2371 91.5269 48.4946 91.4965 47.7015C91.4678 46.9551 90.7492 46.7571 90.1306 46.6943C89.8449 46.6617 89.512 46.6315 89.2299 46.6923Z" fill="#989FB0"/>
<path id="Vector_13" d="M89.4799 49.126L89.3276 48.898L89.1934 49.1402C89.1934 49.1402 89.1134 50.7934 88.7512 51.3296C89.0026 51.647 89.2414 51.6352 89.3351 51.5834C89.4802 51.6233 89.719 51.6115 89.8974 51.2728C89.5927 50.8167 89.4799 49.126 89.4799 49.126Z" fill="#989FB0"/>
<path id="Vector_14" d="M81.004 37.7772C80.3478 37.9974 79.7863 38.213 79.3268 38.6111C78.8673 39.0091 78.5097 39.5898 78.3435 40.2078C78.3453 40.2546 78.2979 40.257 78.2505 40.2593C78.2031 40.2617 78.2013 40.2149 78.2013 40.2149C78.1888 39.8872 78.3166 39.5056 78.448 39.2176C78.5776 38.8828 78.8037 38.5902 79.0791 38.342C79.3544 38.0937 79.6316 37.8923 79.9579 37.7354C80.2861 37.6253 80.6634 37.5596 80.9987 37.6367C81.0478 37.6812 81.097 37.7256 81.004 37.7772C81.0514 37.7748 81.0514 37.7748 81.004 37.7772Z" fill="#989FB0"/>
<path id="Vector_15" d="M96.9759 37.0969C97.6465 37.2512 98.2224 37.4101 98.7106 37.7611C99.1988 38.112 99.5995 38.6549 99.8123 39.2541C99.8141 39.3009 99.8615 39.2985 99.9089 39.2962C99.9563 39.2938 99.9545 39.247 99.9545 39.247C99.9419 38.9193 99.7854 38.5519 99.6325 38.278C99.4778 37.9574 99.2301 37.6883 98.9368 37.4684C98.6435 37.2485 98.352 37.0754 98.0149 36.9514C97.6796 36.8743 97.2987 36.8464 96.9705 36.9565C96.9249 37.0057 96.9267 37.0525 96.9759 37.0969C96.9759 37.0969 96.9285 37.0993 96.9759 37.0969Z" fill="#989FB0"/>
<path id="Vector_16" d="M100.043 33.4504C98.7583 32.2441 97.3058 32.8809 98.126 34.3926C99.4578 36.8198 101.399 37.7582 103.288 47.2615C103.638 48.9378 108.848 44.3976 107.999 38.4179C107.861 37.2957 106.425 37.1319 106.425 37.1319C105.564 37.0336 102.07 35.3726 100.043 33.4504Z" fill="#989FB0"/>
</g>
<g id="Group_4">
<path id="Vector_17" d="M94.3232 54.3202C94.6647 56.6981 92.7208 57.6138 90.1713 57.926C87.6217 58.2383 85.4865 57.8223 85.1449 55.4444C84.8034 53.0664 86.5698 50.9142 89.1193 50.602C91.6688 50.2897 93.9816 51.9422 94.3232 54.3202Z" fill="#EAEEF9"/>
</g>
</g>
</g>
</g>
<path id="Vector_18" d="M41.3394 48.175C42.2144 48.175 42.8949 47.3889 42.8949 46.5045C42.8949 45.6201 42.2144 44.834 41.2421 44.834C40.3671 44.834 39.5894 45.5218 39.5894 46.5045C39.6866 47.3889 40.4644 48.175 41.3394 48.175Z" fill="#EAEEF9"/>
</g>
<path id="Vector_19" d="M39.6696 133.748H130.929" stroke="#D6DCE8" stroke-width="2" stroke-miterlimit="10" stroke-linejoin="round"/>
<path id="Vector_20" d="M29.2898 133.748H37.087" stroke="#D6DCE8" stroke-width="2" stroke-miterlimit="10" stroke-linejoin="round"/>
</g>
<g id="Group 47198">
<g id="Group_5">
<path id="Vector_21" d="M40.971 46.7572L36.9224 47.5698L39.9402 62.7163L43.9889 61.9036L40.971 46.7572Z" fill="#D5DDEA"/>
<path id="Vector_22" d="M55.8523 62.8345L53.2249 49.4604H32.018C31.0796 49.4604 30.3289 49.0836 29.7659 48.5185L28.2645 46.8232C27.7015 46.2581 28.0769 45.1279 29.0152 45.1279H54.9139C55.8523 45.1279 56.7906 45.8814 56.9783 46.8232L59.9811 61.8926L55.8523 62.8345Z" fill="#D5DDEA"/>
<path id="Vector_23" d="M117.596 133.472C121.639 133.472 124.915 130.183 124.915 126.126C124.915 122.068 121.639 118.779 117.596 118.779C113.554 118.779 110.277 122.068 110.277 126.126C110.277 130.183 113.554 133.472 117.596 133.472Z" fill="url(#paint0_linear_1212_55485)"/>
<path id="Vector_24" d="M65.9863 133.472C70.0285 133.472 73.3055 130.183 73.3055 126.126C73.3055 122.068 70.0285 118.779 65.9863 118.779C61.944 118.779 58.6671 122.068 58.6671 126.126C58.6671 130.183 61.944 133.472 65.9863 133.472Z" fill="url(#paint1_linear_1212_55485)"/>
<path id="Vector_25" d="M65.3497 108.738L61.3035 109.563L64.7411 126.546L68.7873 125.721L65.3497 108.738Z" fill="#D5DDEA"/>
<path id="Vector_26" d="M117.409 128.198H53.9756C53.0372 128.198 52.0988 127.444 51.9112 126.503L47.407 104.652C47.2194 103.522 47.9701 102.392 49.0961 102.203C50.2221 102.015 51.3481 102.768 51.5358 103.898L55.6646 124.054H117.596C118.722 124.054 119.661 124.996 119.661 126.126C119.661 127.256 118.722 128.198 117.409 128.198Z" fill="#D5DDEA"/>
<path id="Vector_27" d="M53.6002 133.472C57.6425 133.472 60.9194 130.183 60.9194 126.126C60.9194 122.068 57.6425 118.779 53.6002 118.779C49.5579 118.779 46.281 122.068 46.281 126.126C46.281 130.183 49.5579 133.472 53.6002 133.472Z" fill="url(#paint2_linear_1212_55485)"/>
<path id="Vector_28" d="M53.6003 129.705C55.5696 129.705 57.166 128.102 57.166 126.126C57.166 124.149 55.5696 122.547 53.6003 122.547C51.6309 122.547 50.0345 124.149 50.0345 126.126C50.0345 128.102 51.6309 129.705 53.6003 129.705Z" fill="#8691AA"/>
<path id="Vector_29" d="M105.21 133.472C109.252 133.472 112.529 130.183 112.529 126.126C112.529 122.068 109.252 118.779 105.21 118.779C101.168 118.779 97.8907 122.068 97.8907 126.126C97.8907 130.183 101.168 133.472 105.21 133.472Z" fill="url(#paint3_linear_1212_55485)"/>
<path id="Vector_30" d="M105.21 129.705C107.179 129.705 108.776 128.102 108.776 126.126C108.776 124.149 107.179 122.547 105.21 122.547C103.241 122.547 101.644 124.149 101.644 126.126C101.644 128.102 103.241 129.705 105.21 129.705Z" fill="#8691AA"/>
<g id="Vector_31" filter="url(#filter0_d_1212_55485)">
<path d="M132.61 61.3276L124.915 105.594C124.352 108.42 122.1 110.303 119.285 110.303H53.2247C50.4096 110.303 48.1575 108.42 47.5945 105.594L38.9616 61.3276H132.61Z" fill="url(#paint4_linear_1212_55485)"/>
</g>
<path id="Vector_32" d="M78.1849 104.276C79.1233 104.276 80.0617 103.522 80.0617 102.392V69.4276C80.0617 68.4858 79.311 67.5439 78.1849 67.5439C77.2466 67.5439 76.3082 68.2974 76.3082 69.4276V102.392C76.3082 103.522 77.0589 104.276 78.1849 104.276Z" fill="#E7EAF4"/>
<path id="Vector_33" d="M87.7563 104.275C88.6947 104.464 89.633 103.71 89.8207 102.58L93.0111 69.804C93.1988 68.8622 92.4481 67.9203 91.3221 67.732C90.3837 67.5436 89.4454 68.2971 89.2577 69.4273L86.0673 102.203C86.0673 103.333 86.6303 104.087 87.7563 104.275Z" fill="#E7EAF4"/>
<path id="Vector_34" d="M97.5153 104.087C98.4536 104.275 99.392 103.522 99.5796 102.58L105.585 70.1807C105.773 69.2389 105.022 68.297 104.084 68.1086C103.145 67.9203 102.207 68.6738 102.019 69.6156L96.2016 102.015C95.8262 102.957 96.5769 103.898 97.5153 104.087Z" fill="#E7EAF4"/>
<path id="Vector_35" d="M68.4261 104.275C67.4877 104.464 66.5493 103.71 66.3617 102.58L63.1713 69.804C62.9836 68.8622 63.7343 67.9203 64.8603 67.732C65.7987 67.5436 66.737 68.2971 66.9247 69.4273L70.1151 102.203C70.1151 103.333 69.5521 104.087 68.4261 104.275Z" fill="#E7EAF4"/>
<path id="Vector_36" d="M58.6673 104.087C57.729 104.275 56.7906 103.522 56.6029 102.58L50.5974 70.1807C50.4098 69.2389 51.1604 68.297 52.0988 68.1086C53.0372 67.9203 53.9755 68.6738 54.1632 69.6156L59.981 102.015C60.3564 102.957 59.6057 103.898 58.6673 104.087Z" fill="#E7EAF4"/>
</g>
<path id="Vector_37" d="M132.61 61.3267L124.916 105.593C124.353 108.419 122.101 110.302 119.286 110.302H101.832C105.023 110.302 107.65 108.042 108.213 105.028L116.283 61.3267H132.61Z" fill="#DBDFEC"/>
</g>
</g>
</g>
<defs>
<filter id="filter0_d_1212_55485" x="16.9616" y="50.3276" width="137.648" height="92.9756" filterUnits="userSpaceOnUse" color-interpolation-filters="sRGB">
<feFlood flood-opacity="0" result="BackgroundImageFix"/>
<feColorMatrix in="SourceAlpha" type="matrix" values="0 0 0 0 0 0 0 0 0 0 0 0 0 0 0 0 0 0 127 0" result="hardAlpha"/>
<feOffset dy="11"/>
<feGaussianBlur stdDeviation="11"/>
<feColorMatrix type="matrix" values="0 0 0 0 0.397708 0 0 0 0 0.47749 0 0 0 0 0.575 0 0 0 0.27 0"/>
<feBlend mode="normal" in2="BackgroundImageFix" result="effect1_dropShadow_1212_55485"/>
<feBlend mode="normal" in="SourceGraphic" in2="effect1_dropShadow_1212_55485" result="shape"/>
</filter>
<linearGradient id="paint0_linear_1212_55485" x1="110.27" y1="126.127" x2="124.918" y2="126.127" gradientUnits="userSpaceOnUse">
<stop stop-color="#B0BACC"/>
<stop offset="1" stop-color="#969EAE"/>
</linearGradient>
<linearGradient id="paint1_linear_1212_55485" x1="58.6603" y1="126.127" x2="73.3081" y2="126.127" gradientUnits="userSpaceOnUse">
<stop stop-color="#B0BACC"/>
<stop offset="1" stop-color="#969EAE"/>
</linearGradient>
<linearGradient id="paint2_linear_1212_55485" x1="46.2743" y1="126.127" x2="60.9221" y2="126.127" gradientUnits="userSpaceOnUse">
<stop stop-color="#B0BACC"/>
<stop offset="1" stop-color="#969EAE"/>
</linearGradient>
<linearGradient id="paint3_linear_1212_55485" x1="97.884" y1="126.127" x2="112.532" y2="126.127" gradientUnits="userSpaceOnUse">
<stop stop-color="#B0BACC"/>
<stop offset="1" stop-color="#969EAE"/>
</linearGradient>
<linearGradient id="paint4_linear_1212_55485" x1="85.7552" y1="60.1948" x2="85.7552" y2="110.831" gradientUnits="userSpaceOnUse">
<stop stop-color="#FDFEFF"/>
<stop offset="0.9964" stop-color="#ECF0F5"/>
</linearGradient>
</defs>
</svg>
