<svg width="20" height="20" viewBox="0 0 20 20" fill="none" xmlns="http://www.w3.org/2000/svg">
<path fill-rule="evenodd" clip-rule="evenodd" d="M18.8963 19.2949C19.5058 19.2949 20 18.8387 20 18.276V1.85227C20 1.28942 19.5057 0.833374 18.8963 0.833374H1.10381C0.494056 0.833374 0 1.28949 0 1.85227V18.2759C0 18.8387 0.494056 19.2948 1.10381 19.2948L18.8963 19.2949ZM13.7997 19.2949V12.1456H16.3994L16.7886 9.35939H13.7996V7.5805C13.7996 6.77383 14.0423 6.22412 15.2955 6.22412L16.8938 6.22343V3.73145C16.6174 3.69756 15.6685 3.62168 14.5648 3.62168C12.2603 3.62168 10.6826 4.9201 10.6826 7.30465V9.35939H8.07619V12.1456H10.6826V19.2948L13.7997 19.2949Z" fill="#1877F2"/>
</svg>
