<svg width="140" height="131" viewBox="0 0 140 131" fill="none" xmlns="http://www.w3.org/2000/svg">
<path d="M66.6429 116.546C94.1513 116.546 116.453 94.2449 116.453 66.6382C116.453 39.0315 94.0531 16.73 66.6429 16.73C39.1345 16.73 16.833 39.0315 16.833 66.6382C16.833 94.2449 39.1345 116.546 66.6429 116.546Z" fill="#EAEEF9"/>
<path d="M23.5003 105.886C15.7476 116.304 35.6139 144.65 69.2898 118.485C102.966 92.3191 79.7075 56.2204 59.5989 52.5864C39.4903 48.9523 17.2012 13.8227 45.3048 6.31228C73.4085 -1.19817 116.775 8.73501 92.3057 48.71C67.8362 88.685 47.243 96.9222 72.4394 104.19C92.5965 110.005 106.842 104.675 111.445 101.283" stroke="#D6DCE8" stroke-width="2" stroke-miterlimit="10" stroke-dasharray="4 4"/>
<g filter="url(#filter0_d_1212_53446)">
<path d="M30.3392 93.1289C27.6041 71.9069 31.0899 65.4947 34.6524 60.5369C36.6244 62.7982 38.0253 64.6954 38.0253 64.6954C37.688 64.2796 39.6388 60.9048 39.8208 60.6193C41.7199 57.0107 43.4369 53.6876 45.6215 50.2611C57.0639 33.2588 76.1375 21.925 95.5963 15.6562C99.2853 14.5945 102.974 13.5327 106.533 12.9903C108.403 12.5764 110.326 12.3962 112.196 11.9822C112.663 11.8787 117.495 11.5452 117.391 11.0776C110.987 28.6816 107.524 38.5222 109.983 48.5238C104.347 48.545 101.62 48.4128 95.6485 45.8104C102.107 56.153 105.484 55.8962 105.484 55.8962C105.484 55.8962 98.3281 71.2139 65.15 84.1979C68.1588 88.9275 69.483 89.3702 69.483 89.3702C69.483 89.3702 48.0198 100.988 33.5587 94.3783C30.3392 93.1289 30.3392 93.1289 30.3392 93.1289Z" fill="url(#paint0_linear_1212_53446)"/>
</g>
<path d="M17.8008 116.26C29.6896 93.518 44.1577 61.3762 72.8762 39.3239C101.777 16.9861 121.341 8.97724 121.341 8.97724L118.767 11.7541C118.767 11.7541 90.1348 24.2226 65.4121 51.0312C40.8714 77.5543 31.1902 100.298 24.4256 114.058C17.8008 116.26 17.8008 116.26 17.8008 116.26Z" fill="url(#paint1_linear_1212_53446)"/>
<defs>
<filter id="filter0_d_1212_53446" x="7.35826" y="0.0775909" width="132.035" height="129.334" filterUnits="userSpaceOnUse" color-interpolation-filters="sRGB">
<feFlood flood-opacity="0" result="BackgroundImageFix"/>
<feColorMatrix in="SourceAlpha" type="matrix" values="0 0 0 0 0 0 0 0 0 0 0 0 0 0 0 0 0 0 127 0" result="hardAlpha"/>
<feOffset dy="11"/>
<feGaussianBlur stdDeviation="11"/>
<feColorMatrix type="matrix" values="0 0 0 0 0.397708 0 0 0 0 0.47749 0 0 0 0 0.575 0 0 0 0.27 0"/>
<feBlend mode="normal" in2="BackgroundImageFix" result="effect1_dropShadow_1212_53446"/>
<feBlend mode="normal" in="SourceGraphic" in2="effect1_dropShadow_1212_53446" result="shape"/>
</filter>
<linearGradient id="paint0_linear_1212_53446" x1="66.7394" y1="20.0628" x2="82.1446" y2="89.6658" gradientUnits="userSpaceOnUse">
<stop stop-color="#FDFEFF"/>
<stop offset="0.9964" stop-color="#ECF0F5"/>
</linearGradient>
<linearGradient id="paint1_linear_1212_53446" x1="8.84677" y1="76.0677" x2="130.265" y2="49.1942" gradientUnits="userSpaceOnUse">
<stop stop-color="#B0BACC"/>
<stop offset="1" stop-color="#969EAE"/>
</linearGradient>
</defs>
</svg>
