<svg width="20" height="20" viewBox="0 0 20 20" fill="none" xmlns="http://www.w3.org/2000/svg">
<g clip-path="url(#clip0_102_1203)">
<path d="M19.5327 10.1871C19.5327 9.36767 19.4662 8.76973 19.3223 8.14966H9.96565V11.848H15.4578C15.3471 12.7671 14.7492 14.1512 13.4204 15.0813L13.4018 15.2051L16.3602 17.4969L16.5651 17.5174C18.4475 15.7789 19.5327 13.221 19.5327 10.1871Z" fill="#4285F4"/>
<path d="M9.96565 19.9313C12.6563 19.9313 14.9152 19.0454 16.5651 17.5174L13.4204 15.0813C12.5789 15.6682 11.4494 16.0779 9.96565 16.0779C7.33031 16.0779 5.09359 14.3395 4.29626 11.9366L4.17939 11.9466L1.10321 14.3273L1.06298 14.4391C2.70176 17.6945 6.06794 19.9313 9.96565 19.9313Z" fill="#34A853"/>
<path d="M4.29626 11.9366C4.08588 11.3165 3.96412 10.6521 3.96412 9.96559C3.96412 9.27902 4.08588 8.61467 4.28519 7.9946L4.27962 7.86253L1.16489 5.4436L1.06298 5.49208C0.387557 6.84299 0 8.36002 0 9.96559C0 11.5712 0.387557 13.0881 1.06298 14.439L4.29626 11.9366Z" fill="#FBBC05"/>
<path d="M9.96565 3.85336C11.8369 3.85336 13.0992 4.66168 13.819 5.33718L16.6315 2.59107C14.9042 0.985496 12.6563 0 9.96565 0C6.06794 0 2.70176 2.23672 1.06298 5.49214L4.28519 7.99466C5.09359 5.59183 7.33031 3.85336 9.96565 3.85336Z" fill="#EB4335"/>
</g>
<defs>
<clipPath id="clip0_102_1203">
<rect width="20" height="20" fill="white"/>
</clipPath>
</defs>
</svg>
