<svg width="32" height="32" viewBox="0 0 32 32" fill="none" xmlns="http://www.w3.org/2000/svg">
<rect width="32" height="32" rx="16" fill="#FFC42C"/>
<path d="M21.36 12.5468L17.52 9.86012C16.4733 9.12679 14.8667 9.16679 13.86 9.94679L10.52 12.5535C9.85333 13.0735 9.32666 14.1401 9.32666 14.9801V19.5801C9.32666 21.2801 10.7067 22.6668 12.4067 22.6668H19.5933C21.2933 22.6668 22.6733 21.2868 22.6733 19.5868V15.0668C22.6733 14.1668 22.0933 13.0601 21.36 12.5468ZM16.5 20.0001C16.5 20.2735 16.2733 20.5001 16 20.5001C15.7267 20.5001 15.5 20.2735 15.5 20.0001V18.0001C15.5 17.7268 15.7267 17.5001 16 17.5001C16.2733 17.5001 16.5 17.7268 16.5 18.0001V20.0001Z" fill="#202C38"/>
</svg>
