<svg width="20" height="20" viewBox="0 0 20 20" fill="none" xmlns="http://www.w3.org/2000/svg">
<path d="M15.3001 18.9583H4.65839C3.39172 18.9583 2.23338 18.3167 1.56672 17.2333C0.900051 16.15 0.841718 14.8333 1.40838 13.6917L2.84172 10.8167C3.30838 9.88334 4.05839 9.3 4.90005 9.20834C5.74172 9.11667 6.60005 9.53334 7.25005 10.3417L7.43339 10.575C7.80005 11.025 8.22505 11.2667 8.64172 11.225C9.05838 11.1917 9.44172 10.8917 9.72505 10.3833L11.3001 7.54167C11.9501 6.36667 12.8167 5.75834 13.7584 5.8C14.6917 5.85 15.4917 6.55 16.0251 7.78334L18.6334 13.875C19.1167 15 19.0001 16.2833 18.3251 17.3083C17.6584 18.35 16.5251 18.9583 15.3001 18.9583ZM5.13338 10.4583C5.10005 10.4583 5.06672 10.4583 5.03338 10.4667C4.61672 10.5083 4.23338 10.8417 3.95838 11.3833L2.52505 14.2583C2.15005 15 2.19172 15.875 2.62505 16.5833C3.05838 17.2917 3.82505 17.7167 4.65839 17.7167H15.2917C16.1084 17.7167 16.8334 17.325 17.2834 16.6417C17.7334 15.9583 17.8084 15.1417 17.4834 14.3917L14.8751 8.3C14.5584 7.55 14.1167 7.09167 13.6917 7.075C13.3001 7.05 12.7917 7.46667 12.3917 8.175L10.8167 11.0167C10.3334 11.8833 9.57505 12.425 8.75005 12.5C7.92505 12.5667 7.08338 12.1667 6.45838 11.3833L6.27505 11.15C5.92505 10.6917 5.52505 10.4583 5.13338 10.4583Z" fill="#676E72"/>
<path d="M5.80835 7.29166C4.09168 7.29166 2.68335 5.89166 2.68335 4.16666C2.68335 2.44166 4.08335 1.04166 5.80835 1.04166C7.53335 1.04166 8.93335 2.44166 8.93335 4.16666C8.93335 5.89166 7.53335 7.29166 5.80835 7.29166ZM5.80835 2.29166C4.77502 2.29166 3.93335 3.13333 3.93335 4.16666C3.93335 5.2 4.77502 6.04166 5.80835 6.04166C6.84168 6.04166 7.68335 5.2 7.68335 4.16666C7.68335 3.13333 6.84168 2.29166 5.80835 2.29166Z" fill="#676E72"/>
</svg>
