<svg width="20" height="16" viewBox="0 0 20 16" fill="none" xmlns="http://www.w3.org/2000/svg">
<path d="M20 2.79172V13.2083C20 14.4751 18.9751 15.5 17.7083 15.5H2.29172C2.08328 15.5 1.88339 15.475 1.69998 15.4167C0.716705 15.1584 0 14.2666 0 13.2083V2.79172C0 1.52493 1.02493 0.5 2.29172 0.5H17.7083C18.9751 0.5 20 1.52493 20 2.79172Z" fill="#FFF4D9"/>
<path d="M5.83328 4.66672C5.83328 5.58713 5.08713 6.33328 4.16672 6.33328C3.24615 6.33328 2.5 5.58713 2.5 4.66672C2.5 3.74615 3.24615 3 4.16672 3C5.08713 3 5.83328 3.74615 5.83328 4.66672Z" fill="#FF9D0A"/>
<path d="M20 11.2856V13.2105C20 14.4773 18.975 15.5022 17.7083 15.5022H2.29169C2.08325 15.5022 1.88336 15.4772 1.69995 15.4189L11.8834 5.23547C12.4499 4.66891 13.3833 4.66891 13.95 5.23547L20 11.2856Z" fill="#F5B102"/>
<path d="M14.2166 15.4997H2.29172C2.08328 15.4997 1.88339 15.4747 1.69998 15.4164C0.716705 15.1581 0 14.2664 0 13.208V12.9497L4.79996 8.14973C5.36667 7.58302 6.30005 7.58302 6.86661 8.14973L14.2166 15.4997Z" fill="#FFC42C"/>
</svg>
