<svg width="20" height="20" viewBox="0 0 20 20" fill="#202C38" xmlns="http://www.w3.org/2000/svg">
<path d="M9.99999 11.8084C8.22499 11.8084 6.77499 10.3667 6.77499 8.58336C6.77499 6.80003 8.22499 5.36669 9.99999 5.36669C11.775 5.36669 13.225 6.80836 13.225 8.59169C13.225 10.375 11.775 11.8084 9.99999 11.8084ZM9.99999 6.61669C8.91666 6.61669 8.02499 7.50003 8.02499 8.59169C8.02499 9.68336 8.90833 10.5667 9.99999 10.5667C11.0917 10.5667 11.975 9.68336 11.975 8.59169C11.975 7.50003 11.0833 6.61669 9.99999 6.61669Z" />
<path d="M9.99999 18.9667C8.76666 18.9667 7.52499 18.5 6.55833 17.575C4.09999 15.2084 1.38333 11.4334 2.40833 6.94169C3.33333 2.86669 6.89166 1.04169 9.99999 1.04169C9.99999 1.04169 9.99999 1.04169 10.0083 1.04169C13.1167 1.04169 16.675 2.86669 17.6 6.95003C18.6167 11.4417 15.9 15.2084 13.4417 17.575C12.475 18.5 11.2333 18.9667 9.99999 18.9667ZM9.99999 2.29169C7.57499 2.29169 4.45833 3.58336 3.63333 7.21669C2.73333 11.1417 5.19999 14.525 7.43333 16.6667C8.87499 18.0584 11.1333 18.0584 12.575 16.6667C14.8 14.525 17.2667 11.1417 16.3833 7.21669C15.55 3.58336 12.425 2.29169 9.99999 2.29169Z" />
</svg>
