<svg width="20" height="20" viewBox="0 0 20 20" fill="none" xmlns="http://www.w3.org/2000/svg">
<path d="M15 8.95829C14.6583 8.95829 14.375 8.67496 14.375 8.33329V6.66663C14.375 4.04163 13.6333 2.29163 10 2.29163C6.36667 2.29163 5.625 4.04163 5.625 6.66663V8.33329C5.625 8.67496 5.34167 8.95829 5 8.95829C4.65833 8.95829 4.375 8.67496 4.375 8.33329V6.66663C4.375 4.24996 4.95833 1.04163 10 1.04163C15.0417 1.04163 15.625 4.24996 15.625 6.66663V8.33329C15.625 8.67496 15.3417 8.95829 15 8.95829Z" fill="#202C38"/>
<path d="M14.1667 18.9584H5.83332C2.15832 18.9584 1.04166 17.8417 1.04166 14.1667V12.5C1.04166 8.82504 2.15832 7.70837 5.83332 7.70837H14.1667C17.8417 7.70837 18.9583 8.82504 18.9583 12.5V14.1667C18.9583 17.8417 17.8417 18.9584 14.1667 18.9584ZM5.83332 8.95837C2.84999 8.95837 2.29166 9.52504 2.29166 12.5V14.1667C2.29166 17.1417 2.84999 17.7084 5.83332 17.7084H14.1667C17.15 17.7084 17.7083 17.1417 17.7083 14.1667V12.5C17.7083 9.52504 17.15 8.95837 14.1667 8.95837H5.83332Z" fill="#202C38"/>
<path d="M6.66668 14.1667C6.55834 14.1667 6.45001 14.1417 6.35001 14.1001C6.24167 14.0584 6.15835 14 6.07502 13.925C5.92502 13.7667 5.83334 13.5584 5.83334 13.3334C5.83334 13.2251 5.85833 13.1167 5.9 13.0167C5.94167 12.9084 6.00002 12.8251 6.07502 12.7417C6.15835 12.6667 6.24167 12.6084 6.35001 12.5667C6.65001 12.4334 7.025 12.5084 7.25834 12.7417C7.33334 12.8251 7.39169 12.9167 7.43335 13.0167C7.47502 13.1167 7.50001 13.2251 7.50001 13.3334C7.50001 13.5501 7.40834 13.7667 7.25834 13.925C7.1 14.075 6.88334 14.1667 6.66668 14.1667Z" fill="#202C38"/>
<path d="M9.99999 14.1667C9.78332 14.1667 9.56666 14.075 9.40833 13.925C9.25833 13.7667 9.16666 13.5583 9.16666 13.3333C9.16666 13.225 9.18331 13.1167 9.23331 13.0167C9.27498 12.9167 9.33333 12.825 9.40833 12.7417C9.6 12.55 9.89166 12.4583 10.1583 12.5167C10.2167 12.525 10.2667 12.5417 10.3167 12.5667C10.3667 12.5833 10.4167 12.6084 10.4667 12.6417C10.5083 12.6667 10.55 12.7083 10.5916 12.7417C10.6666 12.825 10.725 12.9167 10.7667 13.0167C10.8083 13.1167 10.8333 13.225 10.8333 13.3333C10.8333 13.5583 10.7416 13.7667 10.5916 13.925C10.55 13.9583 10.5083 13.9917 10.4667 14.025C10.4167 14.0583 10.3667 14.0834 10.3167 14.1C10.2667 14.125 10.2167 14.1417 10.1583 14.15C10.1083 14.1584 10.05 14.1667 9.99999 14.1667Z" fill="#202C38"/>
<path d="M13.3333 14.1667C13.1083 14.1667 12.9 14.075 12.7417 13.925C12.6667 13.8417 12.6083 13.75 12.5667 13.65C12.525 13.55 12.5 13.4417 12.5 13.3333C12.5 13.1167 12.5917 12.9 12.7417 12.7417C12.7833 12.7083 12.825 12.675 12.8667 12.6417C12.9167 12.6084 12.9667 12.5833 13.0167 12.5667C13.0667 12.5417 13.1167 12.525 13.1667 12.5167C13.4417 12.4583 13.725 12.55 13.925 12.7417C14.075 12.9 14.1667 13.1083 14.1667 13.3333C14.1667 13.4417 14.1417 13.55 14.1 13.65C14.0583 13.7583 14 13.8417 13.925 13.925C13.7667 14.075 13.55 14.1667 13.3333 14.1667Z" fill="#202C38"/>
</svg>
