<svg width="32" height="32" viewBox="0 0 32 32" fill="none" xmlns="http://www.w3.org/2000/svg">
<g id="man 1" clip-path="url(#clip0_899_33056)">
<path id="Vector" d="M16.0026 0.00195312C7.16752 0.00195312 0.00524902 7.16423 0.00524902 15.9993C0.00524902 21.4226 2.70412 26.2156 6.83172 29.1082V29.1089C12.3265 32.9594 19.6726 32.9636 25.1735 29.1089V29.1082C29.3011 26.2156 32 21.4226 32 15.9993C32 7.1643 24.8377 0.00195312 16.0026 0.00195312Z" fill="#CBE3FA"/>
<path id="Vector_2" d="M16.8153 3.69794C9.77807 5.29968 4.34641 11.8939 4.07755 19.11C3.99536 21.316 0.855115 21.6082 0.379952 19.4525C-1.85589 9.30744 6.06895 -0.279409 16.4539 0.00826795C18.6345 0.0686718 18.9423 3.21381 16.8153 3.69794Z" fill="#EEF7FF"/>
<path id="Vector_3" d="M22.978 25.3119C20.2189 24.3631 20.2629 24.3905 19.9861 24.2486C18.8634 23.6774 18.2009 22.5083 18.2009 21.4063C20.4254 20.543 22.0017 18.382 22.0017 15.8527V15.6645C22.8924 15.6645 23.5186 14.9732 23.5186 14.1896C23.5186 14.0517 23.5186 11.1832 23.5186 11.1832C23.5145 1.22341 8.48663 1.22341 8.48663 11.1873V14.1896C8.48663 14.9721 9.11135 15.6645 10.0036 15.6645V15.8527C10.0036 18.3778 11.5744 20.5354 13.7927 21.4015C13.7927 22.682 12.9618 23.9565 11.6034 24.4258L9.02723 25.3119C7.71365 25.7635 6.83173 26.9992 6.83173 28.3886V29.1085C12.3266 32.959 19.6727 32.9632 25.1735 29.1085C25.1735 28.6873 25.1735 28.8079 25.1735 28.3886C25.1735 26.9993 24.2916 25.7636 22.978 25.3119Z" fill="#E0B7A3"/>
<path id="Vector_4" d="M23.5187 11.1832V14.1896C23.5187 14.9721 22.8939 15.6645 22.0017 15.6645V11.9492C22.0017 9.54757 19.2028 8.13538 17.2024 9.77718C16.5357 10.3247 15.4965 10.3467 14.8028 9.77718C12.8025 8.13538 10.0036 9.54757 10.0036 11.9492V15.6645C9.11288 15.6645 8.48663 14.9732 8.48663 14.1896C8.48663 14.0551 8.48663 11.3121 8.48663 11.1873C8.48663 1.22341 23.5145 1.22341 23.5187 11.1832Z" fill="#42434D"/>
<path id="Vector_5" d="M25.1735 28.3889V29.1088C19.6787 32.9593 12.3326 32.9635 6.83173 29.1088C6.83173 28.6874 6.83173 28.8084 6.83173 28.3889C6.83173 26.9995 7.71365 25.7639 9.02723 25.3122C11.872 24.3339 11.7614 24.384 12.0398 24.2393C13.5934 27.6787 18.4264 27.6787 19.9854 24.2496C19.9924 24.2426 20.0952 24.3205 20.4019 24.4261L22.978 25.3122C24.2916 25.7639 25.1735 26.9995 25.1735 28.3889Z" fill="#80AAFF"/>
<path id="Vector_6" d="M31.6476 4.21362C32.1131 4.69492 32.1131 5.45824 31.6476 5.93954L31.5442 6.04711C31.278 6.32224 31.1532 6.70425 31.207 7.08349L31.2284 7.23175C31.3215 7.8944 30.8733 8.51223 30.2134 8.62807L30.0665 8.65358C29.6893 8.71978 29.3639 8.95629 29.1846 9.29417L29.115 9.42587C28.8005 10.0175 28.0744 10.2533 27.4732 9.95957L27.3394 9.89407C26.9953 9.72582 26.5926 9.72582 26.2485 9.89407L26.1148 9.95957C25.5135 10.2533 24.7874 10.0175 24.473 9.42587L24.4033 9.29417C24.224 8.95629 23.8986 8.71978 23.5214 8.65358L23.3745 8.62807C22.7146 8.51223 22.2664 7.8944 22.3595 7.23175L22.3809 7.08349C22.4347 6.70425 22.3099 6.32224 22.0437 6.04711L21.9403 5.93954C21.4748 5.45824 21.4748 4.69492 21.9403 4.21362L22.0437 4.10605C22.3099 3.83092 22.4347 3.44823 22.3809 3.06967L22.3595 2.92142C22.2664 2.25877 22.7146 1.64094 23.3745 1.52509L23.5214 1.49958C23.8986 1.43339 24.224 1.19687 24.4033 0.858996L24.473 0.726604C24.7874 0.135667 25.5135 -0.100157 26.1148 0.193588L26.2485 0.259095C26.5926 0.427343 26.9953 0.427343 27.3394 0.259095L27.4732 0.193588C28.0744 -0.100157 28.8005 0.135667 29.115 0.726604L29.1846 0.858996C29.3639 1.19687 29.6893 1.43339 30.0665 1.49958L30.2134 1.52509C30.8733 1.64094 31.3215 2.25877 31.2284 2.92142L31.207 3.06967C31.1532 3.44823 31.278 3.83092 31.5442 4.10605L31.6476 4.21362Z" fill="#9CBCFF"/>
<path id="Vector_7" d="M25.8019 7.14911L24.8103 6.15755C24.5949 5.94214 24.5949 5.59288 24.8103 5.37747C25.0258 5.16206 25.375 5.16206 25.5905 5.37747L26.167 5.95406L28.4685 3.34946C28.6702 3.12115 29.0188 3.09964 29.2471 3.30133C29.4755 3.50309 29.497 3.85165 29.2952 4.07996L26.6052 7.12429C26.3949 7.36245 26.0269 7.37411 25.8019 7.14911Z" fill="white"/>
<path id="Vector_8" d="M31.6476 5.93984C31.6172 5.98693 31.1068 6.37666 31.207 7.08379L31.2284 7.23204C31.3215 7.89469 30.8733 8.51252 30.2134 8.62836L30.0665 8.65387C29.6894 8.72007 29.3639 8.95658 29.1846 9.29446L29.115 9.42616C28.8005 10.0178 28.0744 10.2536 27.4732 9.95987L27.3394 9.89436C26.9953 9.72591 26.5926 9.72591 26.2485 9.89436L26.1148 9.95987C25.5135 10.2536 24.7874 10.0178 24.473 9.42616C24.441 9.38693 24.2277 8.77785 23.5214 8.65387C23.5036 8.64615 23.3551 8.63884 23.1677 8.57244C22.9143 8.48259 23.0395 8.10079 23.2984 8.17333C26.9402 9.19434 30.462 6.44003 30.403 2.69595C30.3946 2.16563 31.1946 2.11998 31.2368 2.64865C31.2439 2.73795 31.2414 2.82938 31.2284 2.92171C31.2311 2.97053 31.0446 3.58995 31.5442 4.10634L31.6476 4.21391C32.1131 4.69521 32.1131 5.45854 31.6476 5.93984Z" fill="#80AAFF"/>
<path id="Vector_9" d="M18.064 5.09382C15.0993 5.09582 12.1362 6.64874 11.02 9.75237C10.4084 10.2661 10.0036 11.0363 10.0036 11.9499V15.6652C9.11288 15.6652 8.48663 14.9739 8.48663 14.1903V11.188C8.48663 5.21504 13.8874 2.82268 18.2143 4.01035C18.8357 4.18101 18.7084 5.09341 18.064 5.09382Z" fill="#585966"/>
<path id="Vector_10" d="M15.1753 19.697C16.2463 20.2894 15.5676 21.9216 14.387 21.599C11.8464 20.9045 10.0036 18.586 10.0036 15.8535C10.0036 11.6146 10.0027 11.9188 10.0058 11.8363C10.0551 10.5061 12.0511 10.5419 12.0778 11.8728C12.091 12.5336 12.0887 13.3686 12.0723 14.4744C12.0375 16.8174 13.3814 18.7048 15.1753 19.697Z" fill="#F0CCB6"/>
<path id="Vector_11" d="M18.3162 22.1976C18.3937 22.4808 18.2429 22.7771 17.965 22.8715C16.7317 23.2903 15.2946 23.3006 14.0298 22.8679C13.7558 22.7742 13.6063 22.4833 13.6815 22.2036C13.7966 21.775 13.7857 21.4611 13.7927 21.4014C15.1765 21.9426 16.7999 21.9499 18.2009 21.4062C18.2029 21.4223 18.1948 21.7545 18.3162 22.1976Z" fill="#C79A83"/>
<path id="Vector_12" d="M12.9197 25.5364C13.0991 25.7194 13.031 26.0254 12.7887 26.1087L11.0958 26.6912C9.78222 27.1429 8.90029 28.3785 8.90029 29.7679C8.90029 30.0309 8.61889 30.1967 8.38762 30.0713C7.84964 29.7797 7.33007 29.4582 6.83167 29.1088V28.3889C6.83167 26.9995 7.71449 25.7664 9.02717 25.3122C11.5947 24.4238 11.6792 24.4267 12.0398 24.2393C12.2687 24.7462 12.5691 25.1786 12.9197 25.5364Z" fill="#9CBCFF"/>
</g>
<defs>
<clipPath id="clip0_899_33056">
<rect width="32" height="32" fill="white"/>
</clipPath>
</defs>
</svg>
