<svg width="24" height="24" viewBox="0 0 24 24" fill="none" xmlns="http://www.w3.org/2000/svg">
<rect width="24" height="24" rx="12" fill="#F5B102"/>
<path d="M17.7467 9.63366C17.0467 6.55366 14.3601 5.16699 12.0001 5.16699C12.0001 5.16699 12.0001 5.16699 11.9934 5.16699C9.64006 5.16699 6.94673 6.54699 6.24673 9.62699C5.46673 13.067 7.5734 15.9803 9.48006 17.8137C10.1867 18.4937 11.0934 18.8337 12.0001 18.8337C12.9067 18.8337 13.8134 18.4937 14.5134 17.8137C16.4201 15.9803 18.5267 13.0737 17.7467 9.63366ZM12.0001 12.9737C10.8401 12.9737 9.90006 12.0337 9.90006 10.8737C9.90006 9.71366 10.8401 8.77366 12.0001 8.77366C13.1601 8.77366 14.1001 9.71366 14.1001 10.8737C14.1001 12.0337 13.1601 12.9737 12.0001 12.9737Z" fill="#202C38"/>
</svg>
