<svg width="19" height="18" viewBox="0 0 19 18" fill="none" xmlns="http://www.w3.org/2000/svg">
<g id="vuesax/outline/menu">
<g id="vuesax/outline/menu_2">
<g id="menu">
<path id="Vector" d="M16.25 5.8125H2.75C2.4425 5.8125 2.1875 5.5575 2.1875 5.25C2.1875 4.9425 2.4425 4.6875 2.75 4.6875H16.25C16.5575 4.6875 16.8125 4.9425 16.8125 5.25C16.8125 5.5575 16.5575 5.8125 16.25 5.8125Z" fill="#202C38"/>
<path id="Vector_2" d="M16.25 9.5625H2.75C2.4425 9.5625 2.1875 9.3075 2.1875 9C2.1875 8.6925 2.4425 8.4375 2.75 8.4375H16.25C16.5575 8.4375 16.8125 8.6925 16.8125 9C16.8125 9.3075 16.5575 9.5625 16.25 9.5625Z" fill="#202C38"/>
<path id="Vector_3" d="M16.25 13.3125H2.75C2.4425 13.3125 2.1875 13.0575 2.1875 12.75C2.1875 12.4425 2.4425 12.1875 2.75 12.1875H16.25C16.5575 12.1875 16.8125 12.4425 16.8125 12.75C16.8125 13.0575 16.5575 13.3125 16.25 13.3125Z" fill="#202C38"/>
</g>
</g>
</g>
</svg>
