<svg width="21" height="20" viewBox="0 0 21 20" fill="none" xmlns="http://www.w3.org/2000/svg">
<path d="M14.0333 1.66663H6.96667C4.66667 1.66663 3.83333 2.49996 3.83333 4.84163V15.1583C3.83333 17.5 4.66667 18.3333 6.96667 18.3333H14.025C16.3333 18.3333 17.1667 17.5 17.1667 15.1583V4.84163C17.1667 2.49996 16.3333 1.66663 14.0333 1.66663ZM10.5 16.0833C9.7 16.0833 9.04167 15.425 9.04167 14.625C9.04167 13.825 9.7 13.1666 10.5 13.1666C11.3 13.1666 11.9583 13.825 11.9583 14.625C11.9583 15.425 11.3 16.0833 10.5 16.0833ZM12.1667 5.20829H8.83333C8.49167 5.20829 8.20833 4.92496 8.20833 4.58329C8.20833 4.24163 8.49167 3.95829 8.83333 3.95829H12.1667C12.5083 3.95829 12.7917 4.24163 12.7917 4.58329C12.7917 4.92496 12.5083 5.20829 12.1667 5.20829Z" fill="#292D32"/>
</svg>
