<svg width="14" height="14" viewBox="0 0 14 14" fill="none" xmlns="http://www.w3.org/2000/svg">
<g clip-path="url(#clip0_5822_3976)">
<path d="M13.4104 3.38043C13.406 3.06726 13.1709 2.80635 12.8603 2.76621C9.99355 2.39567 8.0032 0.780315 7.29024 0.114413C7.12691 -0.0381377 6.87305 -0.0381377 6.70973 0.114413C5.99677 0.780315 4.00644 2.39567 1.1397 2.76621C0.829098 2.80635 0.593915 3.06729 0.589567 3.38043C0.561266 5.43119 0.915122 12.4788 7.00001 14C13.0849 12.4788 13.4388 5.43119 13.4104 3.38043Z" fill="url(#paint0_linear_5822_3976)"/>
<path d="M7.86609 13.733C7.90872 13.7172 7.95104 13.7011 7.99304 13.6848C8.04729 13.6636 8.101 13.642 8.15418 13.6199C8.18915 13.6053 8.22391 13.5906 8.25841 13.5757C8.31277 13.5521 8.36664 13.5281 8.41988 13.5036C8.43989 13.4944 8.45977 13.485 8.47962 13.4757C8.52871 13.4525 8.57727 13.4289 8.62537 13.4049C8.69518 13.3701 8.764 13.3344 8.83179 13.2979C8.89656 13.263 8.96063 13.2275 9.0236 13.1911C9.09593 13.1493 9.16702 13.1064 9.23702 13.0627C9.23861 13.0617 9.24025 13.0607 9.24189 13.0597C9.375 12.9764 9.5037 12.8895 9.6285 12.7996C9.63788 12.7928 9.64742 12.7862 9.65675 12.7794C9.74783 12.7131 9.83653 12.645 9.92327 12.5754C9.93191 12.5685 9.94071 12.5617 9.9493 12.5547C9.99841 12.515 10.0466 12.4745 10.0944 12.4338C10.1389 12.3958 10.1831 12.3575 10.2264 12.3186C10.2411 12.3055 10.2554 12.2922 10.2699 12.279C10.2851 12.2651 10.3004 12.2514 10.3154 12.2375C10.3601 12.1961 10.404 12.1541 10.4474 12.1118C10.4611 12.0985 10.4749 12.0853 10.4885 12.0718C10.5355 12.0253 10.5817 11.9782 10.6273 11.9307C10.6365 11.9211 10.6459 11.9115 10.6551 11.9019C10.7087 11.8453 10.7614 11.7881 10.813 11.7303C10.8137 11.7294 10.8145 11.7286 10.8153 11.7278C10.8807 11.6545 10.9442 11.58 11.0064 11.5047C11.0438 11.4595 11.0808 11.414 11.1171 11.3681C11.1887 11.2775 11.258 11.1855 11.3253 11.0925C11.326 11.0915 11.3268 11.0905 11.3276 11.0894C11.3433 11.0675 11.3588 11.0456 11.3744 11.0236C11.3812 11.0141 11.3881 11.0045 11.3948 10.9949C11.4057 10.9794 11.4164 10.9637 11.4272 10.9481C11.4383 10.932 11.4496 10.9159 11.4607 10.8997C11.4967 10.8468 11.5319 10.7935 11.5667 10.7399C11.6156 10.6646 11.6634 10.5887 11.7097 10.5122C11.7668 10.4181 11.8219 10.3231 11.8753 10.2275C11.8776 10.2234 11.8799 10.2195 11.8822 10.2154C11.894 10.1941 11.9056 10.1727 11.9173 10.1513C11.9238 10.1393 11.9305 10.1274 11.937 10.1154C11.9702 10.054 12.0026 9.9922 12.0344 9.93027C12.0372 9.92491 12.04 9.91955 12.0427 9.91422C12.0556 9.88909 12.0682 9.8639 12.0807 9.83869C12.085 9.83011 12.0894 9.82157 12.0937 9.81296C12.1006 9.79904 12.1073 9.78507 12.1141 9.77112C12.1571 9.68352 12.1988 9.59552 12.2391 9.50715C12.3101 9.35107 12.3769 9.19398 12.4397 9.03645C12.4594 8.98726 12.4788 8.93804 12.4976 8.8888C12.5473 8.75889 12.5943 8.62876 12.6389 8.49866C12.6417 8.49054 12.6446 8.48244 12.6473 8.47432C12.6558 8.44946 12.664 8.42464 12.6723 8.39975C12.6756 8.39007 12.6789 8.38037 12.6821 8.37069C12.7135 8.27537 12.7436 8.18013 12.7725 8.08505C12.775 8.07677 12.7777 8.06846 12.7801 8.06012C12.7953 8.0097 12.8101 7.95936 12.8246 7.90904C12.8408 7.85293 12.8566 7.79688 12.8719 7.74093C12.8949 7.65715 12.9168 7.57362 12.9379 7.49038C12.9505 7.44084 12.9629 7.39134 12.9747 7.34204C12.98 7.32025 12.9851 7.29854 12.9903 7.27677C12.9931 7.26474 12.996 7.25271 12.9989 7.24068C13.0128 7.18132 13.0261 7.12217 13.0391 7.06322C13.0409 7.05515 13.0428 7.04709 13.0445 7.03902C13.0553 6.9898 13.0657 6.9408 13.0758 6.89191C13.0815 6.86443 13.0872 6.837 13.0927 6.80963C13.1038 6.75462 13.1146 6.69979 13.125 6.6453C13.1252 6.64401 13.1255 6.6427 13.1257 6.64139C13.1354 6.59039 13.1447 6.53964 13.1538 6.48911C13.1622 6.44219 13.1705 6.39543 13.1784 6.34895C13.1876 6.29483 13.1964 6.24113 13.205 6.18764C13.2066 6.1775 13.2082 6.16727 13.2098 6.15716C13.2113 6.14816 13.2126 6.13925 13.214 6.13025C13.2175 6.10761 13.2211 6.08494 13.2245 6.06241C13.2328 6.00742 13.2407 5.95287 13.2483 5.8987C13.2494 5.89083 13.2506 5.8829 13.2517 5.87505C13.2545 5.85484 13.2572 5.83477 13.2599 5.81468C13.2614 5.80398 13.2628 5.79327 13.2643 5.78263C13.2655 5.77355 13.2666 5.76455 13.2678 5.75553C13.2788 5.67276 13.2889 5.59098 13.2983 5.51037C13.3188 5.33419 13.3358 5.16343 13.3499 4.99909C13.3501 4.99663 13.3504 4.99409 13.3506 4.99163C13.3541 4.9505 13.3574 4.9099 13.3605 4.86962C13.362 4.84939 13.3636 4.82921 13.3651 4.80919C13.3721 4.716 13.378 4.6252 13.3832 4.53687C13.3851 4.50335 13.387 4.47005 13.3887 4.43732C13.3923 4.36893 13.3954 4.30235 13.398 4.23735C13.3988 4.21824 13.3995 4.19932 13.4002 4.1805C13.404 4.07854 13.4067 3.98103 13.4085 3.88855C13.4085 3.88689 13.4086 3.88516 13.4086 3.88347C13.4106 3.78 13.4115 3.68287 13.4115 3.5925C13.4115 3.5907 13.4115 3.58879 13.4115 3.58698C13.4115 3.51345 13.411 3.44452 13.4101 3.38043C13.4058 3.0672 13.1706 2.80626 12.8599 2.76609C12.78 2.75576 12.7009 2.74411 12.6224 2.73189C12.6049 2.72918 12.5875 2.72647 12.5702 2.72368C12.4936 2.71132 12.4175 2.69825 12.3423 2.6842C12.331 2.68209 12.3199 2.6798 12.3087 2.67766C12.2403 2.66462 12.1725 2.65089 12.1052 2.63651C12.0907 2.63345 12.0762 2.63044 12.0618 2.6273C11.9885 2.6113 11.9159 2.59448 11.8439 2.57701C11.8288 2.57332 11.8138 2.56952 11.7987 2.56577C11.7322 2.54926 11.6663 2.53222 11.601 2.5145C11.5925 2.51221 11.5839 2.51002 11.5755 2.50772C11.5046 2.48828 11.4345 2.46802 11.365 2.44727C11.3492 2.44254 11.3335 2.4378 11.3178 2.43302C11.2482 2.41186 11.1792 2.39028 11.1111 2.36791C11.1073 2.36671 11.1037 2.36543 11.1 2.3642C11.0345 2.34257 10.9697 2.32031 10.9056 2.29761C10.891 2.29247 10.8764 2.28739 10.8619 2.28216C10.7966 2.25876 10.7319 2.23489 10.668 2.21052C10.6571 2.20637 10.6464 2.20213 10.6356 2.19795C10.5778 2.17563 10.5206 2.15296 10.464 2.12991C10.4528 2.12535 10.4415 2.12089 10.4304 2.11632C10.3683 2.09079 10.3071 2.06486 10.2465 2.03856C10.2333 2.03282 10.2202 2.02705 10.2071 2.0213C10.15 1.99618 10.0933 1.97086 10.0376 1.94513C10.0325 1.9428 10.0273 1.9405 10.0223 1.93815C9.96289 1.91064 9.90445 1.88275 9.84662 1.85464C9.83352 1.84827 9.82048 1.8419 9.80744 1.83553C9.75026 1.80748 9.69366 1.7792 9.63807 1.75066C9.63255 1.74784 9.62719 1.74494 9.62169 1.74213C9.56979 1.71536 9.51866 1.68837 9.46816 1.66127C9.45675 1.65514 9.44535 1.64907 9.434 1.64295C9.38085 1.61418 9.32848 1.58531 9.27694 1.5563C9.26721 1.5508 9.25761 1.54528 9.24793 1.53981C9.20139 1.51342 9.15551 1.48695 9.11031 1.46043C9.10224 1.45567 9.09404 1.45097 9.086 1.44621C9.03632 1.41687 8.98756 1.3875 8.93949 1.35808C8.92872 1.35149 8.91808 1.3449 8.90739 1.33831C8.86028 1.30927 8.81374 1.28021 8.76821 1.2512C8.76668 1.25021 8.76509 1.24923 8.76351 1.24824C8.71664 1.21833 8.67092 1.18847 8.62578 1.15869C8.61566 1.15199 8.60554 1.14532 8.59551 1.13865C8.55159 1.10947 8.50834 1.08035 8.46612 1.05142C8.46046 1.04754 8.45499 1.04371 8.44938 1.03983C8.41077 1.01325 8.37298 0.986836 8.33585 0.960586C8.32765 0.954762 8.31936 0.948937 8.31119 0.943168C8.27129 0.914785 8.23227 0.886621 8.1941 0.858703C8.18625 0.852934 8.17857 0.847246 8.1708 0.841559C8.13613 0.81602 8.10212 0.790727 8.06887 0.765652C8.06389 0.761879 8.05878 0.758105 8.05383 0.754332C8.01754 0.726852 7.9823 0.699727 7.94779 0.672902C7.93989 0.66675 7.93212 0.66068 7.9243 0.654555C7.8899 0.627648 7.85608 0.600988 7.82351 0.574875C7.82283 0.574328 7.8222 0.573809 7.82152 0.573262C7.78917 0.547312 7.75808 0.521937 7.72759 0.496863C7.72075 0.49123 7.71392 0.485625 7.70716 0.480074C7.67733 0.455383 7.64827 0.431129 7.62024 0.407449C7.61575 0.403648 7.61154 0.400039 7.60711 0.396266C7.58182 0.374801 7.55735 0.353773 7.53359 0.333184C7.52866 0.328918 7.52366 0.324598 7.51879 0.320359C7.49303 0.297965 7.46829 0.276172 7.44439 0.254898C7.43928 0.250332 7.43438 0.245957 7.42935 0.241445C7.40753 0.221922 7.38637 0.202863 7.36613 0.184461C7.36373 0.182273 7.36116 0.179949 7.35878 0.177789C7.33696 0.157855 7.31637 0.138824 7.29649 0.120313C7.29446 0.118398 7.29209 0.116266 7.29006 0.114379C7.20861 0.0381172 7.10429 0 7 0V14C7.13497 13.9663 7.26698 13.9297 7.39638 13.8906C7.55721 13.842 7.71367 13.7894 7.86609 13.733Z" fill="url(#paint1_linear_5822_3976)"/>
<path d="M12.6502 3.80961C12.6464 3.5336 12.4391 3.30361 12.1654 3.26823C9.63859 2.94164 7.88427 1.51785 7.25589 0.930915C7.11192 0.796466 6.88817 0.796466 6.74423 0.930915C6.11582 1.51785 4.36152 2.94164 1.83474 3.26823C1.56098 3.30361 1.35368 3.5336 1.34988 3.80961C1.32481 5.61717 1.63669 11.829 7 13.1699C12.3633 11.829 12.6752 5.61717 12.6502 3.80961Z" fill="url(#paint2_linear_5822_3976)"/>
<path d="M6.99999 12.6948L6.93674 12.679C5.79908 12.3946 4.82599 11.846 4.04454 11.0485C3.39584 10.3865 2.87458 9.5484 2.49521 8.55757C1.83596 6.83568 1.75822 5.08278 1.77055 4.19113C1.77564 3.82188 2.05665 3.50762 2.42415 3.46012C4.56645 3.18321 6.05605 1.97804 6.59705 1.47273C6.82296 1.26169 7.17696 1.26171 7.4029 1.4727C7.94389 1.97804 9.4335 3.18321 11.5758 3.46012C11.9433 3.50765 12.2243 3.82194 12.2294 4.19113C12.2527 5.87351 11.949 11.4576 7.06321 12.6791L6.99999 12.6948ZM6.99999 1.83522C6.98306 1.83522 6.96614 1.84137 6.95293 1.85371C6.37505 2.39344 4.7835 3.68084 2.491 3.97714C2.37906 3.9916 2.29344 4.08673 2.29189 4.19832C2.27007 5.77636 2.5467 10.9953 6.99999 12.157C11.4533 10.9953 11.7299 5.77636 11.7081 4.19832C11.7066 4.08671 11.621 3.9916 11.509 3.97714C9.2165 3.68084 7.62493 2.39344 7.04707 1.85371C7.03384 1.84137 7.01694 1.83522 6.99999 1.83522Z" fill="white"/>
<path d="M12.6502 3.80962C12.6464 3.53361 12.4391 3.30362 12.1653 3.26824C9.63856 2.94164 7.88424 1.51786 7.25586 0.930922C7.18389 0.863684 7.09196 0.830078 7 0.830078V13.1699C12.3633 11.829 12.6752 5.61718 12.6502 3.80962Z" fill="url(#paint3_linear_5822_3976)"/>
<path d="M12.9572 7.41312C12.5062 9.23641 11.6219 11.22 9.90929 12.586L4.60244 7.27917C4.40836 7.08508 4.40836 6.77022 4.60244 6.57589C4.79653 6.38153 5.11167 6.38153 5.30572 6.57589L6.37331 7.64347C6.5048 7.77469 6.7189 7.77469 6.84985 7.64347L9.66716 4.82643C9.86152 4.63207 10.1764 4.63207 10.3704 4.82643H10.3707L12.9572 7.41312Z" fill="url(#paint4_linear_5822_3976)"/>
<path d="M10.3707 4.82654C10.5649 5.02079 10.5649 5.33568 10.3707 5.5299L7.55338 8.34685C7.03409 8.86616 6.18906 8.86616 5.67013 8.34685L4.60249 7.27922C4.4083 7.08502 4.40824 6.77018 4.60241 6.57596C4.79664 6.38166 5.11158 6.3816 5.30583 6.57588L6.37328 7.64332C6.50466 7.77471 6.71876 7.77471 6.84982 7.64332L9.66713 4.82632C9.86135 4.63209 10.1762 4.63212 10.3704 4.82634L10.3707 4.82654Z" fill="url(#paint5_linear_5822_3976)"/>
</g>
<defs>
<linearGradient id="paint0_linear_5822_3976" x1="4.72284" y1="3.86315" x2="15.6723" y2="14.8126" gradientUnits="userSpaceOnUse">
<stop stop-color="#62E1FB"/>
<stop offset="1" stop-color="#00A2F3"/>
</linearGradient>
<linearGradient id="paint1_linear_5822_3976" x1="12.2819" y1="7.00016" x2="4.91473" y2="7.00016" gradientUnits="userSpaceOnUse">
<stop stop-color="#00A2F3" stop-opacity="0"/>
<stop offset="1" stop-color="#0075CD"/>
</linearGradient>
<linearGradient id="paint2_linear_5822_3976" x1="4.8146" y1="4.05684" x2="10.8004" y2="10.0427" gradientUnits="userSpaceOnUse">
<stop stop-color="#A7F3CE"/>
<stop offset="1" stop-color="#61DB99"/>
</linearGradient>
<linearGradient id="paint3_linear_5822_3976" x1="11.7507" y1="7.00013" x2="4.38848" y2="7.00013" gradientUnits="userSpaceOnUse">
<stop stop-color="#61DB99" stop-opacity="0"/>
<stop offset="1" stop-color="#009E74"/>
</linearGradient>
<linearGradient id="paint4_linear_5822_3976" x1="11.0826" y1="9.64911" x2="8.27823" y2="6.84478" gradientUnits="userSpaceOnUse">
<stop stop-color="#61DB99" stop-opacity="0"/>
<stop offset="1" stop-color="#009E74"/>
</linearGradient>
<linearGradient id="paint5_linear_5822_3976" x1="7.48643" y1="5.9694" x2="7.48643" y2="9.2198" gradientUnits="userSpaceOnUse">
<stop stop-color="#FFF465"/>
<stop offset="1" stop-color="#FFE600"/>
</linearGradient>
<clipPath id="clip0_5822_3976">
<rect width="14" height="14" fill="white"/>
</clipPath>
</defs>
</svg>
