<svg width="16" height="16" viewBox="0 0 16 16" fill="none" xmlns="http://www.w3.org/2000/svg">
<path d="M12.9467 7.83301H10.6667C10.3934 7.83301 10.1667 7.60634 10.1667 7.33301V2.67301C10.1667 2.17967 10.36 1.71968 10.7067 1.37301C11.0534 1.02634 11.5134 0.833008 12.0067 0.833008H12.0134C12.8467 0.839674 13.6334 1.16634 14.2334 1.75967C14.8334 2.36634 15.16 3.16634 15.16 3.99967V5.61301C15.1667 6.93967 14.2734 7.83301 12.9467 7.83301ZM11.1667 6.83301H12.9467C13.72 6.83301 14.1667 6.38634 14.1667 5.61301V3.99967C14.1667 3.42634 13.94 2.87968 13.5334 2.46634C13.1267 2.06634 12.58 1.83967 12.0134 1.83301C12.0134 1.83301 12.0134 1.83301 12.0067 1.83301C11.7867 1.83301 11.5734 1.91967 11.4134 2.07967C11.2534 2.23967 11.1667 2.44634 11.1667 2.67301V6.83301Z" fill="#202C38"/>
<path d="M5.99998 15.553C5.68665 15.553 5.39331 15.433 5.17331 15.2063L4.06665 14.093C4.00665 14.033 3.91331 14.0263 3.84665 14.0797L2.69998 14.933C2.34665 15.1997 1.87998 15.2463 1.47998 15.0463C1.07998 14.8463 0.833313 14.4463 0.833313 13.9997V3.99967C0.833313 1.98634 1.98665 0.833008 3.99998 0.833008H12C12.2733 0.833008 12.5 1.05967 12.5 1.33301C12.5 1.60634 12.2733 1.83301 12 1.83301C11.54 1.83301 11.1666 2.20634 11.1666 2.66634V13.9997C11.1666 14.4463 10.92 14.8463 10.52 15.0463C10.12 15.2463 9.65331 15.2063 9.29998 14.9397L8.15998 14.0863C8.09331 14.033 7.99998 14.0463 7.94665 14.0997L6.82665 15.2197C6.60665 15.433 6.31331 15.553 5.99998 15.553ZM3.93998 13.0463C4.24665 13.0463 4.54665 13.1597 4.77331 13.393L5.87998 14.5063C5.91998 14.5463 5.97331 14.553 5.99998 14.553C6.02665 14.553 6.07998 14.5463 6.11998 14.5063L7.23998 13.3863C7.65331 12.973 8.30665 12.933 8.76665 13.2863L9.89998 14.133C9.97331 14.1863 10.04 14.1663 10.0733 14.1463C10.1066 14.1263 10.1666 14.0863 10.1666 13.9997V2.66634C10.1666 2.36634 10.24 2.07967 10.3666 1.83301H3.99998C2.51998 1.83301 1.83331 2.51967 1.83331 3.99967V13.9997C1.83331 14.093 1.89331 14.133 1.92665 14.153C1.96665 14.173 2.03331 14.1863 2.09998 14.133L3.23998 13.2797C3.44665 13.1263 3.69331 13.0463 3.93998 13.0463Z" fill="#202C38"/>
<path d="M8 9.17383H6C5.72667 9.17383 5.5 8.94716 5.5 8.67383C5.5 8.40049 5.72667 8.17383 6 8.17383H8C8.27333 8.17383 8.5 8.40049 8.5 8.67383C8.5 8.94716 8.27333 9.17383 8 9.17383Z" fill="#202C38"/>
<path d="M8 6.50684H6C5.72667 6.50684 5.5 6.28017 5.5 6.00684C5.5 5.7335 5.72667 5.50684 6 5.50684H8C8.27333 5.50684 8.5 5.7335 8.5 6.00684C8.5 6.28017 8.27333 6.50684 8 6.50684Z" fill="#202C38"/>
<path d="M3.98014 6.67318C3.61348 6.67318 3.31348 6.37318 3.31348 6.00651C3.31348 5.63984 3.61348 5.33984 3.98014 5.33984C4.34681 5.33984 4.64681 5.63984 4.64681 6.00651C4.64681 6.37318 4.34681 6.67318 3.98014 6.67318Z" fill="#202C38"/>
<path d="M3.98014 9.34017C3.61348 9.34017 3.31348 9.04017 3.31348 8.6735C3.31348 8.30684 3.61348 8.00684 3.98014 8.00684C4.34681 8.00684 4.64681 8.30684 4.64681 8.6735C4.64681 9.04017 4.34681 9.34017 3.98014 9.34017Z" fill="#202C38"/>
</svg>
