<svg width="25" height="24" viewBox="0 0 25 24" xmlns="http://www.w3.org/2000/svg">
<path d="M12.3752 22.75C11.5852 22.75 10.8352 22.34 10.3152 21.64L9.29523 20.3C9.08523 20.02 8.80525 19.86 8.50525 19.84C8.21525 19.82 7.90527 19.96 7.65527 20.21C6.79527 21.13 5.95522 21.57 5.16522 21.55C4.62522 21.53 4.15523 21.29 3.79523 20.85C3.75523 20.8 3.71524 20.73 3.68524 20.66C3.29524 19.82 3.11523 18.68 3.11523 16.97V7.05001C3.11523 5.34001 3.29524 4.21001 3.68524 3.36001C3.71524 3.30001 3.74523 3.24001 3.79523 3.19001C4.14523 2.74001 4.61527 2.50001 5.15527 2.47001C5.95527 2.44001 6.80526 2.90001 7.64526 3.80001C7.89526 4.07001 8.19524 4.20001 8.49524 4.18001C8.79524 4.16001 9.07522 4.00001 9.28522 3.72001L10.3052 2.37001C10.8252 1.67001 11.5752 1.26001 12.3652 1.26001C13.1552 1.26001 13.9052 1.67001 14.4252 2.37001L15.4352 3.71001C15.6452 4.00001 15.9352 4.16001 16.2452 4.18001C16.5352 4.20001 16.8452 4.06001 17.0952 3.80001C17.9152 2.92001 18.7252 2.47001 19.5052 2.47001C20.0652 2.47001 20.5853 2.72001 20.9453 3.19001C20.9853 3.24001 21.0252 3.30001 21.0552 3.37001C21.4452 4.21001 21.6252 5.35001 21.6252 7.06001V16.98C21.6252 18.69 21.4452 19.82 21.0552 20.67C21.0152 20.76 20.9653 20.84 20.8953 20.91C20.5853 21.31 20.0752 21.56 19.5052 21.56C18.7252 21.56 17.9152 21.11 17.0952 20.23C16.8552 19.97 16.5252 19.83 16.2452 19.85C15.9352 19.87 15.6552 20.03 15.4352 20.32L14.4252 21.66C13.9152 22.34 13.1652 22.75 12.3752 22.75ZM8.45526 18.33C8.49526 18.33 8.54527 18.33 8.58527 18.33C9.32527 18.37 10.0152 18.76 10.4852 19.39L11.5052 20.74C11.9952 21.4 12.7352 21.4 13.2252 20.75L14.2352 19.41C14.7152 18.77 15.4153 18.39 16.1553 18.35C16.8953 18.31 17.6352 18.62 18.1752 19.2C18.9152 19.99 19.3652 20.05 19.4852 20.05C19.5652 20.05 19.6353 20.03 19.7053 19.97C19.9853 19.34 20.1052 18.39 20.1052 16.97V7.05001C20.1052 5.65001 19.9753 4.70001 19.7053 4.07001C19.6253 3.98001 19.5452 3.97001 19.4852 3.97001C19.3652 3.97001 18.9152 4.03001 18.1752 4.82001C17.6352 5.40001 16.8953 5.71001 16.1553 5.67001C15.4053 5.63001 14.7052 5.24001 14.2252 4.61001L13.2153 3.27001C12.7253 2.61001 11.9852 2.61001 11.4952 3.27001L10.4752 4.63001C10.0052 5.26001 9.31526 5.64001 8.57526 5.68001C7.83526 5.72001 7.09524 5.41001 6.55524 4.84001C5.94524 4.18001 5.47527 3.96001 5.21527 3.97001C5.15527 3.97001 5.08525 3.99001 5.00525 4.07001C4.73525 4.70001 4.60522 5.65001 4.60522 7.05001V16.97C4.60522 18.38 4.73525 19.33 5.00525 19.96C5.09525 20.04 5.15527 20.05 5.21527 20.06C5.46527 20.07 5.93523 19.85 6.54523 19.2C7.07523 18.63 7.76526 18.33 8.45526 18.33Z" />
<path d="M16.875 11H8.875C8.465 11 8.125 10.66 8.125 10.25C8.125 9.84 8.465 9.5 8.875 9.5H16.875C17.285 9.5 17.625 9.84 17.625 10.25C17.625 10.66 17.285 11 16.875 11Z" />
<path d="M14.875 14.5H8.875C8.465 14.5 8.125 14.16 8.125 13.75C8.125 13.34 8.465 13 8.875 13H14.875C15.285 13 15.625 13.34 15.625 13.75C15.625 14.16 15.285 14.5 14.875 14.5Z" />
</svg>
