<svg width="20" height="20" viewBox="0 0 20 20" fill="none" xmlns="http://www.w3.org/2000/svg">
<g id="vuesax/outline/receipt-2">
<g id="vuesax/outline/receipt-2_2">
<g id="receipt-2">
<path id="Vector" d="M9.5835 18.9584C8.92516 18.9584 8.30016 18.6167 7.86683 18.0334L7.01682 16.9167C6.84181 16.6834 6.6085 16.55 6.3585 16.5334C6.11683 16.5167 5.85852 16.6334 5.65019 16.8417C4.93352 17.6084 4.23348 17.975 3.57514 17.9584C3.12514 17.9417 2.73348 17.7417 2.43348 17.375C2.40015 17.3334 2.36683 17.275 2.34183 17.2167C2.01683 16.5167 1.86682 15.5667 1.86682 14.1417V5.87502C1.86682 4.45002 2.01683 3.50835 2.34183 2.80002C2.36683 2.75002 2.39182 2.70002 2.43348 2.65835C2.72515 2.28335 3.11685 2.08335 3.56685 2.05835C4.23352 2.03335 4.94185 2.41669 5.64185 3.16669C5.85018 3.39169 6.10016 3.50002 6.35016 3.48335C6.60016 3.46669 6.83347 3.33335 7.00847 3.10002L7.85849 1.97502C8.29182 1.39169 8.91682 1.05002 9.57515 1.05002C10.2335 1.05002 10.8585 1.39169 11.2918 1.97502L12.1335 3.09169C12.3085 3.33335 12.5502 3.46669 12.8085 3.48335C13.0502 3.50002 13.3085 3.38335 13.5168 3.16669C14.2001 2.43335 14.8752 2.05835 15.5252 2.05835C15.9918 2.05835 16.4252 2.26669 16.7252 2.65835C16.7585 2.70002 16.7918 2.75002 16.8168 2.80835C17.1418 3.50835 17.2918 4.45835 17.2918 5.88335V14.15C17.2918 15.575 17.1418 16.5167 16.8168 17.225C16.7835 17.3 16.7418 17.3667 16.6835 17.425C16.4252 17.7584 16.0002 17.9667 15.5252 17.9667C14.8752 17.9667 14.2001 17.5917 13.5168 16.8584C13.3168 16.6417 13.0418 16.525 12.8085 16.5417C12.5502 16.5584 12.3168 16.6917 12.1335 16.9334L11.2918 18.05C10.8668 18.6167 10.2418 18.9584 9.5835 18.9584ZM6.31684 15.275C6.35018 15.275 6.39185 15.275 6.42518 15.275C7.04185 15.3084 7.61682 15.6334 8.00848 16.1584L8.8585 17.2833C9.26683 17.8334 9.88348 17.8334 10.2918 17.2917L11.1335 16.175C11.5335 15.6417 12.1169 15.325 12.7335 15.2917C13.3502 15.2584 13.9668 15.5167 14.4168 16C15.0335 16.6584 15.4085 16.7084 15.5085 16.7084C15.5752 16.7084 15.6335 16.6917 15.6918 16.6417C15.9252 16.1167 16.0251 15.325 16.0251 14.1417V5.87502C16.0251 4.70835 15.9168 3.91669 15.6918 3.39169C15.6252 3.31669 15.5585 3.30835 15.5085 3.30835C15.4085 3.30835 15.0335 3.35835 14.4168 4.01669C13.9668 4.50002 13.3502 4.75835 12.7335 4.72502C12.1085 4.69168 11.5251 4.36669 11.1251 3.84169L10.2835 2.72502C9.87519 2.17502 9.25849 2.17502 8.85016 2.72502L8.00014 3.85835C7.60848 4.38335 7.03351 4.70002 6.41684 4.73335C5.80017 4.76669 5.18349 4.50835 4.73349 4.03335C4.22516 3.48335 3.83352 3.30002 3.61685 3.30835C3.56685 3.30835 3.5085 3.32502 3.44183 3.39169C3.21683 3.91669 3.10848 4.70835 3.10848 5.87502V14.1417C3.10848 15.3167 3.21683 16.1084 3.44183 16.6334C3.51683 16.7 3.56685 16.7084 3.61685 16.7167C3.82519 16.725 4.21682 16.5417 4.72515 16C5.16682 15.525 5.74184 15.275 6.31684 15.275Z" fill=""/>
<path id="Vector_2" d="M13.3333 9.16666H6.66663C6.32496 9.16666 6.04163 8.88332 6.04163 8.54166C6.04163 8.19999 6.32496 7.91666 6.66663 7.91666H13.3333C13.675 7.91666 13.9583 8.19999 13.9583 8.54166C13.9583 8.88332 13.675 9.16666 13.3333 9.16666Z" fill=""/>
<path id="Vector_3" d="M11.6666 12.0833H6.66663C6.32496 12.0833 6.04163 11.8 6.04163 11.4583C6.04163 11.1167 6.32496 10.8333 6.66663 10.8333H11.6666C12.0083 10.8333 12.2916 11.1167 12.2916 11.4583C12.2916 11.8 12.0083 12.0833 11.6666 12.0833Z" fill=""/>
</g>
</g>
</g>
</svg>
