<svg width="41" height="40" viewBox="0 0 41 40" fill="none" xmlns="http://www.w3.org/2000/svg">
<path d="M27.2058 6.26303V10.625C27.2058 11.1641 26.7683 11.6016 26.2292 11.6016C25.6901 11.6016 25.2526 11.1641 25.2526 10.625V6.26303C25.2526 5.72462 24.8145 5.28647 24.2761 5.28647H16.724C16.1856 5.28647 15.7474 5.72462 15.7474 6.26303V10.625C15.7474 11.1641 15.3099 11.6016 14.7709 11.6016C14.2318 11.6016 13.7943 11.1641 13.7943 10.625V6.26303C13.7943 4.6478 15.1088 3.33334 16.724 3.33334H24.2761C25.8913 3.33334 27.2058 4.6478 27.2058 6.26303Z" fill="#344E66"/>
<path d="M27.2057 6.26303V10.625C27.2057 11.1641 26.7682 11.6016 26.2292 11.6016C25.6901 11.6016 25.2526 11.1641 25.2526 10.625V6.26303C25.2526 5.72462 24.8145 5.28647 24.276 5.28647H20.5V3.33334H24.276C25.8913 3.33334 27.2057 4.6478 27.2057 6.26303Z" fill="#27344D"/>
<path d="M36.8809 12.0176L34.7976 9.93424C34.614 9.7513 34.3659 9.64844 34.1068 9.64844H6.89327C6.63416 9.64844 6.38611 9.7513 6.20251 9.93424L4.11918 12.0176C3.93624 12.2012 3.83337 12.4492 3.83337 12.7083V33.6068C3.83337 33.8659 3.93624 34.1139 4.11918 34.2975L6.20251 36.3809C6.38611 36.5638 6.63416 36.6667 6.89327 36.6667H34.1068C34.3659 36.6667 34.614 36.5638 34.7976 36.3809L36.8809 34.2975C37.0638 34.1139 37.1667 33.8659 37.1667 33.6068V12.7083C37.1667 12.4492 37.0638 12.2012 36.8809 12.0176Z" fill="#FFDD54"/>
<path d="M37.1667 12.7083V33.6068C37.1667 33.8659 37.0638 34.1139 36.8809 34.2975L34.7975 36.3809C34.6139 36.5638 34.3659 36.6667 34.1068 36.6667H20.5V9.64844H34.1068C34.3659 9.64844 34.6139 9.7513 34.7975 9.93424L36.8809 12.0176C37.0638 12.2012 37.1667 12.4492 37.1667 12.7083Z" fill="#FFB454"/>
<path d="M12.8178 13.6849H8.65112C8.1118 13.6849 7.67456 13.2477 7.67456 12.7084V8.54169C7.67456 8.00236 8.1118 7.56512 8.65112 7.56512H12.8178C13.3571 7.56512 13.7944 8.00236 13.7944 8.54169V12.7084C13.7944 13.2477 13.3571 13.6849 12.8178 13.6849Z" fill="#406C80"/>
<path d="M32.349 13.6849H28.1824C27.6431 13.6849 27.2058 13.2477 27.2058 12.7084V8.54169C27.2058 8.00236 27.6431 7.56512 28.1824 7.56512H32.349C32.8884 7.56512 33.3256 8.00236 33.3256 8.54169V12.7084C33.3256 13.2477 32.8884 13.6849 32.349 13.6849Z" fill="#344E66"/>
<path d="M31.1693 26.3353C30.3067 27.2422 29.0827 27.8021 27.7273 27.7838C25.9434 27.7598 24.3881 26.7148 23.6277 25.2083H11.1251C9.98182 25.2083 9.05865 24.2891 9.04172 23.1562C9.02479 21.9935 10.0033 21.0417 11.1661 21.0417H23.6244C24.3887 19.5143 25.9675 18.4655 27.7917 18.4655C29.1224 18.4655 30.323 19.0234 31.1719 19.918C31.7605 20.5384 31.3139 21.5625 30.459 21.5625H28.3126L27.2709 23.125L28.3126 24.6875H30.459C31.3158 24.6875 31.7592 25.7142 31.1693 26.3353Z" fill="#03A1FA"/>
<path d="M31.1693 26.3353C30.3066 27.2422 29.0827 27.8021 27.7272 27.7838C25.9434 27.7598 24.388 26.7148 23.6276 25.2083H20.5V21.0417H23.6243C24.3887 19.5143 25.9674 18.4655 27.7917 18.4655C29.1224 18.4655 30.3229 19.0234 31.1719 19.918C31.7604 20.5384 31.3138 21.5625 30.459 21.5625H28.3125L27.2708 23.125L28.3125 24.6875H30.459C31.3158 24.6875 31.7591 25.7142 31.1693 26.3353Z" fill="#0270AD"/>
</svg>
