<svg width="160" height="160" viewBox="0 0 160 160" fill="none" xmlns="http://www.w3.org/2000/svg">
<path d="M81.3301 128.13C107.237 128.13 128.239 107.056 128.239 81.0608C128.239 55.0654 107.237 33.992 81.3301 33.992C55.423 33.992 34.4211 55.0654 34.4211 81.0608C34.4211 107.056 55.423 128.13 81.3301 128.13Z" fill="#EAEEF9"/>
<path d="M54.2205 38.0316C55.4599 37.6274 56.138 36.2917 55.7352 35.0481C55.3323 33.8046 54.0011 33.1242 52.7618 33.5283C51.5225 33.9325 50.8444 35.2682 51.2472 36.5118C51.65 37.7553 52.9812 38.4358 54.2205 38.0316Z" fill="#EAEEF9"/>
<path d="M107.569 119.795H22.3401L37.9135 47.9138H123.237L107.569 119.795Z" fill="white"/>
<path d="M107.569 119.795H22.3401L37.9135 47.9138H123.237L107.569 119.795Z" fill="#D5DAE8"/>
<path d="M58.3949 119.795H40.7451C37.536 119.795 34.8933 117.049 35.082 113.829L37.9136 47.9138H42.1608L58.3949 119.795Z" fill="url(#paint0_linear_1212_53992)"/>
<path d="M141.925 119.795H56.6958L42.255 64.582L42.1606 64.2032L37.9133 47.9138H123.237L126.918 62.0249L127.484 64.2032L127.578 64.582L141.925 119.795Z" fill="white"/>
<path d="M127.484 64.2032H42.1606L37.9133 47.9138H123.237L126.918 62.0249L127.484 64.2032Z" fill="#EFF3FB"/>
<path opacity="0.3" d="M60.377 59.5626C62.045 59.5626 63.3973 58.2057 63.3973 56.532C63.3973 54.8583 62.045 53.5014 60.377 53.5014C58.7089 53.5014 57.3567 54.8583 57.3567 56.532C57.3567 58.2057 58.7089 59.5626 60.377 59.5626Z" fill="#ADB6C8"/>
<path opacity="0.3" d="M110.212 59.5626C111.88 59.5626 113.232 58.2057 113.232 56.532C113.232 54.8583 111.88 53.5014 110.212 53.5014C108.544 53.5014 107.191 54.8583 107.191 56.532C107.191 58.2057 108.544 59.5626 110.212 59.5626Z" fill="#ADB6C8"/>
<path d="M59.6217 57.7632C59.0554 57.7632 58.5835 57.2897 58.5835 56.7214C58.5835 56.1532 59.0554 55.6797 59.6217 55.6797C61.6982 55.6797 63.869 52.7438 63.869 48.2926C63.869 48.1979 63.869 48.0085 63.869 47.9138C63.7746 43.5573 61.6038 40.9056 59.6217 40.9056C57.7341 40.9056 55.6576 43.4626 55.3744 47.4403H53.2036C53.4868 42.5156 56.2239 38.8221 59.5274 38.8221C63.0196 38.8221 65.7567 42.8944 65.9455 48.1032C65.9455 48.1979 65.9455 48.2926 65.9455 48.3873C66.0399 53.5961 63.2083 57.7632 59.6217 57.7632Z" fill="#ADB6C8"/>
<path d="M109.173 57.7632C108.607 57.7632 108.135 57.2897 108.135 56.7214C108.135 56.1532 108.607 55.6797 109.173 55.6797C111.25 55.6797 113.421 52.7438 113.421 48.2926C113.421 48.1979 113.421 48.0085 113.421 47.9138C113.326 43.5573 111.156 40.9056 109.173 40.9056C107.286 40.9056 105.209 43.4626 104.926 47.4403H102.755C103.039 42.5156 105.776 38.8221 109.079 38.8221C112.571 38.8221 115.308 42.8944 115.497 48.1032C115.497 48.1979 115.497 48.2926 115.497 48.3873C115.592 53.5961 112.76 57.7632 109.173 57.7632Z" fill="#ADB6C8"/>
<path d="M11.4858 119.701H148.815" stroke="#D5DAE8" stroke-width="2" stroke-miterlimit="10" stroke-linecap="round" stroke-linejoin="round"/>
<path opacity="0.3" d="M110.684 85.512C110.117 85.512 109.74 85.0384 109.74 84.5649C109.74 83.9967 110.117 83.6178 110.684 83.6178H113.609C114.176 83.6178 114.553 84.0914 114.553 84.5649C114.553 85.1331 114.081 85.512 113.609 85.512H110.684Z" fill="#D5DAE8"/>
<path opacity="0.3" d="M70.476 112.219C70.0985 112.219 69.7209 111.935 69.5322 111.556L68.022 105.968H60.5657C59.9994 105.968 59.6218 105.495 59.6218 105.021C59.6218 104.453 60.0937 104.074 60.5657 104.074H67.4557L65.0961 95.7402H57.9229C57.3566 95.7402 56.9791 95.2667 56.9791 94.7931C56.9791 94.2249 57.3566 93.8461 57.9229 93.8461H64.5298L62.1702 85.512H55.3745C54.8082 85.512 54.4307 85.0384 54.4307 84.5649C54.4307 83.9967 54.8082 83.6179 55.3745 83.6179H61.6983L59.3387 75.2837H52.8262C52.2599 75.2837 51.8823 74.8102 51.8823 74.3367C51.8823 73.7685 52.2599 73.3896 52.8262 73.3896H58.7724L57.8285 69.9802C57.7341 69.5067 58.0173 68.9385 58.4892 68.8438C58.5836 68.8438 58.678 68.8438 58.7724 68.8438C59.1499 68.8438 59.5274 69.1279 59.7162 69.5067L60.8488 73.3896H68.3996C68.9659 73.3896 69.3434 73.7685 69.3434 74.3367C69.3434 74.9049 68.9659 75.2837 68.3996 75.2837H61.4151L63.7747 83.6179H75.6671L71.8918 69.9802C71.7974 69.5067 72.0805 68.9385 72.5525 68.8438C72.6468 68.8438 72.7412 68.8438 72.8356 68.8438C73.2131 68.8438 73.5907 69.1279 73.7795 69.5067L74.9121 73.3896H78.9706C79.5369 73.3896 79.9144 73.7685 79.9144 74.3367C79.9144 74.9049 79.4425 75.2837 78.9706 75.2837H75.4784L77.838 83.6179H85.8606C86.4269 83.6179 86.8045 84.0914 86.8045 84.5649C86.8045 85.1331 86.4269 85.512 85.8606 85.512H78.4043L80.7639 93.8461H92.7507L87.5595 75.2837H85.0112C84.4449 75.2837 84.0673 74.8102 84.0673 74.3367C84.0673 73.7685 84.5393 73.3896 85.0112 73.3896H86.9932L86.0494 69.9802C85.955 69.6961 86.0494 69.5067 86.1438 69.2226C86.2382 69.0332 86.4269 68.8438 86.7101 68.7491C86.8045 68.7491 86.8989 68.7491 86.9932 68.7491C87.3708 68.7491 87.7483 69.0332 87.9371 69.412L89.0697 73.2949H91.0518C91.6181 73.2949 91.9956 73.6738 91.9956 74.242C91.9956 74.8102 91.6181 75.189 91.0518 75.189H89.636L91.9956 83.5231H103.982L101.623 75.189H95.4878C94.9215 75.189 94.544 74.7155 94.544 74.242C94.544 73.6738 95.0159 73.2949 95.4878 73.2949H100.773L99.8295 69.8855C99.7351 69.412 100.018 68.8438 100.49 68.7491C100.585 68.7491 100.679 68.7491 100.773 68.7491C101.151 68.7491 101.528 69.0332 101.717 69.412L102.85 73.2949H114.837L113.893 69.8855C113.798 69.412 114.081 68.8438 114.553 68.7491C114.648 68.7491 114.742 68.7491 114.837 68.7491C115.214 68.7491 115.592 69.0332 115.78 69.412L116.913 73.2949H124.275C124.841 73.2949 125.219 73.6738 125.219 74.242C125.219 74.8102 124.841 75.189 124.275 75.189H117.196L119.556 83.5231H126.635C127.201 83.5231 127.578 83.9967 127.578 84.4702C127.578 85.0384 127.201 85.4173 126.635 85.4173H120.122L122.482 93.7514H129.277C129.844 93.7514 130.221 94.2249 130.221 94.6984C130.221 95.2667 129.844 95.6455 129.277 95.6455H123.048L125.408 103.98H131.826C132.392 103.98 132.77 104.453 132.77 104.927C132.77 105.495 132.298 105.874 131.826 105.874H125.88L127.295 110.893C127.39 111.367 127.107 111.935 126.635 112.03C126.54 112.03 126.446 112.03 126.351 112.03C125.974 112.03 125.596 111.745 125.408 111.367L123.897 105.874H111.911L113.326 110.798C113.421 111.083 113.326 111.272 113.232 111.556C113.138 111.745 112.949 111.935 112.666 112.03C112.571 112.03 112.477 112.03 112.383 112.03C112.005 112.03 111.628 111.745 111.439 111.367L109.929 105.968H97.9418L99.3576 110.893C99.4519 111.367 99.1688 111.935 98.6969 112.03C98.6025 112.03 98.5081 112.03 98.4137 112.03C98.0362 112.03 97.6586 111.745 97.4699 111.367L95.9597 105.968H83.9729L85.3887 110.893C85.4831 111.367 85.1999 111.935 84.728 112.03C84.6336 112.03 84.5393 112.03 84.4449 112.03C84.0673 112.03 83.6898 111.745 83.501 111.367L81.9909 105.968H70.0041L71.4198 110.988C71.5142 111.272 71.4199 111.461 71.3255 111.745C71.2311 111.935 71.0423 112.124 70.7592 112.219C70.6648 112.219 70.5704 112.219 70.476 112.219ZM97.3755 104.074H123.331L120.972 95.7402H108.985L109.834 98.7708C109.929 99.0549 109.834 99.2443 109.74 99.5284C109.645 99.7178 109.457 99.9072 109.174 100.002C109.079 100.002 108.985 100.002 108.89 100.002C108.513 100.002 108.135 99.7178 107.947 99.339L107.003 95.8349H103.416C102.85 95.8349 102.472 95.3614 102.472 94.8878C102.472 94.3196 102.85 93.9408 103.416 93.9408H106.436L104.077 85.6067H92.1844L94.544 93.9408H97.4699C98.0362 93.9408 98.4137 94.4143 98.4137 94.8878C98.4137 95.4561 98.0362 95.8349 97.4699 95.8349H95.0159L97.3755 104.074ZM83.4066 104.074H95.3934L93.0338 95.7402H81.047L83.4066 104.074ZM69.4378 104.074H81.4246L79.065 95.7402H75.5728C75.0064 95.7402 74.6289 95.2667 74.6289 94.7931C74.6289 94.2249 75.1008 93.8461 75.5728 93.8461H78.593L76.2334 85.512H64.2467L66.6063 93.8461H69.7209C70.2872 93.8461 70.6648 94.3196 70.6648 94.7931C70.6648 95.3614 70.1929 95.7402 69.7209 95.7402H67.1726L69.4378 104.074ZM108.513 93.8461H120.5L115.308 75.2837H103.227L108.513 93.8461Z" fill="#D5DAE8"/>
<path d="M81.525 84.1816C77.6029 84.1816 74.3084 81.6723 73.0534 78.0651C72.7396 77.2809 73.2102 76.4968 73.9946 76.1831C74.7791 75.8694 75.5635 76.3399 75.8772 77.1241C76.6616 79.4766 79.0149 81.2018 81.525 81.2018C84.0351 81.2018 86.3883 79.6334 87.1727 77.1241C87.4864 76.3399 88.2708 75.8694 89.0553 76.1831C89.8397 76.4968 90.3103 77.2809 89.9965 78.0651C88.7415 81.8291 85.447 84.1816 81.525 84.1816Z" fill="#ADB6C8"/>
<path d="M105.214 84.1816C101.292 84.1816 97.9976 81.6723 96.7426 78.0651C96.4288 77.2809 96.8994 76.4968 97.6839 76.1831C98.4683 75.8694 99.2527 76.3399 99.5664 77.1241C100.351 79.4766 102.704 81.2018 105.214 81.2018C107.724 81.2018 110.077 79.6334 110.862 77.1241C111.176 76.3399 111.96 75.8694 112.744 76.1831C113.529 76.4968 114 77.2809 113.686 78.0651C112.431 81.8291 109.136 84.1816 105.214 84.1816Z" fill="#ADB6C8"/>
<path d="M98.015 103.384C100.008 103.384 101.623 101.769 101.623 99.7771C101.623 97.7849 100.008 96.17 98.015 96.17C96.0222 96.17 94.4067 97.7849 94.4067 99.7771C94.4067 101.769 96.0222 103.384 98.015 103.384Z" fill="#ADB6C8"/>
<path d="M22.9743 38.319V33.6693H40.9444V38.319L28.6825 53.1134H41.1559V57.7631H22.3401V53.1134L34.602 38.319H22.9743V38.319Z" fill="#ADB6C8"/>
<path d="M46.1743 67.6636V64.7047H57.802V67.6636L49.9797 77.1743H58.0134V80.1332H45.7515V77.1743L53.5737 67.6636H46.1743Z" fill="#ADB6C8"/>
<defs>
<linearGradient id="paint0_linear_1212_53992" x1="35.0648" y1="83.8438" x2="58.4298" y2="83.8438" gradientUnits="userSpaceOnUse">
<stop stop-color="#D5DAE8"/>
<stop offset="1" stop-color="#9AA3BA"/>
</linearGradient>
</defs>
</svg>
