<svg width="36" height="32" viewBox="0 0 36 32" fill="none" xmlns="http://www.w3.org/2000/svg">
<ellipse opacity="0.5" cx="18" cy="29" rx="16" ry="1" fill="#D97400"/>
<path d="M9 23H16V24H9V23Z" fill="#BE7800"/>
<path d="M32 22H16L18 13H29L32 17V22Z" fill="#E09E00"/>
<path d="M4 23V17C4 16.3705 4.2965 15.7775 4.8 15.4L7.4665 13.4C7.8125 13.1405 8.234 13 8.6665 13H18V20L16 22V23H4Z" fill="#FFC107"/>
<path d="M5.8 15.4L8.4665 13.4C8.8125 13.1405 9.2335 13 9.6665 13H8.6665C8.234 13 7.8125 13.1405 7.4665 13.4L4.8 15.4C4.2965 15.7775 4 16.3705 4 17V23H5V17C5 16.3705 5.2965 15.7775 5.8 15.4Z" fill="#DC9600"/>
<path d="M7 26C5.343 26 4 24.657 4 23C4 21.343 5.343 20 7 20C8.657 20 10 21.343 10 23C10 24.657 8.657 26 7 26Z" fill="#344E66"/>
<path d="M26 26C23.2385 26 21 23.7615 21 21C21 18.2385 23.2385 16 26 16C28.7615 16 31 18.2385 31 21C31 23.7615 28.7615 26 26 26Z" fill="#27344D"/>
<path d="M26 25C28.2091 25 30 23.2091 30 21C30 18.7909 28.2091 17 26 17C23.7909 17 22 18.7909 22 21C22 23.2091 23.7909 25 26 25Z" fill="#03A1FA"/>
<path d="M5 23C5 21.514 6.0815 20.2835 7.5 20.045C7.337 20.0175 7.1705 20 7 20C5.343 20 4 21.343 4 23C4 24.657 5.343 26 7 26C7.1705 26 7.337 25.9825 7.5 25.955C6.0815 25.7165 5 24.486 5 23Z" fill="#27344D"/>
<path d="M7 24.5C6.1715 24.5 5.5 23.8285 5.5 23C5.5 22.1715 6.1715 21.5 7 21.5C7.8285 21.5 8.5 22.1715 8.5 23C8.5 23.8285 7.8285 24.5 7 24.5Z" fill="#03A1FA"/>
<path d="M7 23.5C6.724 23.5 6.5 23.276 6.5 23C6.5 22.724 6.724 22.5 7 22.5C7.276 22.5 7.5 22.724 7.5 23C7.5 23.276 7.276 23.5 7 23.5Z" fill="#B4B4B4"/>
<path d="M12 7H19V13H12V7Z" fill="#64C8F0"/>
<path d="M12 13H10L11 7H12V13Z" fill="#DC9600"/>
<path d="M19.5 7H10.5C10.224 7 10 6.776 10 6.5C10 6.224 10.224 6 10.5 6H19.5C19.776 6 20 6.224 20 6.5C20 6.776 19.776 7 19.5 7Z" fill="#DC9600"/>
<path d="M11 6.5C11 6.224 11.224 6 11.5 6H10.5C10.224 6 10 6.224 10 6.5C10 6.776 10.224 7 10.5 7H11.5C11.224 7 11 6.776 11 6.5Z" fill="#BE7800"/>
<path d="M16 20H32V22H16V20Z" fill="#E09E00"/>
<path d="M26 21.5C25.724 21.5 25.5 21.276 25.5 21C25.5 20.724 25.724 20.5 26 20.5C26.276 20.5 26.5 20.724 26.5 21C26.5 21.276 26.276 21.5 26 21.5Z" fill="#505050"/>
<path d="M11 21H15V22H11V21Z" fill="#DC9600"/>
<path d="M11 19H15V20H11V19Z" fill="#DC9600"/>
<path d="M14 7H15V13H14V7Z" fill="#FAB400"/>
<path d="M26 11H29V12H26V11Z" fill="#3C3C3C"/>
<path d="M27 12H28V13H27V12Z" fill="#505050"/>
<path d="M23 8H25V13H23V8Z" fill="#D2D2D2"/>
<path d="M23 8H24V13H23V8Z" fill="#B4B4B4"/>
<path d="M24.25 8H23.75V7.5C23.75 7.0865 24.0865 6.75 24.5 6.75H25V7.25H24.5C24.362 7.25 24.25 7.362 24.25 7.5V8Z" fill="#505050"/>
</svg>
