<svg width="20" height="20" viewBox="0 0 20 20" fill="none" xmlns="http://www.w3.org/2000/svg">
<path d="M10 13.1251C8.275 13.1251 6.875 11.7251 6.875 10.0001C6.875 8.27506 8.275 6.87506 10 6.87506C11.725 6.87506 13.125 8.27506 13.125 10.0001C13.125 11.7251 11.725 13.1251 10 13.1251ZM10 8.12506C8.96667 8.12506 8.125 8.96673 8.125 10.0001C8.125 11.0334 8.96667 11.8751 10 11.8751C11.0333 11.8751 11.875 11.0334 11.875 10.0001C11.875 8.96673 11.0333 8.12506 10 8.12506Z" fill="#202C38"/>
<path d="M12.675 18.4917C12.5 18.4917 12.325 18.4667 12.15 18.4251C11.6333 18.2834 11.2 17.9584 10.925 17.5001L10.825 17.3334C10.3333 16.4834 9.65834 16.4834 9.16667 17.3334L9.07501 17.4917C8.80001 17.9584 8.36667 18.2917 7.85001 18.4251C7.32501 18.5667 6.78334 18.4917 6.32501 18.2167L4.89167 17.3917C4.38334 17.1001 4.01667 16.6251 3.85834 16.0501C3.70834 15.4751 3.78334 14.8834 4.07501 14.3751C4.31667 13.9501 4.38334 13.5667 4.24167 13.3251C4.10001 13.0834 3.74167 12.9417 3.25001 12.9417C2.03334 12.9417 1.04167 11.9501 1.04167 10.7334V9.26673C1.04167 8.05006 2.03334 7.05839 3.25001 7.05839C3.74167 7.05839 4.10001 6.91673 4.24167 6.67506C4.38334 6.43339 4.32501 6.05006 4.07501 5.62506C3.78334 5.11673 3.70834 4.51673 3.85834 3.95006C4.00834 3.37506 4.37501 2.90006 4.89167 2.60839L6.33334 1.78339C7.27501 1.22506 8.51667 1.55006 9.08334 2.50839L9.18334 2.67506C9.67501 3.52506 10.35 3.52506 10.8417 2.67506L10.9333 2.51673C11.5 1.55006 12.7417 1.22506 13.6917 1.79173L15.125 2.61673C15.6333 2.90839 16 3.38339 16.1583 3.95839C16.3083 4.53339 16.2333 5.12506 15.9417 5.63339C15.7 6.05839 15.6333 6.44173 15.775 6.68339C15.9167 6.92506 16.275 7.06673 16.7667 7.06673C17.9833 7.06673 18.975 8.05839 18.975 9.27506V10.7417C18.975 11.9584 17.9833 12.9501 16.7667 12.9501C16.275 12.9501 15.9167 13.0917 15.775 13.3334C15.6333 13.5751 15.6917 13.9584 15.9417 14.3834C16.2333 14.8917 16.3167 15.4917 16.1583 16.0584C16.0083 16.6334 15.6417 17.1084 15.125 17.4001L13.6833 18.2251C13.3667 18.4001 13.025 18.4917 12.675 18.4917ZM10 15.4084C10.7417 15.4084 11.4333 15.8751 11.9083 16.7001L12 16.8584C12.1 17.0334 12.2667 17.1584 12.4667 17.2084C12.6667 17.2584 12.8667 17.2334 13.0333 17.1334L14.475 16.3001C14.6917 16.1751 14.8583 15.9667 14.925 15.7167C14.9917 15.4667 14.9583 15.2084 14.8333 14.9917C14.3583 14.1751 14.3 13.3334 14.6667 12.6917C15.0333 12.0501 15.7917 11.6834 16.7417 11.6834C17.275 11.6834 17.7 11.2584 17.7 10.7251V9.25839C17.7 8.73339 17.275 8.30006 16.7417 8.30006C15.7917 8.30006 15.0333 7.93339 14.6667 7.29173C14.3 6.65006 14.3583 5.80839 14.8333 4.99173C14.9583 4.77506 14.9917 4.51673 14.925 4.26673C14.8583 4.01673 14.7 3.81673 14.4833 3.68339L13.0417 2.85839C12.6833 2.64173 12.2083 2.76673 11.9917 3.13339L11.9 3.29173C11.425 4.11673 10.7333 4.58339 9.99167 4.58339C9.25001 4.58339 8.55834 4.11673 8.08334 3.29173L7.99167 3.12506C7.78334 2.77506 7.31667 2.65006 6.95834 2.85839L5.51667 3.69173C5.30001 3.81673 5.13334 4.02506 5.06667 4.27506C5.00001 4.52506 5.03334 4.78339 5.15834 5.00006C5.63334 5.81673 5.69167 6.65839 5.32501 7.30006C4.95834 7.94173 4.20001 8.30839 3.25001 8.30839C2.71667 8.30839 2.29167 8.73339 2.29167 9.26673V10.7334C2.29167 11.2584 2.71667 11.6917 3.25001 11.6917C4.20001 11.6917 4.95834 12.0584 5.32501 12.7001C5.69167 13.3417 5.63334 14.1834 5.15834 15.0001C5.03334 15.2167 5.00001 15.4751 5.06667 15.7251C5.13334 15.9751 5.29167 16.1751 5.50834 16.3084L6.95001 17.1334C7.12501 17.2417 7.33334 17.2667 7.52501 17.2167C7.72501 17.1667 7.89167 17.0334 8.00001 16.8584L8.09167 16.7001C8.56667 15.8834 9.25834 15.4084 10 15.4084Z" fill="#202C38"/>
</svg>
