<svg width="55" height="54" viewBox="0 0 55 54" fill="none" xmlns="http://www.w3.org/2000/svg">
<path fill-rule="evenodd" clip-rule="evenodd" d="M27.4999 0.333344C42.2269 0.333344 54.1666 12.2727 54.1666 27C54.1666 41.7273 42.2269 53.6667 27.4999 53.6667C12.7729 53.6667 0.833252 41.7269 0.833252 27C0.833252 12.2731 12.7727 0.333344 27.4999 0.333344ZM22.9661 36.3586L26.6545 32.0989L25.5426 28.9583L23.0426 28.0729L22.9655 36.3594L22.9661 36.3586ZM31.1424 39.779L40.2795 15.3991L27.6416 28.037C27.5912 28.0867 27.5346 28.1296 27.4731 28.1648L27.1051 28.378L31.1424 39.779ZM39.1008 14.2206L14.7202 23.3568L26.1206 27.395L26.3344 27.0278C26.3699 26.9661 26.4132 26.9092 26.4631 26.8584L39.1008 14.2206Z" fill="#1BB045"/>
</svg>
