<svg width="19" height="18" viewBox="0 0 19 18" fill="none" xmlns="http://www.w3.org/2000/svg">
<g id="vuesax/outline/shop">
<g id="vuesax/outline/shop_2">
<g id="shop">
<path id="Vector" d="M11.5253 17.0625H7.47531C3.77031 17.0625 2.19531 15.48 2.19531 11.7825V8.41504C2.19531 8.10754 2.45031 7.85254 2.75781 7.85254C3.06531 7.85254 3.32031 8.10754 3.32031 8.41504V11.7825C3.32031 14.85 4.40781 15.9375 7.47531 15.9375H11.5178C14.5853 15.9375 15.6728 14.85 15.6728 11.7825V8.41504C15.6728 8.10754 15.9278 7.85254 16.2353 7.85254C16.5428 7.85254 16.7978 8.10754 16.7978 8.41504V11.7825C16.8053 15.48 15.2228 17.0625 11.5253 17.0625Z" fill="#202C38"/>
<path id="Vector_2" d="M9.50025 9.5625C8.67525 9.5625 7.92524 9.24 7.39274 8.6475C6.86024 8.055 6.61275 7.2825 6.69525 6.4575L7.19775 1.4475C7.22775 1.1625 7.46775 0.9375 7.76025 0.9375H11.2627C11.5552 0.9375 11.7952 1.155 11.8252 1.4475L12.3277 6.4575C12.4102 7.2825 12.1627 8.055 11.6302 8.6475C11.0752 9.24 10.3252 9.5625 9.50025 9.5625ZM8.26275 2.0625L7.81275 6.57C7.76025 7.0725 7.91025 7.545 8.22525 7.89C8.86275 8.595 10.1377 8.595 10.7752 7.89C11.0902 7.5375 11.2402 7.065 11.1877 6.57L10.7377 2.0625H8.26275Z" fill="#202C38"/>
<path id="Vector_3" d="M14.232 9.5625C12.7095 9.5625 11.352 8.3325 11.1945 6.8175L10.6695 1.56C10.6545 1.4025 10.707 1.245 10.812 1.125C10.917 1.005 11.067 0.9375 11.232 0.9375H13.5195C15.7245 0.9375 16.752 1.86 17.0595 4.125L17.2695 6.21C17.3595 7.095 17.0895 7.935 16.512 8.5725C15.9345 9.21 15.1245 9.5625 14.232 9.5625ZM11.8545 2.0625L12.3195 6.705C12.417 7.6425 13.287 8.4375 14.232 8.4375C14.802 8.4375 15.312 8.22 15.6795 7.8225C16.0395 7.425 16.2045 6.8925 16.152 6.3225L15.942 4.26C15.7095 2.565 15.162 2.0625 13.5195 2.0625H11.8545Z" fill="#202C38"/>
<path id="Vector_4" d="M4.73026 9.5625C3.83776 9.5625 3.02776 9.21 2.45026 8.5725C1.87276 7.935 1.60276 7.095 1.69276 6.21L1.89526 4.1475C2.21026 1.86 3.23776 0.9375 5.44276 0.9375H7.73026C7.88776 0.9375 8.03776 1.005 8.15026 1.125C8.26276 1.245 8.30776 1.4025 8.29276 1.56L7.76776 6.8175C7.61026 8.3325 6.25276 9.5625 4.73026 9.5625ZM5.44276 2.0625C3.80026 2.0625 3.25276 2.5575 3.01276 4.275L2.81026 6.3225C2.75026 6.8925 2.92276 7.425 3.28276 7.8225C3.64276 8.22 4.15276 8.4375 4.73026 8.4375C5.67526 8.4375 6.55276 7.6425 6.64276 6.705L7.10776 2.0625H5.44276Z" fill="#202C38"/>
<path id="Vector_5" d="M11.375 17.0625H7.625C7.3175 17.0625 7.0625 16.8075 7.0625 16.5V14.625C7.0625 13.05 7.925 12.1875 9.5 12.1875C11.075 12.1875 11.9375 13.05 11.9375 14.625V16.5C11.9375 16.8075 11.6825 17.0625 11.375 17.0625ZM8.1875 15.9375H10.8125V14.625C10.8125 13.68 10.445 13.3125 9.5 13.3125C8.555 13.3125 8.1875 13.68 8.1875 14.625V15.9375Z" fill="#202C38"/>
</g>
</g>
</g>
</svg>
