<svg width="11" height="10" viewBox="0 0 11 10" fill="none" xmlns="http://www.w3.org/2000/svg">
<path d="M8.45925 6.16C8.32975 6.2855 8.27025 6.467 8.29975 6.645L8.74426 9.105C8.78176 9.3135 8.69376 9.5245 8.51925 9.645C8.34825 9.77 8.12075 9.785 7.93425 9.685L5.71975 8.53C5.64275 8.489 5.55725 8.467 5.46975 8.4645H5.33425C5.28725 8.4715 5.24125 8.4865 5.19925 8.5095L2.98425 9.67C2.87475 9.725 2.75075 9.7445 2.62925 9.725C2.33325 9.669 2.13575 9.387 2.18425 9.0895L2.62925 6.6295C2.65875 6.45 2.59925 6.2675 2.46975 6.14L0.664255 4.39C0.513255 4.2435 0.460755 4.0235 0.529755 3.825C0.596755 3.627 0.767755 3.4825 0.974255 3.45L3.45925 3.0895C3.64825 3.07 3.81425 2.955 3.89925 2.785L4.99425 0.54C5.02025 0.49 5.05375 0.444 5.09425 0.405L5.13925 0.37C5.16275 0.344 5.18975 0.3225 5.21975 0.305L5.27425 0.285L5.35925 0.25H5.56975C5.75775 0.2695 5.92325 0.382 6.00975 0.55L7.11925 2.785C7.19925 2.9485 7.35475 3.062 7.53426 3.0895L10.0193 3.45C10.2293 3.48 10.4048 3.625 10.4743 3.825C10.5398 4.0255 10.4833 4.2455 10.3293 4.39L8.45925 6.16Z" fill=""/>
</svg>
