<svg width="65" height="64" viewBox="0 0 65 64" fill="none" xmlns="http://www.w3.org/2000/svg">
<path d="M32.5007 5.33334C17.8073 5.33334 5.83398 17.3067 5.83398 32C5.83398 46.6933 17.8073 58.6667 32.5007 58.6667C47.194 58.6667 59.1673 46.6933 59.1673 32C59.1673 17.3067 47.194 5.33334 32.5007 5.33334ZM45.2473 25.8667L30.1273 40.9867C29.754 41.36 29.2473 41.5733 28.714 41.5733C28.1807 41.5733 27.674 41.36 27.3007 40.9867L19.754 33.44C18.9807 32.6667 18.9807 31.3867 19.754 30.6133C20.5273 29.84 21.8073 29.84 22.5807 30.6133L28.714 36.7467L42.4207 23.04C43.194 22.2667 44.474 22.2667 45.2473 23.04C46.0207 23.8133 46.0207 25.0667 45.2473 25.8667Z" fill="#1BB045"/>
</svg>
