<svg width="32" height="32" viewBox="0 0 32 32" fill="none" xmlns="http://www.w3.org/2000/svg">
<path d="M29.3118 21.856C27.8398 20.384 25.6638 19.904 23.7118 20.608L19.1998 16.064L23.7438 11.52C25.6958 12.224 27.8718 11.776 29.3438 10.272C30.7838 8.83197 31.2958 6.62397 30.5918 4.70397C30.5278 4.54397 30.3998 4.44797 30.2398 4.38397C30.0798 4.35197 29.9198 4.38397 29.7918 4.51197L27.0398 7.26397L24.7678 4.99197L27.5198 2.30397C27.6478 2.17597 27.6798 2.01597 27.6478 1.85597C27.6158 1.69597 27.4878 1.56797 27.3278 1.50397C25.4078 0.799974 23.1998 1.31197 21.7598 2.75197C20.2878 4.22397 19.8078 6.39997 20.5118 8.35197L15.9998 12.896L11.4558 8.35197C12.1918 6.39997 11.7118 4.25597 10.2398 2.75197C8.79978 1.31197 6.59178 0.799974 4.67178 1.50397C4.51178 1.56797 4.41578 1.69597 4.35178 1.85597C4.28778 2.01597 4.35178 2.17597 4.47978 2.30397L7.23178 5.05597L4.95978 7.32797L2.20778 4.57597C2.07978 4.44797 1.91978 4.41597 1.75978 4.44797C1.59978 4.47997 1.47178 4.60797 1.40778 4.76797C0.703783 6.68797 1.21578 8.89597 2.65578 10.336C4.12778 11.808 6.30378 12.288 8.25578 11.584L12.7998 16.064L8.28778 20.608C6.33578 19.904 4.15978 20.352 2.68778 21.856C1.24778 23.296 0.735783 25.504 1.43978 27.424C1.50378 27.584 1.63178 27.68 1.79178 27.744C1.95178 27.776 2.11178 27.744 2.23978 27.616L4.99178 24.864L7.26378 27.136L4.47978 29.856C4.35178 29.984 4.31978 30.144 4.35178 30.304C4.38378 30.464 4.51178 30.592 4.67178 30.656C5.24778 30.848 5.85578 30.976 6.46378 30.976C7.87178 30.976 9.24778 30.432 10.2398 29.408C11.7118 27.936 12.1918 25.76 11.4878 23.808L15.9998 19.264L20.5438 23.808C19.8398 25.76 20.2878 27.936 21.7918 29.408C22.8158 30.432 24.1918 30.976 25.5678 30.976C26.1758 30.976 26.7838 30.88 27.3598 30.656C27.5198 30.592 27.6158 30.464 27.6798 30.304C27.7118 30.144 27.6798 29.984 27.5518 29.856L24.7998 27.104L27.0718 24.832L29.8238 27.584C29.9518 27.712 30.1118 27.744 30.2718 27.712C30.4318 27.68 30.5598 27.552 30.6238 27.392C31.2638 25.472 30.7838 23.296 29.3118 21.856ZM8.73578 10.656C8.63978 10.56 8.51178 10.528 8.38378 10.528C8.31978 10.528 8.25578 10.528 8.19178 10.56C6.52778 11.296 4.63978 10.912 3.35978 9.63197C2.36778 8.63997 1.91978 7.19997 2.14378 5.82397L4.63978 8.31997C4.83178 8.51197 5.11978 8.51197 5.31178 8.31997L8.25578 5.37597C8.44778 5.18397 8.44778 4.89597 8.25578 4.70397L5.75978 2.20797C7.13578 1.98397 8.54378 2.43197 9.56778 3.42397C10.8478 4.70397 11.1998 6.59197 10.4958 8.25597C10.4318 8.44797 10.4638 8.63997 10.5918 8.79997L15.3598 13.568L13.5358 15.392L8.73578 10.656ZM10.4638 23.872C11.1998 25.536 10.8158 27.424 9.53578 28.704C8.54378 29.696 7.10378 30.144 5.72778 29.92L8.22378 27.424C8.41578 27.232 8.41578 26.944 8.22378 26.752L5.27978 23.808C5.08778 23.616 4.76778 23.616 4.60778 23.808L2.11178 26.304C1.91978 24.96 2.36778 23.52 3.35978 22.528C4.63978 21.248 6.52778 20.896 8.19178 21.6C8.38378 21.664 8.57578 21.632 8.73578 21.504L21.4398 8.79997C21.5678 8.67197 21.6318 8.44797 21.5358 8.25597C20.7998 6.59197 21.1838 4.70397 22.4638 3.42397C23.4558 2.43197 24.8958 1.98397 26.2718 2.20797L23.7758 4.70397C23.5838 4.89597 23.5838 5.18397 23.7758 5.37597L26.7198 8.31997C26.9118 8.51197 27.1998 8.51197 27.3918 8.31997L29.8878 5.82397C30.1118 7.19997 29.6638 8.60797 28.6718 9.63197C27.3918 10.912 25.5038 11.264 23.8398 10.56C23.6478 10.496 23.4558 10.528 23.2958 10.656L10.5598 23.328C10.4318 23.488 10.3998 23.68 10.4638 23.872ZM29.8558 26.336L27.3598 23.84C27.1678 23.648 26.8478 23.648 26.6878 23.84L23.7438 26.784C23.5518 26.976 23.5518 27.264 23.7438 27.456L26.2398 29.952C24.8638 30.176 23.4558 29.728 22.4318 28.736C21.1518 27.456 20.7998 25.568 21.5038 23.904C21.5678 23.712 21.5358 23.52 21.4078 23.36L16.6718 18.592L18.4958 16.768L23.2638 21.536C23.3918 21.664 23.6158 21.728 23.8078 21.632C25.4718 20.896 27.3598 21.28 28.6398 22.56C29.6318 23.52 30.0798 24.96 29.8558 26.336Z" fill="#202C38"/>
</svg>
