<svg width="32" height="32" viewBox="0 0 32 32" fill="none" xmlns="http://www.w3.org/2000/svg">
<path d="M27.3606 16.0959C27.2006 15.8719 26.9126 15.8079 26.6886 15.9679L23.6486 17.9839L19.9046 16.7679C20.0006 16.2559 20.0006 15.7439 19.9046 15.2319L23.8726 13.9519C24.0006 13.9199 24.1286 13.7919 24.1606 13.6639L25.5366 10.0159C25.6326 9.75994 25.5046 9.50394 25.2486 9.40794C24.9926 9.31194 24.7366 9.43994 24.6406 9.69594L23.3606 13.1199L19.6166 14.3359C19.3926 13.8879 19.1046 13.4399 18.7206 13.0879L21.1526 9.72794C21.2486 9.59994 21.2806 9.47194 21.2166 9.31194L20.1926 5.56794C20.1286 5.31194 19.8726 5.15194 19.6166 5.24794C19.3606 5.31194 19.2006 5.56794 19.2966 5.82394L20.2566 9.34394L17.9526 12.5119C17.5046 12.2559 16.9926 12.0959 16.4806 12.0319V7.87194C16.4806 7.71194 16.4166 7.58394 16.2886 7.48794L13.2486 5.05594C13.0566 4.89594 12.7366 4.92794 12.5766 5.11994C12.4166 5.31194 12.4486 5.63194 12.6406 5.79194L15.4886 8.06394V11.9999C14.9766 12.0639 14.4966 12.2239 14.0166 12.4799L11.5846 9.11994C11.5206 9.02394 11.3926 8.95994 11.2646 8.95994L7.36064 8.76794C7.10464 8.76794 6.88064 8.95994 6.84864 9.21594C6.81664 9.47194 7.04064 9.69594 7.29664 9.72794L10.9446 9.88794L13.2486 13.0559C13.0566 13.2159 12.8966 13.4079 12.7366 13.6319C12.5766 13.8559 12.4486 14.0799 12.3526 14.3039L8.41664 13.0239C8.28864 12.9919 8.12864 12.9919 8.00064 13.0879L4.76864 15.2319C4.54464 15.3599 4.48064 15.6799 4.64064 15.9039C4.73664 16.0319 4.89664 16.1279 5.05664 16.1279C5.15264 16.1279 5.24864 16.0959 5.31264 16.0639L8.35264 14.0479L12.0966 15.2639C12.0006 15.7759 12.0006 16.2879 12.0966 16.7999L8.12864 18.0799C8.00064 18.1119 7.87264 18.2399 7.84064 18.3679L6.46464 22.0159C6.36864 22.2719 6.49664 22.5279 6.75264 22.6239C6.81664 22.6559 6.88064 22.6559 6.91264 22.6559C7.10464 22.6559 7.29664 22.5279 7.36064 22.3359L8.64064 18.8799L12.3846 17.6639C12.6086 18.1119 12.8966 18.5599 13.2806 18.9119L10.8486 22.2719C10.7526 22.3999 10.7206 22.5279 10.7846 22.6879L11.8086 26.4319C11.8726 26.6559 12.0646 26.7839 12.2566 26.7839C12.2886 26.7839 12.3526 26.7839 12.3846 26.7519C12.6406 26.6879 12.8006 26.4319 12.7046 26.1759L11.7446 22.6559L14.0486 19.4879C14.4966 19.7439 15.0086 19.9039 15.5206 19.9679V24.1279C15.5206 24.2879 15.5846 24.4159 15.7126 24.5119L18.7526 26.9439C18.8486 27.0079 18.9446 27.0399 19.0406 27.0399C19.1686 27.0399 19.3286 26.9759 19.4246 26.8479C19.5846 26.6559 19.5526 26.3359 19.3606 26.1759L16.5126 23.9039V19.9679C17.0246 19.9039 17.5046 19.7439 17.9846 19.4879L20.4166 22.8479C20.5126 22.9759 20.6406 23.0399 20.7686 23.0399L24.6406 23.2319H24.6726C24.9286 23.2319 25.1526 23.0399 25.1526 22.7839C25.1526 22.5279 24.9606 22.3039 24.7046 22.2719L21.0566 22.1119L18.7526 18.9439C18.9446 18.7839 19.1046 18.5919 19.2646 18.3679C19.4246 18.1439 19.5526 17.9199 19.6486 17.6959L23.5846 18.9759C23.6486 18.9759 23.6806 19.0079 23.7446 19.0079C23.8406 19.0079 23.9366 18.9759 24.0006 18.9439L27.2326 16.7999C27.4566 16.6399 27.5206 16.3199 27.3606 16.0959ZM14.2086 18.4639C12.8646 17.4719 12.5446 15.5839 13.5366 14.2079C14.1446 13.3759 15.0726 12.9599 16.0006 12.9599C16.6086 12.9599 17.2486 13.1519 17.7926 13.5359C19.1366 14.5279 19.4566 16.4159 18.4646 17.7919C17.4726 19.1359 15.5846 19.4559 14.2086 18.4639Z" fill="#202C38"/>
<path d="M24.7363 3.96795C18.1123 -0.864052 8.80031 0.607949 3.96831 7.26395C-0.863686 13.8879 0.608315 23.2319 7.26431 28.0639C9.88831 29.9839 12.9603 30.9119 16.0003 30.9119C20.6083 30.9119 25.1523 28.7999 28.0643 24.7679C32.8643 18.1119 31.3923 8.79995 24.7363 3.96795ZM27.2643 24.1919C22.7523 30.3999 14.0163 31.7759 7.80831 27.2639C1.60031 22.7519 0.224315 14.0159 4.73631 7.80795C7.45631 4.06395 11.7123 2.07995 16.0323 2.07995C18.8803 2.07995 21.7283 2.94395 24.1923 4.73595C30.4003 9.24795 31.7763 17.9839 27.2643 24.1919Z" fill="#F5B102"/>
</svg>
