<svg width="21" height="20" viewBox="0 0 21 20" fill="none" xmlns="http://www.w3.org/2000/svg">
<path d="M16.3157 10.5689C16.3067 8.9302 17.053 7.69336 18.5637 6.78248C17.7185 5.58137 16.4416 4.92054 14.7556 4.79105C13.1595 4.66603 11.415 5.71533 10.7766 5.71533C10.1022 5.71533 8.55553 4.8357 7.3416 4.8357C4.83281 4.87589 2.16666 6.82267 2.16666 10.7832C2.16666 11.9531 2.38247 13.1631 2.81409 14.4089C3.38959 16.0476 5.46675 20.0662 7.63384 19.9992C8.76684 19.9724 9.56714 19.1999 11.0418 19.1999C12.4716 19.1999 13.2134 19.9992 14.4768 19.9992C16.6619 19.9679 18.5412 16.3155 19.0897 14.6723C16.1583 13.3015 16.3157 10.6537 16.3157 10.5689ZM13.7709 3.2372C14.9984 1.7905 14.8859 0.4733 14.85 0C13.7664 0.0625114 12.512 0.732276 11.7972 1.55832C11.0104 2.44241 10.5473 3.53636 10.6462 4.76872C11.8197 4.85803 12.8897 4.2597 13.7709 3.2372Z" fill="black"/>
</svg>
