<svg width="12" height="7" viewBox="0 0 12 7" fill="none" xmlns="http://www.w3.org/2000/svg">
<mask id="path-1-inside-1_3123_9740" fill="white">
<path d="M5.93333 6.73255C5.8 6.73255 5.66667 6.66589 5.6 6.59922L0.333334 1.33255C0.133334 1.13255 0.133334 0.799219 0.333334 0.599219C0.533334 0.399219 0.866668 0.399219 1.06667 0.599219L6 5.53255L10.9333 0.599219C11.1333 0.399219 11.4667 0.399219 11.6667 0.599219C11.8667 0.799219 11.8667 1.13255 11.6667 1.33255L6.4 6.59922C6.2 6.66589 6.06667 6.73255 5.93333 6.73255Z"/>
</mask>
<path d="M5.93333 6.73255C5.8 6.73255 5.66667 6.66589 5.6 6.59922L0.333334 1.33255C0.133334 1.13255 0.133334 0.799219 0.333334 0.599219C0.533334 0.399219 0.866668 0.399219 1.06667 0.599219L6 5.53255L10.9333 0.599219C11.1333 0.399219 11.4667 0.399219 11.6667 0.599219C11.8667 0.799219 11.8667 1.13255 11.6667 1.33255L6.4 6.59922C6.2 6.66589 6.06667 6.73255 5.93333 6.73255Z" fill="#202C38"/>
<path d="M5.6 6.59922L6.48388 5.71534L5.6 6.59922ZM0.333334 1.33255L-0.550549 2.21644L0.333334 1.33255ZM1.06667 0.599219L1.95055 -0.284665L1.06667 0.599219ZM6 5.53255L5.11612 6.41644L6 7.30032L6.88388 6.41644L6 5.53255ZM10.9333 0.599219L10.0495 -0.284665L10.9333 0.599219ZM11.6667 1.33255L10.7828 0.448669V0.448669L11.6667 1.33255ZM6.4 6.59922L6.79529 7.78507L7.07523 7.69176L7.28389 7.4831L6.4 6.59922ZM5.93333 5.48255C6.06776 5.48255 6.16898 5.51406 6.23407 5.54196C6.2938 5.56755 6.385 5.61646 6.48388 5.71534L4.71612 7.4831C5.00142 7.76841 5.44681 7.98255 5.93333 7.98255V5.48255ZM6.48388 5.71534L1.21722 0.448669L-0.550549 2.21644L4.71612 7.4831L6.48388 5.71534ZM1.21722 0.448669C1.50537 0.736824 1.50537 1.19495 1.21722 1.4831L-0.550549 -0.284665C-1.2387 0.403491 -1.2387 1.52828 -0.550549 2.21644L1.21722 0.448669ZM1.21722 1.4831C0.929062 1.77126 0.47094 1.77126 0.182784 1.4831L1.95055 -0.284665C1.2624 -0.97282 0.137606 -0.97282 -0.550549 -0.284665L1.21722 1.4831ZM0.182784 1.4831L5.11612 6.41644L6.88388 4.64867L1.95055 -0.284665L0.182784 1.4831ZM6.88388 6.41644L11.8172 1.4831L10.0495 -0.284665L5.11612 4.64867L6.88388 6.41644ZM11.8172 1.4831C11.5291 1.77126 11.0709 1.77126 10.7828 1.4831L12.5506 -0.284665C11.8624 -0.97282 10.7376 -0.97282 10.0495 -0.284665L11.8172 1.4831ZM10.7828 1.4831C10.4946 1.19495 10.4946 0.736824 10.7828 0.448669L12.5506 2.21644C13.2387 1.52828 13.2387 0.403491 12.5506 -0.284665L10.7828 1.4831ZM10.7828 0.448669L5.51612 5.71534L7.28389 7.4831L12.5506 2.21644L10.7828 0.448669ZM6.00472 5.41336C5.93601 5.43627 5.87533 5.45842 5.83198 5.47427C5.80859 5.48283 5.79244 5.48876 5.77676 5.4944C5.76178 5.49978 5.75247 5.503 5.74638 5.50503C5.73253 5.50965 5.74596 5.50446 5.77499 5.4983C5.80647 5.49163 5.86166 5.48255 5.93333 5.48255V7.98255C6.20356 7.98255 6.42303 7.91471 6.53695 7.87674C6.59563 7.85718 6.65498 7.83524 6.69094 7.82208C6.73301 7.80669 6.76399 7.79551 6.79529 7.78507L6.00472 5.41336Z" fill="#202C38" mask="url(#path-1-inside-1_3123_9740)"/>
</svg>
