<svg width="36" height="32" viewBox="0 0 36 32" fill="none" xmlns="http://www.w3.org/2000/svg">
<ellipse opacity="0.5" cx="18" cy="29" rx="16" ry="1" fill="#D97400"/>
<g clip-path="url(#clip0_1595_78216)">
<path d="M7.79919 12.4114V20.672C7.79917 20.8231 7.83821 20.9717 7.91253 21.1033C7.98684 21.2349 8.0939 21.345 8.22333 21.423L15.159 25.6012C15.2933 25.6821 15.4469 25.7255 15.6036 25.7268C15.7604 25.7282 15.9147 25.6876 16.0504 25.6091L27.7629 18.8351C27.896 18.7581 28.0066 18.6475 28.0834 18.5143C28.1603 18.3811 28.2007 18.23 28.2007 18.0762V9.02637L7.79919 12.4114Z" fill="#FFC107"/>
<path d="M30 7.97439V9.47134C29.9999 9.62507 29.9595 9.77608 29.8827 9.90925C29.8059 10.0424 29.6954 10.1531 29.5624 10.2301L15.6279 18.2893C15.4922 18.3678 15.3378 18.4085 15.181 18.4072C15.0242 18.4058 14.8706 18.3624 14.7362 18.2815L6.42414 13.2742C6.29462 13.1963 6.18749 13.0861 6.11316 12.9545C6.03884 12.8229 5.99985 12.6742 6 12.5231V11.0153C5.99986 10.8606 6.04072 10.7087 6.1184 10.5749C6.19609 10.4412 6.30783 10.3304 6.44224 10.2539L20.22 2.38772C20.3523 2.31219 20.5021 2.27246 20.6545 2.27246C20.8069 2.27246 20.9566 2.31219 21.089 2.38772L29.5572 7.21249C29.6916 7.28921 29.8034 7.40009 29.8811 7.53388C29.9589 7.66768 29.9999 7.81964 30 7.97439Z" fill="#0383CC"/>
<path d="M29.8811 7.53375L15.6279 15.7776C15.4921 15.8559 15.3377 15.8964 15.181 15.8949C15.0242 15.8935 14.8706 15.8501 14.7362 15.7694L6.11743 10.5766C6.19534 10.4423 6.30741 10.331 6.44226 10.2539L20.22 2.38772C20.3524 2.31219 20.5021 2.27246 20.6545 2.27246C20.8069 2.27246 20.9566 2.31219 21.089 2.38772L29.5573 7.21249C29.6915 7.28931 29.8032 7.40011 29.8811 7.53375Z" fill="#03A1FA"/>
<path d="M10.8354 9.42049C10.8354 10.0025 11.5011 10.4743 12.3221 10.4743C13.1431 10.4743 13.8088 10.0025 13.8088 9.42049V7.70801H10.8354V9.42049Z" fill="#607D8B"/>
<path d="M12.3221 8.76195C13.1432 8.76195 13.8088 8.29014 13.8088 7.70812C13.8088 7.12611 13.1432 6.6543 12.3221 6.6543C11.501 6.6543 10.8354 7.12611 10.8354 7.70812C10.8354 8.29014 11.501 8.76195 12.3221 8.76195Z" fill="#90A4AE"/>
<path d="M17.697 5.60018C17.697 6.18218 18.3625 6.65401 19.1836 6.65401C20.0047 6.65401 20.6703 6.18218 20.6703 5.60018V3.8877H17.697V5.60018Z" fill="#607D8B"/>
<path d="M19.1836 4.94164C20.0047 4.94164 20.6703 4.46982 20.6703 3.88781C20.6703 3.3058 20.0047 2.83398 19.1836 2.83398C18.3626 2.83398 17.697 3.3058 17.697 3.88781C17.697 4.46982 18.3626 4.94164 19.1836 4.94164Z" fill="#90A4AE"/>
<path d="M17.0512 10.9603L13.9147 12.7744C13.8613 12.8041 13.8143 12.8441 13.7766 12.8922C13.7388 12.9402 13.711 12.9953 13.6947 13.0542C13.6784 13.1131 13.6741 13.1746 13.6818 13.2352C13.6896 13.2958 13.7094 13.3543 13.74 13.4072C13.7706 13.4601 13.8114 13.5063 13.86 13.5433C13.9087 13.5802 13.9642 13.6071 14.0234 13.6224C14.0826 13.6377 14.1442 13.641 14.2046 13.6322C14.2651 13.6235 14.3232 13.6027 14.3756 13.5712L17.5121 11.7572C17.5655 11.7275 17.6125 11.6874 17.6503 11.6394C17.688 11.5914 17.7159 11.5363 17.7321 11.4774C17.7484 11.4185 17.7528 11.3569 17.745 11.2963C17.7372 11.2357 17.7175 11.1773 17.6869 11.1244C17.6563 11.0715 17.6154 11.0252 17.5668 10.9883C17.5181 10.9513 17.4626 10.9244 17.4034 10.9091C17.3443 10.8939 17.2827 10.8905 17.2222 10.8993C17.1617 10.9081 17.1036 10.9288 17.0512 10.9603Z" fill="#FFC107"/>
<path d="M25.3226 8.61238L24.1478 7.94302L24.9462 7.48128C25.0495 7.41898 25.1242 7.31862 25.1542 7.2018C25.1843 7.08498 25.1673 6.96103 25.1069 6.85661C25.0465 6.75219 24.9476 6.67565 24.8313 6.64344C24.7151 6.61124 24.5908 6.62595 24.4853 6.68441L23.2216 7.41527L21.423 6.39046C21.3171 6.3319 21.1923 6.31742 21.0758 6.35017C20.9593 6.38292 20.8603 6.46026 20.8004 6.56544C20.7404 6.67062 20.7243 6.79517 20.7556 6.91213C20.7868 7.02908 20.8629 7.12903 20.9673 7.19033L22.2988 7.94902L20.9647 8.72059C20.9112 8.75023 20.8642 8.79024 20.8263 8.83827C20.7884 8.88631 20.7605 8.94141 20.7442 9.00036C20.7279 9.0593 20.7234 9.12091 20.7312 9.18158C20.7389 9.24226 20.7587 9.30078 20.7893 9.35372C20.8199 9.40667 20.8608 9.45299 20.9095 9.48996C20.9583 9.52694 21.0139 9.55383 21.0731 9.56907C21.1323 9.58432 21.194 9.5876 21.2545 9.57874C21.3151 9.56987 21.3732 9.54904 21.4256 9.51745L23.225 8.47676L24.8668 9.41224C24.9728 9.47051 25.0974 9.48478 25.2137 9.45195C25.3301 9.41912 25.4288 9.34184 25.4887 9.23679C25.5485 9.13175 25.5647 9.00738 25.5336 8.89055C25.5025 8.77371 25.4267 8.67379 25.3226 8.61238Z" fill="#FFC107"/>
<path d="M23.0451 15.0898L20.7782 16.4752L20.6703 19.4842L21.7874 18.778L22.1276 21.4272L23.18 17.014L22.0736 17.5726L23.0451 15.0898Z" fill="#FFC107"/>
</g>
<defs>
<clipPath id="clip0_1595_78216">
<rect width="24" height="24" fill="white" transform="translate(6 2)"/>
</clipPath>
</defs>
</svg>
