<svg width="14" height="14" viewBox="0 0 14 14" fill="#161629" xmlns="http://www.w3.org/2000/svg">
<path fill-rule="evenodd" clip-rule="evenodd" d="M11.3928 2.60731C11.5636 2.77817 11.5636 3.05518 11.3928 3.22603L3.22611 11.3927C3.05525 11.5636 2.77824 11.5636 2.60739 11.3927C2.43653 11.2218 2.43653 10.9448 2.60739 10.774L10.7741 2.60731C10.9449 2.43646 11.2219 2.43646 11.3928 2.60731Z"/>
<path fill-rule="evenodd" clip-rule="evenodd" d="M2.60739 2.60731C2.77824 2.43646 3.05525 2.43646 3.22611 2.60731L11.3928 10.774C11.5636 10.9448 11.5636 11.2218 11.3928 11.3927C11.2219 11.5636 10.9449 11.5636 10.7741 11.3927L2.60739 3.22603C2.43653 3.05518 2.43653 2.77817 2.60739 2.60731Z"/>
</svg>
