<svg width="16" height="16" viewBox="0 0 16 16" fill="none" xmlns="http://www.w3.org/2000/svg">
<g id="Icon">
<g id="vuesax/bold/close-circle">
<g id="close-circle">
<path id="Vector" d="M8.00004 1.33301C4.32671 1.33301 1.33337 4.32634 1.33337 7.99967C1.33337 11.673 4.32671 14.6663 8.00004 14.6663C11.6734 14.6663 14.6667 11.673 14.6667 7.99967C14.6667 4.32634 11.6734 1.33301 8.00004 1.33301ZM10.24 9.53301C10.4334 9.72634 10.4334 10.0463 10.24 10.2397C10.14 10.3397 10.0134 10.3863 9.88671 10.3863C9.76004 10.3863 9.63337 10.3397 9.53337 10.2397L8.00004 8.70634L6.46671 10.2397C6.36671 10.3397 6.24004 10.3863 6.11337 10.3863C5.98671 10.3863 5.86004 10.3397 5.76004 10.2397C5.56671 10.0463 5.56671 9.72634 5.76004 9.53301L7.29337 7.99967L5.76004 6.46634C5.56671 6.27301 5.56671 5.95301 5.76004 5.75968C5.95337 5.56634 6.27337 5.56634 6.46671 5.75968L8.00004 7.29301L9.53337 5.75968C9.72671 5.56634 10.0467 5.56634 10.24 5.75968C10.4334 5.95301 10.4334 6.27301 10.24 6.46634L8.70671 7.99967L10.24 9.53301Z" fill=""/>
</g>
</g>
</g>
</svg>
