<svg width="16" height="16" viewBox="0 0 16 16" fill="none" xmlns="http://www.w3.org/2000/svg">
<rect width="16" height="16" rx="8" fill="#919699"/>
<path d="M5.53282 10.75C5.46037 10.75 5.38792 10.7224 5.33288 10.667C5.22237 10.5565 5.22237 10.3773 5.33288 10.2668L10.2668 5.33288C10.3773 5.22237 10.5565 5.22237 10.667 5.33288C10.7775 5.44338 10.7775 5.62253 10.667 5.7331L5.7331 10.667C5.67765 10.7221 5.6052 10.75 5.53282 10.75Z" fill="white"/>
<path d="M10.4671 10.75C10.3947 10.75 10.3223 10.7224 10.2672 10.667L5.33288 5.7331C5.22237 5.62253 5.22237 5.44338 5.33288 5.33288C5.44338 5.22237 5.62253 5.22237 5.7331 5.33288L10.667 10.2668C10.7775 10.3773 10.7775 10.5565 10.667 10.667C10.6115 10.7221 10.5391 10.75 10.4671 10.75Z" fill="white"/>
</svg>
