<svg width="160" height="160" viewBox="0 0 160 160" fill="none" xmlns="http://www.w3.org/2000/svg">
<g id="Frame 8884">
<g id="56">
<g id="Group 707">
<g id="Group 705">
<g id="Group 664">
<path id="Vector" d="M83.7591 139.633C111.759 139.633 134.459 116.933 134.459 88.8333C134.459 60.7333 111.659 38.0333 83.7591 38.0333C55.7591 38.0333 33.0591 60.7333 33.0591 88.8333C33.0591 116.933 55.7591 139.633 83.7591 139.633Z" fill="#EAEEF9"/>
<path id="Vector_2" d="M137.609 121.61C139.873 121.61 141.709 119.775 141.709 117.51C141.709 115.246 139.873 113.41 137.609 113.41C135.344 113.41 133.509 115.246 133.509 117.51C133.509 119.775 135.344 121.61 137.609 121.61Z" fill="#EAEEF9"/>
<path id="Vector_3" d="M143.609 105.61C145.155 105.61 146.409 104.357 146.409 102.81C146.409 101.264 145.155 100.01 143.609 100.01C142.063 100.01 140.809 101.264 140.809 102.81C140.809 104.357 142.063 105.61 143.609 105.61Z" fill="#EAEEF9"/>
<path id="Vector_4" d="M35.759 55.4333C37.3054 55.4333 38.559 54.1797 38.559 52.6333C38.559 51.0869 37.3054 49.8333 35.759 49.8333C34.2126 49.8333 32.959 51.0869 32.959 52.6333C32.959 54.1797 34.2126 55.4333 35.759 55.4333Z" fill="#EAEEF9"/>
<path id="Vector_5" d="M18.659 109.433C21.5309 109.433 23.859 107.105 23.859 104.233C23.859 101.361 21.5309 99.0333 18.659 99.0333C15.7871 99.0333 13.459 101.361 13.459 104.233C13.459 107.105 15.7871 109.433 18.659 109.433Z" fill="#EAEEF9"/>
</g>
</g>
<path id="Vector_6" d="M90.1203 107.251H78.8531C76.2424 107.251 74.0439 109.66 74.0439 112.52V118.691C74.0439 125.013 78.7157 130.131 84.4867 130.131C90.2577 130.131 94.9294 125.013 94.9294 118.691V112.52C94.9294 109.509 92.731 107.251 90.1203 107.251Z" fill="white"/>
<g id="Group 706">
<g id="Union" filter="url(#filter0_d_1212_54415)">
<path fill-rule="evenodd" clip-rule="evenodd" d="M89.1203 48.1172C100.145 50.6673 108.357 60.5407 108.357 72.3398V75.4992C108.357 102.148 128.418 119.593 128.418 119.593H38.418C38.418 119.593 58.6164 102.148 58.6164 75.4992V72.3398C58.6164 60.5407 66.8284 50.6673 77.8531 48.1172V47.0651C77.8531 43.9058 80.3264 41.4332 83.4867 41.4332C86.647 41.4332 89.1203 43.9058 89.1203 47.0651V48.1172Z" fill="url(#paint0_linear_1212_54415)"/>
</g>
<g id="Group">
<path id="Vector_7" d="M73.044 86.3508C69.6089 86.3508 66.7234 84.153 65.6242 80.9937C65.3494 80.3068 65.7616 79.62 66.4486 79.3453C67.1356 79.0706 67.8226 79.4827 68.0974 80.1695C68.7845 82.2299 70.8455 83.7409 73.044 83.7409C75.2425 83.7409 77.3036 82.3673 77.9906 80.1695C78.2654 79.4827 78.9524 79.0706 79.6394 79.3453C80.3265 79.62 80.7387 80.3068 80.4639 80.9937C79.3646 84.2904 76.4791 86.3508 73.044 86.3508Z" fill="#ADB6C8"/>
<path id="Vector_8" d="M93.7921 86.3508C90.3569 86.3508 87.4714 84.153 86.3722 80.9937C86.0974 80.3068 86.5096 79.62 87.1966 79.3453C87.8837 79.0706 88.5707 79.4827 88.8455 80.1695C89.5325 82.2299 91.5936 83.7409 93.7921 83.7409C95.9905 83.7409 98.0516 82.3673 98.7386 80.1695C99.0134 79.4827 99.7005 79.0706 100.387 79.3453C101.074 79.62 101.487 80.3068 101.212 80.9937C100.113 84.2904 97.2272 86.3508 93.7921 86.3508Z" fill="#ADB6C8"/>
</g>
<path id="Vector_9" d="M83.4865 103.169C85.2319 103.169 86.6468 101.755 86.6468 100.01C86.6468 98.2653 85.2319 96.8508 83.4865 96.8508C81.7411 96.8508 80.3262 98.2653 80.3262 100.01C80.3262 101.755 81.7411 103.169 83.4865 103.169Z" fill="#ADB6C8"/>
<g id="Group_2">
<path id="Vector_10" d="M100.421 25.6621V21.0125H118.391V25.6621L106.129 40.4565H118.602V45.1062H99.7866V40.4565L112.049 25.6621H100.421Z" fill="url(#paint1_linear_1212_54415)"/>
</g>
<g id="Group_3">
<path id="Vector_11" d="M115.22 60.5346V57.5757H126.847V60.5346L119.025 70.0453H127.059V73.0042H114.797V70.0453L122.619 60.5346H115.22Z" fill="url(#paint2_linear_1212_54415)"/>
</g>
</g>
</g>
</g>
</g>
<defs>
<filter id="filter0_d_1212_54415" x="16.418" y="30.4332" width="134" height="122.159" filterUnits="userSpaceOnUse" color-interpolation-filters="sRGB">
<feFlood flood-opacity="0" result="BackgroundImageFix"/>
<feColorMatrix in="SourceAlpha" type="matrix" values="0 0 0 0 0 0 0 0 0 0 0 0 0 0 0 0 0 0 127 0" result="hardAlpha"/>
<feOffset dy="11"/>
<feGaussianBlur stdDeviation="11"/>
<feColorMatrix type="matrix" values="0 0 0 0 0.397708 0 0 0 0 0.47749 0 0 0 0 0.575 0 0 0 0.27 0"/>
<feBlend mode="normal" in2="BackgroundImageFix" result="effect1_dropShadow_1212_54415"/>
<feBlend mode="normal" in="SourceGraphic" in2="effect1_dropShadow_1212_54415" result="shape"/>
</filter>
<linearGradient id="paint0_linear_1212_54415" x1="83.3886" y1="39.6253" x2="83.3886" y2="120.435" gradientUnits="userSpaceOnUse">
<stop stop-color="#FDFEFF"/>
<stop offset="0.9964" stop-color="#ECF0F5"/>
</linearGradient>
<linearGradient id="paint1_linear_1212_54415" x1="109.196" y1="21.8494" x2="109.196" y2="35.373" gradientUnits="userSpaceOnUse">
<stop stop-color="#B0BACC"/>
<stop offset="1" stop-color="#969EAE"/>
</linearGradient>
<linearGradient id="paint2_linear_1212_54415" x1="120.929" y1="58.1117" x2="120.929" y2="66.7715" gradientUnits="userSpaceOnUse">
<stop stop-color="#B0BACC"/>
<stop offset="1" stop-color="#969EAE"/>
</linearGradient>
</defs>
</svg>
