<svg width="186" height="160" viewBox="0 0 186 160" fill="none" xmlns="http://www.w3.org/2000/svg">
<g id="Frame 8884">
<g id="Settings">
<g id="08">
<path id="Vector" d="M96.7018 134.979C124.695 134.979 147.389 112.143 147.389 83.9735C147.389 55.8038 124.695 32.9678 96.7018 32.9678C68.708 32.9678 46.0146 55.8038 46.0146 83.9735C46.0146 112.143 68.708 134.979 96.7018 134.979Z" fill="#EAEEF9"/>
<path id="Vector_2" d="M114.792 29.1858C115.25 28.765 115.282 28.0507 114.863 27.5902C114.445 27.1298 113.735 27.0976 113.278 27.5184C112.82 27.9392 112.788 28.6535 113.206 29.114C113.625 29.5745 114.334 29.6066 114.792 29.1858Z" fill="#EAEEF9"/>
</g>
<g id="Group 47150">
<g id="Settings-2_1_">
<path id="Intersect" fill-rule="evenodd" clip-rule="evenodd" d="M94.2881 134.676C94.3573 133.788 94.676 132.939 95.446 132.173C96.1993 131.424 96.9525 130.675 97.7058 129.676C99.4929 127.677 101.479 128.247 103.84 128.924C104.133 129.008 104.432 129.094 104.737 129.177C108.265 130.002 109.391 127.074 111.094 122.649C111.451 121.721 111.834 120.727 112.269 119.687C113.795 116.653 111.539 115.312 109.111 113.868C108.74 113.648 108.366 113.425 108.001 113.194C105.859 111.916 105.909 109.911 105.971 107.489C105.981 107.072 105.992 106.642 105.992 106.202C105.757 103.632 107.665 102.483 109.505 101.374C111.599 100.112 113.606 98.9034 112.269 95.7133C111.942 94.932 111.64 94.1805 111.354 93.4664C109.441 88.7022 108.198 85.6047 104.485 86.4734C104.157 86.5624 103.836 86.655 103.521 86.7456C101.19 87.4177 99.2247 87.984 97.4547 86.2236C96.9638 85.6744 96.458 85.1997 95.9811 84.7522C94.5064 83.3686 93.3088 82.2449 93.6883 79.9805C95.249 73.3281 94.83 73.1734 87.8606 70.5998C86.9811 70.275 85.9973 69.9117 84.8999 69.4919C81.6941 68.2963 80.549 70.2809 79.3477 72.3629C78.2908 74.1946 77.1904 76.1017 74.605 75.9848C74.0173 75.9848 73.4488 76.0133 72.9031 76.0407C70.6506 76.1536 68.787 76.247 67.5743 74.2367C63.9891 68.4425 63.6033 68.6145 56.6024 71.7357C55.7582 72.112 54.8178 72.5313 53.764 72.9881C50.3145 74.4584 51.217 77.3715 52.2011 80.5476C52.2198 80.6082 52.2386 80.6689 52.2574 80.7296C52.8535 83.1009 51.5629 84.3776 50.003 85.9208C49.5915 86.3279 49.1614 86.7534 48.7421 87.2225C47.999 88.0672 47.1436 88.4208 46.2354 88.5099C48.5578 113.642 68.9998 133.483 94.2881 134.676ZM68.0765 121.685C75.3583 124.432 83.6444 120.936 86.4065 113.694C89.1686 106.452 85.6532 98.2105 78.3714 95.4635C71.0896 92.7165 62.8035 96.2127 60.0414 103.455C57.2794 110.697 60.7947 118.938 68.0765 121.685Z" fill="url(#paint0_linear_6630_93035)"/>
<path id="Path_35_1_" d="M131.721 67.1149C131.524 64.131 131.918 62.1418 129.947 61.9429C128.567 61.7439 127.581 61.9429 126.989 60.7493C126.398 59.5558 125.609 58.5612 126.398 57.5665C128.369 54.5827 127.778 54.7816 124.426 51.5988C122.258 49.6095 121.272 53.787 119.103 52.7923C117.92 52.1956 116.737 52.1956 116.343 50.8031C115.554 47.4214 115.554 47.8192 110.823 48.0182C109.048 48.0182 109.048 49.6095 109.048 51.2009C108.851 52.5934 107.865 52.7923 106.485 53.3891C104.317 54.5827 102.937 50.6042 100.965 52.7923C99.9793 53.787 99.1907 54.7816 98.4021 55.9751C97.8106 57.5665 99.1907 57.9644 99.9793 59.3569C99.9793 59.3569 99.9793 59.3569 99.9793 59.5558C100.176 59.9536 99.9793 60.3515 99.9793 60.7493C99.9793 60.9482 99.7821 61.3461 99.7821 61.545C99.3878 62.5396 99.3878 63.3353 98.2049 63.5343C94.8533 64.131 95.2476 64.33 95.4448 69.1042C95.6419 72.088 99.1907 69.8999 100.176 72.088C100.571 72.8837 101.359 74.0773 100.965 74.873C100.768 75.6687 99.9793 76.2654 99.7821 77.0611C98.7964 78.8515 100.571 79.8461 102.345 81.4375C104.514 83.4267 105.5 79.2493 107.668 80.2439C110.231 81.2386 110.034 80.6418 110.626 83.6257C111.02 85.6149 113.386 85.0181 115.949 84.8192C118.906 84.6203 116.737 81.0396 118.906 80.045C119.3 79.8461 119.892 79.6472 120.286 79.4482C121.469 78.8515 122.258 79.6472 123.441 80.2439C125.215 81.4375 126.201 79.6472 128.172 77.2601C129.355 75.8676 128.172 74.873 127.187 73.6794C126.398 72.6848 126.989 71.6902 127.384 70.2977C128.172 68.3085 131.918 70.0988 131.721 67.1149ZM118.117 70.8945C115.752 73.4805 111.809 73.8783 109.048 71.4913C106.485 69.1042 106.091 65.1257 108.457 62.3407C110.823 59.7547 114.766 59.3569 117.526 61.7439C120.089 64.131 120.483 68.1095 118.117 70.8945Z" fill="url(#paint1_linear_6630_93035)"/>
</g>
<path id="Vector_3" d="M35.1934 82.9853C33.2682 83.9345 32.4677 86.2704 33.4054 88.2026C34.3431 90.1348 36.664 90.9316 38.5892 89.9824C40.5145 89.0332 41.315 86.6973 40.3773 84.7651C39.4396 82.8329 37.1187 82.036 35.1934 82.9853Z" fill="#EAEEF9"/>
<path id="Vector_4" d="M110.556 139.659C109.148 139.702 108.037 140.885 108.075 142.3C108.113 143.716 109.286 144.828 110.694 144.785C112.103 144.742 113.213 143.559 113.175 142.144C113.137 140.728 111.964 139.616 110.556 139.659Z" fill="#EAEEF9"/>
<path id="Vector_5" d="M102.859 146.124C101.901 146.153 101.146 146.957 101.172 147.92C101.198 148.883 101.995 149.639 102.953 149.61C103.91 149.58 104.665 148.776 104.64 147.814C104.614 146.851 103.816 146.095 102.859 146.124Z" fill="#EAEEF9"/>
<path id="Vector_6" d="M30.036 99.5422C29.2254 99.9418 28.8883 100.925 29.2832 101.739C29.678 102.552 30.6552 102.888 31.4658 102.488C32.2765 102.089 32.6135 101.105 32.2187 100.292C31.8239 99.478 30.8466 99.1425 30.036 99.5422Z" fill="#EAEEF9"/>
<path id="Vector_7" d="M62.7795 134.161C62.2219 134.436 61.9901 135.112 62.2617 135.672C62.5332 136.231 63.2054 136.462 63.7629 136.187C64.3205 135.912 64.5523 135.236 64.2807 134.676C64.0092 134.117 63.337 133.886 62.7795 134.161Z" fill="#EAEEF9"/>
</g>
<g id="Group">
<path id="Vector_8" d="M102.865 31.4002L91.0349 43.8397C87.3614 47.6533 81.4919 48.0987 77.8307 44.7585C74.1695 41.4184 74.1113 35.6983 77.7849 31.8847L89.6145 19.4452C93.288 15.6316 99.1575 15.1862 102.819 18.5264C106.516 21.7651 106.538 27.5866 102.865 31.4002Z" fill="url(#paint2_linear_6630_93035)"/>
<path id="Vector_9" d="M100.027 29.9557C102.346 27.4595 102.25 23.61 99.8122 21.3575C97.3747 19.105 93.5191 19.3025 91.2004 21.7987C88.8816 24.2948 88.9779 28.1444 91.4154 30.3969C93.8529 32.6494 97.7086 32.4518 100.027 29.9557Z" fill="white"/>
</g>
<g id="Group_2">
<g id="Settings-5_1_" filter="url(#filter0_d_6630_93035)">
<path d="M64.456 47.3442L61.1517 50.4508C60.7586 50.8116 60.1444 50.9366 59.6161 50.7633L55.6895 49.5402C55.1612 49.3669 54.7189 48.8952 54.6599 48.3642L53.7207 44.3987C53.5855 43.8645 53.7574 43.2678 54.1504 42.9069L57.4547 39.8003C57.6906 39.5838 57.7052 39.1314 57.4841 38.8956C57.4103 38.817 57.2604 38.7351 57.1081 38.7287C54.1473 38.3015 51.2186 39.2345 49.096 41.1831C46.4207 43.7124 45.3819 47.5188 46.4119 51.0352L24.1615 71.5351C22.2723 73.3426 22.1007 76.2797 23.9438 78.2451C25.7131 80.1319 28.6837 80.2575 30.4943 78.5222L52.9806 57.8058C56.3027 58.8523 59.9145 58.0236 62.4326 55.6387C64.6338 53.6179 65.7194 50.7195 65.5077 47.8416C65.5199 47.4647 65.1464 47.2224 64.8417 47.2095C64.6894 47.2031 64.6108 47.2752 64.456 47.3442ZM26.6216 75.6405C25.9581 74.9329 25.9948 73.802 26.7023 73.1525C27.4098 72.503 28.4762 72.5481 29.1397 73.2556C29.8032 73.9631 29.7665 75.0941 29.059 75.7436C28.3515 76.3931 27.2851 76.348 26.6216 75.6405C26.6191 75.7159 26.6191 75.7159 26.6216 75.6405Z" fill="#D5DDEA"/>
</g>
<g id="Group_3">
<path id="Vector_10" opacity="0.4" d="M46.2905 55.2505L29.8613 70.1514" stroke="#D6DCE8" stroke-miterlimit="10"/>
<path id="Vector_11" opacity="0.4" d="M48.9219 58.005L32.417 72.9014" stroke="#D6DCE8" stroke-miterlimit="10"/>
</g>
</g>
<g id="Group_4">
<g id="Settings-6_1_">
<path id="Path_58_1_" d="M156.82 49.9875C156.476 49.7673 155.958 49.777 155.468 49.9752C154.618 50.5391 153.54 50.2761 153.009 49.5115C152.75 49.1763 152.679 48.7054 152.823 48.287C152.968 47.8687 152.796 47.4185 152.35 47.2191L151.431 46.632L149.96 48.5867L132.483 37.4302C132.253 37.2834 132.109 37.0216 132.081 36.8332L132.009 36.3623C131.952 35.9855 131.708 35.7445 131.378 35.6185L126.863 33.9279L124.527 37.0324L127.831 40.3328C128.075 40.5738 128.406 40.6998 128.809 40.6166L129.313 40.5127C129.615 40.4503 129.831 40.5029 130.061 40.6497L147.538 51.8062L146.068 53.7609L146.987 54.3481C147.332 54.5682 147.85 54.5585 148.239 54.3811C149.089 53.8172 150.167 54.0803 150.698 54.8448C150.957 55.18 151.028 55.6509 150.884 56.0693C150.739 56.4876 151.012 56.917 151.357 57.1372L163.89 65.1375C165.845 66.3853 168.766 65.7823 170.237 63.8276C170.237 63.8276 170.323 63.7127 170.309 63.6185C171.664 61.5904 171.179 59.068 169.224 57.8203L156.82 49.9875Z" fill="url(#paint3_linear_6630_93035)"/>
</g>
<path id="Vector_12" opacity="0.4" d="M153.97 55.7734L163.399 62.0321" stroke="#D6DCE8" stroke-miterlimit="10"/>
<path id="Vector_13" opacity="0.4" d="M155.579 53.4736L165.008 59.7322" stroke="#D6DCE8" stroke-miterlimit="10"/>
</g>
<g id="Group 47151">
<g id="Settings-7_4_" filter="url(#filter1_d_6630_93035)">
<path d="M146.131 84.1255L124.029 97.8391C122.828 98.5844 122.463 100.142 123.209 101.343L136.922 123.445C137.668 124.646 139.225 125.01 140.426 124.265L162.528 110.552C163.729 109.806 164.094 108.249 163.348 107.048L149.635 84.9461C148.889 83.7449 147.332 83.3802 146.131 84.1255Z" fill="#D5DDEA"/>
</g>
<path id="Settings-7_3_" d="M147.743 93.0241L141.077 97.1606C139.897 96.0629 138.205 95.6153 136.66 96.0748C134.282 96.8013 132.963 99.3668 133.749 101.707L131.647 103.011C131.107 103.347 130.925 104.125 131.26 104.666C131.633 105.266 132.411 105.449 132.952 105.113L135.054 103.809C136.159 104.787 137.679 105.091 139.044 104.744C141.436 104.174 142.89 101.692 142.321 99.2999L149.048 95.1262C149.588 94.7908 149.77 94.0122 149.435 93.4717C149.122 92.8338 148.344 92.6515 147.743 93.0241ZM140.01 100.401C140.039 100.716 139.97 101.008 139.805 101.277C139.722 101.412 139.699 101.509 139.579 101.584C139.436 101.755 139.353 101.89 139.173 102.002C138.249 102.658 137.021 102.422 136.365 101.498C136.328 101.438 136.328 101.438 136.29 101.378C135.694 100.417 136.028 99.212 136.929 98.653C137.83 98.094 138.997 98.3675 139.616 99.2311C139.84 99.5915 140.004 99.9891 140.01 100.401ZM154.339 103.655L152.297 104.922C151.117 103.824 149.425 103.376 147.88 103.836C145.503 104.562 144.243 107.091 144.97 109.468L138.243 113.642C137.643 114.014 137.46 114.793 137.833 115.393C138.206 115.994 138.984 116.176 139.585 115.804L146.312 111.63C147.417 112.608 148.877 112.95 150.302 112.565C152.694 111.996 154.148 109.513 153.579 107.121L155.681 105.817C156.281 105.444 156.464 104.665 156.091 104.065C155.718 103.464 154.94 103.282 154.339 103.655ZM150.889 107.21C151.187 107.69 151.17 108.2 151.056 108.686C151.033 108.783 150.951 108.918 150.928 109.015C150.845 109.15 150.822 109.247 150.739 109.382C150.656 109.516 150.596 109.554 150.513 109.688C150.453 109.726 150.393 109.763 150.333 109.8C150.273 109.837 150.213 109.875 150.153 109.912C150.033 109.986 149.913 110.061 149.755 110.075C149.695 110.113 149.635 110.15 149.538 110.127C148.766 110.357 147.815 110.032 147.331 109.251C146.884 108.53 146.931 107.669 147.383 107.056C147.526 106.884 147.609 106.749 147.789 106.638C147.849 106.6 147.909 106.563 147.969 106.526C148.93 105.93 150.135 106.263 150.694 107.164C150.911 107.112 150.949 107.172 150.889 107.21Z" fill="white"/>
</g>
</g>
</g>
<defs>
<filter id="filter0_d_6630_93035" x="0.649414" y="27.627" width="86.8838" height="85.1191" filterUnits="userSpaceOnUse" color-interpolation-filters="sRGB">
<feFlood flood-opacity="0" result="BackgroundImageFix"/>
<feColorMatrix in="SourceAlpha" type="matrix" values="0 0 0 0 0 0 0 0 0 0 0 0 0 0 0 0 0 0 127 0" result="hardAlpha"/>
<feOffset dy="11"/>
<feGaussianBlur stdDeviation="11"/>
<feColorMatrix type="matrix" values="0 0 0 0 0.397708 0 0 0 0 0.47749 0 0 0 0 0.575 0 0 0 0.27 0"/>
<feBlend mode="normal" in2="BackgroundImageFix" result="effect1_dropShadow_6630_93035"/>
<feBlend mode="normal" in="SourceGraphic" in2="effect1_dropShadow_6630_93035" result="shape"/>
</filter>
<filter id="filter1_d_6630_93035" x="100.822" y="72.7393" width="84.9121" height="84.9121" filterUnits="userSpaceOnUse" color-interpolation-filters="sRGB">
<feFlood flood-opacity="0" result="BackgroundImageFix"/>
<feColorMatrix in="SourceAlpha" type="matrix" values="0 0 0 0 0 0 0 0 0 0 0 0 0 0 0 0 0 0 127 0" result="hardAlpha"/>
<feOffset dy="11"/>
<feGaussianBlur stdDeviation="11"/>
<feColorMatrix type="matrix" values="0 0 0 0 0.397708 0 0 0 0 0.47749 0 0 0 0 0.575 0 0 0 0.27 0"/>
<feBlend mode="normal" in2="BackgroundImageFix" result="effect1_dropShadow_6630_93035"/>
<feBlend mode="normal" in="SourceGraphic" in2="effect1_dropShadow_6630_93035" result="shape"/>
</filter>
<linearGradient id="paint0_linear_6630_93035" x1="79.5058" y1="71.4078" x2="79.5058" y2="108.198" gradientUnits="userSpaceOnUse">
<stop stop-color="#B0BACC"/>
<stop offset="1" stop-color="#969EAE"/>
</linearGradient>
<linearGradient id="paint1_linear_6630_93035" x1="113.527" y1="49.1828" x2="113.527" y2="70.0446" gradientUnits="userSpaceOnUse">
<stop stop-color="#B0BACC"/>
<stop offset="1" stop-color="#969EAE"/>
</linearGradient>
<linearGradient id="paint2_linear_6630_93035" x1="85.5049" y1="21.9023" x2="91.5862" y2="33.5131" gradientUnits="userSpaceOnUse">
<stop stop-color="#B0BACC"/>
<stop offset="1" stop-color="#969EAE"/>
</linearGradient>
<linearGradient id="paint3_linear_6630_93035" x1="145.173" y1="31.5414" x2="149.628" y2="53.1242" gradientUnits="userSpaceOnUse">
<stop stop-color="#B0BACC"/>
<stop offset="1" stop-color="#969EAE"/>
</linearGradient>
</defs>
</svg>
