<svg width="162" height="160" viewBox="0 0 162 160" fill="none" xmlns="http://www.w3.org/2000/svg">
    <path d="M77.4998 140.9C105.5 140.9 128.2 118.2 128.2 90.1C128.2 62 105.5 39.3 77.4998 39.3C49.4998 39.3 26.7998 62 26.7998 90.1C26.7998 118.2 49.4998 140.9 77.4998 140.9Z" fill="#EAEEF9"/>
    <path d="M134 74.2C136.265 74.2 138.1 72.3644 138.1 70.1C138.1 67.8356 136.265 66 134 66C131.736 66 129.9 67.8356 129.9 70.1C129.9 72.3644 131.736 74.2 134 74.2Z" fill="#EAEEF9"/>
    <path d="M140 58.1C141.547 58.1 142.8 56.8464 142.8 55.3C142.8 53.7536 141.547 52.5 140 52.5C138.454 52.5 137.2 53.7536 137.2 55.3C137.2 56.8464 138.454 58.1 140 58.1Z" fill="#EAEEF9"/>
    <path d="M23.3 77.1C24.8464 77.1 26.1 75.8464 26.1 74.3C26.1 72.7536 24.8464 71.5 23.3 71.5C21.7536 71.5 20.5 72.7536 20.5 74.3C20.5 75.8464 21.7536 77.1 23.3 77.1Z" fill="#EAEEF9"/>
    <g filter="url(#filter0_d_788_31232)">
        <path d="M127.225 122.616L103.184 113.434L76.8056 124L48.1615 113.362L26.24 121.741C24.267 122.47 22.221 120.648 22.8056 118.608L36.47 71.4636C36.9084 69.9334 38.0045 68.6218 39.4659 67.966L61.3875 57.6919L76.8056 68.7675L91.8584 59.2221L116.118 69.8605C117.726 70.5892 118.895 71.9736 119.26 73.6496L130.659 119.628C131.171 121.595 129.198 123.344 127.225 122.616Z" fill="url(#paint0_linear_788_31232)"/>
    </g>
    <path d="M61.3875 57.7647L48.1615 113.362L26.24 121.741C24.267 122.47 22.221 120.648 22.8056 118.608L36.47 71.4636C36.9084 69.9334 38.0045 68.6218 39.4659 67.966L61.3875 57.7647Z" fill="#E7EAF1"/>
    <path d="M127.079 122.907L103.038 113.726L91.7119 59.5864L115.972 70.2248C117.579 70.9535 118.748 72.338 119.114 74.0139L130.513 119.992C131.025 121.96 129.052 123.709 127.079 122.907Z" fill="white"/>
    <path d="M103.258 113.434L76.8057 124V68.7675L91.8584 59.2221L103.258 113.434Z" fill="#E7EAF1"/>
    <path d="M53.2034 100.756C53.1303 100.756 53.0572 100.756 52.9111 100.756C52.6188 100.683 52.3996 100.683 52.1073 100.61C51.3035 100.391 50.8651 99.6627 51.0112 98.8612C51.1573 98.0597 51.9611 97.6225 52.7649 97.7682C52.9841 97.8411 53.2034 97.8411 53.4226 97.914C54.2264 98.0597 54.7379 98.7883 54.5917 99.5899C54.5186 100.319 53.9341 100.756 53.2034 100.756ZM58.3184 100.61C57.6607 100.61 57.0762 100.173 56.93 99.517C56.7108 98.7155 57.2223 97.914 58.0261 97.7682C58.2453 97.6954 58.4645 97.6225 58.6837 97.6225C59.4875 97.4039 60.2913 97.8411 60.5105 98.5697C60.7297 99.3713 60.2913 100.173 59.5606 100.391C59.2683 100.464 59.0491 100.537 58.7568 100.61C58.5376 100.61 58.3914 100.61 58.3184 100.61ZM47.8691 98.5697C47.5768 98.5697 47.2845 98.4969 47.0653 98.3512C46.8461 98.2054 46.6269 98.0597 46.4077 97.914C45.75 97.4768 45.6039 96.5295 46.0423 95.8737C46.4808 95.2179 47.4307 95.0722 48.0883 95.5094C48.3075 95.6551 48.4537 95.8008 48.6729 95.8737C49.3306 96.3109 49.5498 97.1853 49.1113 97.914C48.819 98.3512 48.3806 98.5697 47.8691 98.5697ZM63.5795 98.2054C63.1411 98.2054 62.6296 97.9868 62.3373 97.5496C61.8989 96.8938 62.045 95.9466 62.7758 95.5094C62.995 95.3636 63.1411 95.2908 63.3603 95.145C64.018 94.7078 64.9679 94.8536 65.4063 95.5094C65.8448 96.1652 65.6986 97.1124 65.041 97.5496C64.8218 97.6954 64.6025 97.8411 64.3833 97.9868C64.1641 98.0597 63.8718 98.2054 63.5795 98.2054ZM100.408 96.4566C99.677 96.4566 99.0193 95.8737 98.9463 95.0722C98.8732 94.2707 99.5308 93.542 100.335 93.542C100.481 93.542 100.7 93.542 100.919 93.4691C101.723 93.3234 102.454 93.8335 102.6 94.635C102.746 95.4365 102.234 96.1652 101.431 96.3109C101.138 96.3838 100.846 96.3838 100.554 96.4566C100.481 96.4566 100.481 96.4566 100.408 96.4566ZM43.4117 94.7807C43.0464 94.7807 42.608 94.635 42.3887 94.3435C42.2426 94.1978 42.0234 93.9792 41.8772 93.7606C41.2927 93.1777 41.3657 92.2304 41.9503 91.7203C42.5349 91.2103 43.4848 91.2103 43.9963 91.7932C44.1425 91.9389 44.2886 92.1575 44.5078 92.3033C45.0924 92.8862 45.0193 93.8335 44.4347 94.3435C44.1425 94.635 43.7771 94.7807 43.4117 94.7807ZM95.7311 94.7807C95.4388 94.7807 95.0734 94.7078 94.8542 94.4892C94.635 94.3435 94.4158 94.1978 94.2697 93.9792C93.6851 93.4691 93.612 92.5219 94.1235 91.9389C94.635 91.356 95.585 91.2831 96.1695 91.7932C96.3157 91.9389 96.5349 92.0847 96.681 92.2304C97.3387 92.7405 97.4117 93.6149 96.9002 94.2707C96.608 94.5621 96.1695 94.7807 95.7311 94.7807ZM68.1831 94.5621C67.7446 94.5621 67.3793 94.4164 67.087 94.0521C66.5755 93.4691 66.6486 92.5219 67.2331 92.0118C67.4523 91.8661 67.5985 91.7203 67.7446 91.5746C68.3292 91.0645 69.2791 91.1374 69.7906 91.7203C70.3021 92.3033 70.2291 93.2505 69.6445 93.7606C69.4253 93.9063 69.2791 94.0521 69.0599 94.2707C68.8407 94.4893 68.5484 94.5621 68.1831 94.5621ZM105.815 94.3435C105.303 94.3435 104.865 94.1249 104.573 93.6877C104.134 93.0319 104.354 92.0847 105.011 91.6475C105.23 91.5017 105.377 91.4289 105.596 91.2831C106.253 90.8459 107.203 90.9917 107.642 91.6475C108.08 92.3033 107.934 93.2505 107.276 93.6877C107.057 93.8335 106.838 93.9792 106.619 94.1249C106.326 94.2706 106.034 94.3435 105.815 94.3435ZM91.4929 90.7731C91.1276 90.7731 90.7622 90.6273 90.4699 90.3359C90.3238 90.1902 90.1046 90.0444 89.9584 89.8258C89.3739 89.3158 89.3008 88.3685 89.8854 87.7856C90.3969 87.2026 91.3468 87.1298 91.9314 87.7127C92.1506 87.8584 92.2967 88.077 92.5159 88.2228C93.1005 88.8057 93.1005 89.6801 92.589 90.263C92.2237 90.6273 91.8583 90.7731 91.4929 90.7731ZM110.419 90.7731C109.98 90.7731 109.615 90.6273 109.322 90.263C108.811 89.6801 108.884 88.7328 109.469 88.2228C109.615 88.077 109.834 87.9313 109.98 87.7856C110.565 87.2755 111.515 87.3484 112.026 87.9313C112.538 88.5142 112.465 89.4615 111.88 89.9716C111.661 90.1173 111.515 90.263 111.295 90.4816C111.149 90.7002 110.784 90.7731 110.419 90.7731ZM72.4212 90.6273C72.0559 90.6273 71.6905 90.4816 71.3982 90.1901C70.8136 89.6072 70.8136 88.7328 71.3982 88.1499L71.9097 87.6398C72.4943 87.0569 73.3712 87.0569 73.9557 87.567C74.5403 88.1499 74.5403 89.0243 74.0288 89.6072L73.5173 90.1173C73.225 90.4816 72.8596 90.6273 72.4212 90.6273ZM39.6851 90.3359C39.2467 90.3359 38.8082 90.1173 38.5159 89.753C38.3698 89.5344 38.2237 89.3886 38.0775 89.17C37.566 88.5142 37.7121 87.6398 38.3698 87.1298C39.0274 86.6197 39.9043 86.7654 40.4158 87.4212L40.8542 88.0042C41.3657 88.66 41.2196 89.5344 40.5619 90.0444C40.2697 90.1902 39.9774 90.3359 39.6851 90.3359ZM87.0356 87.0569C86.7433 87.0569 86.451 86.984 86.1587 86.7654C85.9395 86.6197 85.7933 86.474 85.5741 86.3283C84.9165 85.8911 84.7703 84.9438 85.2818 84.288C85.7203 83.6322 86.6702 83.4865 87.3278 83.9965C87.5471 84.1423 87.6932 84.288 87.9124 84.4337C88.5701 84.9438 88.7162 85.8182 88.2047 86.474C87.9124 86.8383 87.474 87.0569 87.0356 87.0569ZM114.803 86.9112C114.437 86.9112 113.999 86.7654 113.707 86.474C113.122 85.8911 113.195 84.9438 113.78 84.4337L114.291 83.9237C114.876 83.3407 115.826 83.4136 116.337 83.9965C116.922 84.5795 116.849 85.5267 116.264 86.0368L115.753 86.5468C115.534 86.7654 115.168 86.9112 114.803 86.9112ZM76.4402 86.3283C76.0748 86.3283 75.7094 86.1825 75.4172 85.9639C74.8326 85.381 74.7595 84.5066 75.3441 83.9237C75.4902 83.7051 75.7094 83.5593 75.8556 83.3407C76.4402 82.7578 77.317 82.7578 77.9016 83.3407C78.4862 83.9237 78.4862 84.7981 77.9016 85.381C77.7555 85.5267 77.6093 85.7453 77.3901 85.8911C77.1709 86.1825 76.8055 86.3283 76.4402 86.3283ZM36.3238 85.5267C35.8123 85.5267 35.3739 85.3081 35.0816 84.8709L34.6431 84.288C34.2047 83.6322 34.4239 82.6849 35.0816 82.2478C35.7392 81.8106 36.6891 82.0292 37.1276 82.6849L37.4929 83.2679C37.9314 83.9237 37.7852 84.8709 37.0545 85.3081C36.9084 85.4539 36.6161 85.5267 36.3238 85.5267ZM82.0667 83.9965C81.9205 83.9965 81.7013 83.9965 81.5552 83.9237C81.336 83.8508 81.1898 83.8508 81.0437 83.7779C80.2399 83.6322 79.7284 82.8307 79.9476 82.0292C80.1668 81.2276 80.8975 80.7176 81.7013 80.9362C81.9936 81.009 82.2859 81.0819 82.5782 81.2276C83.3089 81.5191 83.7473 82.3206 83.455 83.1221C83.1628 83.6322 82.6513 83.9965 82.0667 83.9965Z" fill="#CBD4E0"/>
    <path d="M76.8055 19C90.1777 19 100.992 29.7842 100.992 43.1187C100.992 53.7571 85.6472 74.8154 79.363 82.9764C78.0478 84.7252 75.4172 84.7252 74.1019 82.9764C67.8177 74.8154 52.4727 53.7571 52.4727 43.1187C52.6188 29.7842 63.4334 19 76.8055 19Z" fill="#CBD4E0"/>
    <path d="M76.8058 52.5912C82.0925 52.5912 86.3782 48.3176 86.3782 43.0458C86.3782 37.774 82.0925 33.5003 76.8058 33.5003C71.5191 33.5003 67.2334 37.774 67.2334 43.0458C67.2334 48.3176 71.5191 52.5912 76.8058 52.5912Z" fill="#A5B0BE"/>
    <defs>
        <filter id="filter0_d_788_31232" x="0.704102" y="46.6919" width="152.037" height="110.308" filterUnits="userSpaceOnUse" color-interpolation-filters="sRGB">
            <feFlood flood-opacity="0" result="BackgroundImageFix"/>
            <feColorMatrix in="SourceAlpha" type="matrix" values="0 0 0 0 0 0 0 0 0 0 0 0 0 0 0 0 0 0 127 0" result="hardAlpha"/>
            <feOffset dy="11"/>
            <feGaussianBlur stdDeviation="11"/>
            <feColorMatrix type="matrix" values="0 0 0 0 0.397708 0 0 0 0 0.47749 0 0 0 0 0.575 0 0 0 0.27 0"/>
            <feBlend mode="normal" in2="BackgroundImageFix" result="effect1_dropShadow_788_31232"/>
            <feBlend mode="normal" in="SourceGraphic" in2="effect1_dropShadow_788_31232" result="shape"/>
        </filter>
        <linearGradient id="paint0_linear_788_31232" x1="76.6875" y1="56.1581" x2="76.6875" y2="124.715" gradientUnits="userSpaceOnUse">
            <stop stop-color="#FDFEFF"/>
            <stop offset="0.9964" stop-color="#ECF0F5"/>
        </linearGradient>
    </defs>
</svg>
