<svg width="24" height="24" viewBox="0 0 24 24" fill="none" xmlns="http://www.w3.org/2000/svg">
<path d="M3 5H21V9H3V5Z" fill="white"/>
<path d="M21 8H3C2.73478 8 2.48043 8.10536 2.29289 8.29289C2.10536 8.48043 2 8.73478 2 9V19C2 19.5304 2.21071 20.0391 2.58579 20.4142C2.96086 20.7893 3.46957 21 4 21H20C20.5304 21 21.0391 20.7893 21.4142 20.4142C21.7893 20.0391 22 19.5304 22 19V9C22 8.73478 21.8946 8.48043 21.7071 8.29289C21.5196 8.10536 21.2652 8 21 8Z" fill="#FFC42C"/>
<path d="M10.24 12.38V16.62C10.2405 16.7075 10.264 16.7934 10.3081 16.8689C10.3522 16.9445 10.4154 17.0072 10.4913 17.0508C10.5672 17.0943 10.6532 17.1171 10.7407 17.117C10.8283 17.1169 10.9142 17.0938 10.99 17.05L14.52 14.93C14.5946 14.8857 14.6564 14.8228 14.6993 14.7474C14.7423 14.672 14.7648 14.5868 14.7648 14.5C14.7648 14.4132 14.7423 14.328 14.6993 14.2526C14.6564 14.1772 14.5946 14.1143 14.52 14.07L11 12C10.9275 11.9554 10.8449 11.93 10.7599 11.9263C10.6749 11.9225 10.5904 11.9405 10.5143 11.9786C10.4382 12.0166 10.3731 12.0735 10.3251 12.1437C10.2771 12.214 10.2478 12.2953 10.24 12.38Z" fill="white"/>
<path d="M21 10H3C2.73478 10 2.48043 9.89464 2.29289 9.70711C2.10536 9.51957 2 9.26522 2 9V6C2 5.46957 2.21071 4.96086 2.58579 4.58579C2.96086 4.21071 3.46957 4 4 4H20C20.5304 4 21.0391 4.21071 21.4142 4.58579C21.7893 4.96086 22 5.46957 22 6V9C22 9.26522 21.8946 9.51957 21.7071 9.70711C21.5196 9.89464 21.2652 10 21 10ZM4 8H20V6H4V8Z" fill="#FF9D0A"/>
<path d="M16.5 10H7.5C7.23478 10 6.98043 9.89464 6.79289 9.70711C6.60536 9.51957 6.5 9.26522 6.5 9V5C6.5 4.73478 6.60536 4.48043 6.79289 4.29289C6.98043 4.10536 7.23478 4 7.5 4H16.5C16.7652 4 17.0196 4.10536 17.2071 4.29289C17.3946 4.48043 17.5 4.73478 17.5 5V9C17.5 9.26522 17.3946 9.51957 17.2071 9.70711C17.0196 9.89464 16.7652 10 16.5 10ZM8.5 8H15.5V6H8.5V8Z" fill="#FF9D0A"/>
<path d="M12 10C11.7348 10 11.4804 9.89464 11.2929 9.70711C11.1054 9.51957 11 9.26522 11 9V5C11 4.73478 11.1054 4.48043 11.2929 4.29289C11.4804 4.10536 11.7348 4 12 4C12.2652 4 12.5196 4.10536 12.7071 4.29289C12.8946 4.48043 13 4.73478 13 5V9C13 9.26522 12.8946 9.51957 12.7071 9.70711C12.5196 9.89464 12.2652 10 12 10Z" fill="#FF9D0A"/>
</svg>
