<svg width="16" height="16" viewBox="0 0 16 16" fill="none" xmlns="http://www.w3.org/2000/svg">
    <mask id="path-1-inside-1_4064_2571" fill="white">
        <path d="M12.667 15.1667C12.3937 15.1667 12.167 14.94 12.167 14.6667V7.33334C12.167 7.06001 12.3937 6.83334 12.667 6.83334C12.9403 6.83334 13.167 7.06001 13.167 7.33334V14.6667C13.167 14.94 12.9403 15.1667 12.667 15.1667Z"/>
    </mask>
    <path d="M12.667 15.1667C12.3937 15.1667 12.167 14.94 12.167 14.6667V7.33334C12.167 7.06001 12.3937 6.83334 12.667 6.83334C12.9403 6.83334 13.167 7.06001 13.167 7.33334V14.6667C13.167 14.94 12.9403 15.1667 12.667 15.1667Z" fill="#202C38"/>
    <path d="M12.667 14.1667C12.9459 14.1667 13.167 14.3877 13.167 14.6667H11.167C11.167 15.4923 11.8414 16.1667 12.667 16.1667V14.1667ZM13.167 14.6667V7.33334H11.167V14.6667H13.167ZM13.167 7.33334C13.167 7.61229 12.9459 7.83334 12.667 7.83334V5.83334C11.8414 5.83334 11.167 6.50773 11.167 7.33334H13.167ZM12.667 7.83334C12.388 7.83334 12.167 7.61229 12.167 7.33334H14.167C14.167 6.50773 13.4926 5.83334 12.667 5.83334V7.83334ZM12.167 7.33334V14.6667H14.167V7.33334H12.167ZM12.167 14.6667C12.167 14.3877 12.388 14.1667 12.667 14.1667V16.1667C13.4926 16.1667 14.167 15.4923 14.167 14.6667H12.167Z" fill="#202C38" mask="url(#path-1-inside-1_4064_2571)"/>
    <mask id="path-3-inside-2_4064_2571" fill="white">
        <path d="M12.667 5.16668C12.3937 5.16668 12.167 4.94001 12.167 4.66668V1.33334C12.167 1.06001 12.3937 0.833344 12.667 0.833344C12.9403 0.833344 13.167 1.06001 13.167 1.33334V4.66668C13.167 4.94001 12.9403 5.16668 12.667 5.16668Z"/>
    </mask>
    <path d="M12.667 5.16668C12.3937 5.16668 12.167 4.94001 12.167 4.66668V1.33334C12.167 1.06001 12.3937 0.833344 12.667 0.833344C12.9403 0.833344 13.167 1.06001 13.167 1.33334V4.66668C13.167 4.94001 12.9403 5.16668 12.667 5.16668Z" fill="#202C38"/>
    <path d="M12.667 4.16668C12.9459 4.16668 13.167 4.38773 13.167 4.66668H11.167C11.167 5.49229 11.8414 6.16668 12.667 6.16668V4.16668ZM13.167 4.66668V1.33334H11.167V4.66668H13.167ZM13.167 1.33334C13.167 1.61229 12.9459 1.83334 12.667 1.83334V-0.166656C11.8414 -0.166656 11.167 0.507725 11.167 1.33334H13.167ZM12.667 1.83334C12.388 1.83334 12.167 1.61229 12.167 1.33334H14.167C14.167 0.507725 13.4926 -0.166656 12.667 -0.166656V1.83334ZM12.167 1.33334V4.66668H14.167V1.33334H12.167ZM12.167 4.66668C12.167 4.38773 12.388 4.16668 12.667 4.16668V6.16668C13.4926 6.16668 14.167 5.49229 14.167 4.66668H12.167Z" fill="#202C38" mask="url(#path-3-inside-2_4064_2571)"/>
    <path d="M8 15.1667C7.72667 15.1667 7.5 14.94 7.5 14.6667V11.3333C7.5 11.06 7.72667 10.8333 8 10.8333C8.27333 10.8333 8.5 11.06 8.5 11.3333V14.6667C8.5 14.94 8.27333 15.1667 8 15.1667Z" fill="#202C38"/>
    <path d="M8 9.16668C7.72667 9.16668 7.5 8.94001 7.5 8.66668V1.33334C7.5 1.06001 7.72667 0.833344 8 0.833344C8.27333 0.833344 8.5 1.06001 8.5 1.33334V8.66668C8.5 8.94001 8.27333 9.16668 8 9.16668Z" fill="#202C38"/>
    <path d="M3.33301 15.1667C3.05967 15.1667 2.83301 14.94 2.83301 14.6667V7.33334C2.83301 7.06001 3.05967 6.83334 3.33301 6.83334C3.60634 6.83334 3.83301 7.06001 3.83301 7.33334V14.6667C3.83301 14.94 3.60634 15.1667 3.33301 15.1667Z" fill="#202C38"/>
    <path d="M3.33301 5.16668C3.05967 5.16668 2.83301 4.94001 2.83301 4.66668V1.33334C2.83301 1.06001 3.05967 0.833344 3.33301 0.833344C3.60634 0.833344 3.83301 1.06001 3.83301 1.33334V4.66668C3.83301 4.94001 3.60634 5.16668 3.33301 5.16668Z" fill="#202C38"/>
    <path d="M4.66667 7.83334H2C1.72667 7.83334 1.5 7.60668 1.5 7.33334C1.5 7.06001 1.72667 6.83334 2 6.83334H4.66667C4.94 6.83334 5.16667 7.06001 5.16667 7.33334C5.16667 7.60668 4.94 7.83334 4.66667 7.83334Z" fill="#202C38"/>
    <path d="M13.9997 7.83334H11.333C11.0597 7.83334 10.833 7.60668 10.833 7.33334C10.833 7.06001 11.0597 6.83334 11.333 6.83334H13.9997C14.273 6.83334 14.4997 7.06001 14.4997 7.33334C14.4997 7.60668 14.273 7.83334 13.9997 7.83334Z" fill="#202C38"/>
    <path d="M9.33366 9.16666H6.66699C6.39366 9.16666 6.16699 8.93999 6.16699 8.66666C6.16699 8.39332 6.39366 8.16666 6.66699 8.16666H9.33366C9.60699 8.16666 9.83366 8.39332 9.83366 8.66666C9.83366 8.93999 9.60699 9.16666 9.33366 9.16666Z" fill="#202C38"/>
</svg>
