<svg width="33" height="32" viewBox="0 0 33 32" fill="none" xmlns="http://www.w3.org/2000/svg">
<path d="M29.0797 14.1854L27.9456 14.0434C27.8262 13.3365 27.6413 12.6421 27.3933 11.9695L28.3017 11.2813C28.4694 11.1547 28.585 10.971 28.6266 10.765C28.6682 10.5589 28.633 10.3448 28.5275 10.163L27.5666 8.49848C27.4618 8.31684 27.2942 8.17974 27.0954 8.11297C26.8966 8.0462 26.6803 8.05435 26.4871 8.1359L25.4346 8.5802C24.9765 8.02881 24.4686 7.52085 23.9172 7.06279L24.3615 6.01289C24.443 5.81968 24.4512 5.60332 24.3844 5.40452C24.3176 5.20571 24.1805 5.03814 23.9989 4.93332L22.3344 3.97246C22.1528 3.86759 21.9391 3.83266 21.7336 3.87424C21.5281 3.91583 21.3448 4.03106 21.2182 4.19827L20.5301 5.10666C19.8574 4.85862 19.1631 4.67374 18.4561 4.5544L18.3142 3.4202C18.2882 3.21219 18.1871 3.02083 18.03 2.88208C17.8728 2.74332 17.6704 2.66672 17.4608 2.66666H15.5391C15.3294 2.66661 15.1269 2.74317 14.9697 2.88194C14.8125 3.0207 14.7113 3.21212 14.6853 3.4202L14.5434 4.5544C13.8364 4.67374 13.1421 4.85862 12.4694 5.10666L11.7812 4.19827C11.6546 4.03051 11.471 3.91492 11.2649 3.87331C11.0589 3.83171 10.8448 3.86698 10.663 3.97246L9.00103 4.93332C8.81939 5.03814 8.68229 5.20571 8.61552 5.40452C8.54874 5.60332 8.5569 5.81968 8.63845 6.01289L9.08276 7.06537C8.53136 7.52344 8.02341 8.03139 7.56534 8.58279L6.51286 8.13848C6.31965 8.05693 6.10329 8.04878 5.90449 8.11555C5.70568 8.18232 5.53811 8.31942 5.43329 8.50106L4.47243 10.1656C4.36695 10.3474 4.33168 10.5615 4.37328 10.7675C4.41489 10.9736 4.53048 11.1572 4.69824 11.2839L5.60663 11.972C5.35859 12.6447 5.17371 13.339 5.05437 14.046L3.92017 14.1879C3.71253 14.2139 3.52147 14.3146 3.38276 14.4713C3.24405 14.628 3.16721 14.8299 3.16663 15.0391V16.9609C3.16658 17.1706 3.24314 17.373 3.3819 17.5303C3.52067 17.6875 3.71209 17.7886 3.92017 17.8146L5.05437 17.9565C5.17371 18.6635 5.35859 19.3578 5.60663 20.0305L4.69824 20.7187C4.53103 20.8452 4.4158 21.0285 4.37421 21.2341C4.33263 21.4396 4.36756 21.6532 4.47243 21.8348L5.43329 23.4993C5.53811 23.681 5.70568 23.8181 5.90449 23.8849C6.10329 23.9516 6.31965 23.9435 6.51286 23.8619L7.56534 23.4176C8.02341 23.969 8.53136 24.477 9.08276 24.935L8.63845 25.9871C8.5569 26.1803 8.54874 26.3967 8.61552 26.5955C8.68229 26.7943 8.81939 26.9618 9.00103 27.0667L10.6656 28.0275C10.8474 28.133 11.0615 28.1683 11.2675 28.1267C11.4735 28.0851 11.6572 27.9695 11.7838 27.8017L12.472 26.8933C13.1447 27.1414 13.839 27.3262 14.546 27.4456L14.6879 28.5798C14.7139 28.7874 14.8146 28.9785 14.9713 29.1172C15.128 29.2559 15.3298 29.3327 15.5391 29.3333H17.4608C17.6705 29.3334 17.873 29.2568 18.0302 29.118C18.1875 28.9793 18.2886 28.7879 18.3146 28.5798L18.4565 27.4456C19.1635 27.3262 19.8578 27.1414 20.5305 26.8933L21.2187 27.8017C21.3452 27.9689 21.5285 28.0842 21.734 28.1257C21.9396 28.1673 22.1532 28.1324 22.3348 28.0275L23.9993 27.0667C24.181 26.9618 24.3181 26.7943 24.3848 26.5955C24.4516 26.3967 24.4434 26.1803 24.3619 25.9871L23.9176 24.9346C24.469 24.4765 24.9769 23.9686 25.435 23.4172L26.4875 23.8615C26.6807 23.943 26.8971 23.9512 27.0959 23.8844C27.2947 23.8177 27.4622 23.6806 27.5671 23.4989L28.5279 21.8344C28.6328 21.6528 28.6677 21.4392 28.6261 21.2336C28.5846 21.0281 28.4693 20.8448 28.3021 20.7183L27.3937 20.0301C27.6418 19.3574 27.8266 18.6631 27.946 17.9561L29.0802 17.8142C29.2881 17.7881 29.4794 17.687 29.618 17.5299C29.7567 17.3728 29.8332 17.1704 29.8333 16.9609V15.0391C29.8333 14.8294 29.7568 14.6269 29.618 14.4697C29.4792 14.3125 29.2878 14.2114 29.0797 14.1854ZM16.5361 25.0692C14.746 25.0692 12.9961 24.5384 11.5078 23.5439C10.0194 22.5494 8.85931 21.1359 8.17428 19.4821C7.48925 17.8282 7.31002 16.0084 7.65924 14.2528C8.00847 12.4971 8.87047 10.8844 10.1362 9.61864C11.402 8.35287 13.0147 7.49086 14.7704 7.14164C16.526 6.79241 18.3459 6.97165 19.9997 7.65668C21.6535 8.34171 23.067 9.50177 24.0615 10.9902C25.056 12.4785 25.5868 14.2284 25.5868 16.0185C25.5868 18.4189 24.6333 20.721 22.9359 22.4183C21.2386 24.1157 18.9365 25.0692 16.5361 25.0692Z" fill="#F8C460"/>
<path d="M13.7666 10.2297L13.463 9.92557C13.2211 9.68433 12.8934 9.54886 12.5518 9.54886C12.2102 9.54886 11.8825 9.68433 11.6406 9.92557L12.2479 10.5333C12.4086 10.6946 12.4989 10.913 12.4989 11.1406C12.4989 11.3683 12.4086 11.5867 12.2479 11.7479C12.0867 11.9087 11.8683 11.9989 11.6406 11.9989C11.4129 11.9989 11.1945 11.9087 11.0333 11.7479L10.4255 11.1398C10.1843 11.3817 10.0488 11.7093 10.0488 12.051C10.0488 12.3926 10.1843 12.7203 10.4255 12.9621L10.7296 13.2658C10.9715 13.5069 11.2991 13.6423 11.6406 13.6423C11.9821 13.6423 12.3097 13.5069 12.5516 13.2658L19.2333 19.9484C18.9922 20.1902 18.8568 20.5178 18.8568 20.8593C18.8568 21.2009 18.9922 21.5284 19.2333 21.7703L19.5369 22.0744C19.7788 22.3156 20.1065 22.4511 20.4481 22.4511C20.7897 22.4511 21.1174 22.3156 21.3593 22.0744L20.752 21.4667C20.5913 21.3054 20.501 21.087 20.501 20.8593C20.501 20.6317 20.5913 20.4133 20.752 20.252C20.9132 20.0913 21.1316 20.001 21.3593 20.001C21.587 20.001 21.8054 20.0913 21.9666 20.252L22.5744 20.8602C22.8156 20.6183 22.9511 20.2906 22.9511 19.949C22.9511 19.6074 22.8156 19.2797 22.5744 19.0378L22.2703 18.7342C22.0284 18.4931 21.7008 18.3577 21.3593 18.3577C21.0178 18.3577 20.6902 18.4931 20.4483 18.7342L13.7666 12.0516C14.0077 11.8097 14.1431 11.4821 14.1431 11.1406C14.1431 10.7991 14.0077 10.4715 13.7666 10.2297Z" fill="#03A1FA"/>
<path d="M20.1822 21.4288L19.8785 21.1251C19.6374 20.8833 19.502 20.5557 19.502 20.2142C19.502 19.8727 19.6374 19.5451 19.8785 19.3032L13.1968 12.6215C12.9549 12.8626 12.6273 12.998 12.2858 12.998C11.9443 12.998 11.6167 12.8626 11.3748 12.6215L11.0712 12.3178C10.8297 12.0768 10.6939 11.7497 10.6936 11.4086L10.426 11.1406C10.1848 11.3825 10.0493 11.7102 10.0493 12.0518C10.0493 12.3934 10.1848 12.7211 10.426 12.963L10.7297 13.2666C10.9716 13.5078 11.2991 13.6431 11.6407 13.6431C11.9822 13.6431 12.3098 13.5078 12.5516 13.2666L19.2333 19.9484C18.9922 20.1902 18.8568 20.5178 18.8568 20.8593C18.8568 21.2008 18.9922 21.5284 19.2333 21.7703L19.537 22.074C19.7789 22.3152 20.1066 22.4507 20.4482 22.4507C20.7898 22.4507 21.1175 22.3152 21.3594 22.074L21.0914 21.8064C20.7502 21.8061 20.4232 21.6703 20.1822 21.4288Z" fill="#AFDFFA"/>
<path d="M14.1099 16.5884L15.9116 18.3901L12.8682 21.4331C12.75 21.5515 12.6096 21.6453 12.455 21.7094C12.3005 21.7734 12.1348 21.8064 11.9676 21.8064C11.8003 21.8064 11.6346 21.7734 11.4801 21.7094C11.3255 21.6453 11.1851 21.5515 11.0669 21.4331C10.9486 21.3149 10.8547 21.1745 10.7906 21.0199C10.7266 20.8654 10.6936 20.6998 10.6936 20.5325C10.6936 20.3652 10.7266 20.1995 10.7906 20.045C10.8547 19.8905 10.9486 19.7501 11.0669 19.6318L14.1099 16.5884Z" fill="#406C80"/>
<path d="M15.0513 17.5299L12.0079 20.5729C11.8461 20.7339 11.6439 20.8483 11.4226 20.9041C11.2012 20.9598 10.969 20.9547 10.7502 20.8894C10.8079 21.0946 10.9169 21.2817 11.0668 21.4331C11.185 21.5514 11.3254 21.6453 11.48 21.7094C11.6345 21.7734 11.8002 21.8064 11.9674 21.8064C12.1347 21.8064 12.3004 21.7734 12.4549 21.7094C12.6095 21.6453 12.7499 21.5514 12.8681 21.4331L15.9115 18.3901L15.0513 17.5299Z" fill="#344E66"/>
<path d="M20.3748 10.9239L21.8763 10.6237L21.5761 12.1247L15.6113 18.0899L14.41 16.8886L20.3748 10.9239Z" fill="#03A1FA"/>
<path d="M21.3387 10.7312C21.2132 11.3596 20.9042 11.9367 20.451 12.3897L15.1813 17.6598L15.6114 18.0899L21.5753 12.1247L21.8763 10.6237L21.3387 10.7312Z" fill="#AFDFFA"/>
<path d="M24.2462 25.7144C21.8037 26.7396 19.1113 27.0143 16.512 26.5036C13.9128 25.993 11.5244 24.72 9.65137 22.8469C7.77829 20.9738 6.5053 18.5855 5.99461 15.9862C5.48392 13.387 5.75866 10.6946 6.78383 8.25206L6.51114 8.13679C6.31793 8.05524 6.10157 8.04708 5.90277 8.11385C5.70396 8.18063 5.53639 8.31772 5.43157 8.49937L4.47071 10.1639C4.36523 10.3457 4.32996 10.5598 4.37156 10.7658C4.41316 10.9719 4.52876 11.1555 4.69652 11.2822L5.60491 11.9703C5.35687 12.643 5.17199 13.3374 5.05265 14.0443L3.91845 14.1863C3.71083 14.2126 3.51994 14.3138 3.38154 14.4708C3.24315 14.6278 3.16674 14.8299 3.16663 15.0392V16.9609C3.16658 17.1706 3.24314 17.3731 3.3819 17.5303C3.52067 17.6875 3.71209 17.7886 3.92017 17.8146L5.05437 17.9566C5.17371 18.6635 5.35859 19.3579 5.60663 20.0306L4.69824 20.7187C4.53103 20.8453 4.4158 21.0285 4.37421 21.2341C4.33263 21.4396 4.36756 21.6533 4.47243 21.8349L5.43329 23.4994C5.53811 23.681 5.70568 23.8181 5.90449 23.8849C6.10329 23.9517 6.31965 23.9435 6.51286 23.862L7.56534 23.4177C8.02341 23.969 8.53136 24.477 9.08276 24.9351L8.63845 25.9871C8.5569 26.1803 8.54874 26.3967 8.61552 26.5955C8.68229 26.7943 8.81939 26.9619 9.00103 27.0667L10.6656 28.0275C10.8474 28.133 11.0615 28.1683 11.2675 28.1267C11.4735 28.0851 11.6572 27.9695 11.7838 27.8017L12.472 26.8934C13.1447 27.1414 13.839 27.3263 14.546 27.4456L14.6879 28.5798C14.7139 28.7874 14.8146 28.9785 14.9713 29.1172C15.128 29.2559 15.3298 29.3328 15.5391 29.3334H17.4608C17.6705 29.3334 17.873 29.2568 18.0302 29.1181C18.1875 28.9793 18.2886 28.7879 18.3146 28.5798L18.4565 27.4456C19.1635 27.3263 19.8578 27.1414 20.5305 26.8934L21.2187 27.8017C21.3452 27.969 21.5285 28.0842 21.734 28.1258C21.9396 28.1673 22.1532 28.1324 22.3348 28.0275L23.9993 27.0667C24.181 26.9619 24.3181 26.7943 24.3848 26.5955C24.4516 26.3967 24.4434 26.1803 24.3619 25.9871L24.2462 25.7144Z" fill="#FAAF42"/>
<path d="M14.2235 18.2766C14.1428 18.1959 14.0334 18.1506 13.9194 18.1506C13.8053 18.1506 13.6959 18.1959 13.6153 18.2766L11.8949 19.997C11.8538 20.0367 11.821 20.0841 11.7985 20.1366C11.7759 20.1891 11.7641 20.2455 11.7636 20.3026C11.7631 20.3597 11.774 20.4164 11.7956 20.4692C11.8172 20.5221 11.8491 20.5701 11.8895 20.6105C11.9299 20.6509 11.9779 20.6828 12.0308 20.7044C12.0836 20.7261 12.1403 20.737 12.1974 20.7365C12.2545 20.736 12.3109 20.7241 12.3634 20.7016C12.4159 20.679 12.4634 20.6462 12.503 20.6052L14.2235 18.8847C14.3041 18.8041 14.3494 18.6947 14.3494 18.5807C14.3494 18.4666 14.3041 18.3572 14.2235 18.2766Z" fill="#607D8B"/>
</svg>
