<svg width="65" height="64" viewBox="0 0 65 64" fill="none" xmlns="http://www.w3.org/2000/svg">
<path d="M32.5002 5.33325C17.8068 5.33325 5.8335 17.3066 5.8335 31.9999C5.8335 46.6933 17.8068 58.6666 32.5002 58.6666C47.1935 58.6666 59.1668 46.6933 59.1668 31.9999C59.1668 17.3066 47.1935 5.33325 32.5002 5.33325ZM30.5002 21.3333C30.5002 20.2399 31.4068 19.3333 32.5002 19.3333C33.5935 19.3333 34.5002 20.2399 34.5002 21.3333V34.6666C34.5002 35.7599 33.5935 36.6666 32.5002 36.6666C31.4068 36.6666 30.5002 35.7599 30.5002 34.6666V21.3333ZM34.9535 43.6799C34.8202 44.0266 34.6335 44.2933 34.3935 44.5599C34.1268 44.7999 33.8335 44.9866 33.5135 45.1199C33.1935 45.2533 32.8468 45.3333 32.5002 45.3333C32.1535 45.3333 31.8068 45.2533 31.4868 45.1199C31.1668 44.9866 30.8735 44.7999 30.6068 44.5599C30.3668 44.2933 30.1802 44.0266 30.0468 43.6799C29.9135 43.3599 29.8335 43.0133 29.8335 42.6666C29.8335 42.3199 29.9135 41.9733 30.0468 41.6533C30.1802 41.3333 30.3668 41.0399 30.6068 40.7733C30.8735 40.5333 31.1668 40.3466 31.4868 40.2133C32.1268 39.9466 32.8735 39.9466 33.5135 40.2133C33.8335 40.3466 34.1268 40.5333 34.3935 40.7733C34.6335 41.0399 34.8202 41.3333 34.9535 41.6533C35.0868 41.9733 35.1668 42.3199 35.1668 42.6666C35.1668 43.0133 35.0868 43.3599 34.9535 43.6799Z" fill="#F5B102"/>
</svg>
