<svg width="20" height="20" viewBox="0 0 20 20" fill="none" xmlns="http://www.w3.org/2000/svg">
<path d="M10 11.5418C9.89167 11.5418 9.78334 11.5168 9.69167 11.4585C9.39167 11.2835 9.29167 10.9001 9.45834 10.6085L10.1667 9.37513H9.46667C9.05 9.37513 8.70834 9.19179 8.525 8.88346C8.34167 8.56679 8.35834 8.18346 8.56667 7.81679L9.45834 6.26679C9.63334 5.96679 10.0167 5.86679 10.3083 6.03346C10.6083 6.20846 10.7083 6.59179 10.5417 6.88346L9.83334 8.12513H10.5333C10.95 8.12513 11.2917 8.30846 11.475 8.61679C11.6583 8.93346 11.6417 9.31679 11.4333 9.68346L10.5417 11.2335C10.425 11.4335 10.2167 11.5418 10 11.5418Z" fill="#202C38"/>
<path d="M12.3083 16.4585H7.71667C7.35 16.4585 6.88333 16.4168 6.575 16.1001C6.275 15.7918 6.28333 15.4085 6.29167 15.1501V14.4085C4.19167 13.0085 2.80833 10.5751 2.80833 8.25846C2.80833 6.06679 3.79167 4.01679 5.5 2.64179C7.20833 1.26679 9.45 0.750126 11.6417 1.23346C13.725 1.69179 15.525 3.08346 16.4583 4.95846C18.2667 8.60013 16.525 12.5418 13.7417 14.4168V15.0418C13.75 15.2835 13.7583 15.7251 13.4167 16.0751C13.1583 16.3251 12.7917 16.4585 12.3083 16.4585ZM7.53333 15.2001C7.575 15.2001 7.63333 15.2085 7.70833 15.2085H12.3083C12.3917 15.2085 12.45 15.2001 12.4833 15.1918C12.4833 15.1668 12.4833 15.1335 12.4833 15.1085V14.0585C12.4833 13.8418 12.6 13.6335 12.7833 13.5251C15.25 12.0335 16.8833 8.62513 15.325 5.50013C14.5583 3.95846 13.075 2.81679 11.3583 2.44179C9.54167 2.04179 7.68333 2.46679 6.26667 3.60846C4.85 4.75013 4.04167 6.44179 4.04167 8.25846C4.04167 10.5751 5.64167 12.5751 7.225 13.5335C7.41667 13.6501 7.525 13.8501 7.525 14.0668V15.1918C7.53333 15.1918 7.53333 15.1918 7.53333 15.2001Z" fill="#202C38"/>
<path d="M12.9167 18.9585C12.8583 18.9585 12.8 18.9501 12.7417 18.9335C10.9417 18.4168 9.05 18.4168 7.25 18.9335C6.91667 19.0251 6.575 18.8335 6.475 18.5001C6.375 18.1668 6.575 17.8251 6.90834 17.7251C8.925 17.1501 11.0667 17.1501 13.0833 17.7251C13.4167 17.8168 13.6083 18.1668 13.5167 18.5001C13.4417 18.7835 13.1917 18.9585 12.9167 18.9585Z" fill="#202C38"/>
</svg>
