<svg width="24" height="24" viewBox="0 0 24 24" fill="none" xmlns="http://www.w3.org/2000/svg">
    <path d="M10.4039 20.9264L10.3813 20.9038L10.356 20.8843L7.7219 18.85L8.0299 18.4516L10.7163 20.5315C10.923 20.7195 11.2184 20.8517 11.4964 20.9377C11.798 21.0309 12.1453 21.09 12.4804 21.09H16.2804C16.8575 21.09 17.4269 20.8625 17.8753 20.5306C18.3161 20.2044 18.6915 19.7385 18.8308 19.1997L21.243 11.8732C21.4382 11.3309 21.4289 10.749 21.0967 10.2887C20.7586 9.81377 20.1846 9.58999 19.5804 9.58999H15.5804C15.2034 9.58999 14.8617 9.43143 14.6279 9.16215L14.6272 9.16142C14.3876 8.88649 14.2758 8.51549 14.3347 8.11501L14.8324 4.9195C14.9981 4.10521 14.4667 3.24597 13.7056 2.98804C13.328 2.85165 12.9299 2.89129 12.6103 2.99839C12.2951 3.10396 11.9774 3.30172 11.7883 3.57673L11.7883 3.57671L11.7854 3.58107L7.96376 9.26689L7.55478 8.99314L11.3753 3.30891L11.3757 3.30836C11.8766 2.56103 13.0111 2.19028 13.8729 2.51744L13.8836 2.52151L13.8945 2.52509C14.9046 2.8564 15.5562 3.98765 15.3319 5.01314L15.3286 5.02805L15.3263 5.04314L14.8363 8.19314L14.8363 8.19313L14.8354 8.19928C14.8186 8.31642 14.7983 8.60268 15.0141 8.84924L15.025 8.86177L15.0368 8.87354C15.1835 9.02026 15.382 9.09999 15.5904 9.09999H19.5904C20.431 9.09999 21.1179 9.44886 21.5115 10.0079L21.5127 10.0095C21.8967 10.5502 21.9911 11.2849 21.7205 12.0291L21.7178 12.0365L21.7153 12.044L19.3253 19.324L19.32 19.34L19.3159 19.3564C19.006 20.5707 17.6769 21.6 16.2804 21.6H12.4804C12.2413 21.6 11.8405 21.5625 11.43 21.4512C11.0125 21.338 10.6408 21.1633 10.4039 20.9264Z" fill="#202C38" stroke="#202C38"/>
    <path d="M5.37988 20.5H4.37988C3.52442 20.5 2.98559 20.2983 2.65822 19.9826C2.33437 19.6703 2.12988 19.1615 2.12988 18.35V8.54999C2.12988 7.73852 2.33437 7.22971 2.65822 6.9174C2.98559 6.60169 3.52442 6.39999 4.37988 6.39999H5.37988C6.23534 6.39999 6.77418 6.60169 7.10155 6.9174C7.4254 7.22971 7.62988 7.73852 7.62988 8.54999V18.35C7.62988 19.1615 7.4254 19.6703 7.10155 19.9826C6.77418 20.2983 6.23534 20.5 5.37988 20.5ZM4.37988 6.89999C4.0934 6.89999 3.83578 6.91649 3.61382 6.96698C3.38745 7.01848 3.16822 7.11205 2.99258 7.28769C2.81559 7.46468 2.72807 7.67976 2.68301 7.89011C2.63948 8.09328 2.62988 8.31976 2.62988 8.54999V18.35C2.62988 18.5802 2.63948 18.8067 2.68301 19.0099C2.72807 19.2202 2.81559 19.4353 2.99258 19.6123C3.16822 19.7879 3.38745 19.8815 3.61382 19.933C3.83578 19.9835 4.0934 20 4.37988 20H5.37988C5.66637 20 5.92398 19.9835 6.14595 19.933C6.37232 19.8815 6.59155 19.7879 6.76719 19.6123C6.94418 19.4353 7.0317 19.2202 7.07676 19.0099C7.12028 18.8067 7.12988 18.5802 7.12988 18.35V8.54999C7.12988 8.31976 7.12028 8.09328 7.07676 7.89011C7.0317 7.67976 6.94418 7.46468 6.76719 7.28769C6.59155 7.11205 6.37232 7.01848 6.14595 6.96698C5.92398 6.91649 5.66637 6.89999 5.37988 6.89999H4.37988Z" fill="#202C38" stroke="#202C38"/>
</svg>
