<svg width="25" height="25" viewBox="0 0 25 25" fill="none" xmlns="http://www.w3.org/2000/svg">
<g id="vuesax/outline/clock">
<g id="vuesax/outline/clock_2">
<g id="clock">
<path id="Vector" d="M12.5 23.25C6.57001 23.25 1.75001 18.43 1.75001 12.5C1.75001 6.57 6.57001 1.75 12.5 1.75C18.43 1.75 23.25 6.57 23.25 12.5C23.25 18.43 18.43 23.25 12.5 23.25ZM12.5 3.25C7.40001 3.25 3.25001 7.4 3.25001 12.5C3.25001 17.6 7.40001 21.75 12.5 21.75C17.6 21.75 21.75 17.6 21.75 12.5C21.75 7.4 17.6 3.25 12.5 3.25Z" fill="#676E72"/>
<path id="Vector_2" d="M16.21 16.43C16.08 16.43 15.95 16.4 15.83 16.32L12.73 14.47C11.96 14.01 11.39 13 11.39 12.11V8.01001C11.39 7.60001 11.73 7.26001 12.14 7.26001C12.55 7.26001 12.89 7.60001 12.89 8.01001V12.11C12.89 12.47 13.19 13 13.5 13.18L16.6 15.03C16.96 15.24 17.07 15.7 16.86 16.06C16.71 16.3 16.46 16.43 16.21 16.43Z" fill="#676E72"/>
</g>
</g>
</g>
</svg>
