<svg width="20" height="20" viewBox="0 0 20 20" fill="none" xmlns="http://www.w3.org/2000/svg">
<g clip-path="url(#clip0_4328_3000)">
<path d="M19.4141 9.41406H18.2031C17.8795 9.41406 17.6172 9.67636 17.6172 10C17.6172 10.3236 17.8795 10.5859 18.2031 10.5859H19.4141C19.7377 10.5859 20 10.3236 20 10C20 9.67636 19.7377 9.41406 19.4141 9.41406Z" fill=""/>
<path d="M16.617 13.1013C16.3881 13.3302 16.3881 13.7012 16.617 13.9299L17.7888 15.1018C18.0176 15.3307 18.3887 15.3307 18.6174 15.1018C18.8463 14.873 18.8463 14.5021 18.6174 14.2732L17.4455 13.1013C17.2168 12.8725 16.8457 12.8725 16.617 13.1013Z" fill=""/>
<path d="M18.6174 4.89822C18.3887 4.66934 18.0176 4.66934 17.7888 4.89822L16.617 6.0701C16.3881 6.29898 16.3881 6.66992 16.617 6.89865C16.8457 7.12753 17.2166 7.12753 17.4455 6.89865L18.6174 5.72678C18.8463 5.49805 18.8463 5.12695 18.6174 4.89822Z" fill=""/>
<path d="M0.585938 12.9297H3.55469V14.1016C3.55469 16.04 5.13184 17.6172 7.07031 17.6172C8.55377 17.6172 9.86755 16.6893 10.3726 15.3065L12.9297 16.2654V17.0312C12.9297 17.3549 13.192 17.6172 13.5156 17.6172C13.8393 17.6172 14.1016 17.3549 14.1016 17.0312V11.7578H14.6875C15.6567 11.7578 16.4453 10.9692 16.4453 10C16.4453 9.03076 15.6567 8.24219 14.6875 8.24219H14.1016V2.96875C14.1016 2.64511 13.8393 2.38281 13.5156 2.38281C13.192 2.38281 12.9297 2.64511 12.9297 2.96875V3.73459L4.03442 7.07031H0.585938C0.262299 7.07031 0 7.33261 0 7.65625V12.3438C0 12.6674 0.262299 12.9297 0.585938 12.9297ZM7.07031 16.4453C5.77789 16.4453 4.72656 15.394 4.72656 14.1016V13.1892L9.27536 14.895C8.94623 15.8041 8.06747 16.4453 7.07031 16.4453ZM14.6875 9.41406C15.0105 9.41406 15.2734 9.67697 15.2734 10C15.2734 10.323 15.0105 10.5859 14.6875 10.5859H14.1016V9.41406H14.6875ZM12.9297 15.0139C12.4509 14.8343 5.20294 12.1164 4.72656 11.9377V8.06229L12.9297 4.98611V15.0139ZM1.17188 8.24219H3.55469V11.7578H1.17188V8.24219Z" fill=""/>
</g>
<defs>
<clipPath id="clip0_4328_3000">
<rect width="20" height="20" fill="white"/>
</clipPath>
</defs>
</svg>
