<svg width="25" height="24" viewBox="0 0 25 24" xmlns="http://www.w3.org/2000/svg">
<path d="M17.0049 22.75H3.86493C2.91493 22.75 2.03493 22.31 1.46493 21.54C0.884932 20.76 0.71494 19.78 1.00494 18.85L5.21493 5.31995C5.59493 4.05995 6.75495 3.19995 8.07495 3.19995H20.3749C21.5849 3.19995 22.6749 3.92004 23.1349 5.04004C23.3849 5.62004 23.4349 6.28005 23.2849 6.93005L19.9149 20.46C19.5949 21.81 18.3949 22.75 17.0049 22.75ZM8.08493 4.70996C7.43493 4.70996 6.84493 5.14002 6.65493 5.77002L2.44494 19.3C2.30494 19.77 2.38493 20.26 2.68493 20.66C2.96493 21.04 3.40494 21.26 3.87494 21.26H17.0149C17.705 21.26 18.3049 20.79 18.4649 20.12L21.8349 6.57996C21.9149 6.24996 21.8949 5.92 21.7649 5.63C21.525 5.06 20.9949 4.69995 20.3849 4.69995H8.08493V4.70996Z"/>
<path d="M21.405 22.75H16.625C16.215 22.75 15.875 22.41 15.875 22C15.875 21.59 16.215 21.25 16.625 21.25H21.405C21.815 21.25 22.195 21.08 22.475 20.78C22.755 20.48 22.895 20.08 22.865 19.67L21.875 6.05002C21.845 5.64002 22.155 5.27997 22.565 5.24997C22.975 5.22997 23.335 5.52991 23.365 5.93991L24.355 19.56C24.415 20.38 24.125 21.2 23.565 21.8C23.015 22.41 22.225 22.75 21.405 22.75Z"/>
<path d="M10.3048 7.12996C10.2448 7.12996 10.1848 7.11994 10.1248 7.10994C9.72477 7.00994 9.47479 6.6099 9.57479 6.1999L10.6148 1.87996C10.7148 1.47996 11.1148 1.22991 11.5248 1.32991C11.9248 1.42991 12.1748 1.82994 12.0748 2.23994L11.0348 6.56001C10.9548 6.90001 10.6448 7.12996 10.3048 7.12996Z"/>
<path d="M17.0049 7.13999C16.9549 7.13999 16.8949 7.13997 16.8449 7.11997C16.4449 7.02997 16.185 6.62995 16.265 6.22995L17.2049 1.88999C17.2949 1.47999 17.6949 1.23003 18.0949 1.31003C18.4949 1.39003 18.7549 1.79992 18.6749 2.19992L17.7349 6.54001C17.6649 6.90001 17.3549 7.13999 17.0049 7.13999Z"/>
<path d="M16.3252 12.75H8.3252C7.9152 12.75 7.5752 12.41 7.5752 12C7.5752 11.59 7.9152 11.25 8.3252 11.25H16.3252C16.7352 11.25 17.0752 11.59 17.0752 12C17.0752 12.41 16.7352 12.75 16.3252 12.75Z"/>
<path d="M15.3252 16.75H7.3252C6.9152 16.75 6.5752 16.41 6.5752 16C6.5752 15.59 6.9152 15.25 7.3252 15.25H15.3252C15.7352 15.25 16.0752 15.59 16.0752 16C16.0752 16.41 15.7352 16.75 15.3252 16.75Z"/>
</svg>
