<svg width="186" height="160" viewBox="0 0 186 160" fill="none" xmlns="http://www.w3.org/2000/svg">
<path d="M96.7008 134.98C124.695 134.98 147.388 112.144 147.388 83.9747C147.388 55.805 124.695 32.969 96.7008 32.969C68.7071 32.969 46.0137 55.805 46.0137 83.9747C46.0137 112.144 68.7071 134.98 96.7008 134.98Z" fill="#EAEEF9"/>
<path d="M114.792 29.1871C115.25 28.7663 115.282 28.0519 114.863 27.5915C114.445 27.131 113.735 27.0989 113.278 27.5197C112.82 27.9404 112.788 28.6548 113.206 29.1153C113.625 29.5757 114.334 29.6079 114.792 29.1871Z" fill="#EAEEF9"/>
<path fill-rule="evenodd" clip-rule="evenodd" d="M94.2871 134.676C94.3563 133.788 94.6751 132.939 95.445 132.173C96.1983 131.424 96.9515 130.675 97.7048 129.676C99.4919 127.677 101.478 128.247 103.839 128.924C104.132 129.008 104.431 129.094 104.736 129.177C108.264 130.002 109.39 127.074 111.093 122.649C111.45 121.721 111.833 120.727 112.268 119.687C113.794 116.654 111.538 115.312 109.11 113.868C108.739 113.648 108.365 113.425 108 113.194C105.858 111.916 105.908 109.911 105.97 107.489C105.98 107.072 105.991 106.642 105.991 106.202C105.756 103.632 107.664 102.483 109.504 101.374C111.598 100.113 113.605 98.9034 112.268 95.7133C111.941 94.9321 111.639 94.1805 111.353 93.4665C109.44 88.7022 108.197 85.6047 104.484 86.4734C104.156 86.5625 103.835 86.655 103.52 86.7457C101.189 87.4177 99.2238 87.9841 97.4537 86.2237C96.9629 85.6745 96.457 85.1998 95.9801 84.7523C94.5054 83.3686 93.3078 82.2449 93.6873 79.9805C95.248 73.3282 94.829 73.1735 87.8596 70.5998C86.9801 70.275 85.9963 69.9117 84.8989 69.492C81.6931 68.2963 80.548 70.281 79.3467 72.363C78.2898 74.1947 77.1894 76.1018 74.604 75.9849C74.0164 75.9849 73.4478 76.0134 72.9021 76.0407C70.6496 76.1536 68.7861 76.247 67.5733 74.2368C63.9881 68.4426 63.6023 68.6146 56.6014 71.7357C55.7572 72.1121 54.8168 72.5313 53.763 72.9882C50.3135 74.4585 51.2161 77.3716 52.2001 80.5476C52.2189 80.6082 52.2377 80.6689 52.2565 80.7297C52.8525 83.101 51.562 84.3777 50.002 85.9209C49.5906 86.3279 49.1604 86.7535 48.7411 87.2226C47.998 88.0673 47.1426 88.4209 46.2344 88.51C48.5568 113.642 68.9989 133.483 94.2871 134.676ZM68.0755 121.685C75.3573 124.432 83.6435 120.936 86.4055 113.694C89.1676 106.452 85.6522 98.2106 78.3705 95.4636C71.0887 92.7166 62.8025 96.2128 60.0404 103.455C57.2784 110.697 60.7937 118.938 68.0755 121.685Z" fill="url(#paint0_linear_681_29305)"/>
<path d="M131.72 67.1155C131.523 64.1316 131.917 62.1423 129.946 61.9434C128.566 61.7445 127.58 61.9434 126.988 60.7499C126.397 59.5563 125.608 58.5617 126.397 57.5671C128.368 54.5832 127.777 54.7821 124.425 51.5993C122.257 49.6101 121.271 53.7875 119.102 52.7929C117.919 52.1961 116.736 52.1961 116.342 50.8036C115.553 47.4219 115.553 47.8198 110.822 48.0187C109.047 48.0187 109.047 49.6101 109.047 51.2015C108.85 52.594 107.864 52.7929 106.484 53.3897C104.316 54.5832 102.936 50.6047 100.964 52.7929C99.9783 53.7875 99.1897 54.7821 98.4011 55.9757C97.8096 57.5671 99.1897 57.9649 99.9783 59.3574C99.9783 59.3574 99.9783 59.3574 99.9783 59.5563C100.175 59.9542 99.9783 60.352 99.9783 60.7499C99.9783 60.9488 99.7812 61.3467 99.7812 61.5456C99.3869 62.5402 99.3869 63.3359 98.2039 63.5348C94.8523 64.1316 95.2466 64.3305 95.4438 69.1047C95.6409 72.0886 99.1897 69.9004 100.175 72.0886C100.57 72.8843 101.358 74.0778 100.964 74.8735C100.767 75.6692 99.9783 76.266 99.7812 77.0617C98.7954 78.852 100.57 79.8466 102.344 81.438C104.513 83.4273 105.499 79.2499 107.667 80.2445C110.23 81.2391 110.033 80.6423 110.625 83.6262C111.019 85.6155 113.385 85.0187 115.948 84.8198C118.905 84.6208 116.736 81.0402 118.905 80.0456C119.299 79.8466 119.891 79.6477 120.285 79.4488C121.468 78.852 122.257 79.6477 123.44 80.2445C125.214 81.438 126.2 79.6477 128.171 77.2606C129.354 75.8681 128.171 74.8735 127.186 73.68C126.397 72.6854 126.988 71.6907 127.383 70.2983C128.171 68.309 131.917 70.0993 131.72 67.1155ZM118.116 70.895C115.751 73.481 111.808 73.8789 109.047 71.4918C106.484 69.1047 106.09 65.1262 108.456 62.3413C110.822 59.7553 114.765 59.3574 117.525 61.7445C120.088 64.1316 120.482 68.1101 118.116 70.895Z" fill="url(#paint1_linear_681_29305)"/>
<path d="M35.1944 82.986C33.2692 83.9352 32.4687 86.2711 33.4064 88.2033C34.3441 90.1355 36.665 90.9324 38.5902 89.9831C40.5155 89.0339 41.316 86.698 40.3783 84.7658C39.4405 82.8336 37.1196 82.0368 35.1944 82.986Z" fill="#EAEEF9"/>
<path d="M110.556 139.66C109.148 139.703 108.037 140.885 108.075 142.301C108.113 143.717 109.286 144.829 110.694 144.786C112.103 144.743 113.213 143.56 113.175 142.145C113.137 140.729 111.964 139.617 110.556 139.66Z" fill="#EAEEF9"/>
<path d="M102.858 146.125C101.9 146.154 101.145 146.958 101.171 147.921C101.197 148.883 101.994 149.64 102.952 149.611C103.909 149.581 104.665 148.777 104.639 147.815C104.613 146.852 103.815 146.095 102.858 146.125Z" fill="#EAEEF9"/>
<path d="M30.036 99.5424C29.2254 99.9421 28.8883 100.926 29.2832 101.739C29.678 102.553 30.6552 102.888 31.4658 102.489C32.2765 102.089 32.6135 101.105 32.2187 100.292C31.8239 99.4783 30.8466 99.1428 30.036 99.5424Z" fill="#EAEEF9"/>
<path d="M62.7785 134.161C62.221 134.436 61.9891 135.113 62.2607 135.672C62.5323 136.232 63.2044 136.462 63.7619 136.188C64.3195 135.913 64.5513 135.236 64.2798 134.677C64.0082 134.117 63.3361 133.886 62.7785 134.161Z" fill="#EAEEF9"/>
<path d="M102.866 31.4008L91.0359 43.8403C87.3623 47.6539 81.4928 48.0992 77.8317 44.7591C74.1705 41.419 74.1123 35.6988 77.7858 31.8852L89.6154 19.4457C93.289 15.6321 99.1585 15.1868 102.82 18.5269C106.517 21.7657 106.539 27.5872 102.866 31.4008Z" fill="url(#paint2_linear_681_29305)"/>
<path d="M100.027 29.9561C102.346 27.4599 102.25 23.6104 99.8122 21.3579C97.3747 19.1054 93.5191 19.3029 91.2004 21.7991C88.8816 24.2952 88.9779 28.1448 91.4154 30.3973C93.8529 32.6498 97.7086 32.4522 100.027 29.9561Z" fill="white"/>
<g filter="url(#filter0_d_681_29305)">
<path d="M64.456 47.3449L61.1517 50.4515C60.7586 50.8124 60.1444 50.9374 59.6161 50.7641L55.6895 49.541C55.1612 49.3677 54.7189 48.896 54.6599 48.365L53.7207 44.3994C53.5855 43.8652 53.7574 43.2685 54.1504 42.9077L57.4547 39.8011C57.6906 39.5846 57.7052 39.1322 57.4841 38.8963C57.4103 38.8177 57.2604 38.7359 57.1081 38.7295C54.1473 38.3022 51.2186 39.2353 49.096 41.1839C46.4207 43.7131 45.3819 47.5195 46.4119 51.036L24.1615 71.5358C22.2723 73.3434 22.1007 76.2805 23.9438 78.2459C25.7131 80.1326 28.6837 80.2583 30.4943 78.523L52.9806 57.8066C56.3027 58.8531 59.9145 58.0244 62.4326 55.6395C64.6338 53.6187 65.7194 50.7202 65.5077 47.8424C65.5199 47.4654 65.1464 47.2231 64.8417 47.2103C64.6894 47.2038 64.6108 47.276 64.456 47.3449ZM26.6216 75.6412C25.9581 74.9337 25.9948 73.8028 26.7023 73.1533C27.4098 72.5037 28.4762 72.5488 29.1397 73.2564C29.8032 73.9639 29.7665 75.0948 29.059 75.7444C28.3515 76.3939 27.2851 76.3488 26.6216 75.6412C26.6191 75.7166 26.6191 75.7166 26.6216 75.6412Z" fill="#D5DDEA"/>
</g>
<path opacity="0.4" d="M46.2905 55.2508L29.8613 70.1516" stroke="#D6DCE8" stroke-miterlimit="10"/>
<path opacity="0.4" d="M48.921 58.0056L32.416 72.9021" stroke="#D6DCE8" stroke-miterlimit="10"/>
<path d="M156.82 49.9886C156.476 49.7684 155.958 49.7782 155.468 49.9763C154.618 50.5402 153.54 50.2772 153.009 49.5127C152.75 49.1775 152.679 48.7065 152.823 48.2882C152.968 47.8698 152.796 47.4197 152.35 47.2203L151.431 46.6331L149.96 48.5878L132.483 37.4313C132.253 37.2845 132.109 37.0227 132.081 36.8344L132.009 36.3634C131.952 35.9866 131.708 35.7457 131.378 35.6197L126.863 33.929L124.527 37.0335L127.831 40.3339C128.075 40.5749 128.406 40.7009 128.809 40.6178L129.313 40.5138C129.615 40.4514 129.831 40.504 130.061 40.6508L147.538 51.8073L146.068 53.762L146.987 54.3492C147.332 54.5694 147.85 54.5596 148.239 54.3822C149.089 53.8184 150.167 54.0814 150.698 54.8459C150.957 55.1811 151.028 55.6521 150.884 56.0704C150.739 56.4887 151.012 56.9181 151.357 57.1383L163.89 65.1387C165.845 66.3864 168.766 65.7835 170.237 63.8288C170.237 63.8288 170.323 63.7138 170.309 63.6196C171.664 61.5915 171.179 59.0691 169.224 57.8214L156.82 49.9886Z" fill="url(#paint3_linear_681_29305)"/>
<path opacity="0.4" d="M153.969 55.774L163.398 62.0326" stroke="#D6DCE8" stroke-miterlimit="10"/>
<path opacity="0.4" d="M155.578 53.4743L165.007 59.7328" stroke="#D6DCE8" stroke-miterlimit="10"/>
<g filter="url(#filter1_d_681_29305)">
<path d="M146.131 84.1258L124.029 97.8394C122.828 98.5847 122.463 100.142 123.209 101.343L136.922 123.445C137.668 124.646 139.225 125.011 140.426 124.265L162.528 110.552C163.729 109.806 164.094 108.249 163.348 107.048L149.635 84.9464C148.889 83.7452 147.332 83.3805 146.131 84.1258Z" fill="#D5DDEA"/>
</g>
<path d="M147.742 93.0242L141.076 97.1607C139.896 96.063 138.204 95.6154 136.659 96.0749C134.281 96.8014 132.962 99.3669 133.749 101.707L131.646 103.011C131.106 103.347 130.924 104.125 131.259 104.666C131.632 105.266 132.41 105.449 132.951 105.113L135.053 103.809C136.158 104.787 137.678 105.091 139.043 104.744C141.435 104.175 142.889 101.692 142.32 99.3L149.047 95.1263C149.587 94.7909 149.769 94.0123 149.434 93.4718C149.121 92.8339 148.343 92.6516 147.742 93.0242ZM140.009 100.401C140.038 100.716 139.969 101.008 139.804 101.277C139.721 101.412 139.698 101.509 139.578 101.584C139.435 101.756 139.352 101.89 139.172 102.002C138.248 102.658 137.02 102.422 136.364 101.498C136.327 101.438 136.327 101.438 136.289 101.378C135.693 100.417 136.027 99.2121 136.928 98.6531C137.829 98.0941 138.996 98.3676 139.615 99.2313C139.839 99.5916 140.003 99.9892 140.009 100.401ZM154.338 103.655L152.296 104.922C151.116 103.824 149.424 103.376 147.879 103.836C145.502 104.562 144.243 107.091 144.969 109.468L138.242 113.642C137.642 114.014 137.459 114.793 137.832 115.394C138.205 115.994 138.983 116.177 139.584 115.804L146.311 111.63C147.416 112.608 148.876 112.95 150.301 112.565C152.693 111.996 154.147 109.513 153.578 107.121L155.68 105.817C156.28 105.444 156.463 104.666 156.09 104.065C155.717 103.464 154.939 103.282 154.338 103.655ZM150.888 107.21C151.186 107.69 151.169 108.2 151.055 108.686C151.032 108.784 150.95 108.918 150.927 109.015C150.844 109.15 150.821 109.247 150.738 109.382C150.655 109.517 150.595 109.554 150.512 109.688C150.452 109.726 150.392 109.763 150.332 109.8C150.272 109.837 150.212 109.875 150.152 109.912C150.032 109.987 149.912 110.061 149.755 110.076C149.694 110.113 149.634 110.15 149.537 110.127C148.765 110.357 147.814 110.032 147.33 109.251C146.883 108.53 146.93 107.669 147.382 107.056C147.525 106.884 147.608 106.749 147.788 106.638C147.848 106.6 147.908 106.563 147.968 106.526C148.929 105.93 150.134 106.263 150.693 107.164C150.91 107.112 150.948 107.172 150.888 107.21Z" fill="white"/>
<defs>
<filter id="filter0_d_681_29305" x="0.648438" y="27.6274" width="86.8848" height="85.1195" filterUnits="userSpaceOnUse" color-interpolation-filters="sRGB">
<feFlood flood-opacity="0" result="BackgroundImageFix"/>
<feColorMatrix in="SourceAlpha" type="matrix" values="0 0 0 0 0 0 0 0 0 0 0 0 0 0 0 0 0 0 127 0" result="hardAlpha"/>
<feOffset dy="11"/>
<feGaussianBlur stdDeviation="11"/>
<feColorMatrix type="matrix" values="0 0 0 0 0.397708 0 0 0 0 0.47749 0 0 0 0 0.575 0 0 0 0.27 0"/>
<feBlend mode="normal" in2="BackgroundImageFix" result="effect1_dropShadow_681_29305"/>
<feBlend mode="normal" in="SourceGraphic" in2="effect1_dropShadow_681_29305" result="shape"/>
</filter>
<filter id="filter1_d_681_29305" x="100.822" y="72.7394" width="84.9121" height="84.9123" filterUnits="userSpaceOnUse" color-interpolation-filters="sRGB">
<feFlood flood-opacity="0" result="BackgroundImageFix"/>
<feColorMatrix in="SourceAlpha" type="matrix" values="0 0 0 0 0 0 0 0 0 0 0 0 0 0 0 0 0 0 127 0" result="hardAlpha"/>
<feOffset dy="11"/>
<feGaussianBlur stdDeviation="11"/>
<feColorMatrix type="matrix" values="0 0 0 0 0.397708 0 0 0 0 0.47749 0 0 0 0 0.575 0 0 0 0.27 0"/>
<feBlend mode="normal" in2="BackgroundImageFix" result="effect1_dropShadow_681_29305"/>
<feBlend mode="normal" in="SourceGraphic" in2="effect1_dropShadow_681_29305" result="shape"/>
</filter>
<linearGradient id="paint0_linear_681_29305" x1="79.5048" y1="71.4079" x2="79.5048" y2="108.198" gradientUnits="userSpaceOnUse">
<stop stop-color="#B0BACC"/>
<stop offset="1" stop-color="#969EAE"/>
</linearGradient>
<linearGradient id="paint1_linear_681_29305" x1="113.526" y1="49.1833" x2="113.526" y2="70.0452" gradientUnits="userSpaceOnUse">
<stop stop-color="#B0BACC"/>
<stop offset="1" stop-color="#969EAE"/>
</linearGradient>
<linearGradient id="paint2_linear_681_29305" x1="85.5058" y1="21.9028" x2="91.5872" y2="33.5136" gradientUnits="userSpaceOnUse">
<stop stop-color="#B0BACC"/>
<stop offset="1" stop-color="#969EAE"/>
</linearGradient>
<linearGradient id="paint3_linear_681_29305" x1="145.173" y1="31.5425" x2="149.628" y2="53.1253" gradientUnits="userSpaceOnUse">
<stop stop-color="#B0BACC"/>
<stop offset="1" stop-color="#969EAE"/>
</linearGradient>
</defs>
</svg>
