<svg width="26" height="25" viewBox="0 0 26 25" xmlns="http://www.w3.org/2000/svg">
<path d="M22.1989 18.3052H21.439V10.4385C21.439 6.70252 17.5593 3.61872 13.9063 3.22399V2.34375C13.9063 1.91231 13.5569 1.5625 13.125 1.5625C12.6932 1.5625 12.3438 1.91231 12.3438 2.34375V3.22094C8.70099 3.60637 4.81104 6.6956 4.81104 10.4385V18.3052H4.05115C3.61932 18.3052 3.2699 18.655 3.2699 19.0865C3.2699 19.5179 3.61932 19.8677 4.05115 19.8677H22.1989C22.6308 19.8677 22.9802 19.5179 22.9802 19.0865C22.9802 18.655 22.6308 18.3052 22.1989 18.3052ZM6.37354 18.3052V10.4385C6.37354 7.29713 9.97105 4.74167 13.1372 4.74167C16.279 4.74167 19.8765 7.29713 19.8765 10.4385V18.3052H6.37354Z" />
<path d="M15.5862 21.875H10.6378C10.206 21.875 9.85657 22.2248 9.85657 22.6562C9.85657 23.0877 10.206 23.4375 10.6378 23.4375H15.5862C16.0181 23.4375 16.3675 23.0877 16.3675 22.6562C16.3675 22.2248 16.0181 21.875 15.5862 21.875Z" />
</svg>
