<svg width="32" height="32" viewBox="0 0 32 32" fill="none" xmlns="http://www.w3.org/2000/svg">
<path d="M30.8481 10.944C29.9841 7.61599 27.7761 5.40799 24.3201 4.38399C24.1601 4.31999 23.9681 4.38399 23.8401 4.51199L17.6321 10.72C17.4401 10.912 17.4401 11.2 17.6321 11.392L20.3841 14.144L15.9681 18.56L11.5521 14.176L14.3361 11.392C14.5281 11.2 14.5281 10.912 14.3361 10.72L8.16006 4.51199C8.03206 4.38399 7.87206 4.35199 7.71206 4.38399C4.35206 5.27999 2.14406 7.45599 1.15206 10.912C1.08806 11.072 1.15206 11.264 1.28006 11.392L7.45606 17.6C7.55206 17.696 7.68006 17.728 7.80806 17.728C7.93606 17.728 8.06406 17.664 8.16006 17.6L10.9121 14.848L15.2961 19.232L12.7041 21.824C11.7121 21.12 10.4001 21.12 9.44006 21.824L8.44806 20.832C8.25606 20.64 7.96806 20.64 7.77606 20.832C7.58406 21.024 7.58406 21.312 7.77606 21.504L8.76806 22.496C8.00006 23.616 8.09606 25.152 9.08806 26.144C9.63206 26.688 10.3681 26.976 11.1041 26.976C11.6801 26.976 12.2561 26.816 12.7361 26.464L13.7601 27.488C13.8561 27.584 13.9841 27.616 14.1121 27.616C14.2401 27.616 14.3681 27.584 14.4641 27.488C14.6561 27.296 14.6561 27.008 14.4641 26.816L13.4401 25.792C14.1441 24.8 14.1441 23.488 13.4401 22.528L16.0321 19.936L18.6561 22.56C18.3041 23.04 18.1441 23.616 18.1441 24.192C18.1441 24.768 18.3361 25.344 18.6561 25.824L17.6001 26.816C17.4081 27.008 17.4081 27.296 17.6001 27.488C17.6961 27.584 17.8241 27.616 17.9521 27.616C18.0801 27.616 18.2081 27.584 18.3041 27.488L19.2961 26.496C19.7761 26.848 20.3521 27.008 20.9281 27.008C21.6641 27.008 22.3681 26.72 22.9441 26.176C23.4881 25.632 23.7761 24.928 23.7761 24.16C23.7761 23.552 23.5841 23.008 23.2641 22.528L24.2881 21.504C24.4801 21.312 24.4801 21.024 24.2881 20.832C24.0961 20.64 23.8081 20.64 23.6161 20.832L22.5921 21.856C21.6001 21.152 20.2881 21.152 19.3281 21.856L16.6401 19.264L21.0881 14.816L23.8721 17.6C23.9681 17.696 24.0961 17.728 24.2241 17.728C24.3521 17.728 24.4801 17.664 24.5761 17.6L30.7841 11.392C30.8481 11.264 30.9121 11.104 30.8481 10.944ZM7.68006 5.37599L8.76806 6.46399L3.23206 12L2.14406 10.912C3.07206 8.03199 4.86406 6.20799 7.68006 5.37599ZM7.80806 16.576L3.90406 12.704L9.44006 7.16799L13.3441 11.072L7.80806 16.576ZM9.72806 25.472C8.99206 24.736 8.99206 23.552 9.72806 22.816C10.0801 22.464 10.5601 22.272 11.0401 22.272C11.5521 22.272 12.0001 22.464 12.3521 22.816C12.7041 23.168 12.8961 23.648 12.8961 24.128C12.8961 24.64 12.7041 25.088 12.3521 25.44C11.6481 26.208 10.4641 26.208 9.72806 25.472ZM20.8961 22.304C21.3761 22.304 21.8561 22.496 22.2081 22.848C22.5601 23.2 22.7521 23.68 22.7521 24.16C22.7521 24.64 22.5601 25.12 22.2081 25.472C21.8561 25.824 21.3761 26.016 20.8961 26.016C20.3841 26.016 19.9361 25.824 19.5841 25.472C19.2321 25.12 19.0401 24.64 19.0401 24.16C19.0401 23.68 19.2321 23.2 19.5841 22.848C19.9361 22.496 20.4161 22.304 20.8961 22.304ZM24.1921 16.576L18.6561 11.072L22.5601 7.16799L28.0961 12.704L24.1921 16.576ZM28.7681 12L23.2321 6.49599L24.3201 5.40799C27.2321 6.33599 29.0241 8.12799 29.8561 10.944L28.7681 12Z" fill="#202C38"/>
<path d="M24.3199 10.848C23.6799 10.208 22.6239 10.208 21.9839 10.848C21.3439 11.488 21.3439 12.544 21.9839 13.184C22.3039 13.504 22.7199 13.664 23.1359 13.664C23.5519 13.664 23.9679 13.504 24.2879 13.184C24.9599 12.544 24.9599 11.488 24.3199 10.848ZM23.6479 12.512C23.3919 12.768 22.9439 12.768 22.6559 12.512C22.3999 12.256 22.3999 11.808 22.6559 11.52C22.7839 11.392 22.9759 11.328 23.1359 11.328C23.3279 11.328 23.4879 11.392 23.6159 11.52C23.9039 11.808 23.9039 12.256 23.6479 12.512Z" fill="#F5B102"/>
<path d="M9.95174 10.912C9.31174 10.272 8.25574 10.272 7.61574 10.912C7.29574 11.232 7.13574 11.648 7.13574 12.064C7.13574 12.512 7.29574 12.928 7.61574 13.216C7.93574 13.536 8.35174 13.696 8.76774 13.696C9.18374 13.696 9.59974 13.536 9.91974 13.216C10.2397 12.896 10.3997 12.48 10.3997 12.064C10.4317 11.648 10.2397 11.232 9.95174 10.912ZM9.24774 12.576C8.99174 12.832 8.54374 12.832 8.25574 12.576C8.12774 12.448 8.06374 12.256 8.06374 12.096C8.06374 11.936 8.12774 11.744 8.25574 11.616C8.38374 11.488 8.57574 11.424 8.73574 11.424C8.92774 11.424 9.08774 11.488 9.21574 11.616C9.34374 11.744 9.40774 11.936 9.40774 12.096C9.40774 12.256 9.37574 12.448 9.24774 12.576Z" fill="#F5B102"/>
</svg>
