<svg width="41" height="40" viewBox="0 0 41 40" fill="none" xmlns="http://www.w3.org/2000/svg">
<path d="M36.4959 22.5322H4.50422C3.70108 22.5322 3.05005 21.8811 3.05005 21.078V19.5183C3.05005 18.7151 3.70108 18.0641 4.50422 18.0641H36.4959C37.2991 18.0641 37.9501 18.7151 37.9501 19.5183V21.078C37.9501 21.8811 37.2991 22.5322 36.4959 22.5322Z" fill="#FFB454"/>
<path d="M37.0936 18.1937C37.176 18.3762 37.223 18.578 37.223 18.7913V20.3511C37.223 21.1542 36.572 21.8052 35.7688 21.8052H3.77711C3.56393 21.8052 3.36194 21.7583 3.17944 21.6758C3.4076 22.1806 3.91423 22.5323 4.50419 22.5323H36.4959C37.299 22.5323 37.9501 21.8813 37.9501 21.0782V19.5184C37.9501 18.9285 37.5982 18.4217 37.0936 18.1937Z" fill="#CC9043"/>
<path d="M35.289 22.5322H5.71118L7.9983 34.8826C8.18981 35.9165 9.09154 36.6667 10.1431 36.6667H30.857C31.9085 36.6667 32.8103 35.9165 33.0017 34.8826L35.289 22.5322Z" fill="#FFDD54"/>
<path d="M8.62838 33.7864C8.49096 33.7864 8.36866 33.6886 8.34263 33.5485L6.70088 24.6835C6.67165 24.5256 6.77606 24.3737 6.93398 24.3445C7.09248 24.315 7.24357 24.4197 7.27295 24.5776L8.9147 33.4427C8.94393 33.6006 8.83952 33.7524 8.6816 33.7816C8.66371 33.7848 8.64583 33.7864 8.62838 33.7864ZM6.77489 23.7775C6.63748 23.7775 6.51518 23.6797 6.48915 23.5396L6.47403 23.4578C6.4448 23.2998 6.54906 23.1482 6.70698 23.1188C6.86578 23.0893 7.01687 23.1937 7.0461 23.3517L7.06122 23.4336C7.09045 23.5915 6.98618 23.7432 6.82826 23.7726C6.81023 23.7758 6.79249 23.7775 6.77489 23.7775Z" fill="#FFC91D"/>
<path d="M33.5655 22.5322L31.5477 33.4284C31.3562 34.4623 30.4544 35.2125 29.4029 35.2125H8.68887C8.46972 35.2125 8.25785 35.1782 8.05688 35.1173C8.33216 36.0277 9.17325 36.6667 10.143 36.6667H30.8569C31.9085 36.6667 32.8103 35.9165 33.0017 34.8826L35.2888 22.5322H33.5655Z" fill="#F2C50F"/>
<path d="M34.4273 22.5322L32.2748 34.1555C32.0833 35.1894 31.1816 35.9396 30.1301 35.9396H9.416C9.00258 35.9396 8.61316 35.8223 8.28015 35.6187C8.66667 36.2536 9.36336 36.6667 10.1431 36.6667H30.857C31.9085 36.6667 32.8104 35.9165 33.0017 34.8826L35.2889 22.5322H34.4273Z" fill="#CC9043"/>
<path d="M20.5002 34.2227C20.0985 34.2227 19.7731 33.8971 19.7731 33.4956V25.7034C19.7731 25.3019 20.0985 24.9763 20.5002 24.9763C20.9018 24.9763 21.2272 25.3019 21.2272 25.7034V33.4956C21.2272 33.8971 20.9018 34.2227 20.5002 34.2227Z" fill="#FFC91D"/>
<path d="M16.6603 34.2227C16.2811 34.2227 15.9613 33.9285 15.9357 33.5443L15.4122 25.7521C15.3852 25.3515 15.6881 25.0048 16.0888 24.9779C16.4908 24.9513 16.8361 25.2539 16.8629 25.6547L17.3864 33.4469C17.4134 33.8475 17.1105 34.1942 16.7098 34.2211C16.693 34.2221 16.6766 34.2227 16.6603 34.2227Z" fill="#FFC91D"/>
<path d="M12.8212 34.2226C12.4626 34.2226 12.1505 33.9574 12.1015 33.5924L11.0545 25.8002C11.001 25.4022 11.2804 25.0362 11.6782 24.9827C12.0752 24.929 12.4423 25.2085 12.4956 25.6065L13.5426 33.3987C13.5961 33.7967 13.3168 34.1627 12.9189 34.2162C12.8862 34.2206 12.8535 34.2226 12.8212 34.2226Z" fill="#FFC91D"/>
<path d="M24.3398 34.2227C24.3235 34.2227 24.3069 34.2223 24.2904 34.2211C23.8896 34.1942 23.5867 33.8475 23.6137 33.4469L24.1372 25.6547C24.164 25.2541 24.5099 24.9512 24.9113 24.978C25.3121 25.0049 25.615 25.3515 25.5879 25.7522L25.0644 33.5443C25.0388 33.9284 24.7192 34.2227 24.3398 34.2227Z" fill="#FFC91D"/>
<path d="M28.179 34.2227C28.1467 34.2227 28.1143 34.2205 28.0813 34.2161C27.6835 34.1626 27.4041 33.7966 27.4576 33.3986L28.5046 25.6064C28.558 25.2084 28.9223 24.9291 29.322 24.9826C29.7199 25.0361 29.9992 25.4021 29.9457 25.8001L28.8987 33.5923C28.8497 33.9574 28.5375 34.2227 28.179 34.2227Z" fill="#FFC91D"/>
<path d="M34.9791 19.1245C35.1268 19.1246 35.2691 19.1469 35.4034 19.1879L28.7057 7.58713C28.4123 7.07886 27.7622 6.90457 27.2538 7.1981C26.7454 7.49162 26.5713 8.14158 26.8648 8.64998L33.5631 20.2518C33.7117 19.6064 34.2885 19.1246 34.9791 19.1245Z" fill="#344E66"/>
<path d="M26.963 7.48891C27.4712 7.19546 28.1213 7.36954 28.4148 7.87794L34.9101 19.1281C34.9332 19.127 34.9558 19.1245 34.9791 19.1245C35.1267 19.1246 35.269 19.1468 35.4034 19.1878L28.7057 7.58711C28.4122 7.07884 27.7622 6.90456 27.2538 7.19808C27.1078 7.28235 26.9906 7.39656 26.9028 7.52783C26.9225 7.51459 26.9421 7.50098 26.963 7.48891Z" fill="#27344D"/>
<path d="M34.7042 21.756C35.5073 21.756 36.1583 21.105 36.1583 20.3019C36.1583 19.4987 35.5073 18.8477 34.7042 18.8477C33.9011 18.8477 33.25 19.4987 33.25 20.3019C33.25 21.105 33.9011 21.756 34.7042 21.756Z" fill="#E6E7E8"/>
<path d="M36.0398 19.7311C36.0763 20.0328 36.0206 20.3482 35.8571 20.6316C35.4556 21.3272 34.5662 21.5655 33.8707 21.1639C33.5872 21.0003 33.3812 20.755 33.2621 20.4753C33.3152 20.9139 33.5651 21.3232 33.9772 21.5611C34.6728 21.9626 35.5621 21.7245 35.9636 21.0289C36.2014 20.617 36.2132 20.1375 36.0398 19.7311Z" fill="#D1D3D4"/>
<path d="M34.7042 21.0118C35.0963 21.0118 35.4141 20.6939 35.4141 20.3018C35.4141 19.9098 35.0963 19.5919 34.7042 19.5919C34.3121 19.5919 33.9943 19.9098 33.9943 20.3018C33.9943 20.6939 34.3121 21.0118 34.7042 21.0118Z" fill="white"/>
<path d="M7.101 19.9444C7.17476 20.0723 7.22663 20.2066 7.25829 20.3435L13.956 8.74274C14.2494 8.23447 14.0753 7.58438 13.5669 7.29086C13.0587 6.9974 12.4086 7.17149 12.1151 7.67989L5.41672 19.2817C6.05008 19.0878 6.75576 19.3464 7.101 19.9444Z" fill="#344E66"/>
<path d="M13.175 7.17508C13.6833 7.46853 13.8576 8.11856 13.564 8.62696L7.06876 19.8771C7.08121 19.8965 7.09464 19.9149 7.10633 19.935C7.18009 20.0629 7.23196 20.1973 7.26362 20.3341L13.9613 8.73341C14.2548 8.22514 14.0807 7.57506 13.5723 7.28153C13.4263 7.19726 13.2688 7.15282 13.1112 7.14245C13.1325 7.15292 13.1541 7.16301 13.175 7.17508Z" fill="#27344D"/>
<path d="M6.12092 21.756C6.92403 21.756 7.57509 21.105 7.57509 20.3019C7.57509 19.4987 6.92403 18.8477 6.12092 18.8477C5.3178 18.8477 4.66675 19.4987 4.66675 20.3019C4.66675 21.105 5.3178 21.756 6.12092 21.756Z" fill="#E6E7E8"/>
<path d="M7.45671 19.7311C7.49321 20.0328 7.43751 20.3482 7.27392 20.6316C6.87242 21.3272 5.98305 21.5655 5.28752 21.1639C5.00411 21.0003 4.79805 20.755 4.67896 20.4753C4.73203 20.9139 4.982 21.3232 5.39412 21.5611C6.08964 21.9626 6.97901 21.7245 7.38051 21.0289C7.61827 20.617 7.63005 20.1375 7.45671 19.7311Z" fill="#D1D3D4"/>
<path d="M6.12094 21.0118C6.51302 21.0118 6.83086 20.6939 6.83086 20.3018C6.83086 19.9098 6.51302 19.5919 6.12094 19.5919C5.72886 19.5919 5.41101 19.9098 5.41101 20.3018C5.41101 20.6939 5.72886 21.0118 6.12094 21.0118Z" fill="white"/>
<path d="M24.3704 3.33334H16.9542C16.151 3.33334 15.5 3.98437 15.5 4.78751V10.7496C15.5 11.5527 16.151 12.2038 16.9542 12.2038H19.2627L21.5853 14.1342C21.7747 14.2917 22.0619 14.1569 22.0619 13.9105V12.2038H24.3704C25.1736 12.2038 25.8246 11.5527 25.8246 10.7496V4.78751C25.8246 3.98437 25.1736 3.33334 24.3704 3.33334Z" fill="#03A1FA"/>
<path d="M24.6249 3.3569C24.7404 3.56543 24.8067 3.80508 24.8067 4.06028V10.0224C24.8067 10.8255 24.1556 11.4765 23.3525 11.4765H21.3348C21.1742 11.4765 21.044 11.6067 21.044 11.7674V13.1833C21.044 13.3427 20.9236 13.4539 20.7874 13.4708L21.5853 14.134C21.7747 14.2915 22.0619 14.1567 22.0619 13.9104V12.2038H24.3704C25.1736 12.2038 25.8246 11.5527 25.8246 10.7496V4.78751C25.8246 4.07134 25.3065 3.47745 24.6249 3.3569Z" fill="#0270AD"/>
<path d="M23.5128 8.44461C23.5128 8.17006 23.2902 7.94743 23.0156 7.94743H23.0834C23.3524 7.94743 23.5705 7.7293 23.5707 7.46028C23.5707 7.19112 23.3526 6.97299 23.0834 6.97299H21.3833C21.1614 6.97299 21.1198 6.79718 21.1992 6.56321C21.2775 6.33243 21.3598 6.21697 21.3598 5.85764C21.3598 5.40758 21.0968 4.83173 20.6539 4.83173C20.3792 4.83173 20.4764 5.4464 20.0922 6.28895C19.945 6.61177 19.6357 7.08772 19.3814 7.42218C19.3396 7.30919 19.2319 7.22834 19.1048 7.22834H18.0499C17.8865 7.22834 17.7542 7.36067 17.7542 7.52412V10.4093C17.7542 10.5725 17.8865 10.7051 18.0499 10.7051H19.1048C19.2679 10.7051 19.4006 10.5723 19.4006 10.4093V10.2571C19.566 10.5255 19.8618 10.705 20.2004 10.7048C21.1176 10.7045 22.2807 10.7041 22.826 10.7038C23.0579 10.7037 23.2455 10.5156 23.2455 10.2838V10.2833C23.2455 10.0532 23.0608 9.86708 22.8317 9.8633L22.9988 9.86359C23.2535 9.86402 23.4602 9.65768 23.4602 9.40291C23.4602 9.14843 23.254 8.94223 22.9995 8.94223H22.791L23.0166 8.94179C23.2908 8.94121 23.5128 8.71887 23.5128 8.44461Z" fill="white"/>
</svg>
