<svg width="24" height="24" viewBox="0 0 24 24" fill="none" xmlns="http://www.w3.org/2000/svg">
<path d="M11.6937 15.407C11.1218 15.407 10.6589 15.8836 10.6589 16.4555C10.6589 17.0137 11.1082 17.5039 11.6937 17.5039C12.2791 17.5039 12.7421 17.0138 12.7421 16.4555C12.7421 15.8836 12.2656 15.407 11.6937 15.407Z" fill="#202C38"/>
<path d="M11.8707 7.46883C10.0325 7.46883 9.18835 8.55808 9.18835 9.29336C9.18835 9.82441 9.63765 10.0695 10.0053 10.0695C10.7405 10.0695 10.441 9.02105 11.8298 9.02105C12.5107 9.02105 13.0553 9.32062 13.0553 9.94695C13.0553 10.6823 12.2928 11.1043 11.8435 11.4856C11.4486 11.826 10.9312 12.3843 10.9312 13.5552C10.9312 14.2632 11.1218 14.4675 11.6801 14.4675C12.3473 14.4675 12.4834 14.168 12.4834 13.9093C12.4834 13.2012 12.4971 12.7927 13.2459 12.2073C13.6135 11.9213 14.7709 10.9954 14.7709 9.71551C14.7709 8.43558 13.6135 7.46883 11.8707 7.46883Z" fill="#202C38"/>
<path d="M12 2C6.47328 2 2 6.47254 2 12V21.2188C2 21.6502 2.34977 22 2.78125 22H12C17.5267 22 22 17.5275 22 12C22 6.47328 17.5275 2 12 2ZM12 20.4375H3.5625V12C3.5625 7.33684 7.33621 3.5625 12 3.5625C16.6632 3.5625 20.4375 7.33621 20.4375 12C20.4375 16.6632 16.6638 20.4375 12 20.4375Z" fill="#202C38"/>
</svg>
