<svg width="14" height="14" viewBox="0 0 14 14" fill="none" xmlns="http://www.w3.org/2000/svg">
<path d="M7 10.8412C7.35956 10.8412 7.65104 10.5497 7.65104 10.1901C7.65104 9.83056 7.35956 9.53908 7 9.53908C6.64044 9.53908 6.34896 9.83056 6.34896 10.1901C6.34896 10.5497 6.64044 10.8412 7 10.8412Z" fill="#919699"/>
<path d="M7 0.333344C3.31552 0.333344 0.333336 3.31504 0.333336 7.00001C0.333336 10.6845 3.31503 13.6667 7 13.6667C10.6845 13.6667 13.6667 10.685 13.6667 7.00001C13.6667 3.31553 10.685 0.333344 7 0.333344ZM7 12.625C3.89123 12.625 1.375 10.1092 1.375 7.00001C1.375 3.89123 3.89081 1.37501 7 1.37501C10.1088 1.37501 12.625 3.89082 12.625 7.00001C12.625 10.1088 10.1092 12.625 7 12.625Z" fill="#919699"/>
<path d="M7.00001 3.67969C5.85126 3.67969 4.91667 4.61427 4.91667 5.76302C4.91667 6.05068 5.14985 6.28385 5.43751 6.28385C5.72516 6.28385 5.95834 6.05068 5.95834 5.76302C5.95834 5.18865 6.42563 4.72135 7.00001 4.72135C7.57438 4.72135 8.04167 5.18865 8.04167 5.76302C8.04167 6.3374 7.57438 6.80469 7.00001 6.80469C6.71235 6.80469 6.47917 7.03786 6.47917 7.32552V8.6276C6.47917 8.91526 6.71235 9.14844 7.00001 9.14844C7.28766 9.14844 7.52084 8.91526 7.52084 8.6276V7.78044C8.41839 7.54859 9.08334 6.73201 9.08334 5.76302C9.08334 4.61427 8.14876 3.67969 7.00001 3.67969Z" fill="#919699"/>
</svg>
