<svg width="33" height="32" viewBox="0 0 33 32" fill="none" xmlns="http://www.w3.org/2000/svg">
<path d="M24.5804 16.0572H20.78C20.3244 16.0572 19.9466 15.6794 19.9466 15.2238V7.45612C19.9466 6.63379 20.2688 5.86703 20.8467 5.28918C21.4245 4.71133 22.1913 4.38907 23.0136 4.38907H23.0247C24.4138 4.40018 25.725 4.94469 26.7252 5.93371C27.7253 6.94494 28.2698 8.27844 28.2698 9.66751V12.3567C28.2809 14.5681 26.7918 16.0572 24.5804 16.0572ZM21.6134 14.3903H24.5804C25.8695 14.3903 26.6141 13.6458 26.6141 12.3567V9.66751C26.6141 8.71183 26.2362 7.80061 25.5584 7.11163C24.8805 6.44488 23.9804 6.06706 23.0247 6.05594C23.0247 6.05594 23.0247 6.05594 23.0136 6.05594C22.6469 6.05594 22.2913 6.20041 22.0246 6.46711C21.7579 6.73381 21.6134 7.07829 21.6134 7.45612V14.3903Z" fill="#202C38"/>
<path d="M13.001 28.9255C12.4787 28.9255 11.9898 28.7254 11.623 28.3476L9.77833 26.4918C9.67832 26.3918 9.52279 26.3807 9.41167 26.4696L7.5114 27.892C6.92244 28.3365 6.14455 28.4143 5.4778 28.0809C4.81105 27.7475 4.39992 27.0808 4.39992 26.3363V9.66751C4.39992 6.31153 6.32238 4.38907 9.67835 4.38907H23.0134C23.469 4.38907 23.8468 4.76689 23.8468 5.22251C23.8468 5.67812 23.469 6.05594 23.0134 6.05594C22.2466 6.05594 21.6243 6.67824 21.6243 7.44501V26.3363C21.6243 27.0808 21.2131 27.7475 20.5463 28.0809C19.8907 28.4143 19.1018 28.3365 18.5128 27.892L16.6125 26.4696C16.5014 26.3807 16.3458 26.4029 16.2569 26.4918L14.39 28.3587C14.0122 28.7254 13.5233 28.9255 13.001 28.9255ZM9.56719 24.7472C10.0784 24.7472 10.5784 24.9361 10.9563 25.325L12.801 27.1808C12.8676 27.2475 12.9565 27.2586 13.001 27.2586C13.0454 27.2586 13.1343 27.2475 13.201 27.1808L15.0679 25.3139C15.7569 24.6249 16.8459 24.5583 17.6127 25.1472L19.5018 26.5585C19.624 26.6474 19.7351 26.6141 19.7907 26.5807C19.8463 26.5474 19.9463 26.4807 19.9463 26.3363V7.44501C19.9463 6.94494 20.0685 6.46711 20.2797 6.05594H9.66723C7.20026 6.05594 6.05567 7.20053 6.05567 9.66751V26.3363C6.05567 26.4918 6.1557 26.5585 6.21126 26.5918C6.27794 26.6252 6.38907 26.6474 6.5002 26.5585L8.40039 25.1361C8.74488 24.8805 9.15603 24.7472 9.56719 24.7472Z" fill="#202C38"/>
<path d="M16.335 13.8347H9.6675C9.21189 13.8347 8.83406 13.4569 8.83406 13.0013C8.83406 12.5456 9.21189 12.1678 9.6675 12.1678H16.335C16.7906 12.1678 17.1684 12.5456 17.1684 13.0013C17.1684 13.4569 16.7906 13.8347 16.335 13.8347Z" fill="#F5B102"/>
<path d="M15.5016 18.2797H10.5009C10.0453 18.2797 9.6675 17.9019 9.6675 17.4462C9.6675 16.9906 10.0453 16.6128 10.5009 16.6128H15.5016C15.9572 16.6128 16.335 16.9906 16.335 17.4462C16.335 17.9019 15.9572 18.2797 15.5016 18.2797Z" fill="#F5B102"/>
</svg>
