<svg width="25" height="24" viewBox="0 0 25 24" xmlns="http://www.w3.org/2000/svg">
<path d="M17.2441 18.6188L17.6051 17.2717L18.9522 16.9107L19.9384 17.8969L19.5774 19.2439L18.2303 19.6049L17.2441 18.6188Z" stroke-miterlimit="10"/>
<path d="M9.73242 6.7113C9.81508 6.40216 9.85941 6.07742 9.85941 5.7422C9.85941 3.67546 8.18394 1.99999 6.1172 1.99999C4.05043 1.99999 2.375 3.67546 2.375 5.7422C2.375 7.80893 4.05043 9.4844 6.1172 9.4844C6.45238 9.4844 6.77716 9.44008 7.08627 9.35746L9.74964 12.0208L12.3958 9.37467L9.73242 6.7113Z" stroke-width="1.35" stroke-miterlimit="10"/>
<path d="M18.5912 14.5156C18.256 14.5156 17.9312 14.5599 17.6221 14.6426L15.0419 12.0624L12.3958 14.7085L14.976 17.2887C14.8933 17.5978 14.849 17.9226 14.849 18.2578C14.849 20.3245 16.5244 22 18.5912 22C20.658 22 22.3334 20.3245 22.3334 18.2578C22.3334 16.1911 20.658 14.5156 18.5912 14.5156Z" stroke-width="1.35" stroke-miterlimit="10"/>
<path d="M4.77002 6.10317L5.13098 4.75606L6.47809 4.39506L7.46424 5.38126L7.10328 6.72833L5.75617 7.08932L4.77002 6.10317Z" stroke-miterlimit="10"/>
<path d="M9.73165 17.2895L17.6225 9.3986C18.8709 9.73186 20.2578 9.40941 21.2372 8.43012C22.3893 7.27798 22.6329 5.56163 21.9684 4.17062L19.9141 6.22496L18.591 5.78392L18.15 4.46088L20.2043 2.4065C18.8134 1.74213 17.097 1.98567 15.9449 3.13781C14.9655 4.11714 14.6431 5.50413 14.9764 6.75245L7.08549 14.6433C5.83718 14.31 4.45024 14.6325 3.4709 15.6118C2.31876 16.7639 2.07518 18.4803 2.73963 19.8713L4.79398 17.8169L6.11701 18.2579L6.55805 19.581L4.50371 21.6354C5.89473 22.2998 7.61107 22.0562 8.76317 20.9041C9.7425 19.9248 10.065 18.5378 9.73165 17.2895Z" stroke-width="1.35" stroke-miterlimit="10"/>
</svg>
