<svg width="24" height="24" viewBox="0 0 24 24" fill="none" xmlns="http://www.w3.org/2000/svg">
    <path d="M3.83661 9.59996L3.83425 9.5977C2.07598 7.92543 1.44918 6.18565 1.82685 4.54246C2.27163 2.62481 3.95032 1.75 5.46967 1.75C6.9898 1.75 8.67704 2.63522 9.11221 4.54129L9.11238 4.54205C9.49001 6.18426 8.85465 7.92461 7.1041 9.59863L7.10272 9.59996C6.65166 10.0346 6.0685 10.25 5.46967 10.25C4.87991 10.25 4.28704 10.034 3.83661 9.59996ZM2.31292 4.65566L2.3129 4.65566L2.31213 4.65906C1.86783 6.61162 3.16975 8.26744 4.18421 9.23147C4.91216 9.9307 6.04495 9.91089 6.76278 9.2337L6.76404 9.2325C7.77903 8.26826 9.08239 6.61124 8.62684 4.64749C8.21607 2.86072 6.62896 2.25 5.47967 2.25C4.31915 2.25 2.73441 2.86129 2.31292 4.65566Z" fill="#202C38" stroke="#202C38"/>
    <path d="M5.50977 5.70001C5.23591 5.70001 5.00977 5.47387 5.00977 5.20001C5.00977 4.92289 5.22916 4.70001 5.50977 4.70001H5.51977C5.79362 4.70001 6.01977 4.92615 6.01977 5.20001C6.01977 5.47064 5.79687 5.70001 5.50977 5.70001Z" fill="#202C38" stroke="#202C38"/>
    <path d="M18.4904 22.75C17.7804 22.75 17.0604 22.49 16.5004 21.96C14.6504 20.21 13.9004 18.3 14.3404 16.42C14.8504 14.23 16.7904 13.24 18.4904 13.24C20.1904 13.24 22.1304 14.23 22.6404 16.42C23.0704 18.29 22.3204 20.21 20.4704 21.95C19.9204 22.49 19.2104 22.75 18.4904 22.75ZM18.4904 14.75C17.4704 14.75 16.1504 15.28 15.8004 16.77C15.4104 18.44 16.5304 19.93 17.5304 20.88C18.0604 21.39 18.9004 21.39 19.4404 20.88C20.4404 19.93 21.5604 18.45 21.1704 16.78C20.8404 15.28 19.5204 14.75 18.4904 14.75Z" fill="#202C38"/>
    <path d="M18.5303 18.2C17.9803 18.2 17.5303 17.75 17.5303 17.2C17.5303 16.65 17.9703 16.2 18.5303 16.2H18.5403C19.0903 16.2 19.5403 16.65 19.5403 17.2C19.5403 17.75 19.0803 18.2 18.5303 18.2Z" fill="#202C38"/>
    <path d="M12.0004 19.75H9.32043C8.16043 19.75 7.15043 19.05 6.75043 17.97C6.34043 16.89 6.64043 15.7 7.51043 14.93L15.5004 7.94C15.9804 7.52 15.9904 6.95 15.8504 6.56C15.7004 6.17 15.3204 5.75 14.6804 5.75H12.0004C11.5904 5.75 11.2504 5.41 11.2504 5C11.2504 4.59 11.5904 4.25 12.0004 4.25H14.6804C15.8404 4.25 16.8504 4.95 17.2504 6.03C17.6604 7.11 17.3604 8.3 16.4904 9.07L8.50043 16.06C8.02043 16.48 8.01043 17.05 8.15043 17.44C8.30043 17.83 8.68043 18.25 9.32043 18.25H12.0004C12.4104 18.25 12.7504 18.59 12.7504 19C12.7504 19.41 12.4104 19.75 12.0004 19.75Z" fill="#202C38"/>
    <path d="M12.0004 19.75H9.32043C8.16043 19.75 7.15043 19.05 6.75043 17.97C6.34043 16.89 6.64043 15.7 7.51043 14.93L15.5004 7.94C15.9804 7.52 15.9904 6.95 15.8504 6.56C15.7004 6.17 15.3204 5.75 14.6804 5.75H12.0004C11.5904 5.75 11.2504 5.41 11.2504 5C11.2504 4.59 11.5904 4.25 12.0004 4.25H14.6804C15.8404 4.25 16.8504 4.95 17.2504 6.03C17.6604 7.11 17.3604 8.3 16.4904 9.07L8.50043 16.06C8.02043 16.48 8.01043 17.05 8.15043 17.44C8.30043 17.83 8.68043 18.25 9.32043 18.25H12.0004C12.4104 18.25 12.7504 18.59 12.7504 19C12.7504 19.41 12.4104 19.75 12.0004 19.75Z" fill="#202C38"/>
</svg>
