<svg width="55" height="54" viewBox="0 0 55 54" fill="none" xmlns="http://www.w3.org/2000/svg">
<path fill-rule="evenodd" clip-rule="evenodd" d="M27.5002 0.333344C42.2271 0.333344 54.1668 12.2727 54.1668 27C54.1668 41.7273 42.2271 53.6667 27.5002 53.6667C12.7732 53.6667 0.833496 41.7269 0.833496 27C0.833496 12.2731 12.773 0.333344 27.5002 0.333344ZM22.9663 36.3586L26.6547 32.0989L25.5429 28.9583L23.0429 28.0729L22.9658 36.3594L22.9663 36.3586ZM31.1427 39.779L40.2797 15.3991L27.6418 28.037C27.5914 28.0867 27.5348 28.1296 27.4734 28.1648L27.1054 28.378L31.1427 39.779ZM39.101 14.2206L14.7205 23.3568L26.1209 27.395L26.3346 27.0278C26.3702 26.9661 26.4134 26.9092 26.4634 26.8584L39.101 14.2206Z" fill="#1BB045"/>
</svg>
