<svg width="186" height="160" viewBox="0 0 186 160" fill="none" xmlns="http://www.w3.org/2000/svg">
<path d="M96.2015 134.98C124.195 134.98 146.889 112.144 146.889 83.9747C146.889 55.805 124.195 32.969 96.2015 32.969C68.2078 32.969 45.5144 55.805 45.5144 83.9747C45.5144 112.144 68.2078 134.98 96.2015 134.98Z" fill="#EAEEF9"/>
<path d="M114.292 29.1871C114.75 28.7663 114.782 28.0519 114.364 27.5915C113.945 27.131 113.236 27.0989 112.778 27.5197C112.32 27.9404 112.288 28.6548 112.707 29.1153C113.125 29.5757 113.835 29.6079 114.292 29.1871Z" fill="#EAEEF9"/>
<path fill-rule="evenodd" clip-rule="evenodd" d="M93.7879 134.676C93.857 133.788 94.1758 132.939 94.9457 132.173C95.699 131.424 96.4523 130.675 97.2056 129.676C98.9926 127.677 100.978 128.247 103.34 128.924C103.633 129.008 103.931 129.094 104.236 129.177C107.765 130.002 108.891 127.074 110.594 122.649C110.951 121.721 111.334 120.727 111.769 119.687C113.294 116.654 111.038 115.312 108.61 113.868C108.24 113.648 107.866 113.425 107.501 113.194C105.359 111.916 105.409 109.911 105.47 107.489C105.481 107.072 105.492 106.642 105.492 106.202C105.257 103.632 107.164 102.483 109.005 101.374C111.099 100.113 113.106 98.9034 111.769 95.7133C111.442 94.9321 111.14 94.1805 110.853 93.4665C108.941 88.7022 107.697 85.6047 103.985 86.4734C103.657 86.5625 103.336 86.655 103.021 86.7457C100.689 87.4177 98.7245 87.9841 96.9545 86.2237C96.4636 85.6745 95.9577 85.1998 95.4808 84.7523C94.0062 83.3686 92.8086 82.2449 93.188 79.9805C94.7488 73.3282 94.3297 73.1735 87.3604 70.5998C86.4808 70.275 85.497 69.9117 84.3997 69.492C81.1938 68.2963 80.0487 70.281 78.8474 72.363C77.7905 74.1947 76.6902 76.1018 74.1047 75.9849C73.5171 75.9849 72.9486 76.0134 72.4028 76.0407C70.1504 76.1536 68.2868 76.247 67.074 74.2368C63.4888 68.4426 63.103 68.6146 56.1021 71.7357C55.2579 72.1121 54.3175 72.5313 53.2638 72.9882C49.8142 74.4585 50.7168 77.3716 51.7008 80.5476C51.7196 80.6082 51.7384 80.6689 51.7572 80.7297C52.3533 83.101 51.0627 84.3777 49.5028 85.9209C49.0913 86.3279 48.6611 86.7535 48.2419 87.2226C47.4987 88.0673 46.6434 88.4209 45.7351 88.51C48.0576 113.642 68.4996 133.483 93.7879 134.676ZM67.5763 121.685C74.858 124.432 83.1442 120.936 85.9063 113.694C88.6683 106.452 85.153 98.2106 77.8712 95.4636C70.5894 92.7166 62.3032 96.2128 59.5412 103.455C56.7791 110.697 60.2945 118.938 67.5763 121.685Z" fill="url(#paint0_linear_1212_54248)"/>
<path d="M131.221 67.1155C131.024 64.1316 131.418 62.1423 129.447 61.9434C128.067 61.7445 127.081 61.9434 126.489 60.7499C125.898 59.5563 125.109 58.5617 125.898 57.5671C127.869 54.5832 127.278 54.7821 123.926 51.5993C121.758 49.6101 120.772 53.7875 118.603 52.7929C117.42 52.1961 116.237 52.1961 115.843 50.8036C115.054 47.4219 115.054 47.8198 110.323 48.0187C108.548 48.0187 108.548 49.6101 108.548 51.2015C108.351 52.594 107.365 52.7929 105.985 53.3897C103.817 54.5832 102.437 50.6047 100.465 52.7929C99.4793 53.7875 98.6907 54.7821 97.9021 55.9757C97.3106 57.5671 98.6907 57.9649 99.4793 59.3574C99.4793 59.3574 99.4793 59.3574 99.4793 59.5563C99.6764 59.9542 99.4793 60.352 99.4793 60.7499C99.4793 60.9488 99.2821 61.3466 99.2821 61.5456C98.8878 62.5402 98.8878 63.3359 97.7049 63.5348C94.3533 64.1316 94.7476 64.3305 94.9448 69.1047C95.1419 72.0886 98.6907 69.9004 99.6764 72.0886C100.071 72.8843 100.859 74.0778 100.465 74.8735C100.268 75.6692 99.4793 76.266 99.2821 77.0617C98.2964 78.852 100.071 79.8466 101.845 81.438C104.014 83.4273 105 79.2499 107.168 80.2445C109.731 81.2391 109.534 80.6423 110.126 83.6262C110.52 85.6155 112.886 85.0187 115.449 84.8198C118.406 84.6208 116.237 81.0402 118.406 80.0456C118.8 79.8466 119.392 79.6477 119.786 79.4488C120.969 78.852 121.758 79.6477 122.941 80.2445C124.715 81.438 125.701 79.6477 127.672 77.2606C128.855 75.8681 127.672 74.8735 126.687 73.68C125.898 72.6854 126.489 71.6907 126.884 70.2983C127.672 68.309 131.418 70.0993 131.221 67.1155ZM117.617 70.895C115.252 73.481 111.309 73.8789 108.548 71.4918C105.985 69.1047 105.591 65.1262 107.957 62.3413C110.323 59.7553 114.266 59.3574 117.026 61.7445C119.589 64.1316 119.983 68.1101 117.617 70.895Z" fill="url(#paint1_linear_1212_54248)"/>
<path d="M34.6934 82.986C32.7682 83.9352 31.9677 86.2711 32.9054 88.2033C33.8431 90.1355 36.164 90.9324 38.0892 89.9831C40.0145 89.0339 40.815 86.698 39.8773 84.7658C38.9396 82.8336 36.6187 82.0368 34.6934 82.986Z" fill="#EAEEF9"/>
<path d="M110.056 139.66C108.647 139.703 107.537 140.885 107.575 142.301C107.613 143.717 108.785 144.829 110.194 144.786C111.602 144.743 112.713 143.56 112.675 142.145C112.636 140.729 111.464 139.617 110.056 139.66Z" fill="#EAEEF9"/>
<path d="M102.358 146.125C101.4 146.154 100.645 146.958 100.671 147.921C100.697 148.883 101.494 149.64 102.452 149.611C103.41 149.581 104.165 148.777 104.139 147.815C104.113 146.852 103.316 146.095 102.358 146.125Z" fill="#EAEEF9"/>
<path d="M29.5358 99.5424C28.7251 99.9421 28.3881 100.926 28.7829 101.739C29.1777 102.553 30.155 102.888 30.9656 102.489C31.7762 102.089 32.1133 101.105 31.7184 100.292C31.3236 99.4783 30.3464 99.1428 29.5358 99.5424Z" fill="#EAEEF9"/>
<path d="M62.279 134.161C61.7214 134.436 61.4896 135.113 61.7612 135.672C62.0327 136.232 62.7049 136.462 63.2624 136.188C63.82 135.913 64.0518 135.236 63.7803 134.677C63.5087 134.117 62.8366 133.886 62.279 134.161Z" fill="#EAEEF9"/>
<path d="M102.365 31.4008L90.5352 43.8403C86.8616 47.6539 80.9921 48.0992 77.3309 44.7591C73.6698 41.419 73.6115 35.6988 77.2851 31.8852L89.1147 19.4457C92.7883 15.6321 98.6578 15.1868 102.319 18.5269C106.017 21.7657 106.038 27.5872 102.365 31.4008Z" fill="url(#paint2_linear_1212_54248)"/>
<path d="M99.5275 29.9561C101.846 27.4599 101.75 23.6104 99.3125 21.3579C96.875 19.1054 93.0193 19.3029 90.7006 21.7991C88.3819 24.2952 88.4782 28.1448 90.9156 30.3973C93.3531 32.6498 97.2088 32.4522 99.5275 29.9561Z" fill="white"/>
<g filter="url(#filter0_d_1212_54248)">
<path d="M63.956 47.3449L60.6517 50.4515C60.2586 50.8124 59.6444 50.9374 59.1161 50.7641L55.1895 49.541C54.6612 49.3677 54.2189 48.896 54.1599 48.365L53.2207 44.3994C53.0855 43.8652 53.2574 43.2685 53.6504 42.9077L56.9547 39.8011C57.1906 39.5846 57.2052 39.1322 56.9841 38.8964C56.9103 38.8177 56.7604 38.7359 56.6081 38.7295C53.6473 38.3022 50.7186 39.2353 48.596 41.1839C45.9207 43.7131 44.8819 47.5195 45.9119 51.036L23.6615 71.5358C21.7723 73.3434 21.6007 76.2805 23.4438 78.2459C25.2131 80.1326 28.1837 80.2583 29.9943 78.523L52.4806 57.8066C55.8027 58.8531 59.4145 58.0244 61.9326 55.6395C64.1338 53.6187 65.2194 50.7202 65.0077 47.8424C65.0199 47.4654 64.6464 47.2231 64.3417 47.2103C64.1894 47.2038 64.1108 47.276 63.956 47.3449ZM26.1216 75.6412C25.4581 74.9337 25.4948 73.8028 26.2023 73.1533C26.9098 72.5037 27.9762 72.5488 28.6397 73.2564C29.3032 73.9639 29.2665 75.0948 28.559 75.7444C27.8515 76.3939 26.7851 76.3488 26.1216 75.6412C26.1191 75.7166 26.1191 75.7166 26.1216 75.6412Z" fill="#D5DDEA"/>
</g>
<path opacity="0.4" d="M45.7908 55.2508L29.3616 70.1516" stroke="#D6DCE8" stroke-miterlimit="10"/>
<path opacity="0.4" d="M48.4212 58.0056L31.9163 72.9021" stroke="#D6DCE8" stroke-miterlimit="10"/>
<path d="M156.32 49.9886C155.976 49.7684 155.458 49.7782 154.968 49.9763C154.118 50.5402 153.04 50.2772 152.509 49.5127C152.25 49.1775 152.179 48.7065 152.323 48.2882C152.468 47.8698 152.296 47.4197 151.85 47.2203L150.931 46.6331L149.46 48.5878L131.983 37.4313C131.753 37.2845 131.609 37.0227 131.581 36.8344L131.509 36.3634C131.452 35.9866 131.208 35.7457 130.878 35.6197L126.363 33.929L124.027 37.0335L127.331 40.3339C127.575 40.5749 127.906 40.7009 128.309 40.6178L128.813 40.5138C129.115 40.4514 129.331 40.504 129.561 40.6508L147.038 51.8073L145.568 53.762L146.487 54.3492C146.832 54.5694 147.35 54.5596 147.739 54.3822C148.589 53.8184 149.667 54.0814 150.198 54.8459C150.457 55.1811 150.528 55.6521 150.384 56.0704C150.239 56.4887 150.512 56.9181 150.857 57.1383L163.39 65.1387C165.345 66.3864 168.266 65.7835 169.737 63.8288C169.737 63.8288 169.823 63.7138 169.809 63.6196C171.164 61.5915 170.679 59.0691 168.724 57.8214L156.32 49.9886Z" fill="url(#paint3_linear_1212_54248)"/>
<path opacity="0.4" d="M153.47 55.774L162.899 62.0326" stroke="#D6DCE8" stroke-miterlimit="10"/>
<path opacity="0.4" d="M155.079 53.4743L164.508 59.7328" stroke="#D6DCE8" stroke-miterlimit="10"/>
<g filter="url(#filter1_d_1212_54248)">
<path d="M145.631 84.1258L123.529 97.8394C122.328 98.5847 121.963 100.142 122.708 101.343L136.422 123.445C137.167 124.646 138.725 125.011 139.926 124.265L162.027 110.552C163.229 109.806 163.593 108.249 162.848 107.048L149.134 84.9464C148.389 83.7452 146.832 83.3805 145.631 84.1258Z" fill="#D5DDEA"/>
</g>
<path d="M147.243 93.0242L140.576 97.1607C139.396 96.063 137.704 95.6154 136.159 96.0749C133.782 96.8014 132.462 99.3669 133.249 101.707L131.147 103.011C130.606 103.347 130.424 104.125 130.759 104.666C131.132 105.266 131.91 105.449 132.451 105.113L134.553 103.809C135.659 104.787 137.179 105.091 138.543 104.744C140.935 104.175 142.389 101.692 141.82 99.3L148.547 95.1263C149.087 94.7909 149.27 94.0123 148.934 93.4718C148.622 92.8339 147.843 92.6516 147.243 93.0242ZM139.509 100.401C139.538 100.716 139.47 101.008 139.304 101.277C139.221 101.412 139.198 101.509 139.078 101.584C138.935 101.756 138.852 101.89 138.672 102.002C137.748 102.658 136.521 102.422 135.864 101.498C135.827 101.438 135.827 101.438 135.79 101.378C135.193 100.417 135.527 99.2121 136.428 98.6531C137.329 98.0941 138.497 98.3676 139.116 99.2313C139.339 99.5916 139.503 99.9892 139.509 100.401ZM153.838 103.655L151.796 104.922C150.616 103.824 148.924 103.376 147.38 103.836C145.002 104.562 143.743 107.091 144.469 109.468L137.743 113.642C137.142 114.014 136.96 114.793 137.332 115.394C137.705 115.994 138.484 116.177 139.084 115.804L145.811 111.63C146.916 112.608 148.376 112.95 149.801 112.565C152.193 111.996 153.647 109.513 153.078 107.121L155.18 105.817C155.781 105.444 155.963 104.666 155.59 104.065C155.218 103.464 154.439 103.282 153.838 103.655ZM150.388 107.21C150.686 107.69 150.669 108.2 150.555 108.686C150.533 108.784 150.45 108.918 150.427 109.015C150.344 109.15 150.321 109.247 150.238 109.382C150.156 109.517 150.096 109.554 150.013 109.688C149.953 109.726 149.893 109.763 149.833 109.8C149.772 109.837 149.712 109.875 149.652 109.912C149.532 109.987 149.412 110.061 149.255 110.076C149.195 110.113 149.135 110.15 149.037 110.127C148.265 110.357 147.314 110.032 146.83 109.251C146.383 108.53 146.431 107.669 146.882 107.056C147.025 106.884 147.108 106.749 147.288 106.638C147.348 106.6 147.408 106.563 147.468 106.526C148.429 105.93 149.634 106.263 150.193 107.164C150.411 107.112 150.448 107.172 150.388 107.21Z" fill="white"/>
<defs>
<filter id="filter0_d_1212_54248" x="0.14917" y="27.6274" width="86.8845" height="85.1195" filterUnits="userSpaceOnUse" color-interpolation-filters="sRGB">
<feFlood flood-opacity="0" result="BackgroundImageFix"/>
<feColorMatrix in="SourceAlpha" type="matrix" values="0 0 0 0 0 0 0 0 0 0 0 0 0 0 0 0 0 0 127 0" result="hardAlpha"/>
<feOffset dy="11"/>
<feGaussianBlur stdDeviation="11"/>
<feColorMatrix type="matrix" values="0 0 0 0 0.397708 0 0 0 0 0.47749 0 0 0 0 0.575 0 0 0 0.27 0"/>
<feBlend mode="normal" in2="BackgroundImageFix" result="effect1_dropShadow_1212_54248"/>
<feBlend mode="normal" in="SourceGraphic" in2="effect1_dropShadow_1212_54248" result="shape"/>
</filter>
<filter id="filter1_d_1212_54248" x="100.322" y="72.7394" width="84.9124" height="84.9123" filterUnits="userSpaceOnUse" color-interpolation-filters="sRGB">
<feFlood flood-opacity="0" result="BackgroundImageFix"/>
<feColorMatrix in="SourceAlpha" type="matrix" values="0 0 0 0 0 0 0 0 0 0 0 0 0 0 0 0 0 0 127 0" result="hardAlpha"/>
<feOffset dy="11"/>
<feGaussianBlur stdDeviation="11"/>
<feColorMatrix type="matrix" values="0 0 0 0 0.397708 0 0 0 0 0.47749 0 0 0 0 0.575 0 0 0 0.27 0"/>
<feBlend mode="normal" in2="BackgroundImageFix" result="effect1_dropShadow_1212_54248"/>
<feBlend mode="normal" in="SourceGraphic" in2="effect1_dropShadow_1212_54248" result="shape"/>
</filter>
<linearGradient id="paint0_linear_1212_54248" x1="79.0056" y1="71.4079" x2="79.0056" y2="108.198" gradientUnits="userSpaceOnUse">
<stop stop-color="#B0BACC"/>
<stop offset="1" stop-color="#969EAE"/>
</linearGradient>
<linearGradient id="paint1_linear_1212_54248" x1="113.027" y1="49.1833" x2="113.027" y2="70.0452" gradientUnits="userSpaceOnUse">
<stop stop-color="#B0BACC"/>
<stop offset="1" stop-color="#969EAE"/>
</linearGradient>
<linearGradient id="paint2_linear_1212_54248" x1="85.0051" y1="21.9028" x2="91.0865" y2="33.5136" gradientUnits="userSpaceOnUse">
<stop stop-color="#B0BACC"/>
<stop offset="1" stop-color="#969EAE"/>
</linearGradient>
<linearGradient id="paint3_linear_1212_54248" x1="144.673" y1="31.5425" x2="149.128" y2="53.1253" gradientUnits="userSpaceOnUse">
<stop stop-color="#B0BACC"/>
<stop offset="1" stop-color="#969EAE"/>
</linearGradient>
</defs>
</svg>
