<svg width="32" height="32" viewBox="0 0 32 32" fill="none" xmlns="http://www.w3.org/2000/svg">
<path d="M7.29647 7.61605C7.10447 7.42405 6.81647 7.42405 6.62447 7.61605C6.43247 7.80805 6.43247 8.09605 6.62447 8.28805L9.02447 10.688C9.12047 10.784 9.24847 10.816 9.37647 10.816C9.50447 10.816 9.63247 10.784 9.72847 10.688C9.92047 10.496 9.92047 10.208 9.72847 10.016L7.29647 7.61605Z" fill="#202C38"/>
<path d="M25.3762 25.6961L22.9762 23.2961C22.7842 23.1041 22.4962 23.1041 22.3042 23.2961C22.1122 23.4881 22.1122 23.7761 22.3042 23.9681L24.7042 26.3681C24.8002 26.4641 24.9282 26.4961 25.0562 26.4961C25.1842 26.4961 25.3122 26.4641 25.4082 26.3681C25.5682 26.2081 25.5682 25.8881 25.3762 25.6961Z" fill="#F5B102"/>
<path d="M9.02447 23.296L6.62447 25.696C6.43247 25.888 6.43247 26.176 6.62447 26.368C6.72047 26.464 6.84847 26.496 6.97647 26.496C7.10447 26.496 7.23247 26.464 7.32847 26.368L9.72847 23.968C9.92047 23.776 9.92047 23.488 9.72847 23.296C9.50447 23.136 9.21647 23.136 9.02447 23.296Z" fill="#202C38"/>
<path d="M7.07195 16.9921C7.07195 16.7361 6.84795 16.5121 6.59195 16.5121H3.23195C2.97595 16.5121 2.75195 16.7361 2.75195 16.9921C2.75195 17.2481 2.97595 17.4721 3.23195 17.4721H6.62395C6.87995 17.4721 7.07195 17.2801 7.07195 16.9921Z" fill="#202C38"/>
<path d="M24.9277 16.9921C24.9277 17.2481 25.1517 17.4721 25.4077 17.4721H28.7997C29.0557 17.4721 29.2797 17.2481 29.2797 16.9921C29.2797 16.7361 29.0557 16.5121 28.7997 16.5121H25.4077C25.1197 16.5121 24.9277 16.7361 24.9277 16.9921Z" fill="#202C38"/>
<path d="M22.9762 10.688L25.3762 8.28805C25.5682 8.09605 25.5682 7.80805 25.3762 7.61605C25.1842 7.42405 24.8962 7.42405 24.7042 7.61605L22.3042 10.016C22.1122 10.208 22.1122 10.496 22.3042 10.688C22.4002 10.784 22.5282 10.816 22.6562 10.816C22.7842 10.816 22.8802 10.784 22.9762 10.688Z" fill="#202C38"/>
<path d="M16.0001 2.11206C7.80812 2.11206 1.12012 8.80006 1.12012 16.9921C1.12012 21.0881 2.75212 24.9281 5.72812 27.7761C5.82412 27.8721 5.95212 27.9041 6.04812 27.9041C6.17612 27.9041 6.30412 27.8401 6.40012 27.7441C6.59212 27.5521 6.56012 27.2641 6.36812 27.0721C3.61612 24.4161 2.08012 20.8641 2.08012 16.9921C2.08012 9.34406 8.32012 3.07206 16.0001 3.07206C23.6801 3.07206 29.9201 9.31206 29.9201 16.9921C29.9201 20.8321 28.3841 24.4161 25.6001 27.0721C25.4081 27.2641 25.4081 27.5521 25.5681 27.7441C25.7601 27.9361 26.0481 27.9361 26.2401 27.7761C29.2161 24.9281 30.8481 21.1201 30.8481 16.9921C30.8801 8.80006 24.1921 2.11206 16.0001 2.11206Z" fill="#202C38"/>
<path d="M16.4805 7.61602V4.22402C16.4805 3.96802 16.2565 3.74402 16.0005 3.74402C15.7445 3.74402 15.5205 3.96802 15.5205 4.22402V7.61602C15.5205 7.87202 15.7445 8.09602 16.0005 8.09602C16.2565 8.09602 16.4805 7.87202 16.4805 7.61602Z" fill="#202C38"/>
<path d="M19.6481 25.952H12.3521C12.0961 25.952 11.8721 26.176 11.8721 26.432V29.376C11.8721 29.632 12.0961 29.856 12.3521 29.856H19.6801C19.9361 29.856 20.1601 29.632 20.1601 29.376V26.432C20.1281 26.176 19.9361 25.952 19.6481 25.952ZM19.1681 28.928H12.8321V26.944H19.2001V28.928H19.1681Z" fill="#202C38"/>
<path d="M13.7598 16.992C13.7598 18.208 14.7518 19.232 15.9998 19.232C17.2478 19.232 18.2398 18.24 18.2398 16.992C18.2398 16.8 18.2078 16.64 18.1758 16.48L26.3998 12.48C26.6238 12.352 26.7518 12.064 26.6238 11.84C26.4958 11.616 26.2078 11.488 25.9838 11.616L17.7278 15.616C17.3118 15.104 16.7038 14.784 15.9998 14.784C14.7838 14.784 13.7598 15.776 13.7598 16.992ZM15.9998 15.744C16.7038 15.744 17.2798 16.32 17.2798 17.024C17.2798 17.728 16.7038 18.304 15.9998 18.304C15.2958 18.304 14.7198 17.728 14.7198 17.024C14.7198 16.32 15.2958 15.744 15.9998 15.744Z" fill="#F5B102"/>
</svg>
