<svg width="33" height="32" viewBox="0 0 33 32" fill="none" xmlns="http://www.w3.org/2000/svg">
<path d="M28.6945 22.6873C26.3074 20.3002 26.4639 20.4514 26.3967 20.4018L20.078 15.7365L22.5292 13.2855C24.5 13.9878 26.7313 13.5022 28.233 12.0006C29.8691 10.3645 30.2985 7.86326 29.3017 5.77656C29.0693 5.29037 28.425 5.18024 28.0444 5.56089L26.0237 7.58164C25.7191 7.88618 25.2237 7.88623 24.9189 7.58164C24.6136 7.27632 24.6136 6.78227 24.9189 6.47695L26.9397 4.45615C27.3208 4.07519 27.21 3.43101 26.7241 3.19898C24.6374 2.20213 22.1362 2.63158 20.5001 4.26757C18.998 5.76963 18.5131 8.00104 19.2151 9.97131L16.3881 12.7981C15.8126 12.3504 16.5721 13.115 11.151 7.36676L11.7193 6.79847C12.0787 6.43908 12.0038 5.8373 11.5688 5.57631L7.38503 3.06599C6.28831 2.40795 4.8908 2.57996 3.98641 3.48435C3.08207 4.38869 2.91001 5.7863 3.56805 6.88297L6.07837 11.0668C6.33978 11.5026 6.94182 11.576 7.30053 11.2173L7.83647 10.6813C13.2295 16.3999 12.5197 15.6231 12.946 16.1713C12.9561 16.1843 12.9673 16.1957 12.9781 16.2079L10.4713 18.7145C8.50113 18.0124 6.26955 18.4974 4.7676 19.9994C3.13156 21.6355 2.7021 24.1367 3.69901 26.2234C3.9314 26.7097 4.57559 26.8197 4.95623 26.4391L6.97698 24.4183C7.28167 24.1137 7.77713 24.1138 8.08172 24.4183C8.38704 24.7236 8.38704 25.2177 8.08172 25.523L6.06087 27.5438C5.67986 27.9247 5.79071 28.5689 6.27654 28.801C7.02657 29.1593 7.82996 29.3333 8.62771 29.3333C10.0493 29.3333 11.4525 28.7804 12.5005 27.7324C14.0026 26.2304 14.4875 23.9989 13.7855 22.0286L15.9263 19.8879L20.9108 25.9454C20.9487 25.9913 20.8236 25.8633 23.0529 28.0926C23.8645 28.9041 24.9434 29.3249 26.0044 29.3249C26.7829 29.3249 27.5517 29.0981 28.1975 28.6331C30.1683 27.2137 30.4006 24.3932 28.6945 22.6873ZM8.42122 9.02431C8.1184 8.70326 7.61075 8.69763 7.30053 9.0079L6.90322 9.40517L4.90768 6.07917C4.61919 5.59835 4.69457 4.98557 5.0911 4.58904C5.48764 4.19245 6.10041 4.11713 6.58118 4.40562L9.90718 6.40121L9.50986 6.79842C9.2111 7.09717 9.20402 7.57935 9.49392 7.8867C15.7228 14.4916 14.743 13.4977 15.2748 13.9113L14.0893 15.0967C13.6796 14.5698 14.6309 15.6088 8.42122 9.02431ZM12.3119 21.2927C12.0778 21.5268 12.0167 21.883 12.1594 22.1818C12.8715 23.6723 12.5646 25.4589 11.3958 26.6276C10.6471 27.3764 9.64478 27.7715 8.62907 27.7714C8.44638 27.7714 8.26332 27.7586 8.08115 27.7328L9.18636 26.6276C10.1022 25.7118 10.1024 24.2293 9.18636 23.3134C8.2727 22.3997 6.7859 22.3998 5.87224 23.3134L4.76703 24.4187C4.59783 23.2239 4.98884 21.9875 5.87224 21.1041C7.041 19.9352 8.82759 19.6285 10.3181 20.3404C10.6168 20.4831 10.973 20.4221 11.2072 20.188L20.6887 10.7071C20.9228 10.473 20.9839 10.1168 20.8412 9.81806C20.1291 8.32762 20.4361 6.54092 21.6048 5.37221C22.4883 4.48871 23.7247 4.09775 24.9194 4.267L23.8141 5.37221C23.3715 5.81479 23.1277 6.40334 23.1277 7.0293C23.1277 7.65525 23.3715 8.24369 23.8141 8.68638C24.7278 9.6001 26.2146 9.60005 27.1283 8.68638L28.2335 7.58117C28.4027 8.77593 28.0117 10.0124 27.1283 10.8958C25.9595 12.0645 24.1729 12.3714 22.6824 11.6594C22.3838 11.5167 22.0275 11.5778 21.7933 11.8119L12.3119 21.2927ZM17.0329 18.7814L18.9608 16.8536L20.9257 18.3043L18.5781 20.6519C16.982 18.7123 17.0816 18.8292 17.0329 18.7814ZM27.2844 27.3654C26.3733 28.0216 25.029 27.8594 24.1575 26.9879L22.093 24.9234L19.5754 21.8639L22.1967 19.2427L25.4217 21.6238L27.5898 23.7919C28.5807 24.7829 28.5171 26.4776 27.2844 27.3654Z" fill="#202C38"/>
<path d="M26.4716 24.7621L23.347 21.6375C23.042 21.3325 22.5474 21.3325 22.2423 21.6375C21.9372 21.9426 21.9372 22.4371 22.2423 22.7422L25.3669 25.8668C25.6719 26.1718 26.1665 26.1719 26.4716 25.8668C26.7767 25.5618 26.7767 25.0672 26.4716 24.7621Z" fill="#F5B102"/>
</svg>
