<svg width="41" height="40" viewBox="0 0 41 40" fill="none" xmlns="http://www.w3.org/2000/svg">
<g clip-path="url(#clip0_4059_1543)">
<path d="M4.66663 6.31174H6.33329V15.4784H4.66663V6.31174Z" fill="#90A4AE"/>
<path d="M2.16663 27.1451H27.1666V32.1451H2.16663V27.1451Z" fill="#E09E00"/>
<path d="M0.5 24.6451H25.5V27.1451H0.5V24.6451Z" fill="#FFC107"/>
<path d="M10.5 36.3118C12.8012 36.3118 14.6667 34.4463 14.6667 32.1451C14.6667 29.8439 12.8012 27.9784 10.5 27.9784C8.19885 27.9784 6.33337 29.8439 6.33337 32.1451C6.33337 34.4463 8.19885 36.3118 10.5 36.3118Z" fill="#27344D"/>
<path d="M10.5 34.6451C11.8807 34.6451 13 33.5258 13 32.1451C13 30.7644 11.8807 29.6451 10.5 29.6451C9.11929 29.6451 8 30.7644 8 32.1451C8 33.5258 9.11929 34.6451 10.5 34.6451Z" fill="#03A1FA"/>
<path d="M10.5 32.9784C10.9602 32.9784 11.3333 32.6053 11.3333 32.1451C11.3333 31.6848 10.9602 31.3117 10.5 31.3117C10.0397 31.3117 9.66663 31.6848 9.66663 32.1451C9.66663 32.6053 10.0397 32.9784 10.5 32.9784Z" fill="#607D8B"/>
<path d="M2.16663 28.8117H4.66663V30.4784H2.16663V28.8117Z" fill="#03A1FA"/>
<path d="M38.8333 32.1451H23V12.9784C23 12.0576 23.7458 11.3117 24.6667 11.3117H32.1358C33.2025 11.3117 34.2042 11.8217 34.8317 12.6842L39.8625 19.6017C40.2767 20.1717 40.5 20.8576 40.5 21.5626V30.4784C40.5 31.3992 39.7542 32.1451 38.8333 32.1451Z" fill="#FFC107"/>
<path d="M30.5 36.3118C32.8012 36.3118 34.6667 34.4463 34.6667 32.1451C34.6667 29.8439 32.8012 27.9784 30.5 27.9784C28.1989 27.9784 26.3334 29.8439 26.3334 32.1451C26.3334 34.4463 28.1989 36.3118 30.5 36.3118Z" fill="#27344D"/>
<path d="M30.5 34.6451C31.8807 34.6451 33 33.5258 33 32.1451C33 30.7644 31.8807 29.6451 30.5 29.6451C29.1193 29.6451 28 30.7644 28 32.1451C28 33.5258 29.1193 34.6451 30.5 34.6451Z" fill="#03A1FA"/>
<path d="M30.5 32.9784C30.9602 32.9784 31.3333 32.6053 31.3333 32.1451C31.3333 31.6848 30.9602 31.3117 30.5 31.3117C30.0397 31.3117 29.6666 31.6848 29.6666 32.1451C29.6666 32.6053 30.0397 32.9784 30.5 32.9784Z" fill="#607D8B"/>
<path d="M5.14501 4.60425C4.41584 5.09009 4.20918 6.07009 4.67834 6.80925L14.6667 22.5301V25.4784H21.3333V21.3118L7.26251 4.89592C6.73251 4.27759 5.82334 4.15175 5.14501 4.60425Z" fill="#FFC107"/>
<path d="M3.41667 22.1451C1.80833 22.1451 0.5 20.8367 0.5 19.2284C0.5 18.5651 0.729167 17.9151 1.145 17.3992C1.43417 17.0409 1.95833 16.9842 2.31667 17.2734C2.675 17.5626 2.73167 18.0867 2.4425 18.4451C2.2625 18.6692 2.16667 18.9401 2.16667 19.2284C2.16667 19.9176 2.7275 20.4784 3.41667 20.4784C4.10583 20.4784 4.66667 19.9176 4.66667 19.2284V15.4784C4.66667 15.0184 5.04 14.6451 5.5 14.6451C5.96 14.6451 6.33333 15.0184 6.33333 15.4784V19.2284C6.33333 20.8367 5.025 22.1451 3.41667 22.1451Z" fill="#607D8B"/>
<path d="M5.5 16.7284C6.19036 16.7284 6.75 16.1688 6.75 15.4784C6.75 14.7881 6.19036 14.2284 5.5 14.2284C4.80964 14.2284 4.25 14.7881 4.25 15.4784C4.25 16.1688 4.80964 16.7284 5.5 16.7284Z" fill="#607D8B"/>
<path d="M30.5 8.81174H27.1667C26.7067 8.81174 26.3334 9.18507 26.3334 9.64507V10.4784C26.3334 10.9384 26.7067 11.3117 27.1667 11.3117H30.5C30.96 11.3117 31.3334 10.9384 31.3334 10.4784V9.64507C31.3334 9.18507 30.96 8.81174 30.5 8.81174Z" fill="#EB4335"/>
<path d="M28 9.64508H29.6667V11.3117H28V9.64508Z" fill="#9E2D24"/>
<path d="M29.6667 12.9784H32.4809C33.0117 12.9784 33.51 13.2309 33.8242 13.6584L38.51 20.0384C38.72 20.3243 38.8334 20.6701 38.8334 21.0251V22.1451C38.8334 23.0659 38.0875 23.8118 37.1667 23.8118H33.8334L31.3334 21.3118H29.6667C29.2067 21.3118 28.8334 20.9384 28.8334 20.4784V13.8118C28.8334 13.3518 29.2067 12.9784 29.6667 12.9784Z" fill="#344E66"/>
<path d="M25.5 21.3118H26.3333C26.7933 21.3118 27.1666 20.9384 27.1666 20.4784V13.8118C27.1666 13.3518 26.7933 12.9784 26.3333 12.9784H25.5C25.04 12.9784 24.6666 13.3518 24.6666 13.8118V20.4784C24.6666 20.9384 25.04 21.3118 25.5 21.3118Z" fill="#406C80"/>
<path d="M38 25.4784H39.6667V27.9784H38V25.4784Z" fill="#88D4FF"/>
<path d="M37.1667 27.9784H38V25.4784H37.1667C36.7067 25.4784 36.3334 25.8518 36.3334 26.3118V27.1451C36.3334 27.6051 36.7067 27.9784 37.1667 27.9784Z" fill="#03A1FA"/>
</g>
<defs>
<clipPath id="clip0_4059_1543">
<rect width="40" height="40" fill="white" transform="translate(0.5)"/>
</clipPath>
</defs>
</svg>
