<svg width="41" height="40" viewBox="0 0 41 40" fill="none" xmlns="http://www.w3.org/2000/svg">
<path d="M17.8286 5.50717H13.6069V3.60196H17.0631C17.4859 3.60196 17.8287 3.94473 17.8287 4.36758L17.8286 5.50717Z" fill="#0270AD"/>
<path d="M14.7311 35.4326H31.929C33.6527 35.4326 35.0499 34.0354 35.0499 32.3117V7.50228C35.0499 5.77864 33.6527 4.38138 31.929 4.38138H14.7311C13.0075 4.38138 11.6102 5.77864 11.6102 7.50228V32.3117C11.6102 34.0354 13.0075 35.4326 14.7311 35.4326Z" fill="#CC9043"/>
<path d="M16.6926 35.4326H30.7248C32.4485 35.4326 33.8457 34.0354 33.8457 32.3117V7.50228C33.8457 5.77864 32.4485 4.38138 30.7248 4.38138H13.5269C11.8033 4.38138 10.406 5.77864 10.406 7.50228L13.5717 32.3117C13.5717 34.0354 14.969 35.4326 16.6926 35.4326Z" fill="#FFB454"/>
<path d="M31.6251 33.4814H25.4987C24.8768 33.4814 24.3727 32.9773 24.3727 32.3554V7.58854C24.3727 6.96666 24.8768 6.46249 25.4987 6.46249H31.6251C32.247 6.46249 32.7511 6.96666 32.7511 7.58854V32.3554C32.7511 32.9773 32.247 33.4814 31.6251 33.4814Z" fill="#F6F8F9"/>
<path d="M25.645 35.4326H28.1598C29.8834 35.4326 31.2807 34.0354 31.2807 32.3117V7.50228C31.2807 5.77864 29.8834 4.38138 28.1598 4.38138H10.9618C9.23821 4.38138 7.84094 5.77864 7.84094 7.50228V27.5033C7.84088 29.227 23.9214 35.4326 25.645 35.4326Z" fill="#FFB454"/>
<path d="M30.0762 7.50191V32.3118C30.0762 32.9173 29.9036 33.483 29.6042 33.9622C29.0534 34.845 28.0729 35.4329 26.9557 35.4329H14.196C10.5 35.4329 8.47201 36.707 6.63672 33.9622V7.50191C6.63672 5.77861 8.03385 4.38147 9.75781 4.38147H26.9557C28.1927 4.38147 29.2611 5.10087 29.7663 6.14449C29.9648 6.5553 30.0762 7.01558 30.0762 7.50191Z" fill="#FFC42C"/>
<path d="M11.75 4.38147C10.026 4.38147 8.62891 5.77861 8.62891 7.50191V35C8.00004 35.8333 7.22336 35.8769 6.63677 35L6.63672 7.50191C6.63672 5.77861 8.03451 4.38147 9.75781 4.38147H11.75Z" fill="#FCB253"/>
<path d="M19.8184 17.5667C19.5486 17.5667 19.3301 17.7853 19.3301 18.0549V21.8399C19.3301 22.1096 19.5486 22.3282 19.8184 22.3282C20.0881 22.3282 20.3066 22.1096 20.3066 21.8399V18.0549C20.3066 17.7853 20.0881 17.5667 19.8184 17.5667Z" fill="#03A1FA"/>
<path d="M26.9635 21.3516H25.8716V20.453H26.847C27.1167 20.453 27.3353 20.2344 27.3353 19.9647C27.3353 19.695 27.1167 19.4764 26.847 19.4764H25.8716V18.5778H26.9635C27.2332 18.5778 27.4518 18.3592 27.4518 18.0895C27.4518 17.8198 27.2332 17.6012 26.9635 17.6012H25.3833C25.1136 17.6012 24.895 17.8198 24.895 18.0895V21.8399C24.895 22.1096 25.1136 22.3282 25.3833 22.3282H26.9635C27.2332 22.3282 27.4518 22.1096 27.4518 21.8399C27.4518 21.5702 27.2332 21.3516 26.9635 21.3516Z" fill="#03A1FA"/>
<path d="M22.4411 17.6786H21.4008C21.2711 17.6786 21.1468 17.7302 21.0551 17.822C20.9636 17.9138 20.9122 18.0382 20.9125 18.1678C20.9125 18.1679 20.9151 19.5806 20.9151 19.9993C20.9151 20.5099 20.9199 21.8416 20.9199 21.8416C20.9204 21.9712 20.9723 22.0952 21.0642 22.1864C21.1556 22.2773 21.2793 22.3282 21.4082 22.3282H21.41C21.4414 22.328 22.1834 22.3252 22.48 22.32C23.5998 22.3004 24.4126 21.3261 24.4126 20.0034C24.4127 18.6129 23.6204 17.6786 22.4411 17.6786ZM22.463 21.3436C22.3319 21.3459 22.1049 21.3477 21.8948 21.3491C21.8935 20.9166 21.8917 20.3078 21.8917 19.9993C21.8917 19.7411 21.8907 19.1054 21.89 18.6552H22.4411C23.3643 18.6552 23.436 19.6871 23.436 20.0034C23.4361 20.662 23.1352 21.3318 22.463 21.3436Z" fill="#03A1FA"/>
<path d="M14.4296 19.4592H13.2973C13.0275 19.4592 12.809 19.6778 12.809 19.9474C12.809 20.2171 13.0275 20.4357 13.2973 20.4357H13.8823C13.7591 20.9235 13.4318 21.3517 12.7958 21.3517C12.0215 21.3517 11.3916 20.7217 11.3916 19.9474C11.3916 19.1732 12.0215 18.5432 12.7958 18.5432C13.0773 18.5432 13.3486 18.626 13.5805 18.7827C13.804 18.9338 14.1076 18.8749 14.2585 18.6515C14.4094 18.4281 14.3507 18.1246 14.1273 17.9736C13.7333 17.7074 13.2729 17.5667 12.7958 17.5667C11.4831 17.5667 10.415 18.6347 10.415 19.9475C10.415 21.2603 11.4831 22.3283 12.7958 22.3283C14.0452 22.3283 14.9178 21.3493 14.9178 19.9475C14.9178 19.6777 14.6992 19.4592 14.4296 19.4592Z" fill="#03A1FA"/>
<path d="M18.2791 17.5667C18.0094 17.5667 17.7908 17.7853 17.7908 18.0549V20.6567C17.7908 20.8337 17.7403 21.0623 17.3461 21.2608C17.2248 21.3219 17.0928 21.3517 16.9428 21.3517C16.9423 21.3517 16.9417 21.3517 16.9413 21.3517C16.7772 21.3515 16.6347 21.3113 16.5059 21.229C16.2001 21.0336 16.1375 20.86 16.1375 20.6595V18.055C16.1375 17.7853 15.9189 17.5667 15.6492 17.5667C15.3794 17.5667 15.1609 17.7853 15.1609 18.055V20.6595C15.1609 21.2361 15.4365 21.7046 15.9801 22.0519C16.2663 22.2348 16.5893 22.3277 16.94 22.3282H16.9428C17.2447 22.3282 17.5283 22.2625 17.7854 22.133C18.5971 21.7243 18.7675 21.1046 18.7675 20.6567V18.0549C18.7674 17.7853 18.5488 17.5667 18.2791 17.5667Z" fill="#03A1FA"/>
<path d="M27.1821 16.2231H10.6849C10.2724 16.2231 9.93799 15.8887 9.93799 15.4762C9.93799 15.0637 10.2724 14.7292 10.6849 14.7292H27.1821C27.5946 14.7292 27.929 15.0636 27.929 15.4762C27.929 15.8887 27.5946 16.2231 27.1821 16.2231Z" fill="#26A6FE"/>
<path d="M27.1821 25.2092H10.6849C10.2724 25.2092 9.93799 24.8748 9.93799 24.4623C9.93799 24.0498 10.2724 23.7153 10.6849 23.7153H27.1821C27.5946 23.7153 27.929 24.0497 27.929 24.4623C27.929 24.8748 27.5946 25.2092 27.1821 25.2092Z" fill="#26A6FE"/>
<path d="M15.0432 9.13256L13.9471 8.48679C13.6833 8.33139 13.356 8.33139 13.0923 8.48679L11.9961 9.13256C11.4349 9.46322 10.7268 9.0586 10.7268 8.40717V4.36758C10.7268 3.94473 11.0696 3.60196 11.4924 3.60196H17.063C16.6485 3.60196 16.3125 3.93796 16.3125 4.35248V8.40717C16.3125 9.0586 15.6045 9.46329 15.0432 9.13256Z" fill="#03A1FA"/>
</svg>
