<svg width="36" height="32" viewBox="0 0 36 32" fill="none" xmlns="http://www.w3.org/2000/svg">
<ellipse opacity="0.5" cx="18" cy="29" rx="16" ry="1" fill="#D97400"/>
<path d="M18 25C24.0751 25 29 20.0751 29 14C29 7.92487 24.0751 3 18 3C11.9249 3 7 7.92487 7 14C7 20.0751 11.9249 25 18 25Z" fill="#FFC107"/>
<path d="M18 23.7553C23.3876 23.7553 27.7551 19.3878 27.7551 14.0002C27.7551 8.61263 23.3876 4.24512 18 4.24512C12.6124 4.24512 8.24493 8.61263 8.24493 14.0002C8.24493 19.3878 12.6124 23.7553 18 23.7553Z" fill="#FFE9A9"/>
<path d="M18 22.2422C22.552 22.2422 26.2422 18.552 26.2422 14C26.2422 9.44797 22.552 5.75781 18 5.75781C13.448 5.75781 9.75781 9.44797 9.75781 14C9.75781 18.552 13.448 22.2422 18 22.2422Z" fill="#FFFBEB"/>
<path d="M16.7851 15.3219L24.4062 22.943C25.2915 22.3077 26.0783 21.544 26.74 20.6795L19.2031 13.1426L16.7851 15.3219Z" fill="url(#paint0_linear_1595_78161)"/>
<path d="M17.9999 7.49961C18.2959 7.49961 18.5359 7.25966 18.5359 6.96367C18.5359 6.66768 18.2959 6.42773 17.9999 6.42773C17.7039 6.42773 17.464 6.66768 17.464 6.96367C17.464 7.25966 17.7039 7.49961 17.9999 7.49961Z" fill="url(#paint1_linear_1595_78161)"/>
<path d="M18 21.5719C18.296 21.5719 18.5359 21.3319 18.5359 21.0359C18.5359 20.7399 18.296 20.5 18 20.5C17.704 20.5 17.4641 20.7399 17.4641 21.0359C17.4641 21.3319 17.704 21.5719 18 21.5719Z" fill="#FFC107"/>
<path d="M25.0361 14.5357C25.3321 14.5357 25.5721 14.2958 25.5721 13.9998C25.5721 13.7038 25.3321 13.4639 25.0361 13.4639C24.7401 13.4639 24.5002 13.7038 24.5002 13.9998C24.5002 14.2958 24.7401 14.5357 25.0361 14.5357Z" fill="url(#paint2_linear_1595_78161)"/>
<path d="M10.964 14.5357C11.26 14.5357 11.5 14.2958 11.5 13.9998C11.5 13.7038 11.26 13.4639 10.964 13.4639C10.668 13.4639 10.4281 13.7038 10.4281 13.9998C10.4281 14.2958 10.668 14.5357 10.964 14.5357Z" fill="#FFC107"/>
<path d="M21.4922 8.42734C21.7882 8.42734 22.0281 8.1874 22.0281 7.89141C22.0281 7.59542 21.7882 7.35547 21.4922 7.35547C21.1962 7.35547 20.9562 7.59542 20.9562 7.89141C20.9562 8.1874 21.1962 8.42734 21.4922 8.42734Z" fill="url(#paint3_linear_1595_78161)"/>
<path d="M14.5078 20.6432C14.8038 20.6432 15.0437 20.4032 15.0437 20.1072C15.0437 19.8112 14.8038 19.5713 14.5078 19.5713C14.2118 19.5713 13.9719 19.8112 13.9719 20.1072C13.9719 20.4032 14.2118 20.6432 14.5078 20.6432Z" fill="#FFC107"/>
<path d="M24.1083 18.0279C24.4043 18.0279 24.6442 17.788 24.6442 17.492C24.6442 17.196 24.4043 16.9561 24.1083 16.9561C23.8123 16.9561 23.5723 17.196 23.5723 17.492C23.5723 17.788 23.8123 18.0279 24.1083 18.0279Z" fill="url(#paint4_linear_1595_78161)"/>
<path d="M11.8918 11.0436C12.1878 11.0436 12.4278 10.8036 12.4278 10.5076C12.4278 10.2116 12.1878 9.97168 11.8918 9.97168C11.5958 9.97168 11.3559 10.2116 11.3559 10.5076C11.3559 10.8036 11.5958 11.0436 11.8918 11.0436Z" fill="#FFC107"/>
<path d="M14.5078 8.42734C14.8038 8.42734 15.0437 8.1874 15.0437 7.89141C15.0437 7.59542 14.8038 7.35547 14.5078 7.35547C14.2118 7.35547 13.9719 7.59542 13.9719 7.89141C13.9719 8.1874 14.2118 8.42734 14.5078 8.42734Z" fill="#FFC107"/>
<path d="M21.4922 20.6432C21.7882 20.6432 22.0281 20.4032 22.0281 20.1072C22.0281 19.8112 21.7882 19.5713 21.4922 19.5713C21.1962 19.5713 20.9562 19.8112 20.9562 20.1072C20.9562 20.4032 21.1962 20.6432 21.4922 20.6432Z" fill="#FFC107"/>
<path d="M11.8918 18.0279C12.1878 18.0279 12.4278 17.788 12.4278 17.492C12.4278 17.196 12.1878 16.9561 11.8918 16.9561C11.5958 16.9561 11.3559 17.196 11.3559 17.492C11.3559 17.788 11.5958 18.0279 11.8918 18.0279Z" fill="#FFC107"/>
<path d="M24.1083 11.0436C24.4043 11.0436 24.6442 10.8036 24.6442 10.5076C24.6442 10.2116 24.4043 9.97168 24.1083 9.97168C23.8123 9.97168 23.5723 10.2116 23.5723 10.5076C23.5723 10.8036 23.8123 11.0436 24.1083 11.0436Z" fill="url(#paint5_linear_1595_78161)"/>
<path d="M18 4.24512V14.0002L24.8979 20.8981C26.6632 19.1328 27.7551 16.694 27.7551 14.0002C27.7551 8.61264 23.3876 4.24512 18 4.24512Z" fill="#FFDDAA"/>
<path d="M18 5.75781V14L23.8281 19.8281C25.3197 18.3366 26.2422 16.276 26.2422 14C26.2422 9.44795 22.5521 5.75781 18 5.75781Z" fill="#03A1FA"/>
<path d="M23.9388 17.8779L24.8912 20.8912L24.8979 20.898C25.2425 20.5534 25.561 20.1829 25.8511 19.7902L23.9388 17.8779Z" fill="url(#paint6_linear_1595_78161)"/>
<path d="M23.9386 17.8782L24.7412 20.1233L24.7745 20.7399C24.824 20.8783 24.1227 20.7418 24.1227 20.7418L21.8777 19.9392C21.3069 19.3684 23.3678 17.3074 23.9386 17.8782Z" fill="url(#paint7_linear_1595_78161)"/>
<path d="M16.9016 14.9629L21.878 19.9389C21.9344 19.8411 22.0201 19.7546 22.13 19.6933C22.28 19.6101 22.5147 19.6557 22.6772 19.7049C22.7126 19.7154 22.745 19.697 22.7581 19.6688C22.7664 19.6519 22.7679 19.6312 22.7589 19.6109C22.7585 19.6109 22.7585 19.6105 22.7585 19.6105C22.7495 19.5898 22.7416 19.5687 22.7348 19.5477C22.7318 19.5375 22.7288 19.5274 22.7258 19.5172C22.7254 19.5165 22.7254 19.5161 22.7254 19.5153C22.7167 19.4826 22.7107 19.4499 22.7073 19.4164C22.7062 19.4055 22.7054 19.3942 22.7047 19.3833C22.7037 19.3652 22.7036 19.347 22.7042 19.3288C22.7083 19.2016 22.7498 19.0753 22.8288 18.9681C22.848 18.9417 22.8695 18.9169 22.8931 18.8932C22.9168 18.8695 22.9417 18.8481 22.968 18.8289C23.0906 18.7386 23.2381 18.6972 23.3833 18.7048C23.3942 18.7055 23.4055 18.7063 23.4164 18.7074C23.4498 18.7108 23.4829 18.7168 23.5153 18.7255C23.516 18.7255 23.5164 18.7255 23.5172 18.7259C23.5273 18.7289 23.5375 18.7319 23.5476 18.7349C23.5585 18.7383 23.5691 18.7421 23.5796 18.7462C23.5897 18.7499 23.5999 18.7541 23.61 18.7586C23.6104 18.7586 23.6104 18.7586 23.6108 18.759C23.6311 18.768 23.6518 18.7665 23.6687 18.7583C23.6969 18.7451 23.7153 18.7128 23.7048 18.6774C23.6556 18.5149 23.61 18.2806 23.6932 18.1305C23.7545 18.0203 23.8406 17.9345 23.9388 17.8781L18.9629 12.9017C18.8071 12.7463 18.5551 12.7463 18.3998 12.9017L18.106 13.1954L17.1954 14.1061L16.9016 14.3998C16.7463 14.5552 16.7463 14.8072 16.9016 14.9629Z" fill="#FFD075"/>
<path d="M17.1952 14.1059L22.758 19.6687C22.7662 19.6518 22.7677 19.6311 22.7587 19.6108C22.7583 19.6108 22.7583 19.6104 22.7583 19.6104C22.7493 19.5897 22.7102 19.4494 22.7071 19.4163C22.7056 19.405 22.7049 19.3941 22.7045 19.3832C22.697 19.238 22.7384 19.0906 22.8287 18.968C22.8479 18.9417 22.8693 18.9168 22.893 18.8931C22.9167 18.8695 22.9415 18.848 22.9678 18.8288C23.0905 18.7385 23.2379 18.6972 23.3831 18.7047C23.394 18.7051 23.4049 18.7058 23.4162 18.7073C23.4493 18.7104 23.4824 18.7164 23.5151 18.7254C23.5158 18.7254 23.5162 18.7254 23.517 18.7258C23.5271 18.7284 23.5997 18.754 23.6099 18.7586C23.6103 18.7586 23.6103 18.7586 23.6106 18.7589C23.631 18.768 23.6516 18.7664 23.6686 18.7582L18.1058 13.1953L17.1952 14.1059Z" fill="#FFEBB3"/>
<path d="M24.3839 20.3842C24.4922 20.2759 24.6132 20.189 24.7412 20.123L24.9614 20.7391C25.0109 20.8775 24.8772 21.0112 24.7388 20.9617L24.1227 20.7415C24.1887 20.6135 24.2756 20.4925 24.3839 20.3842Z" fill="url(#paint8_linear_1595_78161)"/>
<path d="M16.5428 7.08023L17.5628 4.92523C17.5628 4.92523 17.9373 4.44507 18.0002 4.57793L18.4375 4.92518L19.4575 7.08019C19.4575 7.88746 16.5428 7.88746 16.5428 7.08023Z" fill="url(#paint9_linear_1595_78161)"/>
<path d="M19.4576 14.1175L19.4574 7.0801C19.3483 7.10935 19.2265 7.10991 19.1055 7.07557C18.9406 7.02821 18.8068 6.83008 18.7268 6.68035C18.7092 6.64791 18.6733 6.63807 18.644 6.64869C18.6262 6.65481 18.6105 6.66836 18.6025 6.68911C18.6028 6.68936 18.6025 6.68962 18.6025 6.68962C18.5943 6.71063 18.585 6.73112 18.5749 6.75079C18.5698 6.76011 18.5648 6.76943 18.5597 6.7787C18.5595 6.77948 18.5592 6.77978 18.5587 6.7803C18.5416 6.80955 18.5228 6.83694 18.5015 6.86304C18.4946 6.87153 18.4871 6.88007 18.4799 6.88831C18.4678 6.90182 18.455 6.9148 18.4418 6.92722C18.3489 7.01423 18.2303 7.07415 18.0985 7.09416C18.0663 7.09921 18.0336 7.10163 18.0001 7.10163C17.9666 7.10163 17.9339 7.09921 17.9017 7.09416C17.7512 7.0713 17.6177 6.99629 17.5203 6.88831C17.5131 6.88007 17.5057 6.87158 17.4988 6.86304C17.4775 6.83698 17.4584 6.80933 17.4416 6.7803C17.4411 6.77978 17.4408 6.77948 17.4405 6.7787C17.4355 6.76938 17.4304 6.76007 17.4254 6.75079C17.4201 6.7407 17.4153 6.7306 17.4107 6.72021C17.4062 6.71037 17.402 6.70028 17.398 6.68988C17.3977 6.68962 17.3977 6.68962 17.3977 6.68906C17.3897 6.66831 17.374 6.65477 17.3562 6.64864C17.327 6.63799 17.291 6.64787 17.2735 6.68031C17.1934 6.83004 17.0599 7.02795 16.895 7.07527C16.7737 7.10982 16.6522 7.10956 16.5429 7.08006L16.5426 14.1174C16.5429 14.3374 16.7211 14.5156 16.9408 14.5156H17.3562H18.644H19.0595C19.2792 14.5156 19.4574 14.3374 19.4576 14.1175Z" fill="#FFD075"/>
<path d="M18.644 14.5154V6.64848C18.6262 6.65461 18.6105 6.66815 18.6025 6.6889C18.6028 6.68916 18.6025 6.68942 18.6025 6.68942C18.5943 6.71043 18.5227 6.83729 18.5014 6.86283C18.4945 6.87189 18.4873 6.88013 18.4799 6.88811C18.3825 6.99608 18.249 7.0711 18.0985 7.09396C18.0663 7.09901 18.0336 7.10142 18.0001 7.10142C17.9666 7.10142 17.9339 7.09901 17.9017 7.09396C17.7511 7.0711 17.6176 6.99608 17.5203 6.88811C17.5128 6.88013 17.5057 6.87189 17.4988 6.86283C17.4775 6.83729 17.4583 6.80964 17.4416 6.78009C17.441 6.77957 17.4407 6.77927 17.4405 6.7785C17.4352 6.76944 17.4019 6.70003 17.3979 6.68968C17.3976 6.68942 17.3976 6.68942 17.3976 6.68886C17.3897 6.66811 17.374 6.65456 17.3561 6.64844V14.5154H18.644Z" fill="#FFEBB3"/>
<path d="M18 4.99333C17.8469 4.99333 17.6999 4.96917 17.5627 4.92535L17.8426 4.33402C17.9055 4.20116 18.0945 4.20116 18.1574 4.33402L18.4373 4.92535C18.3001 4.96917 18.1531 4.99333 18 4.99333Z" fill="url(#paint10_linear_1595_78161)"/>
<path d="M18.0001 15.7954C18.9915 15.7954 19.7952 14.9917 19.7952 14.0002C19.7952 13.0088 18.9915 12.2051 18.0001 12.2051C17.0086 12.2051 16.2049 13.0088 16.2049 14.0002C16.2049 14.9917 17.0086 15.7954 18.0001 15.7954Z" fill="#FFC107"/>
<defs>
<linearGradient id="paint0_linear_1595_78161" x1="23.3812" y1="19.6193" x2="15.9515" y2="12.1896" gradientUnits="userSpaceOnUse">
<stop stop-color="#FFF4EB" stop-opacity="0"/>
<stop offset="1" stop-color="#FFD7B7"/>
</linearGradient>
<linearGradient id="paint1_linear_1595_78161" x1="17.7895" y1="6.75325" x2="18.2391" y2="7.20287" gradientUnits="userSpaceOnUse">
<stop stop-color="#2F73A0"/>
<stop offset="1" stop-color="#43765A"/>
</linearGradient>
<linearGradient id="paint2_linear_1595_78161" x1="25.2465" y1="13.7894" x2="24.797" y2="14.239" gradientUnits="userSpaceOnUse">
<stop stop-color="#2F73A0"/>
<stop offset="1" stop-color="#43765A"/>
</linearGradient>
<linearGradient id="paint3_linear_1595_78161" x1="21.4028" y1="7.59256" x2="21.5701" y2="8.20582" gradientUnits="userSpaceOnUse">
<stop stop-color="#2F73A0"/>
<stop offset="1" stop-color="#43765A"/>
</linearGradient>
<linearGradient id="paint4_linear_1595_78161" x1="24.3916" y1="17.3693" x2="23.7783" y2="17.5366" gradientUnits="userSpaceOnUse">
<stop stop-color="#2F73A0"/>
<stop offset="1" stop-color="#43765A"/>
</linearGradient>
<linearGradient id="paint5_linear_1595_78161" x1="23.8102" y1="10.3998" x2="24.4235" y2="10.5671" gradientUnits="userSpaceOnUse">
<stop stop-color="#2F73A0"/>
<stop offset="1" stop-color="#43765A"/>
</linearGradient>
<linearGradient id="paint6_linear_1595_78161" x1="25.1854" y1="20.1549" x2="23.3211" y2="18.2907" gradientUnits="userSpaceOnUse">
<stop stop-color="#846435" stop-opacity="0"/>
<stop offset="1" stop-color="#3A2F4D" stop-opacity="0.1"/>
</linearGradient>
<linearGradient id="paint7_linear_1595_78161" x1="26.0837" y1="19.2931" x2="19.2347" y2="19.2931" gradientUnits="userSpaceOnUse">
<stop stop-color="#FFFCF2"/>
<stop offset="1" stop-color="#FFF8F3"/>
</linearGradient>
<linearGradient id="paint8_linear_1595_78161" x1="24.6979" y1="20.5883" x2="24.1721" y2="21.1141" gradientUnits="userSpaceOnUse">
<stop stop-color="#2F73A0"/>
<stop offset="1" stop-color="#174461"/>
</linearGradient>
<linearGradient id="paint9_linear_1595_78161" x1="20.7277" y1="6.12274" x2="14.0698" y2="6.12274" gradientUnits="userSpaceOnUse">
<stop stop-color="#FFFCF2"/>
<stop offset="1" stop-color="#FFF8F3"/>
</linearGradient>
<linearGradient id="paint10_linear_1595_78161" x1="17.9121" y1="4.61321" x2="18.6557" y2="4.61321" gradientUnits="userSpaceOnUse">
<stop stop-color="#2F73A0"/>
<stop offset="1" stop-color="#174461"/>
</linearGradient>
</defs>
</svg>
