<svg width="33" height="32" viewBox="0 0 33 32" fill="none" xmlns="http://www.w3.org/2000/svg">
<path d="M22.8615 12.5338L23.3638 13.0352L22.7148 12.3858L22.8615 12.5338Z" fill="#AFDFFA"/>
<path d="M29.5151 5.5843L26.5383 8.56201L24.2633 8.23708L23.9384 5.96208L26.9152 2.98529C26.1971 2.70282 25.4195 2.60594 24.6541 2.7036C23.8887 2.80126 23.1603 3.09031 22.5362 3.54403C21.9121 3.99774 21.4125 4.60148 21.0835 5.29942C20.7546 5.99736 20.6069 6.76698 20.6541 7.53712C20.6597 7.66241 20.6388 7.78747 20.5926 7.90407C20.5464 8.02067 20.476 8.12618 20.3862 8.21364L18.1631 10.4367L10.3633 18.2365L8.71842 19.8814C8.63021 19.9712 8.52403 20.0415 8.40681 20.0875C8.2896 20.1335 8.164 20.1543 8.03821 20.1484C7.94629 20.1429 7.85438 20.1406 7.76246 20.1406C6.85346 20.1406 5.96488 20.4101 5.20908 20.9152C4.45328 21.4202 3.86421 22.138 3.51635 22.9778C3.1685 23.8176 3.07748 24.7416 3.25482 25.6332C3.43215 26.5247 3.86987 27.3436 4.51263 27.9864C5.15538 28.6291 5.9743 29.0669 6.86583 29.2442C7.75736 29.4215 8.68145 29.3305 9.52125 28.9827C10.3611 28.6348 11.0788 28.0457 11.5838 27.2899C12.0889 26.5341 12.3584 25.6455 12.3584 24.7365C12.3584 24.6446 12.3584 24.5527 12.3506 24.4608C12.3447 24.335 12.3655 24.2094 12.4115 24.0922C12.4575 23.975 12.5278 23.8688 12.6176 23.7806L14.2625 22.1357L19.4628 16.9363L21.4129 14.9867C21.3275 14.9013 21.2262 14.8336 21.1146 14.7873C21.0031 14.7411 20.8835 14.7173 20.7628 14.7173C20.6421 14.7173 20.5225 14.7411 20.4109 14.7873C20.2994 14.8336 20.1981 14.9013 20.1127 14.9867C19.942 15.1574 19.7393 15.2928 19.5163 15.3852C19.2932 15.4776 19.0542 15.5252 18.8127 15.5252C18.5713 15.5252 18.3322 15.4776 18.1092 15.3852C17.8861 15.2928 17.6835 15.1574 17.5128 14.9867C17.4274 14.9013 17.3596 14.8 17.3134 14.6884C17.2672 14.5769 17.2434 14.4573 17.2434 14.3366C17.2434 14.2159 17.2672 14.0963 17.3134 13.9848C17.3596 13.8732 17.4274 13.7719 17.5128 13.6865L19.7878 11.4115C19.9158 11.2834 20.0678 11.1819 20.2351 11.1126C20.4024 11.0433 20.5817 11.0076 20.7628 11.0076C20.9439 11.0076 21.1232 11.0433 21.2905 11.1126C21.4578 11.1819 21.6098 11.2834 21.7378 11.4115L22.8615 12.5338L22.7149 12.3858L23.3643 13.0353L24.2835 12.1133C24.371 12.0234 24.4765 11.9531 24.5931 11.9069C24.7097 11.8607 24.8348 11.8397 24.96 11.8454C25.7304 11.8932 26.5005 11.7459 27.1988 11.4171C27.8972 11.0884 28.5014 10.5889 28.9555 9.96468C29.4096 9.3405 29.699 8.61187 29.7968 7.84621C29.8946 7.08055 29.7977 6.30258 29.5151 5.5843ZM8.44909 27.2992L5.88731 26.6122L5.20021 24.0504L7.07674 22.1738L9.6399 22.8605L10.3265 25.4236L8.44909 27.2992Z" fill="#03A1FA"/>
<path d="M22.8616 12.5338L21.7379 11.4115L23.0376 12.7117L22.8616 12.5338Z" fill="#344E66"/>
<path d="M20.1125 29.2856L19.4626 28.6357L27.2624 20.8364L29.8619 23.4359L29.866 29.2897L20.1125 29.2856Z" fill="#F5B102"/>
<path d="M28.1816 21.7556L27.2624 20.8364L19.4626 28.6357L20.1125 29.2856L20.6507 29.2861L28.1816 21.7556Z" fill="#FFC42C"/>
<path d="M17.1875 13.359L14.2631 10.4346C13.7248 9.89621 12.8519 9.89621 12.3135 10.4346C11.7752 10.9729 11.7752 11.8458 12.3135 12.3842L15.2379 15.3086C15.7763 15.847 16.6492 15.847 17.1875 15.3086C17.7259 14.7702 17.7259 13.8974 17.1875 13.359Z" fill="#FFCF91"/>
<path d="M19.4622 11.734L16.5378 8.80961C15.9994 8.27124 15.1266 8.27124 14.5882 8.80961C14.0498 9.34798 14.0498 10.2208 14.5882 10.7592L17.5126 13.6836C18.051 14.222 18.9238 14.222 19.4622 13.6836C20.0006 13.1452 20.0006 12.2724 19.4622 11.734Z" fill="#FFD59E"/>
<path d="M10.3266 25.4227L8.44913 27.2993L5.88734 26.6122L4.5127 27.9868C5.15548 28.6298 5.97452 29.0676 6.8662 29.245C7.75789 29.4224 8.68215 29.3314 9.52207 28.9834C10.362 28.6354 11.0798 28.0461 11.5848 27.2901C12.0898 26.5341 12.3592 25.6453 12.3589 24.7361C12.3589 24.6442 12.3589 24.5523 12.3511 24.4603C12.3452 24.3346 12.366 24.209 12.412 24.0917C12.458 23.9745 12.5283 23.8683 12.6181 23.7801L14.263 22.1352L19.4629 16.9363L21.4129 14.9867C21.3276 14.9013 21.2262 14.8336 21.1147 14.7874C21.0031 14.7411 20.8836 14.7173 20.7628 14.7173C20.6421 14.7173 20.5225 14.7411 20.411 14.7874C20.2994 14.8336 20.1981 14.9013 20.1127 14.9867C19.942 15.1574 19.7394 15.2928 19.5163 15.3852C19.2933 15.4776 19.0542 15.5252 18.8128 15.5252C18.5713 15.5252 18.3323 15.4776 18.1092 15.3852C17.8862 15.2928 17.6835 15.1574 17.5128 14.9867L9.63994 22.8596L10.3266 25.4227Z" fill="#0270AD"/>
<path d="M29.5151 5.58429L26.5383 8.56201L24.2633 8.23707L21.3531 11.1472C21.4956 11.213 21.6257 11.3027 21.7378 11.4124L22.8615 12.5347L22.7149 12.3868L23.3643 13.0362L24.2835 12.1142C24.371 12.0243 24.4765 11.954 24.5931 11.9078C24.7097 11.8616 24.8348 11.8407 24.9601 11.8463C25.7306 11.8941 26.5007 11.7469 27.1992 11.4181C27.8977 11.0893 28.502 10.5897 28.9561 9.96535C29.4102 9.34105 29.6995 8.61228 29.7972 7.84648C29.8949 7.08069 29.7979 6.30262 29.5151 5.58429Z" fill="#0270AD"/>
<path d="M15.8877 15.9586L12.9633 13.0342C12.425 12.4958 11.5521 12.4958 11.0137 13.0342C10.4754 13.5726 10.4754 14.4454 11.0137 14.9838L13.9381 17.9082C14.4765 18.4466 15.3494 18.4466 15.8877 17.9082C16.4261 17.3698 16.4261 16.497 15.8877 15.9586Z" fill="#FFD59E"/>
<path d="M14.2633 18.2333L11.3389 15.3089C10.8006 14.7706 9.9277 14.7706 9.38933 15.3089C8.85097 15.8473 8.85097 16.7202 9.38933 17.2585L12.3137 20.1829C12.8521 20.7213 13.725 20.7213 14.2633 20.1829C14.8017 19.6446 14.8017 18.7717 14.2633 18.2333Z" fill="#FFCF91"/>
<path d="M26.5157 21.3801C25.7672 20.6399 25.2965 19.6645 25.1829 18.6179L24.852 15.6673C24.7597 14.8371 24.3887 14.0627 23.7995 13.4705L23.3638 13.0352L22.8615 12.5338L23.0375 12.7117L21.7378 11.4115C21.6098 11.2834 21.4578 11.1818 21.2905 11.1125C21.1232 11.0432 20.9438 11.0076 20.7628 11.0076C20.5817 11.0076 20.4024 11.0432 20.2351 11.1125C20.0678 11.1818 19.9158 11.2834 19.7877 11.4115L17.5127 13.6865C17.4273 13.7718 17.3596 13.8732 17.3134 13.9847C17.2672 14.0963 17.2434 14.2158 17.2434 14.3366C17.2434 14.4573 17.2672 14.5769 17.3134 14.6884C17.3596 14.8 17.4273 14.9013 17.5127 14.9867C17.6834 15.1574 17.8861 15.2928 18.1092 15.3852C18.3322 15.4776 18.5713 15.5252 18.8127 15.5252C19.0541 15.5252 19.2932 15.4776 19.5162 15.3852C19.7393 15.2928 19.942 15.1574 20.1127 14.9867C20.198 14.9013 20.2994 14.8335 20.4109 14.7873C20.5225 14.7411 20.642 14.7173 20.7628 14.7173C20.8835 14.7173 21.0031 14.7411 21.1146 14.7873C21.2262 14.8335 21.3275 14.9013 21.4129 14.9867L19.4628 16.9363L14.2629 22.1361L20.1127 27.9859L26.6155 21.4831L26.5157 21.3801Z" fill="#FFCD8D"/>
</svg>
