<svg width="48" height="48" viewBox="0 0 48 48" fill="none" xmlns="http://www.w3.org/2000/svg">
<rect x="0.5" y="0.5" width="47" height="47" rx="3.5" fill="#EEEEEE"/>
<path d="M24 15.6667C19.4084 15.6667 15.6667 19.4083 15.6667 24C15.6667 28.5917 19.4084 32.3333 24 32.3333C28.5917 32.3333 32.3334 28.5917 32.3334 24C32.3334 19.4083 28.5917 15.6667 24 15.6667ZM27.3334 24.625H24.625V27.3333C24.625 27.675 24.3417 27.9583 24 27.9583C23.6584 27.9583 23.375 27.675 23.375 27.3333V24.625H20.6667C20.325 24.625 20.0417 24.3417 20.0417 24C20.0417 23.6583 20.325 23.375 20.6667 23.375H23.375V20.6667C23.375 20.325 23.6584 20.0417 24 20.0417C24.3417 20.0417 24.625 20.325 24.625 20.6667V23.375H27.3334C27.675 23.375 27.9584 23.6583 27.9584 24C27.9584 24.3417 27.675 24.625 27.3334 24.625Z" fill="#A6ABAD"/>
<rect x="0.5" y="0.5" width="47" height="47" rx="3.5" stroke="#EEEEEE"/>
</svg>
