<svg width="12" height="7" viewBox="0 0 12 7" fill="none" xmlns="http://www.w3.org/2000/svg">
<mask id="path-1-inside-1_2459_17966" fill="white">
<path d="M5.93335 6.73329C5.80002 6.73329 5.66668 6.66662 5.60002 6.59995L0.33335 1.33328C0.13335 1.13328 0.13335 0.799951 0.33335 0.599951C0.53335 0.399951 0.866683 0.399951 1.06668 0.599951L6.00002 5.53329L10.9333 0.599951C11.1334 0.399951 11.4667 0.399951 11.6667 0.599951C11.8667 0.799951 11.8667 1.13328 11.6667 1.33328L6.40002 6.59995C6.20002 6.66662 6.06668 6.73329 5.93335 6.73329Z"/>
</mask>
<path d="M5.93335 6.73329C5.80002 6.73329 5.66668 6.66662 5.60002 6.59995L0.33335 1.33328C0.13335 1.13328 0.13335 0.799951 0.33335 0.599951C0.53335 0.399951 0.866683 0.399951 1.06668 0.599951L6.00002 5.53329L10.9333 0.599951C11.1334 0.399951 11.4667 0.399951 11.6667 0.599951C11.8667 0.799951 11.8667 1.13328 11.6667 1.33328L6.40002 6.59995C6.20002 6.66662 6.06668 6.73329 5.93335 6.73329Z" fill="#676E72"/>
<path d="M5.60002 6.59995L6.4839 5.71607L5.60002 6.59995ZM0.33335 1.33328L-0.550534 2.21717L0.33335 1.33328ZM1.06668 0.599951L1.95057 -0.283932L1.06668 0.599951ZM6.00002 5.53329L5.11613 6.41717L6.00002 7.30105L6.8839 6.41717L6.00002 5.53329ZM10.9333 0.599951L10.0495 -0.283932L10.9333 0.599951ZM11.6667 1.33328L10.7828 0.449401V0.449401L11.6667 1.33328ZM6.40002 6.59995L6.7953 7.78581L7.07524 7.69249L7.2839 7.48384L6.40002 6.59995ZM5.93335 5.48329C6.06778 5.48329 6.169 5.51479 6.23408 5.54269C6.29381 5.56829 6.38502 5.61719 6.4839 5.71607L4.71613 7.48384C5.00144 7.76914 5.44682 7.98329 5.93335 7.98329V5.48329ZM6.4839 5.71607L1.21723 0.449401L-0.550534 2.21717L4.71613 7.48384L6.4839 5.71607ZM1.21723 0.449401C1.50539 0.737557 1.50539 1.19568 1.21723 1.48383L-0.550534 -0.283932C-1.23869 0.404223 -1.23869 1.52901 -0.550534 2.21717L1.21723 0.449401ZM1.21723 1.48383C0.929078 1.77199 0.470955 1.77199 0.182799 1.48383L1.95057 -0.283932C1.26241 -0.972088 0.137622 -0.972088 -0.550534 -0.283932L1.21723 1.48383ZM0.182799 1.48383L5.11613 6.41717L6.8839 4.6494L1.95057 -0.283932L0.182799 1.48383ZM6.8839 6.41717L11.8172 1.48383L10.0495 -0.283932L5.11613 4.6494L6.8839 6.41717ZM11.8172 1.48383C11.5291 1.77199 11.071 1.77199 10.7828 1.48383L12.5506 -0.283932C11.8624 -0.972088 10.7376 -0.972088 10.0495 -0.283932L11.8172 1.48383ZM10.7828 1.48383C10.4946 1.19568 10.4946 0.737557 10.7828 0.449401L12.5506 2.21717C13.2387 1.52901 13.2387 0.404223 12.5506 -0.283932L10.7828 1.48383ZM10.7828 0.449401L5.51613 5.71607L7.2839 7.48384L12.5506 2.21717L10.7828 0.449401ZM6.00473 5.4141C5.93603 5.437 5.87534 5.45915 5.832 5.47501C5.8086 5.48357 5.79246 5.48949 5.77677 5.49513C5.7618 5.50051 5.75248 5.50374 5.7464 5.50576C5.73254 5.51038 5.74598 5.50519 5.77501 5.49903C5.80648 5.49236 5.86167 5.48329 5.93335 5.48329V7.98329C6.20358 7.98329 6.42305 7.91545 6.53697 7.87747C6.59565 7.85791 6.655 7.83597 6.69095 7.82281C6.73302 7.80742 6.76401 7.79624 6.7953 7.78581L6.00473 5.4141Z" fill="#676E72" mask="url(#path-1-inside-1_2459_17966)"/>
</svg>
