<svg width="29" height="28" viewBox="0 0 29 28" fill="none" xmlns="http://www.w3.org/2000/svg">
<path d="M4.95833 21.875C4.47999 21.875 4.08333 21.4783 4.08333 21V8.16667C4.08333 3.02167 5.64666 1.45834 10.7917 1.45834H18.9583C24.1033 1.45834 25.6667 3.02167 25.6667 8.16667V19.8333C25.6667 20.02 25.6667 20.195 25.655 20.3817C25.62 20.86 25.1883 21.2333 24.7217 21.1983C24.2433 21.1633 23.87 20.7433 23.905 20.265C23.9167 20.125 23.9167 19.9733 23.9167 19.8333V8.16667C23.9167 4.00167 23.135 3.20834 18.9583 3.20834H10.7917C6.61499 3.20834 5.83333 4.00167 5.83333 8.16667V21C5.83333 21.4783 5.43666 21.875 4.95833 21.875Z" fill="#202C38"/>
<path d="M20.7083 26.5417H9.04166C6.31166 26.5417 4.08333 24.3133 4.08333 21.5833V20.825C4.08333 18.5033 5.97333 16.625 8.28333 16.625H24.7917C25.27 16.625 25.6667 17.0217 25.6667 17.5V21.5833C25.6667 24.3133 23.4383 26.5417 20.7083 26.5417ZM8.28333 18.375C6.92999 18.375 5.83333 19.4717 5.83333 20.825V21.5833C5.83333 23.3567 7.26833 24.7917 9.04166 24.7917H20.7083C22.4817 24.7917 23.9167 23.3567 23.9167 21.5833V18.375H8.28333Z" fill="#202C38"/>
<path d="M19.5417 9.04166H10.2083C9.72999 9.04166 9.33333 8.645 9.33333 8.16666C9.33333 7.68833 9.72999 7.29166 10.2083 7.29166H19.5417C20.02 7.29166 20.4167 7.68833 20.4167 8.16666C20.4167 8.645 20.02 9.04166 19.5417 9.04166Z" fill="#202C38"/>
<path d="M16.0417 13.125H10.2083C9.72999 13.125 9.33333 12.7283 9.33333 12.25C9.33333 11.7717 9.72999 11.375 10.2083 11.375H16.0417C16.52 11.375 16.9167 11.7717 16.9167 12.25C16.9167 12.7283 16.52 13.125 16.0417 13.125Z" fill="#202C38"/>
</svg>
