<svg width="25" height="25" viewBox="0 0 25 25" fill="none" xmlns="http://www.w3.org/2000/svg">
<path d="M12.1248 22.58C11.8248 22.58 11.5248 22.51 11.2748 22.37C9.40478 21.35 6.12476 20.27 4.06476 20L3.77478 19.96C2.46478 19.8 1.38477 18.57 1.38477 17.24V5.15999C1.38477 4.36999 1.69477 3.65002 2.26477 3.13002C2.83477 2.61002 3.57474 2.36001 4.35474 2.43001C6.54474 2.61001 9.86475 3.71002 11.7448 4.88002L11.9847 5.02003C12.0547 5.05003 12.2048 5.06003 12.2648 5.02003L12.4247 4.92C13.0947 4.5 13.9347 4.08999 14.8547 3.71999C15.0847 3.62999 15.3447 3.66 15.5547 3.8C15.7647 3.94 15.8848 4.17 15.8848 4.42V7.09999L16.7148 6.55C16.9648 6.38 17.2947 6.38 17.5447 6.55L18.3748 7.09999V3.28004C18.3748 2.92004 18.6347 2.60999 18.9847 2.53999C19.2747 2.48999 19.5648 2.45001 19.8248 2.43001C19.8448 2.43001 19.9248 2.43001 19.9448 2.43001C20.6748 2.37001 21.4247 2.62003 21.9847 3.14003C22.5547 3.66003 22.8647 4.38 22.8647 5.17V17.24C22.8647 18.58 21.7848 19.8 20.4648 19.96L20.1348 20C18.0748 20.27 14.7748 21.36 12.9448 22.37C12.7248 22.51 12.4248 22.58 12.1248 22.58ZM4.10474 3.90999C3.78474 3.90999 3.49477 4.01999 3.26477 4.23C3.01477 4.46 2.87476 4.78999 2.87476 5.15999V17.24C2.87476 17.83 3.38477 18.4 3.95477 18.48L4.25476 18.52C6.50476 18.82 9.95477 19.95 11.9548 21.05C12.0448 21.09 12.1747 21.1 12.2247 21.08C14.2347 19.97 17.6948 18.83 19.9548 18.53L20.2947 18.49C20.8647 18.42 21.3748 17.84 21.3748 17.25V5.18001C21.3748 4.81001 21.2347 4.49001 20.9847 4.25001C20.7347 4.02001 20.3848 3.91001 20.0248 3.93001C19.9948 3.93001 19.9048 3.93001 19.8848 3.93001V8.50001C19.8848 8.78001 19.7347 9.02999 19.4847 9.15999C19.2347 9.28999 18.9448 9.28001 18.7148 9.12001L17.1348 8.07002L15.5547 9.12001C15.3247 9.27001 15.0347 9.28999 14.7847 9.15999C14.5447 9.02999 14.3848 8.78001 14.3848 8.50001V5.57002C13.9548 5.78002 13.5647 5.99002 13.2247 6.19002L13.0648 6.28999C12.5148 6.62999 11.7348 6.63 11.2048 6.3L10.9648 6.15004C9.27478 5.09004 6.19474 4.06999 4.23474 3.90999C4.18474 3.90999 4.14474 3.90999 4.10474 3.90999Z"/>
<path d="M12.125 21.74C11.715 21.74 11.375 21.4 11.375 20.99V5.98999C11.375 5.57999 11.715 5.23999 12.125 5.23999C12.535 5.23999 12.875 5.57999 12.875 5.98999V20.99C12.875 21.41 12.535 21.74 12.125 21.74Z"/>
<path d="M19.125 9.24999C18.975 9.24999 18.835 9.20998 18.705 9.11998L17.125 8.07L15.545 9.11998C15.315 9.26998 15.025 9.28996 14.775 9.15996C14.535 9.02996 14.375 8.77999 14.375 8.49999V4.41997C14.375 4.10997 14.565 3.83996 14.845 3.71996C16.225 3.16996 17.735 2.73997 19.005 2.53997C19.225 2.49997 19.445 2.57001 19.615 2.71001C19.785 2.85001 19.875 3.06002 19.875 3.28002V8.49999C19.875 8.77999 19.725 9.02996 19.475 9.15996C19.365 9.21996 19.245 9.24999 19.125 9.24999ZM17.125 6.41997C17.265 6.41997 17.415 6.45998 17.545 6.54998L18.375 7.09996V4.18999C17.575 4.36999 16.705 4.62999 15.875 4.93999V7.09996L16.705 6.54998C16.835 6.45998 16.985 6.41997 17.125 6.41997Z" />
</svg>
