<svg width="20" height="20" viewBox="0 0 20 20" fill="none" xmlns="http://www.w3.org/2000/svg">
<path d="M2.91663 15.6252C2.57496 15.6252 2.29163 15.3418 2.29163 15.0002V5.8335C2.29163 2.1585 3.40829 1.04184 7.08329 1.04184H12.9166C16.5916 1.04184 17.7083 2.1585 17.7083 5.8335V14.1668C17.7083 14.3002 17.7083 14.4252 17.7 14.5585C17.675 14.9002 17.3666 15.1668 17.0333 15.1418C16.6916 15.1168 16.425 14.8168 16.45 14.4752C16.4583 14.3752 16.4583 14.2668 16.4583 14.1668V5.8335C16.4583 2.8585 15.9 2.29184 12.9166 2.29184H7.08329C4.09996 2.29184 3.54163 2.8585 3.54163 5.8335V15.0002C3.54163 15.3418 3.25829 15.6252 2.91663 15.6252Z" fill="#202C38"/>
<path d="M14.1666 18.9585H5.83329C3.88329 18.9585 2.29163 17.3668 2.29163 15.4168V14.8752C2.29163 13.2168 3.64163 11.8752 5.29163 11.8752H17.0833C17.425 11.8752 17.7083 12.1585 17.7083 12.5002V15.4168C17.7083 17.3668 16.1166 18.9585 14.1666 18.9585ZM5.29163 13.1252C4.32496 13.1252 3.54163 13.9085 3.54163 14.8752V15.4168C3.54163 16.6835 4.56663 17.7085 5.83329 17.7085H14.1666C15.4333 17.7085 16.4583 16.6835 16.4583 15.4168V13.1252H5.29163Z" fill="#202C38"/>
<path d="M13.3333 6.4585H6.66663C6.32496 6.4585 6.04163 6.17517 6.04163 5.8335C6.04163 5.49183 6.32496 5.2085 6.66663 5.2085H13.3333C13.675 5.2085 13.9583 5.49183 13.9583 5.8335C13.9583 6.17517 13.675 6.4585 13.3333 6.4585Z" fill="#202C38"/>
<path d="M10.8333 9.37517H6.66663C6.32496 9.37517 6.04163 9.09183 6.04163 8.75017C6.04163 8.4085 6.32496 8.12517 6.66663 8.12517H10.8333C11.175 8.12517 11.4583 8.4085 11.4583 8.75017C11.4583 9.09183 11.175 9.37517 10.8333 9.37517Z" fill="#202C38"/>
</svg>
