<svg width="16" height="16" viewBox="0 0 16 16" fill="none" xmlns="http://www.w3.org/2000/svg">
<mask id="path-1-inside-1_2459_19594" fill="white">
<path d="M5.33325 3.83325C5.05992 3.83325 4.83325 3.60659 4.83325 3.33325V1.33325C4.83325 1.05992 5.05992 0.833252 5.33325 0.833252C5.60659 0.833252 5.83325 1.05992 5.83325 1.33325V3.33325C5.83325 3.60659 5.60659 3.83325 5.33325 3.83325Z"/>
</mask>
<path d="M5.33325 3.83325C5.05992 3.83325 4.83325 3.60659 4.83325 3.33325V1.33325C4.83325 1.05992 5.05992 0.833252 5.33325 0.833252C5.60659 0.833252 5.83325 1.05992 5.83325 1.33325V3.33325C5.83325 3.60659 5.60659 3.83325 5.33325 3.83325Z" fill="#676E72"/>
<path d="M5.33325 2.58325C5.75027 2.58325 6.08325 2.91623 6.08325 3.33325H3.58325C3.58325 4.29694 4.36956 5.08325 5.33325 5.08325V2.58325ZM6.08325 3.33325V1.33325H3.58325V3.33325H6.08325ZM6.08325 1.33325C6.08325 1.75027 5.75027 2.08325 5.33325 2.08325V-0.416748C4.36956 -0.416748 3.58325 0.369563 3.58325 1.33325H6.08325ZM5.33325 2.08325C4.91623 2.08325 4.58325 1.75027 4.58325 1.33325H7.08325C7.08325 0.369563 6.29694 -0.416748 5.33325 -0.416748V2.08325ZM4.58325 1.33325V3.33325H7.08325V1.33325H4.58325ZM4.58325 3.33325C4.58325 2.91623 4.91623 2.58325 5.33325 2.58325V5.08325C6.29694 5.08325 7.08325 4.29694 7.08325 3.33325H4.58325Z" fill="#676E72" mask="url(#path-1-inside-1_2459_19594)"/>
<mask id="path-3-inside-2_2459_19594" fill="white">
<path d="M10.6667 3.83325C10.3934 3.83325 10.1667 3.60659 10.1667 3.33325V1.33325C10.1667 1.05992 10.3934 0.833252 10.6667 0.833252C10.9401 0.833252 11.1667 1.05992 11.1667 1.33325V3.33325C11.1667 3.60659 10.9401 3.83325 10.6667 3.83325Z"/>
</mask>
<path d="M10.6667 3.83325C10.3934 3.83325 10.1667 3.60659 10.1667 3.33325V1.33325C10.1667 1.05992 10.3934 0.833252 10.6667 0.833252C10.9401 0.833252 11.1667 1.05992 11.1667 1.33325V3.33325C11.1667 3.60659 10.9401 3.83325 10.6667 3.83325Z" fill="#676E72"/>
<path d="M10.6667 2.58325C11.0838 2.58325 11.4167 2.91623 11.4167 3.33325H8.91675C8.91675 4.29694 9.70306 5.08325 10.6667 5.08325V2.58325ZM11.4167 3.33325V1.33325H8.91675V3.33325H11.4167ZM11.4167 1.33325C11.4167 1.75027 11.0838 2.08325 10.6667 2.08325V-0.416748C9.70306 -0.416748 8.91675 0.369563 8.91675 1.33325H11.4167ZM10.6667 2.08325C10.2497 2.08325 9.91675 1.75027 9.91675 1.33325H12.4167C12.4167 0.369563 11.6304 -0.416748 10.6667 -0.416748V2.08325ZM9.91675 1.33325V3.33325H12.4167V1.33325H9.91675ZM9.91675 3.33325C9.91675 2.91623 10.2497 2.58325 10.6667 2.58325V5.08325C11.6304 5.08325 12.4167 4.29694 12.4167 3.33325H9.91675Z" fill="#676E72" mask="url(#path-3-inside-2_2459_19594)"/>
<mask id="path-5-inside-3_2459_19594" fill="white">
<path d="M13.6666 6.56006H2.33325C2.05992 6.56006 1.83325 6.33339 1.83325 6.06006C1.83325 5.78673 2.05992 5.56006 2.33325 5.56006H13.6666C13.9399 5.56006 14.1666 5.78673 14.1666 6.06006C14.1666 6.33339 13.9399 6.56006 13.6666 6.56006Z"/>
</mask>
<path d="M13.6666 6.56006H2.33325C2.05992 6.56006 1.83325 6.33339 1.83325 6.06006C1.83325 5.78673 2.05992 5.56006 2.33325 5.56006H13.6666C13.9399 5.56006 14.1666 5.78673 14.1666 6.06006C14.1666 6.33339 13.9399 6.56006 13.6666 6.56006Z" fill="#676E72"/>
<path d="M13.6666 5.31006H2.33325V7.81006H13.6666V5.31006ZM2.33325 5.31006C2.75027 5.31006 3.08325 5.64304 3.08325 6.06006H0.583252C0.583252 7.02375 1.36956 7.81006 2.33325 7.81006V5.31006ZM3.08325 6.06006C3.08325 6.47708 2.75027 6.81006 2.33325 6.81006V4.31006C1.36956 4.31006 0.583252 5.09637 0.583252 6.06006H3.08325ZM2.33325 6.81006H13.6666V4.31006H2.33325V6.81006ZM13.6666 6.81006C13.2496 6.81006 12.9166 6.47708 12.9166 6.06006H15.4166C15.4166 5.09637 14.6303 4.31006 13.6666 4.31006V6.81006ZM12.9166 6.06006C12.9166 5.64304 13.2496 5.31006 13.6666 5.31006V7.81006C14.6303 7.81006 15.4166 7.02375 15.4166 6.06006H12.9166Z" fill="#676E72" mask="url(#path-5-inside-3_2459_19594)"/>
<path d="M10.6667 15.1666H5.33333C2.9 15.1666 1.5 13.7666 1.5 11.3333V5.66659C1.5 3.23325 2.9 1.83325 5.33333 1.83325H10.6667C13.1 1.83325 14.5 3.23325 14.5 5.66659V11.3333C14.5 13.7666 13.1 15.1666 10.6667 15.1666ZM5.33333 2.83325C3.42667 2.83325 2.5 3.75992 2.5 5.66659V11.3333C2.5 13.2399 3.42667 14.1666 5.33333 14.1666H10.6667C12.5733 14.1666 13.5 13.2399 13.5 11.3333V5.66659C13.5 3.75992 12.5733 2.83325 10.6667 2.83325H5.33333Z" fill="#676E72"/>
<path d="M5.66667 9.66659C5.58 9.66659 5.49333 9.6466 5.41333 9.61327C5.33333 9.57994 5.26001 9.53325 5.19334 9.47325C5.13334 9.40659 5.08666 9.33326 5.05332 9.25326C5.01999 9.17326 5 9.08659 5 8.99993C5 8.82659 5.07334 8.65327 5.19334 8.5266C5.26001 8.4666 5.33333 8.41992 5.41333 8.38658C5.53333 8.33325 5.66667 8.31992 5.80001 8.34659C5.84001 8.35325 5.88 8.36658 5.92 8.38658C5.96 8.39992 6 8.41994 6.04 8.4466C6.07333 8.47327 6.10666 8.49993 6.13999 8.5266C6.16666 8.55993 6.19999 8.59326 6.21999 8.62659C6.24666 8.66659 6.26668 8.70659 6.28001 8.74659C6.30001 8.78659 6.31334 8.82659 6.32001 8.86659C6.32667 8.91325 6.33333 8.95326 6.33333 8.99993C6.33333 9.17326 6.25999 9.34659 6.13999 9.47325C6.01333 9.59325 5.84 9.66659 5.66667 9.66659Z" fill="#676E72"/>
<path d="M7.99992 9.66658C7.82659 9.66658 7.65326 9.59324 7.52659 9.47324C7.49992 9.43991 7.47326 9.40658 7.44659 9.37325C7.41993 9.33325 7.39991 9.29325 7.38658 9.25325C7.36658 9.21325 7.35324 9.17326 7.34658 9.13326C7.33991 9.08659 7.33325 9.04658 7.33325 8.99992C7.33325 8.91325 7.35324 8.82658 7.38658 8.74658C7.41991 8.66658 7.46659 8.59325 7.52659 8.52659C7.71326 8.33992 8.01326 8.27991 8.25326 8.38657C8.33992 8.41991 8.40658 8.46659 8.47325 8.52659C8.59325 8.65325 8.66659 8.82658 8.66659 8.99992C8.66659 9.04658 8.65993 9.08659 8.65326 9.13326C8.64659 9.17326 8.63326 9.21325 8.61326 9.25325C8.59993 9.29325 8.57991 9.33325 8.55324 9.37325C8.52658 9.40658 8.49991 9.43991 8.47325 9.47324C8.40658 9.53324 8.33992 9.57992 8.25326 9.61326C8.17326 9.64659 8.08659 9.66658 7.99992 9.66658Z" fill="#676E72"/>
<path d="M5.66667 12.0001C5.58 12.0001 5.49333 11.9801 5.41333 11.9468C5.33333 11.9134 5.26001 11.8667 5.19334 11.8067C5.13334 11.7401 5.08666 11.6734 5.05332 11.5867C5.01999 11.5067 5 11.4201 5 11.3334C5 11.1601 5.07334 10.9868 5.19334 10.8601C5.26001 10.8001 5.33333 10.7534 5.41333 10.7201C5.66 10.6134 5.95333 10.6734 6.13999 10.8601C6.16666 10.8934 6.19999 10.9267 6.21999 10.9601C6.24666 11.0001 6.26668 11.0401 6.28001 11.0801C6.30001 11.1201 6.31334 11.1601 6.32001 11.2067C6.32667 11.2467 6.33333 11.2934 6.33333 11.3334C6.33333 11.5067 6.25999 11.6801 6.13999 11.8067C6.01333 11.9267 5.84 12.0001 5.66667 12.0001Z" fill="#676E72"/>
</svg>
