<svg width="30" height="30" viewBox="0 0 30 30" fill="none" xmlns="http://www.w3.org/2000/svg">
<path d="M18.6334 22.1668C17.88 22.1668 17.0867 21.9868 16.2667 21.6402C15.4667 21.3002 14.66 20.8335 13.8734 20.2668C13.0934 19.6935 12.34 19.0535 11.6267 18.3535C10.92 17.6402 10.28 16.8868 9.71337 16.1135C9.14004 15.3135 8.68004 14.5135 8.35337 13.7402C8.00671 12.9135 7.83337 12.1135 7.83337 11.3602C7.83337 10.8402 7.92671 10.3468 8.10671 9.88683C8.29337 9.4135 8.59337 8.9735 9.00004 8.5935C9.51337 8.08683 10.1 7.8335 10.7267 7.8335C10.9867 7.8335 11.2534 7.8935 11.48 8.00016C11.74 8.12016 11.96 8.30016 12.12 8.54016L13.6667 10.7202C13.8067 10.9135 13.9134 11.1002 13.9867 11.2868C14.0734 11.4868 14.12 11.6868 14.12 11.8802C14.12 12.1335 14.0467 12.3802 13.9067 12.6135C13.8067 12.7935 13.6534 12.9868 13.46 13.1802L13.0067 13.6535C13.0134 13.6735 13.02 13.6868 13.0267 13.7002C13.1067 13.8402 13.2667 14.0802 13.5734 14.4402C13.9 14.8135 14.2067 15.1535 14.5134 15.4668C14.9067 15.8535 15.2334 16.1602 15.54 16.4135C15.92 16.7335 16.1667 16.8935 16.3134 16.9668L16.3 17.0002L16.7867 16.5202C16.9934 16.3135 17.1934 16.1602 17.3867 16.0602C17.7534 15.8335 18.22 15.7935 18.6867 15.9868C18.86 16.0602 19.0467 16.1602 19.2467 16.3002L21.46 17.8735C21.7067 18.0402 21.8867 18.2535 21.9934 18.5068C22.0934 18.7602 22.14 18.9935 22.14 19.2268C22.14 19.5468 22.0667 19.8668 21.9267 20.1668C21.7867 20.4668 21.6134 20.7268 21.3934 20.9668C21.0134 21.3868 20.6 21.6868 20.12 21.8802C19.66 22.0668 19.16 22.1668 18.6334 22.1668ZM10.7267 8.8335C10.36 8.8335 10.02 8.9935 9.69337 9.3135C9.38671 9.60016 9.17337 9.9135 9.04004 10.2535C8.90004 10.6002 8.83337 10.9668 8.83337 11.3602C8.83337 11.9802 8.98004 12.6535 9.27337 13.3468C9.57337 14.0535 9.99337 14.7868 10.5267 15.5202C11.06 16.2535 11.6667 16.9668 12.3334 17.6402C13 18.3002 13.72 18.9135 14.46 19.4535C15.18 19.9802 15.92 20.4068 16.6534 20.7135C17.7934 21.2002 18.86 21.3135 19.74 20.9468C20.08 20.8068 20.38 20.5935 20.6534 20.2868C20.8067 20.1202 20.9267 19.9402 21.0267 19.7268C21.1067 19.5602 21.1467 19.3868 21.1467 19.2135C21.1467 19.1068 21.1267 19.0002 21.0734 18.8802C21.0534 18.8402 21.0134 18.7668 20.8867 18.6802L18.6734 17.1068C18.54 17.0135 18.42 16.9468 18.3067 16.9002C18.16 16.8402 18.1 16.7802 17.8734 16.9202C17.74 16.9868 17.62 17.0868 17.4867 17.2202L16.98 17.7202C16.72 17.9735 16.32 18.0335 16.0134 17.9202L15.8334 17.8402C15.56 17.6935 15.24 17.4668 14.8867 17.1668C14.5667 16.8935 14.22 16.5735 13.8 16.1602C13.4734 15.8268 13.1467 15.4735 12.8067 15.0802C12.4934 14.7135 12.2667 14.4002 12.1267 14.1402L12.0467 13.9402C12.0067 13.7868 11.9934 13.7002 11.9934 13.6068C11.9934 13.3668 12.08 13.1535 12.2467 12.9868L12.7467 12.4668C12.88 12.3335 12.98 12.2068 13.0467 12.0935C13.1 12.0068 13.12 11.9335 13.12 11.8668C13.12 11.8135 13.1 11.7335 13.0667 11.6535C13.02 11.5468 12.9467 11.4268 12.8534 11.3002L11.3067 9.1135C11.24 9.02016 11.16 8.9535 11.06 8.90683C10.9534 8.86016 10.84 8.8335 10.7267 8.8335ZM16.3 17.0068L16.1934 17.4602L16.3734 16.9935C16.34 16.9868 16.3134 16.9935 16.3 17.0068Z" fill="#F5B102"/>
<rect x="0.5" y="0.5" width="29" height="29" rx="14.5" stroke="#F5B102"/>
</svg>
