<svg width="65" height="64" viewBox="0 0 65 64" fill="none" xmlns="http://www.w3.org/2000/svg">
<path d="M5.04791 27.7645V49.793C5.04785 50.1959 5.15196 50.5921 5.35013 50.943C5.5483 51.2939 5.83381 51.5877 6.17895 51.7957L24.6741 62.9374C25.0322 63.1531 25.4417 63.2688 25.8597 63.2725C26.2778 63.2762 26.6892 63.1678 27.0511 62.9585L58.2845 44.8946C58.6395 44.6893 58.9343 44.3942 59.1392 44.039C59.3442 43.6838 59.452 43.2809 59.452 42.8707V18.7379L5.04791 27.7645Z" fill="#FFC107"/>
<path d="M64.25 15.9324V19.9243C64.2498 20.3342 64.142 20.737 63.9372 21.0921C63.7324 21.4472 63.4378 21.7423 63.0831 21.9478L25.9245 43.4388C25.5625 43.6483 25.1509 43.7569 24.7327 43.7532C24.3144 43.7495 23.9048 43.6338 23.5466 43.418L1.38104 30.0653C1.03566 29.8574 0.749973 29.5637 0.551773 29.2127C0.353573 28.8617 0.24961 28.4653 0.250001 28.0622V24.0414C0.24964 23.629 0.358585 23.2238 0.565744 22.8672C0.772902 22.5106 1.07087 22.2152 1.42931 22.0112L38.17 1.03464C38.5229 0.833228 38.9223 0.727295 39.3286 0.727295C39.735 0.727295 40.1343 0.833228 40.4872 1.03464L63.0693 13.9007C63.4277 14.1053 63.7256 14.401 63.933 14.7578C64.1403 15.1145 64.2497 15.5198 64.25 15.9324Z" fill="#0383CC"/>
<path d="M63.9328 14.7574L25.9245 36.7411C25.5622 36.9498 25.1506 37.0578 24.7325 37.0539C24.3144 37.05 23.905 36.9344 23.5466 36.719L0.56311 22.8717C0.770878 22.5135 1.06972 22.2166 1.42932 22.0112L38.17 1.03461C38.5229 0.833197 38.9223 0.727264 39.3286 0.727264C39.735 0.727264 40.1343 0.833197 40.4873 1.03461L63.0693 13.9007C63.4273 14.1055 63.7251 14.401 63.9328 14.7574Z" fill="#03A1FA"/>
<path d="M13.1445 19.7877C13.1445 21.3399 14.9195 22.5979 17.1089 22.5979C19.2983 22.5979 21.0734 21.3399 21.0734 19.7877V15.2211H13.1445V19.7877Z" fill="#607D8B"/>
<path d="M17.1089 18.0313C19.2984 18.0313 21.0733 16.7731 21.0733 15.2211C21.0733 13.6691 19.2984 12.4109 17.1089 12.4109C14.9194 12.4109 13.1445 13.6691 13.1445 15.2211C13.1445 16.7731 14.9194 18.0313 17.1089 18.0313Z" fill="#90A4AE"/>
<path d="M31.4419 9.60068C31.4419 11.1527 33.2168 12.4109 35.4063 12.4109C37.5958 12.4109 39.3707 11.1527 39.3707 9.60068V5.03406H31.4419V9.60068Z" fill="#607D8B"/>
<path d="M35.4063 7.84426C37.5958 7.84426 39.3707 6.58609 39.3707 5.03405C39.3707 3.48202 37.5958 2.22385 35.4063 2.22385C33.2168 2.22385 31.4419 3.48202 31.4419 5.03405C31.4419 6.58609 33.2168 7.84426 35.4063 7.84426Z" fill="#90A4AE"/>
<path d="M29.7199 23.8961L21.3558 28.7336C21.2134 28.8128 21.0882 28.9196 20.9875 29.0477C20.8868 29.1758 20.8126 29.3226 20.7692 29.4797C20.7258 29.6368 20.7142 29.8009 20.7349 29.9625C20.7556 30.1241 20.8083 30.28 20.8899 30.4211C20.9715 30.5621 21.0803 30.6855 21.2101 30.7841C21.3398 30.8826 21.4879 30.9543 21.6457 30.9951C21.8035 31.0358 21.9678 31.0447 22.129 31.0213C22.2903 30.9978 22.4452 30.9425 22.5849 30.8586L30.949 26.0211C31.0914 25.9419 31.2166 25.8351 31.3173 25.707C31.418 25.5789 31.4922 25.4321 31.5356 25.275C31.579 25.1179 31.5906 24.9538 31.5699 24.7922C31.5492 24.6306 31.4965 24.4747 31.4149 24.3337C31.3334 24.1926 31.2245 24.0692 31.0947 23.9707C30.965 23.8721 30.8169 23.8004 30.6591 23.7597C30.5014 23.7189 30.337 23.71 30.1758 23.7335C30.0146 23.7569 29.8596 23.8122 29.7199 23.8961Z" fill="white"/>
<path d="M51.7769 17.6344L48.6442 15.8494L50.7732 14.6181C51.0486 14.4519 51.2479 14.1843 51.328 13.8728C51.4082 13.5613 51.3629 13.2308 51.2018 12.9523C51.0408 12.6739 50.7769 12.4697 50.4669 12.3839C50.1569 12.298 49.8256 12.3372 49.5442 12.4931L46.1743 14.4421L41.3782 11.7092C41.0956 11.5531 40.763 11.5145 40.4522 11.6018C40.1414 11.6891 39.8775 11.8954 39.7177 12.1758C39.5579 12.4563 39.515 12.7885 39.5983 13.1003C39.6815 13.4122 39.8843 13.6788 40.1627 13.8422L43.7135 15.8654L40.156 17.9229C40.0133 18.002 39.8878 18.1086 39.7868 18.2367C39.6858 18.3648 39.6114 18.5118 39.5679 18.669C39.5243 18.8261 39.5125 18.9904 39.5332 19.1522C39.5539 19.314 39.6066 19.4701 39.6882 19.6113C39.7699 19.7525 39.8789 19.876 40.0088 19.9746C40.1387 20.0732 40.287 20.1449 40.445 20.1855C40.6029 20.2262 40.7674 20.235 40.9288 20.2113C41.0902 20.1877 41.2452 20.1321 41.3849 20.0479L46.1834 17.2727L50.5616 19.7673C50.8441 19.9227 51.1763 19.9607 51.4866 19.8732C51.7969 19.7857 52.0603 19.5796 52.2199 19.2995C52.3795 19.0193 52.4225 18.6877 52.3396 18.3761C52.2567 18.0646 52.0546 17.7981 51.7769 17.6344Z" fill="white"/>
<path d="M45.7035 34.9081L39.6585 38.6023L39.3707 46.6263L42.3497 44.7433L43.2567 51.8077L46.0634 40.0393L43.1129 41.5288L45.7035 34.9081Z" fill="#0391E0"/>
</svg>
