<svg width="16" height="17" viewBox="0 0 16 17" fill="none" xmlns="http://www.w3.org/2000/svg">
<path d="M7.99998 16.1042C4.04665 16.1042 0.833313 12.8908 0.833313 8.9375C0.833313 4.98417 4.04665 1.77083 7.99998 1.77083C11.9533 1.77083 15.1666 4.98417 15.1666 8.9375C15.1666 12.8908 11.9533 16.1042 7.99998 16.1042ZM7.99998 2.77083C4.59998 2.77083 1.83331 5.5375 1.83331 8.9375C1.83331 12.3375 4.59998 15.1042 7.99998 15.1042C11.4 15.1042 14.1666 12.3375 14.1666 8.9375C14.1666 5.5375 11.4 2.77083 7.99998 2.77083Z" fill="#676E72"/>
<path d="M10.4733 11.5575C10.3867 11.5575 10.3 11.5375 10.22 11.4842L8.15334 10.2508C7.64001 9.94417 7.26001 9.27083 7.26001 8.6775V5.94417C7.26001 5.67083 7.48668 5.44417 7.76001 5.44417C8.03334 5.44417 8.26001 5.67083 8.26001 5.94417V8.6775C8.26001 8.9175 8.46001 9.27083 8.66668 9.39083L10.7333 10.6242C10.9733 10.7642 11.0467 11.0708 10.9067 11.3108C10.8067 11.4708 10.64 11.5575 10.4733 11.5575Z" fill="#676E72"/>
</svg>
