<svg width="18" height="18" viewBox="0 0 18 18" fill="none" xmlns="http://www.w3.org/2000/svg">
<path d="M1.59845 17.25C1.38111 17.25 1.16376 17.1673 0.998631 17.001C0.667123 16.6694 0.667123 16.132 0.998631 15.8005L15.8005 0.998631C16.132 0.667123 16.6694 0.667123 17.001 0.998631C17.3325 1.33014 17.3325 1.8676 17.001 2.19931L2.19931 17.001C2.03294 17.1663 1.81559 17.25 1.59845 17.25Z" fill="#202C38"/>
<path d="M16.4013 17.25C16.184 17.25 15.9669 17.1673 15.8015 17.001L0.998631 2.19931C0.667123 1.8676 0.667123 1.33014 0.998631 0.998631C1.33014 0.667123 1.8676 0.667123 2.19931 0.998631L17.001 15.8005C17.3325 16.132 17.3325 16.6694 17.001 17.001C16.8346 17.1663 16.6174 17.25 16.4013 17.25Z" fill="#202C38"/>
</svg>
