<svg width="29" height="28" viewBox="0 0 29 28" fill="none" xmlns="http://www.w3.org/2000/svg">
<g clip-path="url(#clip0_3818_7168)">
<path d="M5.65063 23.4091H5.24279C4.81291 23.4091 4.4657 23.7563 4.4657 24.1862C4.4657 24.6161 4.81291 24.9633 5.24279 24.9633H5.65063C6.08051 24.9633 6.42772 24.6161 6.42772 24.1862C6.42772 23.7563 6.08051 23.4091 5.65063 23.4091Z" fill="#202C38"/>
<path d="M10.8933 11.6667H8.15212C7.72224 11.6667 7.37503 12.0139 7.37503 12.4437C7.37503 12.8736 7.72224 13.2208 8.15212 13.2208H10.8933C11.3232 13.2208 11.6704 12.8736 11.6704 12.4437C11.6704 12.0139 11.3232 11.6667 10.8933 11.6667Z" fill="black"/>
<path d="M10.0541 23.4091H9.64631C9.21643 23.4091 8.86922 23.7563 8.86922 24.1862C8.86922 24.6161 9.21643 24.9633 9.64631 24.9633H10.0541C10.484 24.9633 10.8312 24.6161 10.8312 24.1862C10.8312 23.7563 10.484 23.4091 10.0541 23.4091Z" fill="#202C38"/>
<path d="M14.4577 23.4091H14.0498C13.6255 23.4091 13.2727 23.7563 13.2727 24.1862C13.2727 24.6161 13.62 24.9633 14.0498 24.9633H14.4577C14.8876 24.9633 15.2348 24.6161 15.2348 24.1862C15.2348 23.7563 14.8876 23.4091 14.4577 23.4091Z" fill="#202C38"/>
<path d="M18.8667 23.4091H18.4589C18.029 23.4091 17.6818 23.7563 17.6818 24.1862C17.6818 24.6161 18.029 24.9633 18.4589 24.9633H18.8667C19.2966 24.9633 19.6438 24.6161 19.6438 24.1862C19.6438 23.7563 19.2966 23.4091 18.8667 23.4091Z" fill="#202C38"/>
<path d="M26.5052 14.3485V13.5053C27.5854 13.1746 28.3735 12.1661 28.3735 10.9756C28.3735 9.79622 27.5964 8.79867 26.5327 8.45697V0.779746C26.5327 0.0743012 25.6289 -0.311489 25.1273 0.316798L14.8322 13.1874V10.6887C14.8322 10.4848 14.7496 10.2864 14.6063 10.1376L11.4373 6.96859C11.294 6.8253 11.0956 6.74263 10.8862 6.74263H3.85376C3.42388 6.74263 3.07667 7.08984 3.07667 7.51972V20.5377C1.51697 21.0172 0.376133 22.4722 0.376133 24.1862C0.376133 26.286 2.09014 28 4.18995 28H19.9137C22.019 28 23.7275 26.286 23.7275 24.1862C23.7275 22.0864 22.0135 20.3724 19.9137 20.3724H14.8322V15.8163L24.9785 3.15511V8.44044C23.8818 8.76561 23.0826 9.77968 23.0826 10.9756C23.0826 12.1661 23.8708 13.1746 24.951 13.5053V15.0044C24.951 15.4343 25.2982 15.7815 25.7281 15.7815C26.2516 15.7815 26.6815 16.2058 26.6815 16.7349C26.6815 17.264 26.2572 17.6884 25.7281 17.6884C25.2927 17.6884 24.9179 17.3963 24.8077 16.9774C24.6975 16.5586 24.2731 16.3106 23.8597 16.4208C23.4464 16.531 23.1929 16.9554 23.3031 17.3687C23.5897 18.471 24.5872 19.2426 25.7281 19.2426C27.1114 19.2426 28.2357 18.1183 28.2357 16.7349C28.2357 15.6217 27.5082 14.6792 26.5052 14.3485ZM4.63085 8.2913H10.5555L13.2726 11.0084V20.3669H4.63085V8.2913ZM19.9137 21.9266C21.1592 21.9266 22.1733 22.9406 22.1733 24.1862C22.1733 25.4317 21.1592 26.4458 19.9137 26.4458H4.18995C2.94439 26.4458 1.93032 25.4317 1.93032 24.1862C1.93032 22.9406 2.94439 21.9266 4.18995 21.9266H19.9137ZM25.7281 12.0669C25.1273 12.0669 24.6368 11.5764 24.6368 10.9756C24.6368 10.3749 25.1273 9.8844 25.7281 9.8844C26.3288 9.8844 26.8193 10.3749 26.8193 10.9756C26.8193 11.5764 26.3288 12.0669 25.7281 12.0669Z" fill="#202C38"/>
</g>
<defs>
<clipPath id="clip0_3818_7168">
<rect width="28" height="28" fill="white" transform="translate(0.375)"/>
</clipPath>
</defs>
</svg>
