<svg width="56" height="56" viewBox="0 0 56 56" fill="none" xmlns="http://www.w3.org/2000/svg">
<circle cx="28" cy="28" r="27.5" fill="#FFF4D9" stroke="white"/>
<path opacity="0.5" d="M28 28.875C31.3827 28.875 34.125 26.1327 34.125 22.75C34.125 19.3673 31.3827 16.625 28 16.625C24.6173 16.625 21.875 19.3673 21.875 22.75C21.875 26.1327 24.6173 28.875 28 28.875Z" fill="#F5B102"/>
<path opacity="0.5" d="M33.6875 29.75H22.3125C21.0361 29.75 19.8121 30.257 18.9095 31.1595C18.007 32.0621 17.5 33.2861 17.5 34.5625C17.5 35.8389 18.007 37.0629 18.9095 37.9655C19.8121 38.868 21.0361 39.375 22.3125 39.375H33.6875C34.9639 39.375 36.1879 38.868 37.0905 37.9655C37.993 37.0629 38.5 35.8389 38.5 34.5625C38.5 33.2861 37.993 32.0621 37.0905 31.1595C36.1879 30.257 34.9639 29.75 33.6875 29.75Z" fill="#F5B102"/>
</svg>
