<svg width="20" height="20" viewBox="0 0 20 20" fill="none" xmlns="http://www.w3.org/2000/svg">
<path d="M18.8268 9.96834C18.8265 9.96377 18.8262 9.95924 18.8259 9.95467C18.8247 9.93877 18.823 9.92291 18.8205 9.90717C18.8203 9.90627 18.8202 9.90541 18.8201 9.90451C18.8175 9.88861 18.8139 9.87287 18.81 9.8572C18.8087 9.85209 18.8073 9.84701 18.8059 9.84193C18.8025 9.82986 18.7987 9.81787 18.7945 9.80599C18.793 9.80182 18.7918 9.79756 18.7902 9.79338C18.7848 9.77904 18.7787 9.7649 18.7721 9.75096C18.7694 9.74506 18.7664 9.73924 18.7634 9.73342C18.7586 9.724 18.7535 9.71471 18.7481 9.70549C18.7449 9.69994 18.7418 9.69439 18.7384 9.68892C18.7378 9.6881 18.7374 9.68725 18.7369 9.68642L15.7682 4.99895C15.7611 4.98778 15.7536 4.97692 15.7459 4.96634C15.7431 4.96255 15.7402 4.95899 15.7373 4.95532C15.7322 4.94868 15.7271 4.942 15.7217 4.93559C15.7181 4.9313 15.7143 4.92719 15.7106 4.92302C15.7057 4.91755 15.7008 4.91204 15.6958 4.90677C15.6916 4.90243 15.6873 4.89825 15.683 4.89407C15.6781 4.88927 15.6732 4.88446 15.6681 4.87985C15.6635 4.87567 15.6588 4.87161 15.6541 4.86755C15.6491 4.86325 15.644 4.85903 15.6389 4.85493C15.6339 4.85095 15.6289 4.84704 15.6238 4.84325C15.6187 4.83942 15.6135 4.83571 15.6082 4.83204C15.6029 4.82837 15.5976 4.8247 15.5922 4.82118C15.5869 4.81774 15.5815 4.81446 15.5761 4.81118C15.5705 4.80782 15.565 4.80446 15.5594 4.8013C15.5538 4.79821 15.5482 4.79532 15.5426 4.79239C15.5368 4.78942 15.5312 4.78641 15.5254 4.78364C15.5195 4.78083 15.5135 4.77833 15.5075 4.77571C15.5018 4.77321 15.4961 4.77056 15.4903 4.76825C15.4827 4.76524 15.4751 4.76263 15.4674 4.75993C15.458 4.75661 15.4485 4.75356 15.4389 4.75075C15.4322 4.74876 15.4255 4.74665 15.4187 4.74493C15.4126 4.74337 15.4065 4.74216 15.4004 4.74079C15.3939 4.73934 15.3874 4.73782 15.3809 4.73661C15.3747 4.73544 15.3684 4.73454 15.3621 4.7336C15.3556 4.73259 15.3491 4.73157 15.3425 4.73079C15.3362 4.73005 15.3299 4.7295 15.3235 4.72895C15.3168 4.72837 15.3101 4.72782 15.3034 4.72751C15.2972 4.7272 15.2909 4.72704 15.2847 4.72692C15.2808 4.72681 15.277 4.72653 15.2732 4.72653H4.7264C4.72262 4.72653 4.71883 4.72681 4.71504 4.72688C4.70871 4.727 4.70242 4.72716 4.69609 4.72751C4.68945 4.72786 4.68289 4.72837 4.67629 4.72895C4.6698 4.7295 4.66336 4.73005 4.65691 4.73079C4.65051 4.73157 4.64422 4.73255 4.63785 4.73352C4.63137 4.7345 4.62488 4.73544 4.61848 4.73665C4.61226 4.73782 4.60617 4.73927 4.60004 4.74059C4.59359 4.742 4.58711 4.74333 4.5807 4.74497C4.5748 4.74649 4.56898 4.74833 4.56316 4.75001C4.55039 4.75372 4.53777 4.75786 4.52531 4.76239C4.52004 4.76431 4.51469 4.7661 4.50945 4.76817C4.50309 4.77071 4.49691 4.7736 4.49066 4.77634C4.48523 4.77872 4.47977 4.78098 4.47441 4.78356C4.46832 4.78649 4.46234 4.7897 4.45633 4.79282C4.45102 4.79559 4.44566 4.79829 4.44043 4.80122C4.43457 4.8045 4.42883 4.80798 4.42309 4.81145C4.41789 4.81462 4.4127 4.81774 4.40758 4.82106C4.40203 4.82466 4.39656 4.82845 4.39109 4.83223C4.38602 4.83579 4.38094 4.83938 4.37598 4.84313C4.37078 4.84704 4.36563 4.85098 4.36055 4.85509C4.35551 4.85911 4.35055 4.86325 4.34563 4.86743C4.34082 4.87153 4.33606 4.87567 4.33137 4.87997C4.32637 4.88454 4.32152 4.88923 4.31668 4.89395C4.31234 4.89821 4.30797 4.90243 4.30375 4.90684C4.29871 4.91208 4.29387 4.91755 4.28902 4.92298C4.28527 4.92719 4.28149 4.9313 4.27785 4.93563C4.27246 4.94204 4.26735 4.94868 4.26223 4.95532C4.25938 4.95903 4.25641 4.96259 4.25367 4.96637C4.24594 4.97696 4.23844 4.98782 4.23137 4.99899L1.26264 9.68646C1.26213 9.68728 1.2617 9.68814 1.26119 9.68896C1.25779 9.69439 1.25471 9.69998 1.25146 9.70553C1.24611 9.71475 1.241 9.72404 1.23615 9.73346C1.23318 9.73928 1.23018 9.7451 1.2274 9.75099C1.22084 9.76498 1.21471 9.77908 1.20932 9.79342C1.20775 9.7976 1.20646 9.80181 1.20502 9.80603C1.20084 9.81791 1.19705 9.8299 1.19365 9.84197C1.19225 9.84705 1.19084 9.85213 1.18955 9.85724C1.18561 9.87291 1.18209 9.88869 1.17947 9.90455C1.17932 9.90545 1.17924 9.90631 1.17908 9.90721C1.17654 9.92295 1.17486 9.93881 1.17365 9.9547C1.1733 9.95927 1.17303 9.96381 1.17279 9.96838C1.17201 9.98275 1.1717 9.99713 1.17197 10.0115C1.17201 10.014 1.17189 10.0165 1.17197 10.019C1.17248 10.0351 1.17385 10.0512 1.17568 10.0673C1.17627 10.0724 1.17701 10.0775 1.17775 10.0826C1.17947 10.0947 1.18162 10.1069 1.18412 10.1189C1.1851 10.1236 1.18592 10.1285 1.18705 10.1332C1.19057 10.1482 1.19471 10.1631 1.19943 10.1779C1.20127 10.1836 1.20338 10.1894 1.20541 10.1951C1.20908 10.2055 1.21307 10.2158 1.21732 10.226C1.21971 10.2317 1.22197 10.2374 1.22455 10.243C1.23064 10.2563 1.23713 10.2695 1.24424 10.2825C1.24471 10.2834 1.24529 10.2842 1.2458 10.2851C1.24826 10.2895 1.251 10.2938 1.25361 10.2982C1.26033 10.3095 1.2674 10.3206 1.27478 10.3314C1.27744 10.3352 1.27998 10.3391 1.28271 10.3429C1.29295 10.357 1.30369 10.3707 1.31502 10.3838C1.31564 10.3845 1.31611 10.3852 1.31674 10.386L9.55888 19.8C9.55985 19.8011 9.56099 19.802 9.562 19.8032C9.57438 19.8171 9.58731 19.8304 9.60091 19.843C9.60356 19.8455 9.60634 19.8477 9.60903 19.8502C9.62044 19.8603 9.6322 19.8701 9.64434 19.8793C9.64845 19.8825 9.65251 19.8856 9.65669 19.8886C9.67161 19.8994 9.68684 19.9097 9.7027 19.9191C9.70286 19.9191 9.70306 19.9192 9.70321 19.9193C9.71895 19.9286 9.73532 19.9368 9.75192 19.9446C9.75641 19.9467 9.76091 19.9487 9.76544 19.9507C9.77946 19.9568 9.79372 19.9624 9.80825 19.9674C9.81153 19.9686 9.81477 19.9699 9.81809 19.971C9.83567 19.9767 9.8536 19.9816 9.87181 19.9857C9.87571 19.9865 9.87966 19.9871 9.88356 19.988C9.89825 19.9909 9.91309 19.9934 9.92813 19.9952C9.93321 19.9958 9.93825 19.9965 9.94333 19.997C9.962 19.9987 9.98075 20 9.99977 20C10.0188 20 10.0376 19.9988 10.0562 19.997C10.0613 19.9964 10.0664 19.9958 10.0714 19.9952C10.0864 19.9934 10.1013 19.9909 10.116 19.988C10.1199 19.9872 10.1238 19.9866 10.1277 19.9857C10.1459 19.9816 10.1639 19.9767 10.1815 19.971C10.1848 19.9699 10.188 19.9686 10.1913 19.9675C10.2058 19.9624 10.2201 19.9568 10.2341 19.9507C10.2386 19.9487 10.2432 19.9468 10.2476 19.9446C10.2642 19.9369 10.2806 19.9286 10.2963 19.9194C10.2965 19.9193 10.2967 19.9192 10.2968 19.9191C10.3127 19.9098 10.3279 19.8995 10.3429 19.8886C10.347 19.8856 10.3511 19.8825 10.3552 19.8794C10.3673 19.8701 10.3791 19.8604 10.3905 19.8502C10.3932 19.8478 10.396 19.8455 10.3986 19.8431C10.4122 19.8305 10.4252 19.8171 10.4375 19.8032C10.4385 19.8021 10.4397 19.8011 10.4407 19.8L18.6828 10.386C18.6834 10.3853 18.6839 10.3845 18.6845 10.3838C18.6959 10.3708 18.7066 10.3571 18.7168 10.3429C18.7196 10.3391 18.7221 10.3352 18.7248 10.3314C18.7321 10.3206 18.7392 10.3095 18.7459 10.2981C18.7485 10.2938 18.7512 10.2895 18.7537 10.285C18.7543 10.2841 18.7548 10.2833 18.7553 10.2824C18.7624 10.2695 18.7689 10.2563 18.775 10.243C18.7776 10.2374 18.7798 10.2316 18.7822 10.226C18.7865 10.2158 18.7905 10.2055 18.7941 10.1951C18.7962 10.1894 18.7983 10.1836 18.8001 10.1778C18.8048 10.1631 18.809 10.1481 18.8125 10.1331C18.8136 10.1284 18.8144 10.1236 18.8154 10.1188C18.8179 10.1068 18.82 10.0947 18.8218 10.0826C18.8225 10.0775 18.8233 10.0724 18.8239 10.0673C18.8257 10.0512 18.8271 10.0351 18.8276 10.019C18.8277 10.0165 18.8275 10.014 18.8276 10.0115C18.8278 9.99709 18.8276 9.98271 18.8268 9.96834ZM14.4277 5.8984L13.3424 8.79264L11.1717 5.8984H14.4277ZM12.3435 9.414H7.65608L9.99981 6.28902L12.3435 9.414ZM8.82794 5.8984L6.65725 8.79264L5.57191 5.8984H8.82794ZM4.59129 6.6209L5.6387 9.414H2.82231L4.59129 6.6209ZM3.04946 10.5859H6.07757L8.3299 16.6171L3.04946 10.5859ZM9.99981 17.7391L7.32846 10.5859H12.6712L9.99981 17.7391ZM11.6697 16.6171L13.9221 10.5859H16.9502L11.6697 16.6171ZM14.3609 9.414L15.4083 6.6209L17.1773 9.414H14.3609Z" fill="#202C38"/>
<path d="M10 0C9.67641 0 9.41406 0.262342 9.41406 0.585934V2.92967C9.41406 3.25326 9.67641 3.5156 10 3.5156C10.3236 3.5156 10.5859 3.25326 10.5859 2.92967V0.585934C10.5859 0.262342 10.3236 0 10 0Z" fill="#202C38"/>
<path d="M7.63071 2.68037L5.97346 1.60897C5.70174 1.43331 5.33901 1.51112 5.1633 1.78292C4.98756 2.05471 5.06549 2.41741 5.33725 2.59311L6.9945 3.66447C7.09286 3.72806 7.20306 3.75841 7.31208 3.75841C7.50427 3.75841 7.69255 3.66392 7.80466 3.49052C7.98036 3.21877 7.90247 2.85604 7.63071 2.68037Z" fill="#202C38"/>
<path d="M14.8359 1.78292C14.6602 1.51117 14.2975 1.43332 14.0257 1.60898L12.3685 2.68034C12.0967 2.856 12.0188 3.21873 12.1945 3.49049C12.3066 3.66393 12.4949 3.75838 12.6871 3.75838C12.7961 3.75838 12.9063 3.72803 13.0047 3.66444L14.6619 2.59307C14.9337 2.41741 15.0116 2.05468 14.8359 1.78292Z" fill="#202C38"/>
</svg>
