<svg width="29" height="28" viewBox="0 0 29 28" fill="none" xmlns="http://www.w3.org/2000/svg">
<path d="M14.625 26.5417C7.70667 26.5417 2.08333 20.9183 2.08333 14C2.08333 7.08167 7.70667 1.45834 14.625 1.45834C21.5433 1.45834 27.1667 7.08167 27.1667 14C27.1667 20.9183 21.5433 26.5417 14.625 26.5417ZM14.625 3.20834C8.675 3.20834 3.83333 8.05 3.83333 14C3.83333 19.95 8.675 24.7917 14.625 24.7917C20.575 24.7917 25.4167 19.95 25.4167 14C25.4167 8.05 20.575 3.20834 14.625 3.20834Z" fill="#202C38"/>
<path d="M18.1253 18.6667C17.4719 18.6667 16.9469 18.1417 16.9469 17.5C16.9469 16.8583 17.4719 16.3333 18.1136 16.3333C18.7553 16.3333 19.2803 16.8583 19.2803 17.5C19.2803 18.1417 18.7669 18.6667 18.1253 18.6667Z" fill="#202C38"/>
<path d="M11.1367 11.6667C10.4833 11.6667 9.95833 11.1417 9.95833 10.5C9.95833 9.85834 10.4833 9.33334 11.125 9.33334C11.7667 9.33334 12.2917 9.85834 12.2917 10.5C12.2917 11.1417 11.7783 11.6667 11.1367 11.6667Z" fill="#202C38"/>
<path d="M11.125 18.375C10.9033 18.375 10.6816 18.2933 10.5066 18.1183C10.1683 17.78 10.1683 17.2199 10.5066 16.8816L17.5066 9.8816C17.8449 9.54326 18.405 9.54326 18.7433 9.8816C19.0817 10.2199 19.0817 10.78 18.7433 11.1183L11.7433 18.1183C11.5683 18.2933 11.3466 18.375 11.125 18.375Z" fill="#202C38"/>
</svg>
