<svg width="24" height="24" viewBox="0 0 24 24" fill="none" xmlns="http://www.w3.org/2000/svg">
<path d="M12.2785 11.7883L6.29491 4.14297C6.2246 4.05156 6.11444 4 5.9996 4H4.18788C4.03085 4 3.94413 4.18047 4.04022 4.30234L10.2605 12.25L4.04022 20.1977C4.01858 20.2253 4.00516 20.2585 4.00148 20.2934C3.9978 20.3283 4.00401 20.3635 4.01942 20.395C4.03482 20.4266 4.05879 20.4532 4.08858 20.4717C4.11837 20.4903 4.15278 20.5001 4.18788 20.5H5.9996C6.11444 20.5 6.2246 20.4461 6.29491 20.357L12.2785 12.7141C12.4918 12.4398 12.4918 12.0602 12.2785 11.7883ZM19.4035 11.7883L13.4199 4.14297C13.3496 4.05156 13.2394 4 13.1246 4H11.3129C11.1558 4 11.0691 4.18047 11.1652 4.30234L17.3855 12.25L11.1652 20.1977C11.1436 20.2253 11.1302 20.2585 11.1265 20.2934C11.1228 20.3283 11.129 20.3635 11.1444 20.395C11.1598 20.4266 11.1838 20.4532 11.2136 20.4717C11.2434 20.4903 11.2778 20.5001 11.3129 20.5H13.1246C13.2394 20.5 13.3496 20.4461 13.4199 20.357L19.4035 12.7141C19.6168 12.4398 19.6168 12.0602 19.4035 11.7883Z" fill="#202C38"/>
</svg>
