<svg width="161" height="160" viewBox="0 0 161 160" fill="none" xmlns="http://www.w3.org/2000/svg">
<path d="M134.113 108.163C136.377 108.163 138.213 106.327 138.213 104.063C138.213 101.799 136.377 99.963 134.113 99.963C131.849 99.963 130.013 101.799 130.013 104.063C130.013 106.327 131.849 108.163 134.113 108.163Z" fill="#EAEEF9"/>
<path d="M126.239 119.602C127.786 119.602 129.039 118.349 129.039 116.802C129.039 115.256 127.786 114.002 126.239 114.002C124.693 114.002 123.439 115.256 123.439 116.802C123.439 118.349 124.693 119.602 126.239 119.602Z" fill="#EAEEF9"/>
<path d="M35.5129 51.163C37.0593 51.163 38.3129 49.9094 38.3129 48.363C38.3129 46.8166 37.0593 45.563 35.5129 45.563C33.9665 45.563 32.7129 46.8166 32.7129 48.363C32.7129 49.9094 33.9665 51.163 35.5129 51.163Z" fill="#EAEEF9"/>
<path d="M18.4129 105.163C21.2848 105.163 23.6129 102.835 23.6129 99.9629C23.6129 97.0911 21.2848 94.7629 18.4129 94.7629C15.541 94.7629 13.2129 97.0911 13.2129 99.9629C13.2129 102.835 15.541 105.163 18.4129 105.163Z" fill="#EAEEF9"/>
<path d="M81.5628 131.263C109.563 131.263 132.263 108.563 132.263 80.463C132.263 52.363 109.563 29.663 81.5628 29.663C53.5628 29.663 30.8628 52.363 30.8628 80.463C30.8628 108.563 53.5628 131.263 81.5628 131.263Z" fill="#EAEEF9"/>
<path d="M111.007 37.2985C112.515 37.2985 113.791 38.4528 113.791 40.0689V121.795C113.791 123.296 112.631 124.566 111.007 124.566H50.5685C49.0605 124.566 47.7844 123.411 47.7844 121.795V40.0689C47.7844 38.5682 48.9445 37.2985 50.5685 37.2985H111.007Z" fill="#CED7E2"/>
<path d="M113.791 45.8405V121.68C113.791 123.181 112.631 124.45 111.007 124.45H55.7887L50.9165 119.602L105.787 44.4553L110.543 42.7238L113.791 45.8405Z" fill="#BCC4CF"/>
<path d="M110.775 43.6473C110.775 43.1856 110.427 42.7238 109.847 42.7238H51.8445C51.3805 42.7238 50.9165 43.0701 50.9165 43.6473V118.679C50.9165 119.14 51.2645 119.602 51.8445 119.602H109.731C110.195 119.602 110.659 119.256 110.659 118.679L110.775 43.6473Z" fill="#D9DFEE"/>
<path d="M110.775 43.6473C110.775 43.1856 110.427 42.7238 109.847 42.7238H51.8446C51.3805 42.7238 50.9165 43.0701 50.9165 43.6473C51.6125 73.5444 51.8446 107.366 48.5964 116.139L104.162 115.331C107.527 100.094 110.079 72.7364 110.775 43.6473Z" fill="#EFF3FB"/>
<g filter="url(#filter0_d_1212_52270)">
<path d="M110.658 42.8393C110.658 42.8393 110.542 47.3411 109.15 76.0839C109.15 76.3148 109.15 76.4302 109.15 76.6611C107.41 104.827 82.3531 110.714 79.337 111.06C77.945 111.176 75.2769 111.406 70.5207 111.406C64.6045 111.637 55.5562 111.753 41.4036 111.868C40.9396 111.868 40.5916 111.406 40.8236 110.945C50.568 91.4365 50.684 42.9547 50.684 42.9547L110.658 42.8393Z" fill="white"/>
</g>
<path d="M109.035 76.5457C107.411 104.711 82.2377 110.598 79.2216 110.945C77.8295 111.06 75.1614 111.291 70.4053 111.291C82.9337 105.519 89.662 95.1304 89.546 87.0501C95.5782 87.5118 106.019 87.0501 109.035 76.5457Z" fill="#EAEEF9"/>
<path d="M94.8821 37.5293C94.8821 37.4139 94.8821 37.4139 94.8821 37.5293L94.3021 36.9522C94.3021 36.9522 93.9541 37.0676 93.8381 37.2985H84.7897C84.7897 37.0676 84.7897 36.9522 84.7897 36.7213C84.7897 34.8744 83.1657 33.2583 81.3096 33.2583C79.4535 33.2583 77.8295 34.8744 77.8295 36.7213C77.8295 36.9522 77.8295 37.0676 77.9455 37.183H68.5491C68.0851 37.183 67.6211 37.5293 67.6211 38.2219V41.2232C67.6211 43.5319 69.2452 44.9171 71.4492 44.9171H90.7059C93.026 44.9171 94.9981 43.5319 94.9981 41.2232V38.1065C95.1141 37.8756 94.9981 37.6448 94.8821 37.5293Z" fill="#1C3754"/>
<path d="M94.534 37.5293V40.5306C94.534 40.7615 94.534 40.8769 94.534 41.1078C94.186 43.0701 92.562 44.6862 90.4739 44.6862H71.1012C69.0131 44.6862 67.389 43.0701 67.041 41.1078C67.041 40.8769 67.041 40.7615 67.041 40.5306V37.5293C67.041 37.0676 67.389 36.4905 67.969 36.4905H77.4814C77.4814 36.2596 77.4814 36.1442 77.4814 36.0287C77.4814 34.1818 79.1055 32.5657 80.9615 32.5657C82.8176 32.5657 84.4417 34.1818 84.4417 36.0287C84.4417 36.2596 84.4417 36.375 84.4417 36.4905H93.954C94.186 36.6059 94.534 36.9522 94.534 37.5293Z" fill="url(#paint0_linear_1212_52270)"/>
<path d="M80.7295 37.6448C81.6576 37.6448 82.3536 36.9522 82.3536 36.0287C82.3536 35.1053 81.6576 34.4127 80.7295 34.4127C79.8015 34.4127 79.1055 35.1053 79.1055 36.0287C79.1055 36.9522 79.9175 37.6448 80.7295 37.6448Z" fill="#EAEEF9"/>
<path d="M94.418 41.1078C94.07 43.0701 92.446 44.6862 90.3579 44.6862H71.1012C69.0131 44.6862 67.389 43.0701 67.041 41.1078H94.418Z" fill="#9AA1B2"/>
<path d="M65.1851 76.1994C67.0411 76.1994 68.4332 74.6987 68.4332 72.9672C68.4332 71.1203 66.9251 69.7351 65.1851 69.7351C63.329 69.7351 61.9369 71.2357 61.9369 72.9672C61.8209 74.6987 63.329 76.1994 65.1851 76.1994Z" fill="#989FB0"/>
<path d="M90.9378 76.0839C92.7939 76.0839 94.1859 74.5833 94.1859 72.8518C94.1859 71.0049 92.6779 69.6197 90.9378 69.6197C89.1978 69.6197 87.6897 71.1203 87.6897 72.8518C87.6897 74.5833 89.0817 76.0839 90.9378 76.0839Z" fill="#989FB0"/>
<path d="M81.1937 79.6623H74.9294V81.163H81.1937V79.6623Z" fill="#989FB0"/>
<path d="M143.72 43.1856C146.272 55.1906 145.924 67.8882 142.444 79.6624C141.632 82.0864 140.82 84.7414 139.08 86.5883C136.644 89.4741 132.235 90.7439 128.639 89.8204C124.927 88.897 121.911 85.6649 121.215 81.7401C120.635 79.3161 121.447 76.4302 123.535 74.9296C125.739 73.5444 128.871 73.8907 130.727 75.6222C132.815 77.3537 133.627 80.0086 133.511 82.5482C133.395 85.0877 132.467 87.6272 131.191 89.8204C127.363 96.9773 120.403 102.633 112.399 105.173C106.482 107.02 100.102 107.02 94.186 105.404" stroke="#C9D4E2" stroke-width="2" stroke-miterlimit="10" stroke-dasharray="4 4"/>
<path d="M148.592 39.7226C148.244 40.9923 146.852 41.4541 145.46 40.646C143.952 39.9534 142.908 39.3763 143.14 38.2219C143.488 37.0676 144.88 36.9522 146.504 36.8368C148.476 36.6059 148.824 38.4528 148.592 39.7226Z" fill="#DAE2EB"/>
<path d="M137.34 40.8769C137.92 41.9158 139.544 42.6084 140.704 41.5695C141.98 40.4152 143.024 39.6071 142.444 38.4528C141.864 37.4139 140.936 37.7602 138.964 37.9911C137.34 38.3374 136.644 39.7226 137.34 40.8769Z" fill="#DAE2EB"/>
<path d="M142.444 36.6059C143.256 36.4905 144.068 36.9522 144.3 37.6448C144.416 37.8756 144.532 38.2219 144.532 38.4528C144.764 40.0689 144.184 41.4541 143.256 41.5695C142.212 41.8004 141.168 40.646 141.052 39.1454C141.052 38.6837 141.052 38.4528 141.052 38.1065C141.168 37.2985 141.632 36.7213 142.444 36.6059C142.56 36.6059 142.444 36.6059 142.444 36.6059Z" fill="#989FB0"/>
<defs>
<filter id="filter0_d_1212_52270" x="18.7498" y="31.8393" width="113.908" height="113.029" filterUnits="userSpaceOnUse" color-interpolation-filters="sRGB">
<feFlood flood-opacity="0" result="BackgroundImageFix"/>
<feColorMatrix in="SourceAlpha" type="matrix" values="0 0 0 0 0 0 0 0 0 0 0 0 0 0 0 0 0 0 127 0" result="hardAlpha"/>
<feOffset dy="11"/>
<feGaussianBlur stdDeviation="11"/>
<feColorMatrix type="matrix" values="0 0 0 0 0.397708 0 0 0 0 0.47749 0 0 0 0 0.575 0 0 0 0.27 0"/>
<feBlend mode="normal" in2="BackgroundImageFix" result="effect1_dropShadow_1212_52270"/>
<feBlend mode="normal" in="SourceGraphic" in2="effect1_dropShadow_1212_52270" result="shape"/>
</filter>
<linearGradient id="paint0_linear_1212_52270" x1="67.0742" y1="38.6275" x2="94.5605" y2="38.6275" gradientUnits="userSpaceOnUse">
<stop stop-color="#B0BACC"/>
<stop offset="1" stop-color="#969EAE"/>
</linearGradient>
</defs>
</svg>
