<svg width="161" height="172" viewBox="0 0 161 172" fill="none" xmlns="http://www.w3.org/2000/svg">
<path d="M88.7449 138.122C119.535 138.122 144.497 113.16 144.497 82.2605C144.497 51.3605 119.425 26.3987 88.7449 26.3987C57.9549 26.3987 32.993 51.3605 32.993 82.2605C32.993 113.16 57.9549 138.122 88.7449 138.122Z" fill="#EAEEF9"/>
<path d="M140.428 45.7521C142.918 45.7521 144.937 43.7335 144.937 41.2435C144.937 38.7536 142.918 36.735 140.428 36.735C137.938 36.735 135.919 38.7536 135.919 41.2435C135.919 43.7335 137.938 45.7521 140.428 45.7521Z" fill="#EAEEF9"/>
<path d="M147.026 28.1581C148.726 28.1581 150.105 26.7796 150.105 25.0791C150.105 23.3786 148.726 22.0001 147.026 22.0001C145.325 22.0001 143.947 23.3786 143.947 25.0791C143.947 26.7796 145.325 28.1581 147.026 28.1581Z" fill="#EAEEF9"/>
<path d="M35.5221 45.6422C37.2225 45.6422 38.6011 44.2637 38.6011 42.5632C38.6011 40.8627 37.2225 39.4842 35.5221 39.4842C33.8216 39.4842 32.4431 40.8627 32.4431 42.5632C32.4431 44.2637 33.8216 45.6422 35.5221 45.6422Z" fill="#EAEEF9"/>
<path d="M16.7181 105.023C19.8762 105.023 22.4363 102.463 22.4363 99.3052C22.4363 96.1471 19.8762 93.587 16.7181 93.587C13.5601 93.587 11 96.1471 11 99.3052C11 102.463 13.5601 105.023 16.7181 105.023Z" fill="#EAEEF9"/>
<g filter="url(#filter0_d_1212_52712)">
<path d="M130.214 120.423C120.027 131.487 105.43 138.407 89.2185 138.407C76.2801 138.407 64.3708 133.999 54.9104 126.595V35.4245C54.9104 32.4087 57.3388 29.9478 60.3682 29.9478H114.514L130.214 45.7026V120.423Z" fill="url(#paint0_linear_1212_52712)"/>
</g>
<path d="M76.9047 119.267H69.0198C68.7255 119.267 68.4902 118.505 68.4902 117.59C68.4902 116.675 68.7255 115.913 69.0198 115.913H76.9047C77.1989 115.913 77.4342 116.675 77.4342 117.59C77.4342 118.657 77.1989 119.267 76.9047 119.267Z" fill="#D5DDEA"/>
<path d="M94.2556 48.8324H69.5569C68.9825 48.8324 68.4902 48.0583 68.4902 47.1553C68.4902 46.2523 68.9825 45.4783 69.5569 45.4783H94.2556C94.83 45.4783 95.3224 46.2523 95.3224 47.1553C95.3224 48.0583 94.83 48.8324 94.2556 48.8324Z" fill="#D6DCE8"/>
<path d="M75.6502 56.6583H69.2117C68.8232 56.6583 68.4902 55.8843 68.4902 54.9813C68.4902 54.0783 68.8232 53.3043 69.2117 53.3043H75.5947C75.9832 53.3043 76.3162 54.0783 76.3162 54.9813C76.3162 55.8843 75.9832 56.6583 75.6502 56.6583Z" fill="#D6DCE8"/>
<path d="M114.624 100.261H84.0098H80.6357H70.4311C70.0196 100.261 69.6082 100.959 69.6082 101.938C69.6082 102.776 69.9373 103.615 70.4311 103.615H80.6357H84.0098H114.624C115.035 103.615 115.446 102.916 115.446 101.938C115.364 100.959 115.035 100.261 114.624 100.261Z" fill="#D6DCE8"/>
<path d="M114.622 91.3165H103.245H99.3701H70.4326C70.0204 91.3165 69.6082 92.0153 69.6082 92.9935C69.6082 93.832 69.9379 94.6705 70.4326 94.6705H99.3701H103.245H114.622C115.034 94.6705 115.446 93.9718 115.446 92.9935C115.364 92.0153 115.034 91.3165 114.622 91.3165Z" fill="#D6DCE8"/>
<path d="M115.796 83.4905H112.768H109.739H70.4495C70.0288 83.4905 69.6082 84.1892 69.6082 85.1675C69.6082 86.006 69.9447 86.8445 70.4495 86.8445H109.739H113.104H115.712C116.133 86.8445 116.554 86.1457 116.554 85.1675C116.638 84.329 116.217 83.4905 115.796 83.4905Z" fill="#D6DCE8"/>
<path d="M115.73 74.5464H105.972H103.553H70.4422C70.0252 74.5464 69.6082 75.2451 69.6082 76.2234C69.6082 77.0619 69.9418 77.9004 70.4422 77.9004H103.553H105.972H115.647C116.231 77.9004 116.564 77.2017 116.564 76.2234C116.564 75.3849 116.231 74.5464 115.73 74.5464Z" fill="#D6DCE8"/>
<path d="M114.04 30.3199V43.0747C114.04 44.7316 115.383 46.0747 117.04 46.0747H130.74" fill="#D5DDEA"/>
<path d="M60.3032 109.53L54.4607 120.387L48.6182 109.53V57.368V49.8163C48.6182 48.7547 49.4838 47.8861 50.5417 47.8861H58.3798C59.4377 47.8861 60.3032 48.7547 60.3032 49.8163V109.53Z" fill="url(#paint1_linear_1212_52712)"/>
<path fill-rule="evenodd" clip-rule="evenodd" d="M48.6182 55.8611H60.3032V57.8611H48.6182V55.8611Z" fill="#AAB2C5"/>
<path fill-rule="evenodd" clip-rule="evenodd" d="M48.6182 108.53H60.3032V110.53H48.6182V108.53Z" fill="#AAB2C5"/>
<defs>
<filter id="filter0_d_1212_52712" x="32.9104" y="18.9478" width="119.303" height="152.459" filterUnits="userSpaceOnUse" color-interpolation-filters="sRGB">
<feFlood flood-opacity="0" result="BackgroundImageFix"/>
<feColorMatrix in="SourceAlpha" type="matrix" values="0 0 0 0 0 0 0 0 0 0 0 0 0 0 0 0 0 0 127 0" result="hardAlpha"/>
<feOffset dy="11"/>
<feGaussianBlur stdDeviation="11"/>
<feColorMatrix type="matrix" values="0 0 0 0 0.397708 0 0 0 0 0.47749 0 0 0 0 0.575 0 0 0 0.27 0"/>
<feBlend mode="normal" in2="BackgroundImageFix" result="effect1_dropShadow_1212_52712"/>
<feBlend mode="normal" in="SourceGraphic" in2="effect1_dropShadow_1212_52712" result="shape"/>
</filter>
<linearGradient id="paint0_linear_1212_52712" x1="92.5376" y1="27.439" x2="92.5376" y2="139.576" gradientUnits="userSpaceOnUse">
<stop stop-color="#FDFEFF"/>
<stop offset="0.9964" stop-color="#ECF0F5"/>
</linearGradient>
<linearGradient id="paint1_linear_1212_52712" x1="54.0001" y1="48" x2="54.0001" y2="109.5" gradientUnits="userSpaceOnUse">
<stop stop-color="#B0BACC"/>
<stop offset="1" stop-color="#969EAE"/>
</linearGradient>
</defs>
</svg>
