<svg width="186" height="160" viewBox="0 0 186 160" fill="none" xmlns="http://www.w3.org/2000/svg">
<path d="M96.2018 134.98C124.195 134.98 146.889 112.144 146.889 83.9747C146.889 55.805 124.195 32.969 96.2018 32.969C68.208 32.969 45.5146 55.805 45.5146 83.9747C45.5146 112.144 68.208 134.98 96.2018 134.98Z" fill="#EAEEF9"/>
<path d="M114.292 29.1872C114.75 28.7664 114.782 28.052 114.363 27.5916C113.945 27.1311 113.235 27.0989 112.778 27.5197C112.32 27.9405 112.288 28.6549 112.706 29.1153C113.125 29.5758 113.834 29.608 114.292 29.1872Z" fill="#EAEEF9"/>
<path fill-rule="evenodd" clip-rule="evenodd" d="M93.7881 134.676C93.8573 133.788 94.176 132.939 94.946 132.173C95.6993 131.424 96.4525 130.675 97.2058 129.676C98.9929 127.677 100.979 128.247 103.34 128.924C103.633 129.008 103.932 129.094 104.237 129.177C107.765 130.002 108.891 127.074 110.594 122.649C110.951 121.721 111.334 120.727 111.769 119.687C113.295 116.653 111.039 115.312 108.611 113.868C108.24 113.648 107.866 113.425 107.501 113.194C105.359 111.916 105.409 109.911 105.471 107.489C105.481 107.072 105.492 106.642 105.492 106.202C105.257 103.632 107.165 102.483 109.005 101.374C111.099 100.112 113.106 98.9034 111.769 95.7133C111.442 94.932 111.14 94.1805 110.854 93.4664C108.941 88.7022 107.698 85.6047 103.985 86.4734C103.657 86.5624 103.336 86.655 103.021 86.7456C100.69 87.4177 98.7247 87.984 96.9547 86.2236C96.4638 85.6744 95.958 85.1997 95.4811 84.7522C94.0064 83.3686 92.8088 82.2449 93.1883 79.9805C94.749 73.3281 94.33 73.1734 87.3606 70.5998C86.4811 70.275 85.4973 69.9117 84.3999 69.4919C81.1941 68.2963 80.049 70.2809 78.8477 72.3629C77.7908 74.1946 76.6904 76.1017 74.105 75.9848C73.5173 75.9848 72.9488 76.0133 72.4031 76.0407C70.1506 76.1536 68.287 76.247 67.0743 74.2367C63.4891 68.4425 63.1033 68.6145 56.1024 71.7357C55.2582 72.112 54.3178 72.5313 53.264 72.9881C49.8145 74.4584 50.717 77.3715 51.7011 80.5476C51.7198 80.6082 51.7386 80.6689 51.7574 80.7296C52.3535 83.1009 51.0629 84.3776 49.503 85.9208C49.0915 86.3279 48.6614 86.7534 48.2421 87.2225C47.499 88.0672 46.6436 88.4208 45.7354 88.5099C48.0578 113.642 68.4998 133.483 93.7881 134.676ZM67.5765 121.685C74.8583 124.432 83.1444 120.936 85.9065 113.694C88.6686 106.452 85.1532 98.2105 77.8714 95.4635C70.5896 92.7165 62.3035 96.2127 59.5414 103.455C56.7794 110.697 60.2947 118.938 67.5765 121.685Z" fill="url(#paint0_linear_1280_55616)"/>
<path d="M131.221 67.1154C131.024 64.1315 131.418 62.1423 129.447 61.9434C128.067 61.7444 127.081 61.9434 126.489 60.7498C125.898 59.5563 125.109 58.5616 125.898 57.567C127.869 54.5832 127.278 54.7821 123.926 51.5993C121.758 49.61 120.772 53.7875 118.603 52.7928C117.42 52.1961 116.237 52.1961 115.843 50.8036C115.054 47.4219 115.054 47.8197 110.323 48.0186C108.548 48.0186 108.548 49.61 108.548 51.2014C108.351 52.5939 107.365 52.7928 105.985 53.3896C103.817 54.5832 102.437 50.6047 100.465 52.7928C99.4793 53.7875 98.6907 54.7821 97.9021 55.9756C97.3106 57.567 98.6907 57.9649 99.4793 59.3573C99.4793 59.3573 99.4793 59.3573 99.4793 59.5563C99.6764 59.9541 99.4793 60.352 99.4793 60.7498C99.4793 60.9487 99.2821 61.3466 99.2821 61.5455C98.8878 62.5401 98.8878 63.3358 97.7049 63.5348C94.3533 64.1315 94.7476 64.3305 94.9448 69.1046C95.1419 72.0885 98.6907 69.9003 99.6764 72.0885C100.071 72.8842 100.859 74.0778 100.465 74.8735C100.268 75.6692 99.4793 76.2659 99.2821 77.0616C98.2964 78.852 100.071 79.8466 101.845 81.438C104.014 83.4272 105 79.2498 107.168 80.2444C109.731 81.239 109.534 80.6423 110.126 83.6261C110.52 85.6154 112.886 85.0186 115.449 84.8197C118.406 84.6208 116.237 81.0401 118.406 80.0455C118.8 79.8466 119.392 79.6477 119.786 79.4487C120.969 78.852 121.758 79.6476 122.941 80.2444C124.715 81.438 125.701 79.6477 127.672 77.2606C128.855 75.8681 127.672 74.8735 126.687 73.6799C125.898 72.6853 126.489 71.6907 126.884 70.2982C127.672 68.3089 131.418 70.0993 131.221 67.1154ZM117.617 70.895C115.252 73.481 111.309 73.8788 108.548 71.4917C105.985 69.1046 105.591 65.1262 107.957 62.3412C110.323 59.7552 114.266 59.3573 117.026 61.7444C119.589 64.1315 119.983 68.11 117.617 70.895Z" fill="url(#paint1_linear_1280_55616)"/>
<path d="M34.6934 82.9859C32.7682 83.9351 31.9677 86.271 32.9054 88.2032C33.8431 90.1354 36.164 90.9323 38.0892 89.983C40.0145 89.0338 40.815 86.6979 39.8773 84.7657C38.9396 82.8335 36.6187 82.0366 34.6934 82.9859Z" fill="#EAEEF9"/>
<path d="M110.056 139.66C108.648 139.703 107.537 140.885 107.575 142.301C107.613 143.717 108.786 144.829 110.194 144.786C111.603 144.743 112.713 143.56 112.675 142.145C112.637 140.729 111.464 139.616 110.056 139.66Z" fill="#EAEEF9"/>
<path d="M102.359 146.125C101.401 146.154 100.646 146.958 100.672 147.921C100.698 148.883 101.495 149.64 102.453 149.611C103.41 149.581 104.165 148.777 104.14 147.814C104.114 146.852 103.316 146.095 102.359 146.125Z" fill="#EAEEF9"/>
<path d="M29.536 99.5424C28.7254 99.9421 28.3883 100.926 28.7832 101.739C29.178 102.553 30.1552 102.888 30.9658 102.489C31.7765 102.089 32.1135 101.105 31.7187 100.292C31.3239 99.4782 30.3466 99.1427 29.536 99.5424Z" fill="#EAEEF9"/>
<path d="M62.2795 134.161C61.7219 134.436 61.4901 135.112 61.7617 135.672C62.0332 136.232 62.7054 136.462 63.2629 136.187C63.8205 135.913 64.0523 135.236 63.7807 134.676C63.5092 134.117 62.837 133.886 62.2795 134.161Z" fill="#EAEEF9"/>
<path d="M102.365 31.4007L90.5349 43.8402C86.8614 47.6538 80.9919 48.0992 77.3307 44.759C73.6695 41.4189 73.6113 35.6988 77.2849 31.8852L89.1145 19.4457C92.788 15.6321 98.6575 15.1867 102.319 18.5268C106.016 21.7656 106.038 27.5871 102.365 31.4007Z" fill="url(#paint2_linear_1280_55616)"/>
<path d="M99.5273 29.956C101.846 27.4599 101.75 23.6103 99.3122 21.3578C96.8747 19.1053 93.0191 19.3029 90.7004 21.799C88.3816 24.2952 88.4779 28.1447 90.9154 30.3972C93.3529 32.6497 97.2086 32.4522 99.5273 29.956Z" fill="white"/>
<g filter="url(#filter0_d_1280_55616)">
<path d="M63.956 47.3449L60.6517 50.4515C60.2586 50.8124 59.6444 50.9374 59.1161 50.764L55.1895 49.541C54.6612 49.3676 54.2189 48.8959 54.1599 48.365L53.2207 44.3994C53.0855 43.8652 53.2574 43.2685 53.6504 42.9076L56.9547 39.801C57.1906 39.5845 57.2052 39.1322 56.9841 38.8963C56.9103 38.8177 56.7604 38.7359 56.6081 38.7294C53.6473 38.3022 50.7186 39.2353 48.596 41.1839C45.9207 43.7131 44.8819 47.5195 45.9119 51.0359L23.6615 71.5358C21.7723 73.3433 21.6007 76.2804 23.4438 78.2458C25.2131 80.1326 28.1837 80.2583 29.9943 78.5229L52.4806 57.8065C55.8027 58.853 59.4145 58.0243 61.9326 55.6395C64.1338 53.6187 65.2194 50.7202 65.0077 47.8424C65.0199 47.4654 64.6464 47.2231 64.3417 47.2102C64.1894 47.2038 64.1108 47.276 63.956 47.3449ZM26.1216 75.6412C25.4581 74.9337 25.4948 73.8028 26.2023 73.1532C26.9098 72.5037 27.9762 72.5488 28.6397 73.2563C29.3032 73.9639 29.2665 75.0948 28.559 75.7443C27.8515 76.3939 26.7851 76.3488 26.1216 75.6412C26.1191 75.7166 26.1191 75.7166 26.1216 75.6412Z" fill="#D5DDEA"/>
</g>
<path opacity="0.4" d="M45.7905 55.2508L29.3613 70.1516" stroke="#D6DCE8" stroke-miterlimit="10"/>
<path opacity="0.4" d="M48.4219 58.0056L31.917 72.902" stroke="#D6DCE8" stroke-miterlimit="10"/>
<path d="M156.32 49.9886C155.976 49.7684 155.458 49.7781 154.968 49.9763C154.118 50.5402 153.04 50.2772 152.509 49.5126C152.25 49.1774 152.179 48.7065 152.323 48.2881C152.468 47.8698 152.296 47.4196 151.85 47.2202L150.931 46.6331L149.46 48.5878L131.983 37.4313C131.753 37.2845 131.609 37.0227 131.581 36.8343L131.509 36.3634C131.452 35.9866 131.208 35.7456 130.878 35.6196L126.363 33.929L124.027 37.0335L127.331 40.3339C127.575 40.5749 127.906 40.7009 128.309 40.6177L128.813 40.5138C129.115 40.4514 129.331 40.504 129.561 40.6508L147.038 51.8073L145.568 53.762L146.487 54.3492C146.832 54.5693 147.35 54.5596 147.739 54.3822C148.589 53.8183 149.667 54.0814 150.198 54.8459C150.457 55.1811 150.528 55.652 150.384 56.0704C150.239 56.4887 150.512 56.9181 150.857 57.1383L163.39 65.1386C165.345 66.3864 168.266 65.7834 169.737 63.8287C169.737 63.8287 169.823 63.7137 169.809 63.6196C171.164 61.5915 170.679 59.0691 168.724 57.8214L156.32 49.9886Z" fill="url(#paint3_linear_1280_55616)"/>
<path opacity="0.4" d="M153.47 55.7739L162.899 62.0326" stroke="#D6DCE8" stroke-miterlimit="10"/>
<path opacity="0.4" d="M155.079 53.4742L164.508 59.7328" stroke="#D6DCE8" stroke-miterlimit="10"/>
<g filter="url(#filter1_d_1280_55616)">
<path d="M145.631 84.1258L123.529 97.8394C122.328 98.5847 121.963 100.142 122.709 101.343L136.422 123.445C137.168 124.646 138.725 125.011 139.926 124.265L162.028 110.552C163.229 109.806 163.594 108.249 162.848 107.048L149.135 84.9464C148.389 83.7452 146.832 83.3805 145.631 84.1258Z" fill="#D5DDEA"/>
</g>
<path d="M147.243 93.0243L140.577 97.1607C139.397 96.063 137.705 95.6154 136.16 96.0749C133.782 96.8014 132.463 99.3669 133.249 101.707L131.147 103.011C130.607 103.347 130.425 104.125 130.76 104.666C131.133 105.266 131.911 105.449 132.452 105.113L134.554 103.809C135.659 104.787 137.179 105.091 138.544 104.744C140.936 104.175 142.39 101.692 141.821 99.3L148.548 95.1263C149.088 94.7909 149.27 94.0123 148.935 93.4718C148.622 92.834 147.844 92.6516 147.243 93.0243ZM139.51 100.401C139.539 100.716 139.47 101.008 139.305 101.277C139.222 101.412 139.199 101.509 139.079 101.584C138.936 101.756 138.853 101.89 138.673 102.002C137.749 102.658 136.521 102.422 135.865 101.498C135.828 101.438 135.828 101.438 135.79 101.378C135.194 100.417 135.528 99.2121 136.429 98.6531C137.33 98.0941 138.497 98.3676 139.116 99.2313C139.34 99.5916 139.504 99.9892 139.51 100.401ZM153.839 103.655L151.797 104.922C150.617 103.824 148.925 103.376 147.38 103.836C145.003 104.562 143.743 107.091 144.47 109.468L137.743 113.642C137.143 114.014 136.96 114.793 137.333 115.394C137.706 115.994 138.484 116.177 139.085 115.804L145.812 111.63C146.917 112.608 148.377 112.95 149.802 112.565C152.194 111.996 153.648 109.513 153.079 107.121L155.181 105.817C155.781 105.444 155.964 104.666 155.591 104.065C155.218 103.464 154.44 103.282 153.839 103.655ZM150.389 107.21C150.687 107.69 150.67 108.2 150.556 108.686C150.533 108.784 150.451 108.918 150.428 109.015C150.345 109.15 150.322 109.247 150.239 109.382C150.156 109.517 150.096 109.554 150.013 109.688C149.953 109.726 149.893 109.763 149.833 109.8C149.773 109.837 149.713 109.875 149.653 109.912C149.533 109.987 149.413 110.061 149.255 110.076C149.195 110.113 149.135 110.15 149.038 110.127C148.266 110.357 147.315 110.032 146.831 109.251C146.384 108.53 146.431 107.669 146.883 107.056C147.026 106.884 147.109 106.75 147.289 106.638C147.349 106.6 147.409 106.563 147.469 106.526C148.43 105.93 149.635 106.263 150.194 107.164C150.411 107.112 150.449 107.172 150.389 107.21Z" fill="white"/>
<defs>
<filter id="filter0_d_1280_55616" x="0.149414" y="27.6274" width="86.8838" height="85.1194" filterUnits="userSpaceOnUse" color-interpolation-filters="sRGB">
<feFlood flood-opacity="0" result="BackgroundImageFix"/>
<feColorMatrix in="SourceAlpha" type="matrix" values="0 0 0 0 0 0 0 0 0 0 0 0 0 0 0 0 0 0 127 0" result="hardAlpha"/>
<feOffset dy="11"/>
<feGaussianBlur stdDeviation="11"/>
<feColorMatrix type="matrix" values="0 0 0 0 0.397708 0 0 0 0 0.47749 0 0 0 0 0.575 0 0 0 0.27 0"/>
<feBlend mode="normal" in2="BackgroundImageFix" result="effect1_dropShadow_1280_55616"/>
<feBlend mode="normal" in="SourceGraphic" in2="effect1_dropShadow_1280_55616" result="shape"/>
</filter>
<filter id="filter1_d_1280_55616" x="100.322" y="72.7394" width="84.9121" height="84.9124" filterUnits="userSpaceOnUse" color-interpolation-filters="sRGB">
<feFlood flood-opacity="0" result="BackgroundImageFix"/>
<feColorMatrix in="SourceAlpha" type="matrix" values="0 0 0 0 0 0 0 0 0 0 0 0 0 0 0 0 0 0 127 0" result="hardAlpha"/>
<feOffset dy="11"/>
<feGaussianBlur stdDeviation="11"/>
<feColorMatrix type="matrix" values="0 0 0 0 0.397708 0 0 0 0 0.47749 0 0 0 0 0.575 0 0 0 0.27 0"/>
<feBlend mode="normal" in2="BackgroundImageFix" result="effect1_dropShadow_1280_55616"/>
<feBlend mode="normal" in="SourceGraphic" in2="effect1_dropShadow_1280_55616" result="shape"/>
</filter>
<linearGradient id="paint0_linear_1280_55616" x1="79.0058" y1="71.4078" x2="79.0058" y2="108.198" gradientUnits="userSpaceOnUse">
<stop stop-color="#B0BACC"/>
<stop offset="1" stop-color="#969EAE"/>
</linearGradient>
<linearGradient id="paint1_linear_1280_55616" x1="113.027" y1="49.1833" x2="113.027" y2="70.0451" gradientUnits="userSpaceOnUse">
<stop stop-color="#B0BACC"/>
<stop offset="1" stop-color="#969EAE"/>
</linearGradient>
<linearGradient id="paint2_linear_1280_55616" x1="85.0049" y1="21.9027" x2="91.0862" y2="33.5136" gradientUnits="userSpaceOnUse">
<stop stop-color="#B0BACC"/>
<stop offset="1" stop-color="#969EAE"/>
</linearGradient>
<linearGradient id="paint3_linear_1280_55616" x1="144.673" y1="31.5425" x2="149.128" y2="53.1253" gradientUnits="userSpaceOnUse">
<stop stop-color="#B0BACC"/>
<stop offset="1" stop-color="#969EAE"/>
</linearGradient>
</defs>
</svg>
