<svg width="161" height="175" viewBox="0 0 161 175" fill="none" xmlns="http://www.w3.org/2000/svg">
<path d="M75.3585 132.356C103.289 132.356 125.933 109.712 125.933 81.6811C125.933 53.6506 103.19 31.0068 75.3585 31.0068C47.4278 31.0068 24.7839 53.6506 24.7839 81.6811C24.7839 109.712 47.4278 132.356 75.3585 132.356Z" fill="#EAEEF9"/>
<path d="M111.298 37.3868C113.557 37.3868 115.388 35.5557 115.388 33.297C115.388 31.0382 113.557 29.2071 111.298 29.2071C109.039 29.2071 107.208 31.0382 107.208 33.297C107.208 35.5557 109.039 37.3868 111.298 37.3868Z" fill="#EAEEF9"/>
<path d="M94.8344 24.5862C96.3769 24.5862 97.6274 23.3356 97.6274 21.7931C97.6274 20.2505 96.3769 19 94.8344 19C93.2918 19 92.0413 20.2505 92.0413 21.7931C92.0413 23.3356 93.2918 24.5862 94.8344 24.5862Z" fill="#EAEEF9"/>
<path d="M27.0783 48.4636C28.6209 48.4636 29.8714 47.2131 29.8714 45.6705C29.8714 44.1279 28.6209 42.8774 27.0783 42.8774C25.5358 42.8774 24.2853 44.1279 24.2853 45.6705C24.2853 47.2131 25.5358 48.4636 27.0783 48.4636Z" fill="#F1F3F9"/>
<path d="M25.1871 122.27C28.0519 122.27 30.3743 119.947 30.3743 117.083C30.3743 114.218 28.0519 111.895 25.1871 111.895C22.3224 111.895 20 114.218 20 117.083C20 119.947 22.3224 122.27 25.1871 122.27Z" fill="#EAEEF9"/>
<g filter="url(#filter0_d_1950_90447)">
<path d="M95.7828 105.545L90.836 107.205C90.3616 105.748 88.803 105.002 87.346 105.477C85.8891 105.951 85.1098 107.51 85.618 108.967L80.6372 110.627C80.1629 109.17 78.6043 108.391 77.1473 108.899C75.6904 109.373 74.9449 110.932 75.4193 112.389L70.4385 114.049C70.0658 112.931 69.0493 112.219 67.9312 112.186C67.6263 112.186 67.2874 112.219 66.9486 112.321C65.4916 112.795 64.7123 114.354 65.2206 115.811L60.2737 117.471C58.8167 113.134 54.1409 110.796 49.8039 112.253C49.6684 112.287 49.5667 112.355 49.4312 112.389L27.3058 46.6902C27.4413 46.6563 27.5768 46.6224 27.6785 46.5885C32.0155 45.1315 34.3534 40.4218 32.8964 36.1187L37.8433 34.4585C38.3177 35.9154 39.8763 36.6947 41.3332 36.1865C42.7902 35.7121 43.5356 34.1535 43.0613 32.6966L48.0081 31.0363C48.4825 32.4933 50.075 33.2726 51.4981 32.7643C52.955 32.29 53.7343 30.7314 53.2261 29.2744L58.173 27.6142C58.6473 29.0711 60.2059 29.8165 61.6629 29.3422C63.1199 28.8678 63.8653 27.3092 63.3909 25.8523L68.4056 24.1581C69.8625 28.4951 74.5383 30.7991 78.8753 29.3422L87.1766 54.0088L101.001 95.0748C96.6638 96.5317 94.3259 101.208 95.7828 105.545Z" fill="url(#paint0_linear_1950_90447)"/>
</g>
<path d="M89.2435 95.6507L59.1217 105.782C57.7326 106.256 56.2078 105.511 55.7335 104.088L37.369 49.5362C36.8946 48.147 37.6401 46.6223 39.0631 46.148L69.1849 36.017C70.5741 35.5427 72.0989 36.2881 72.5732 37.7112L90.9377 92.2624C91.412 93.6516 90.6327 95.1763 89.2435 95.6507Z" fill="#F1F3F9" stroke="#D6DCE8" stroke-width="2" stroke-miterlimit="10"/>
<path d="M40.2827 58.2442L75.5208 46.3852" stroke="#D6DCE8" stroke-width="2" stroke-miterlimit="10" stroke-linejoin="round"/>
<path d="M50.3799 48.8587L61.7984 45.0299" stroke="#D6DCE8" stroke-width="2" stroke-miterlimit="10" stroke-linecap="round" stroke-linejoin="round"/>
<path d="M52.7856 95.312L87.9898 83.453" stroke="#D6DCE8" stroke-width="2" stroke-miterlimit="10" stroke-linejoin="round"/>
<path d="M72.1168 65.9242L69.8128 70.3628C69.6773 70.6339 69.6773 70.9388 69.8128 71.176L72.1846 75.5808C72.4218 76.0213 72.2524 76.5295 71.8119 76.7667C71.6425 76.8683 71.4392 76.9022 71.2359 76.8683L66.289 76.089C65.9841 76.0551 65.713 76.1229 65.5097 76.3601L62.0537 79.9855C61.7148 80.3244 61.1727 80.3583 60.8 80.0194C60.6645 79.8839 60.5628 79.7145 60.5289 79.5112L59.7496 74.5643C59.7157 74.2932 59.5124 74.0222 59.2753 73.9205L54.7689 71.752C54.3284 71.5487 54.159 71.0066 54.3623 70.5661C54.43 70.3967 54.5995 70.2612 54.7689 70.1595L59.2414 67.8894C59.5125 67.7539 59.6819 67.5167 59.7157 67.2117L60.3934 62.2649C60.4612 61.7905 60.9016 61.4517 61.376 61.5194C61.5793 61.5533 61.7487 61.6211 61.8842 61.7566L65.4081 65.2804C65.6114 65.4837 65.9163 65.5854 66.1874 65.5176L71.1342 64.6028C71.6086 64.5011 72.083 64.84 72.1507 65.3143C72.2524 65.5515 72.2185 65.7548 72.1168 65.9242Z" fill="url(#paint1_linear_1950_90447)"/>
<path d="M66.4744 96.6334L77.859 92.8047" stroke="#D6DCE8" stroke-width="2" stroke-miterlimit="10" stroke-linecap="round" stroke-linejoin="round"/>
<g filter="url(#filter1_d_1950_90447)">
<path d="M132.681 65.4273L124.448 134.277C119.907 133.735 115.808 136.988 115.265 141.494L110.081 140.884C110.251 139.36 109.167 138.004 107.676 137.835C106.151 137.665 104.796 138.75 104.626 140.24L99.4422 139.631C99.6116 138.106 98.5274 136.751 97.0365 136.581C95.5118 136.412 94.1565 137.496 93.9871 138.987L88.803 138.377C88.9724 136.852 87.8882 135.497 86.3974 135.327C84.8726 135.158 83.5173 136.242 83.3479 137.733L78.1638 137.123C78.706 132.583 75.4532 128.483 70.9468 127.941C70.8113 127.941 70.6757 127.907 70.5402 127.907L78.7737 59.0573C78.9093 59.0912 79.0448 59.0912 79.1803 59.1251C83.7206 59.6672 87.8204 56.4145 88.3626 51.9081L93.5466 52.518C93.3772 54.0427 94.4615 55.398 95.9523 55.5674C97.4431 55.7368 98.8323 54.6526 99.0018 53.1617L104.186 53.7716C104.016 55.2963 105.101 56.6517 106.591 56.8211C108.116 56.9905 109.472 55.9062 109.641 54.4154L114.825 55.0253C114.656 56.55 115.74 57.9053 117.231 58.0747C118.755 58.2441 120.111 57.1599 120.28 55.6691L125.464 56.2789C124.888 60.7854 128.141 64.8852 132.681 65.4273Z" fill="url(#paint2_linear_1950_90447)"/>
</g>
<path d="M113.605 129.737L82.0265 125.976C80.5695 125.806 79.5192 124.451 79.6886 122.994L86.5329 65.8339C86.7023 64.377 88.0576 63.3266 89.5146 63.496L121.093 67.257C122.55 67.4264 123.601 68.7817 123.431 70.2387L116.621 127.399C116.417 128.856 115.062 129.906 113.605 129.737Z" fill="#F1F3F9" stroke="#D6DCE8" stroke-width="2" stroke-miterlimit="10"/>
<path d="M85.4151 74.9484L122.313 79.3532" stroke="#D6DCE8" stroke-width="2" stroke-miterlimit="10" stroke-linejoin="round"/>
<path d="M98.5613 70.8148L110.522 72.2378" stroke="#D6DCE8" stroke-width="2" stroke-miterlimit="10" stroke-linecap="round" stroke-linejoin="round"/>
<path d="M92.598 120.894L104.525 122.317" stroke="#D6DCE8" stroke-width="2" stroke-miterlimit="10" stroke-linecap="round" stroke-linejoin="round"/>
<path d="M80.7729 113.812L117.671 118.217" stroke="#D6DCE8" stroke-width="2" stroke-miterlimit="10" stroke-linejoin="round"/>
<path d="M110.879 95.5377L106.881 98.5871C106.643 98.7566 106.508 99.0276 106.542 99.3326L106.813 104.313C106.847 104.788 106.474 105.228 105.966 105.228C105.762 105.228 105.593 105.194 105.424 105.059L101.29 102.213C101.053 102.043 100.748 102.009 100.477 102.111L95.8009 103.907C95.3604 104.076 94.8182 103.873 94.6488 103.398C94.5811 103.229 94.5811 103.026 94.615 102.822L96.038 98.045C96.1058 97.774 96.0719 97.469 95.8686 97.2318L92.7175 93.3353C92.4126 92.9626 92.4803 92.4205 92.853 92.0816C92.9886 91.9461 93.1919 91.8784 93.3952 91.8784L98.4098 91.7428C98.7148 91.7428 98.9519 91.5734 99.1214 91.3362L101.866 87.1686C102.137 86.7621 102.679 86.6604 103.086 86.8976C103.255 86.9992 103.357 87.1686 103.424 87.3381L105.085 92.0478C105.186 92.3188 105.424 92.5221 105.695 92.5899L110.54 93.8774C111.014 94.013 111.285 94.4873 111.184 94.9617C111.15 95.2666 111.048 95.436 110.879 95.5377Z" fill="url(#paint3_linear_1950_90447)"/>
<path d="M130.479 52.4842L131.868 48.9943" stroke="#AAB2C5" stroke-width="3" stroke-miterlimit="10" stroke-linecap="round"/>
<path d="M133.901 55.8385L139.695 51.3321" stroke="#AAB2C5" stroke-width="3" stroke-miterlimit="10" stroke-linecap="round"/>
<path d="M136.679 60.0062L140 59.4641" stroke="#AAB2C5" stroke-width="3" stroke-miterlimit="10" stroke-linecap="round"/>
<defs>
<filter id="filter0_d_1950_90447" x="5.30576" y="13.1581" width="117.695" height="137.313" filterUnits="userSpaceOnUse" color-interpolation-filters="sRGB">
<feFlood flood-opacity="0" result="BackgroundImageFix"/>
<feColorMatrix in="SourceAlpha" type="matrix" values="0 0 0 0 0 0 0 0 0 0 0 0 0 0 0 0 0 0 127 0" result="hardAlpha"/>
<feOffset dy="11"/>
<feGaussianBlur stdDeviation="11"/>
<feColorMatrix type="matrix" values="0 0 0 0 0.397708 0 0 0 0 0.47749 0 0 0 0 0.575 0 0 0 0.27 0"/>
<feBlend mode="normal" in2="BackgroundImageFix" result="effect1_dropShadow_1950_90447"/>
<feBlend mode="normal" in="SourceGraphic" in2="effect1_dropShadow_1950_90447" result="shape"/>
</filter>
<filter id="filter1_d_1950_90447" x="48.5402" y="40.9081" width="106.141" height="133.586" filterUnits="userSpaceOnUse" color-interpolation-filters="sRGB">
<feFlood flood-opacity="0" result="BackgroundImageFix"/>
<feColorMatrix in="SourceAlpha" type="matrix" values="0 0 0 0 0 0 0 0 0 0 0 0 0 0 0 0 0 0 127 0" result="hardAlpha"/>
<feOffset dy="11"/>
<feGaussianBlur stdDeviation="11"/>
<feColorMatrix type="matrix" values="0 0 0 0 0.397708 0 0 0 0 0.47749 0 0 0 0 0.575 0 0 0 0.27 0"/>
<feBlend mode="normal" in2="BackgroundImageFix" result="effect1_dropShadow_1950_90447"/>
<feBlend mode="normal" in="SourceGraphic" in2="effect1_dropShadow_1950_90447" result="shape"/>
</filter>
<linearGradient id="paint0_linear_1950_90447" x1="64.1293" y1="21.9997" x2="64.1293" y2="118.477" gradientUnits="userSpaceOnUse">
<stop stop-color="#FDFEFF"/>
<stop offset="0.9964" stop-color="#ECF0F5"/>
</linearGradient>
<linearGradient id="paint1_linear_1950_90447" x1="54.2687" y1="70.8861" x2="72.2953" y2="70.8861" gradientUnits="userSpaceOnUse">
<stop stop-color="#B0BACC"/>
<stop offset="1" stop-color="#969EAE"/>
</linearGradient>
<linearGradient id="paint2_linear_1950_90447" x1="101.59" y1="49.8359" x2="101.59" y2="142.46" gradientUnits="userSpaceOnUse">
<stop stop-color="#FDFEFF"/>
<stop offset="0.9964" stop-color="#ECF0F5"/>
</linearGradient>
<linearGradient id="paint3_linear_1950_90447" x1="92.5169" y1="96.0019" x2="111.208" y2="96.0019" gradientUnits="userSpaceOnUse">
<stop stop-color="#B0BACC"/>
<stop offset="1" stop-color="#969EAE"/>
</linearGradient>
</defs>
</svg>
