<svg width="161" height="160" viewBox="0 0 161 160" fill="none" xmlns="http://www.w3.org/2000/svg">
<path d="M135.04 71.2473C135.04 84.6663 130.257 96.8719 122.263 106.437C112.199 118.499 97.0667 126.137 80.0788 126.137C63.8047 126.137 49.2436 119.07 39.1794 107.864C30.5427 98.1567 25.2607 85.3087 25.2607 71.2473C25.2607 40.9118 49.8147 16.3579 80.1502 16.3579C110.486 16.3579 135.04 40.9118 135.04 71.2473Z" fill="#EAEEF9"/>
<path d="M122.334 106.437C112.27 118.499 97.1381 126.137 80.1502 126.137C63.8761 126.137 49.315 119.07 39.2508 107.864C40.9638 106.508 43.1052 105.295 45.7461 104.224L47.7447 103.439C51.5277 101.94 56.4528 100.084 63.0909 97.3002C64.5898 96.6578 65.8033 95.5158 66.4457 94.0168C66.8025 93.2317 67.0167 92.3038 67.0167 91.3759V79.0275C66.8025 78.742 66.5884 78.5279 66.4457 78.2424C65.375 76.6721 64.6612 74.8163 64.4471 72.8177L63.3764 72.318C60.1644 73.1032 60.3786 69.6771 59.5934 63.1103C59.2365 60.398 59.6648 59.827 60.8782 59.3987L61.8775 58.0425C55.739 44.1239 58.8082 35.4158 64.8753 32.3466C62.8768 27.9211 62.734 26.3508 62.734 26.3508C62.734 26.3508 75.6534 28.4922 80.1502 27.6356C85.789 26.4936 94.4971 27.8498 97.7091 35.3444C103.062 37.4857 105.204 40.8405 105.632 44.5521C106.417 50.4051 103.062 56.8291 102.42 59.3273C102.491 59.4701 102.563 59.5414 102.563 59.6128C103.419 60.0411 103.705 60.7549 103.419 63.1103C102.634 69.3202 102.848 73.1746 99.6363 72.318L96.7812 77.3145C96.6384 77.8855 96.6384 78.0996 96.567 78.5279C96.4243 79.4558 96.4957 81.3116 96.4957 91.5186C96.4957 92.732 96.8525 93.8741 97.4949 94.9448C98.2087 96.0154 99.208 96.9433 100.493 97.443C100.493 97.443 100.564 97.443 100.636 97.5144C107.987 100.584 113.269 102.582 117.124 104.081C119.122 104.723 120.835 105.58 122.334 106.437Z" fill="white"/>
<path d="M102.563 59.2559C102.848 57.6856 102.134 55.7584 101.563 54.4022C101.492 54.1881 101.349 53.974 101.278 53.6885C98.7797 48.692 93.2836 46.6935 88.0017 46.4079C74.5113 45.6942 73.2979 48.2638 69.0866 44.4094C70.3714 46.4079 70.5142 49.4772 68.5156 53.3316C67.088 56.0439 64.3757 57.2574 62.0202 58.0425C55.8818 44.1239 58.951 35.4158 65.0181 32.3466C63.0195 27.9211 62.8768 26.3508 62.8768 26.3508C62.8768 26.3508 75.7961 28.4922 80.2215 27.6356C85.8604 26.4936 94.5684 27.8498 97.7804 35.3444C103.134 37.4857 105.204 40.8405 105.703 44.5521C106.489 50.3337 103.205 56.6863 102.563 59.2559Z" fill="url(#paint0_linear_1209_47734)"/>
<path d="M97.6377 94.802V97.2289H66.4457V94.0882C66.8025 93.3031 67.0167 92.3752 67.0167 91.4473V79.0276C66.8025 78.742 66.5884 78.5279 66.4457 78.2424V77.5286C67.0881 78.6707 67.9446 79.7413 69.0152 80.5979L78.794 87.3787C81.0781 89.3059 84.3614 89.3773 86.7169 87.5215L95.8532 79.3131C96.1388 79.0276 96.4956 78.742 96.7812 78.4565C96.6384 79.3844 96.7098 81.2403 96.7098 91.4473C96.6384 92.6607 96.9953 93.8741 97.6377 94.802Z" fill="url(#paint1_linear_1209_47734)"/>
<path d="M101.973 127.488C101.559 129.249 100.937 131.114 100.212 132.667C98.2443 136.5 95.1368 139.504 91.3043 141.472C87.3682 143.44 82.707 144.269 78.0457 143.233C67.066 140.954 60.0224 130.181 62.3012 119.202C64.58 108.222 75.249 101.075 86.2288 103.457C90.1649 104.286 93.5831 106.254 96.4834 108.947C101.352 113.815 103.423 120.859 101.973 127.488Z" fill="url(#paint2_linear_1209_47734)"/>
<path d="M88.6111 121.584H83.9499V116.923C83.9499 115.99 83.2249 115.162 82.189 115.162C81.2568 115.162 80.4281 115.887 80.4281 116.923V121.584H75.7669C74.8347 121.584 74.006 122.309 74.006 123.345C74.006 124.38 74.7311 125.106 75.7669 125.106H80.4281V129.767C80.4281 130.699 81.1532 131.528 82.189 131.528C83.1213 131.528 83.9499 130.803 83.9499 129.767V125.106H88.6111C89.5434 125.106 90.3721 124.38 90.3721 123.345C90.3721 122.309 89.5434 121.584 88.6111 121.584Z" fill="white"/>
<defs>
<linearGradient id="paint0_linear_1209_47734" x1="58.6487" y1="42.807" x2="105.832" y2="42.807" gradientUnits="userSpaceOnUse">
<stop stop-color="#B0BACC"/>
<stop offset="1" stop-color="#969EAE"/>
</linearGradient>
<linearGradient id="paint1_linear_1209_47734" x1="82.0511" y1="97.3488" x2="82.0511" y2="86.496" gradientUnits="userSpaceOnUse">
<stop stop-color="white"/>
<stop offset="1" stop-color="#E2E5EC"/>
</linearGradient>
<linearGradient id="paint2_linear_1209_47734" x1="61.8545" y1="123.344" x2="102.435" y2="123.344" gradientUnits="userSpaceOnUse">
<stop stop-color="#B0BACC"/>
<stop offset="1" stop-color="#969EAE"/>
</linearGradient>
</defs>
</svg>
