<svg width="20" height="20" viewBox="0 0 20 20" fill="none" xmlns="http://www.w3.org/2000/svg">
<path d="M9.97506 18.9583C5.04172 18.9583 1.01672 14.9417 1.01672 9.99999C1.01672 5.05832 5.04172 1.04166 9.97506 1.04166C14.9084 1.04166 18.9334 5.05832 18.9334 9.99999C18.9334 14.9417 14.9167 18.9583 9.97506 18.9583ZM9.97506 2.29166C5.72506 2.29166 2.26672 5.74999 2.26672 9.99999C2.26672 14.25 5.72506 17.7083 9.97506 17.7083C14.2251 17.7083 17.6834 14.25 17.6834 9.99999C17.6834 5.74999 14.2251 2.29166 9.97506 2.29166Z" fill="#202C38"/>
<path d="M9.99998 16.0417C8.20831 16.0417 6.52498 15.1667 5.49998 13.6917C5.29998 13.4083 5.37498 13.0167 5.65831 12.825C5.94165 12.625 6.33331 12.7 6.52498 12.9833C7.31665 14.1167 8.61665 14.8 9.99998 14.8C11.3833 14.8 12.6833 14.125 13.475 12.9833C13.675 12.7 14.0583 12.6333 14.3416 12.825C14.625 13.025 14.6916 13.4083 14.5 13.6917C13.475 15.1667 11.7916 16.0417 9.99998 16.0417Z" fill="#202C38"/>
</svg>
