<svg width="22" height="20" viewBox="0 0 22 20" fill="none" xmlns="http://www.w3.org/2000/svg">
<path d="M11 19.65C10.69 19.65 10.39 19.61 10.14 19.52C6.32 18.21 0.25 13.56 0.25 6.69C0.25 3.19 3.08 0.349998 6.56 0.349998C8.25 0.349998 9.83 1.01 11 2.19C12.17 1.01 13.75 0.349998 15.44 0.349998C18.92 0.349998 21.75 3.2 21.75 6.69C21.75 13.57 15.68 18.21 11.86 19.52C11.61 19.61 11.31 19.65 11 19.65ZM6.56 1.85C3.91 1.85 1.75 4.02 1.75 6.69C1.75 13.52 8.32 17.32 10.63 18.11C10.81 18.17 11.2 18.17 11.38 18.11C13.68 17.32 20.26 13.53 20.26 6.69C20.26 4.02 18.1 1.85 15.45 1.85C13.93 1.85 12.52 2.56 11.61 3.79C11.33 4.17 10.69 4.17 10.41 3.79C9.48 2.55 8.08 1.85 6.56 1.85Z" fill="#202C38"/>
</svg>
