<svg width="29" height="28" viewBox="0 0 29 28" fill="none" xmlns="http://www.w3.org/2000/svg">
<g clip-path="url(#clip0_3818_28049)">
<path fill-rule="evenodd" clip-rule="evenodd" d="M1.06572 18.0899C1.18975 17.7798 1.49004 17.5765 1.82398 17.5765H26.4261C26.76 17.5765 27.0603 17.7799 27.1843 18.0899L28.063 20.2865C28.1448 20.4912 28.1405 20.7203 28.0509 20.9217C27.9613 21.1232 27.7941 21.2798 27.5872 21.3561C23.1507 22.9919 18.6276 23.6031 14.125 23.6031C9.6268 23.6031 5.09928 22.992 0.662769 21.3561C0.455934 21.2798 0.288717 21.1232 0.199127 20.9217C0.109538 20.7203 0.105185 20.4912 0.187059 20.2865L1.06572 18.0899ZM2.37689 19.2099L2.01932 20.1038C5.98671 21.4505 10.0468 21.9698 14.125 21.9698C18.2072 21.9698 22.2637 21.4505 26.2307 20.1038L25.8732 19.2099H2.37689Z" fill="#202C38"/>
<path fill-rule="evenodd" clip-rule="evenodd" d="M9.79373 5.21352C9.79373 4.76248 10.1594 4.39685 10.6104 4.39685H17.6396C18.0906 4.39685 18.4563 4.76248 18.4563 5.21352V12.2427C18.4563 12.6938 18.0906 13.0594 17.6396 13.0594C17.1886 13.0594 16.8229 12.6938 16.8229 12.2427V6.03018H11.4271V12.2427C11.4271 12.6938 11.0614 13.0594 10.6104 13.0594C10.1594 13.0594 9.79373 12.6938 9.79373 12.2427V5.21352Z" fill="#202C38"/>
<path fill-rule="evenodd" clip-rule="evenodd" d="M11.3875 7.27056C11.5262 7.69972 11.2908 8.1601 10.8616 8.29884C6.85005 9.59568 3.88238 13.2189 3.55025 17.5766H24.6998C24.3681 13.2186 21.4037 9.59569 17.3886 8.29891C16.9594 8.16028 16.7238 7.69997 16.8625 7.27077C17.0011 6.84157 17.4614 6.60601 17.8906 6.74463C22.8089 8.33312 26.3641 12.9467 26.3641 18.3933C26.3641 18.8443 25.9984 19.2099 25.5474 19.2099H2.70258C2.25155 19.2099 1.88592 18.8443 1.88592 18.3933C1.88592 12.9463 5.44569 8.33312 10.3592 6.7447C10.7884 6.60596 11.2487 6.84139 11.3875 7.27056Z" fill="#202C38"/>
</g>
<defs>
<clipPath id="clip0_3818_28049">
<rect width="28" height="28" fill="white" transform="translate(0.125)"/>
</clipPath>
</defs>
</svg>
