<svg width="72" height="72" viewBox="0 0 72 72" fill="none" xmlns="http://www.w3.org/2000/svg">
<g clip-path="url(#clip0_1860_88191)">
<rect width="72" height="72" rx="4" fill="#FFF4D9"/>
<circle cx="36" cy="36" r="36" fill="#FFF4D9"/>
<path opacity="0.5" d="M51 28.1876V43.8124C51 45.7126 49.4626 47.25 47.5624 47.25H24.4376C24.1249 47.25 23.8251 47.2125 23.55 47.125C22.0751 46.7375 21 45.3999 21 43.8124V28.1876C21 26.2874 22.5374 24.75 24.4376 24.75H47.5624C49.4626 24.75 51 26.2874 51 28.1876V28.1876Z" fill="#F5B102"/>
<path opacity="0.5" d="M29.7499 31.0001C29.7499 32.3807 28.6307 33.4999 27.2501 33.4999C25.8692 33.4999 24.75 32.3807 24.75 31.0001C24.75 29.6192 25.8692 28.5 27.2501 28.5C28.6307 28.5 29.7499 29.6192 29.7499 31.0001Z" fill="#F5B102"/>
<path d="M51 40.9284V43.8157C51 45.7159 49.4626 47.2533 47.5624 47.2533H24.4375C24.1249 47.2533 23.825 47.2157 23.5499 47.1283L38.825 31.8532C39.6749 31.0034 41.075 31.0034 41.925 31.8532L51 40.9284Z" fill="#F5B102"/>
<path d="M42.3249 47.2496H24.4376C24.1249 47.2496 23.8251 47.2121 23.55 47.1247C22.0751 46.7372 21 45.3996 21 43.812V43.4246L28.1999 36.2246C29.05 35.3745 30.4501 35.3745 31.2999 36.2246L42.3249 47.2496Z" fill="#FFC42C"/>
</g>
<defs>
<clipPath id="clip0_1860_88191">
<rect width="72" height="72" rx="4" fill="white"/>
</clipPath>
</defs>
</svg>
