<svg width="24" height="24" viewBox="0 0 24 24" fill="none" xmlns="http://www.w3.org/2000/svg">
<path d="M19.0711 4.92893C17.1957 3.05357 14.6522 2 12 2C9.34784 2 6.8043 3.05357 4.92893 4.92893C3.05357 6.8043 2 9.34784 2 12C2 14.6522 3.05357 17.1957 4.92893 19.0711C6.8043 20.9464 9.34784 22 12 22C14.6522 22 17.1957 20.9464 19.0711 19.0711C20.9465 17.1957 22 14.6522 22 12C22 9.34784 20.9465 6.8043 19.0711 4.92893ZM15.7361 14.7933C16.3402 13.9873 16.6666 13.0072 16.6666 12C16.6666 10.9928 16.3402 10.0127 15.7361 9.20672L18.5785 6.36431C19.9258 7.93287 20.6666 9.93222 20.6666 12C20.6666 14.0678 19.9258 16.0671 18.5785 17.6357L15.7361 14.7933ZM8.66667 12C8.66667 11.3407 8.86218 10.6963 9.22844 10.1481C9.59472 9.59995 10.1153 9.1727 10.7244 8.92041C11.3335 8.66812 12.0037 8.60211 12.6503 8.73073C13.2969 8.85934 13.8908 9.17681 14.357 9.64299C14.8232 10.1092 15.1407 10.7031 15.2693 11.3497C15.3979 11.9963 15.3319 12.6665 15.0796 13.2757C14.8273 13.8847 14.4001 14.4053 13.8519 14.7716C13.3037 15.1379 12.6593 15.3333 12 15.3333C11.1163 15.3324 10.269 14.9808 9.64409 14.3559C9.01919 13.731 8.66768 12.8837 8.66667 12ZM17.6357 5.42152L14.7933 8.26393C13.9873 7.65986 13.0072 7.33335 12 7.33335C10.9928 7.33335 10.0127 7.65986 9.20672 8.26393L6.3643 5.42152C7.93286 4.07416 9.93222 3.33335 12 3.33335C14.0678 3.33335 16.0672 4.07416 17.6357 5.42152ZM5.42151 6.36431L8.26393 9.20672C7.65986 10.0127 7.33334 10.9928 7.33334 12C7.33334 13.0072 7.65986 13.9873 8.26393 14.7933L5.42151 17.6357C4.07417 16.0671 3.33335 14.0678 3.33335 12C3.33335 9.93222 4.07417 7.93287 5.42151 6.36431ZM6.3643 18.5785L9.20672 15.7361C10.0127 16.3402 10.9928 16.6667 12 16.6667C13.0072 16.6667 13.9873 16.3402 14.7933 15.7361L17.6357 18.5785C16.0672 19.9259 14.0678 20.6667 12 20.6667C9.93222 20.6667 7.93286 19.9259 6.3643 18.5785Z" fill="#202C38"/>
</svg>
