<svg width="24" height="24" viewBox="0 0 24 24" fill="none" xmlns="http://www.w3.org/2000/svg">
<rect width="24" height="24" rx="12" fill="#FF8900"/>
<path d="M17.7467 9.63341C17.0467 6.55341 14.36 5.16675 12 5.16675C12 5.16675 12 5.16675 11.9933 5.16675C9.64 5.16675 6.94667 6.54675 6.24667 9.62675C5.46667 13.0667 7.57333 15.9801 9.48 17.8134C10.1867 18.4934 11.0933 18.8334 12 18.8334C12.9067 18.8334 13.8133 18.4934 14.5133 17.8134C16.42 15.9801 18.5267 13.0734 17.7467 9.63341ZM12 12.9734C10.84 12.9734 9.9 12.0334 9.9 10.8734C9.9 9.71341 10.84 8.77341 12 8.77341C13.16 8.77341 14.1 9.71341 14.1 10.8734C14.1 12.0334 13.16 12.9734 12 12.9734Z" fill="white"/>
</svg>
