<svg width="68" height="68" viewBox="0 0 68 68" fill="none" xmlns="http://www.w3.org/2000/svg">
<path d="M34 64.8125C43.3888 64.8125 51 61.7205 51 57.9062C51 54.092 43.3888 51 34 51C24.6112 51 17 54.092 17 57.9062C17 61.7205 24.6112 64.8125 34 64.8125Z" fill="#E9EEF2"/>
<path d="M39.3125 59.5H28.6875C28.4057 59.5 28.1355 59.3881 27.9362 59.1888C27.7369 58.9895 27.625 58.7193 27.625 58.4375C27.625 58.1557 27.7369 57.8855 27.9362 57.6862C28.1355 57.4869 28.4057 57.375 28.6875 57.375H39.3125C39.5943 57.375 39.8645 57.4869 40.0638 57.6862C40.2631 57.8855 40.375 58.1557 40.375 58.4375C40.375 58.7193 40.2631 58.9895 40.0638 59.1888C39.8645 59.3881 39.5943 59.5 39.3125 59.5Z" fill="#C3C6C7"/>
<path d="M53.125 22.3125C53.125 32.8749 34 58.4375 34 58.4375C34 58.4375 14.875 32.8749 14.875 22.3125C14.875 17.2402 16.8899 12.3757 20.4766 8.78908C24.0632 5.20245 28.9277 3.1875 34 3.1875C39.0723 3.1875 43.9368 5.20245 47.5234 8.78908C51.1101 12.3757 53.125 17.2402 53.125 22.3125Z" fill="#EB423F"/>
<path d="M34 35.0625C41.0416 35.0625 46.75 29.3541 46.75 22.3125C46.75 15.2709 41.0416 9.5625 34 9.5625C26.9584 9.5625 21.25 15.2709 21.25 22.3125C21.25 29.3541 26.9584 35.0625 34 35.0625Z" fill="white"/>
<path d="M34 26.5625C36.934 26.5625 39.3125 24.184 39.3125 21.25C39.3125 18.316 36.934 15.9375 34 15.9375C31.066 15.9375 28.6875 18.316 28.6875 21.25C28.6875 24.184 31.066 26.5625 34 26.5625Z" fill="#F7D1B2"/>
<path d="M42.7365 31.5974C40.372 33.8231 37.2473 35.0625 34.0001 35.0625C30.7529 35.0625 27.6281 33.8231 25.2637 31.5974C27.1815 28.5547 30.3796 26.5625 34.0001 26.5625C37.6205 26.5625 40.8187 28.5547 42.7365 31.5974Z" fill="#F7D1B2"/>
</svg>
