<svg width="25" height="25" viewBox="0 0 25 25" fill="none" xmlns="http://www.w3.org/2000/svg">
<path d="M21.5739 18.3052H20.814V10.4385C20.814 6.70252 16.9343 3.61872 13.2813 3.22399V2.34375C13.2813 1.91231 12.9318 1.5625 12.5 1.5625C12.0682 1.5625 11.7188 1.91231 11.7188 2.34375V3.22094C8.07595 3.60637 4.186 6.6956 4.186 10.4385V18.3052H3.42611C2.99429 18.3052 2.64486 18.655 2.64486 19.0865C2.64486 19.5179 2.99429 19.8677 3.42611 19.8677H21.5739C22.0057 19.8677 22.3551 19.5179 22.3551 19.0865C22.3551 18.655 22.0057 18.3052 21.5739 18.3052ZM5.7485 18.3052V10.4385C5.7485 7.29713 9.34601 4.74167 12.5122 4.74167C15.654 4.74167 19.2515 7.29713 19.2515 10.4385V18.3052H5.7485Z" />
<path d="M14.9612 21.875H10.0128C9.58099 21.875 9.23157 22.2248 9.23157 22.6562C9.23157 23.0877 9.58099 23.4375 10.0128 23.4375H14.9612C15.3931 23.4375 15.7425 23.0877 15.7425 22.6562C15.7425 22.2248 15.3931 21.875 14.9612 21.875Z" />
</svg>
