<svg width="33" height="32" viewBox="0 0 33 32" fill="none" xmlns="http://www.w3.org/2000/svg">
<g id="vuesax/outline/receipt-text">
<g id="vuesax/outline/receipt-text_2">
<g id="receipt-text">
<path id="Vector" d="M24.5804 16.0572H20.78C20.3244 16.0572 19.9465 15.6793 19.9465 15.2237V7.45609C19.9465 6.63376 20.2688 5.867 20.8466 5.28915C21.4245 4.7113 22.1913 4.38904 23.0136 4.38904H23.0247C24.4138 4.40015 25.725 4.94466 26.7251 5.93368C27.7253 6.94491 28.2698 8.27841 28.2698 9.66748V12.3567C28.2809 14.5681 26.7918 16.0572 24.5804 16.0572ZM21.6134 14.3903H24.5804C25.8695 14.3903 26.614 13.6458 26.614 12.3567V9.66748C26.614 8.7118 26.2362 7.80058 25.5583 7.1116C24.8805 6.44485 23.9804 6.06703 23.0247 6.05591C23.0247 6.05591 23.0247 6.05591 23.0136 6.05591C22.6469 6.05591 22.2913 6.20038 22.0246 6.46708C21.7579 6.73378 21.6134 7.07826 21.6134 7.45609V14.3903Z" fill="#202C38"/>
<path id="Vector_2" d="M13.001 28.9254C12.4787 28.9254 11.9897 28.7254 11.623 28.3476L9.77831 26.4918C9.6783 26.3918 9.52278 26.3807 9.41165 26.4696L7.51139 27.892C6.92243 28.3365 6.14453 28.4143 5.47778 28.0809C4.81103 27.7475 4.3999 27.0808 4.3999 26.3362V9.66748C4.3999 6.3115 6.32236 4.38904 9.67834 4.38904H23.0133C23.469 4.38904 23.8468 4.76686 23.8468 5.22248C23.8468 5.67809 23.469 6.05591 23.0133 6.05591C22.2466 6.05591 21.6243 6.67821 21.6243 7.44498V26.3362C21.6243 27.0808 21.2131 27.7475 20.5463 28.0809C19.8907 28.4143 19.1018 28.3365 18.5128 27.892L16.6125 26.4696C16.5014 26.3807 16.3458 26.4029 16.2569 26.4918L14.39 28.3587C14.0122 28.7254 13.5233 28.9254 13.001 28.9254ZM9.56717 24.7471C10.0783 24.7471 10.5784 24.9361 10.9562 25.325L12.8009 27.1808C12.8676 27.2475 12.9565 27.2586 13.001 27.2586C13.0454 27.2586 13.1343 27.2475 13.201 27.1808L15.0679 25.3139C15.7568 24.6249 16.8459 24.5582 17.6127 25.1472L19.5018 26.5585C19.624 26.6474 19.7351 26.614 19.7907 26.5807C19.8462 26.5474 19.9463 26.4807 19.9463 26.3362V7.44498C19.9463 6.94491 20.0685 6.46708 20.2796 6.05591H9.66722C7.20024 6.05591 6.05565 7.2005 6.05565 9.66748V26.3362C6.05565 26.4918 6.15568 26.5585 6.21125 26.5918C6.27792 26.6252 6.38906 26.6474 6.50018 26.5585L8.40037 25.1361C8.74486 24.8805 9.15601 24.7471 9.56717 24.7471Z" fill="#202C38"/>
<path id="Vector_3" d="M16.335 13.8347H9.66748C9.21187 13.8347 8.83405 13.4569 8.83405 13.0013C8.83405 12.5457 9.21187 12.1678 9.66748 12.1678H16.335C16.7906 12.1678 17.1684 12.5457 17.1684 13.0013C17.1684 13.4569 16.7906 13.8347 16.335 13.8347Z" fill="#F5B102"/>
<path id="Vector_4" d="M15.5015 18.2797H10.5009C10.0453 18.2797 9.66748 17.9018 9.66748 17.4462C9.66748 16.9906 10.0453 16.6128 10.5009 16.6128H15.5015C15.9572 16.6128 16.335 16.9906 16.335 17.4462C16.335 17.9018 15.9572 18.2797 15.5015 18.2797Z" fill="#F5B102"/>
</g>
</g>
</g>
</svg>
