<svg width="29" height="28" viewBox="0 0 29 28" fill="none" xmlns="http://www.w3.org/2000/svg">
<path d="M14.2919 26.5417C13.3703 26.5417 12.4953 26.0634 11.8886 25.2467L10.6986 23.6834C10.4536 23.3567 10.127 23.17 9.77695 23.1467C9.43862 23.1234 9.07698 23.2867 8.78531 23.5783C7.78198 24.6517 6.80192 25.165 5.88025 25.1417C5.25025 25.1184 4.70193 24.8383 4.28193 24.325C4.23526 24.2667 4.18861 24.185 4.15361 24.1034C3.69861 23.1234 3.4886 21.7934 3.4886 19.7984V8.22502C3.4886 6.23002 3.69861 4.91169 4.15361 3.92002C4.18861 3.85002 4.22359 3.78002 4.28193 3.72168C4.69026 3.19668 5.23865 2.91669 5.86865 2.88169C6.80198 2.84669 7.79364 3.38335 8.77364 4.43335C9.0653 4.74835 9.41527 4.90002 9.76527 4.87669C10.1153 4.85335 10.4419 4.66669 10.6869 4.34002L11.8769 2.76502C12.4836 1.94835 13.3586 1.47002 14.2803 1.47002C15.2019 1.47002 16.0769 1.94835 16.6836 2.76502L17.8619 4.32835C18.1069 4.66668 18.4453 4.85335 18.8069 4.87669C19.1453 4.90002 19.5069 4.73668 19.7986 4.43335C20.7552 3.40668 21.7003 2.88169 22.6103 2.88169C23.2636 2.88169 23.8703 3.17335 24.2903 3.72168C24.337 3.78002 24.3836 3.85002 24.4186 3.93168C24.8736 4.91168 25.0836 6.24169 25.0836 8.23669V19.81C25.0836 21.805 24.8736 23.1233 24.4186 24.115C24.3719 24.22 24.3136 24.3134 24.232 24.395C23.8703 24.8617 23.2753 25.1533 22.6103 25.1533C21.7003 25.1533 20.7552 24.6284 19.7986 23.6017C19.5186 23.2984 19.1336 23.135 18.8069 23.1583C18.4453 23.1817 18.1186 23.3684 17.8619 23.7067L16.6836 25.27C16.0886 26.0634 15.2136 26.5417 14.2919 26.5417ZM9.71863 21.385C9.7653 21.385 9.82364 21.385 9.87031 21.385C10.7336 21.4317 11.5386 21.8867 12.0869 22.6217L13.277 24.1967C13.8486 24.9667 14.7119 24.9667 15.2836 24.2084L16.4619 22.645C17.0219 21.8984 17.8386 21.455 18.702 21.4083C19.5653 21.3617 20.4286 21.7234 21.0586 22.4C21.9219 23.3217 22.4469 23.3917 22.5869 23.3917C22.6803 23.3917 22.762 23.3684 22.8436 23.2984C23.1703 22.5634 23.3103 21.455 23.3103 19.7984V8.22502C23.3103 6.59168 23.1586 5.48335 22.8436 4.74835C22.7503 4.64335 22.6569 4.63169 22.5869 4.63169C22.4469 4.63169 21.9219 4.70168 21.0586 5.62335C20.4286 6.30002 19.5653 6.66168 18.702 6.61502C17.827 6.56835 17.0103 6.11335 16.4503 5.37835L15.272 3.81502C14.7003 3.04502 13.8369 3.04502 13.2653 3.81502L12.0753 5.40169C11.5269 6.13669 10.722 6.58002 9.85863 6.62669C8.99529 6.67335 8.13194 6.31169 7.50194 5.64669C6.79027 4.87669 6.24198 4.62002 5.93864 4.63169C5.86864 4.63169 5.78695 4.65502 5.69362 4.74835C5.37862 5.48335 5.22692 6.59168 5.22692 8.22502V19.7984C5.22692 21.4434 5.37862 22.5517 5.69362 23.2867C5.79862 23.38 5.86864 23.3917 5.93864 23.4033C6.23031 23.415 6.77859 23.1584 7.49026 22.4C8.10859 21.735 8.91363 21.385 9.71863 21.385Z" fill="#202C38"/>
<path d="M19.5417 12.8333H10.2083C9.72999 12.8333 9.33333 12.4367 9.33333 11.9583C9.33333 11.48 9.72999 11.0833 10.2083 11.0833H19.5417C20.02 11.0833 20.4167 11.48 20.4167 11.9583C20.4167 12.4367 20.02 12.8333 19.5417 12.8333Z" fill="#202C38"/>
<path d="M17.2083 16.9167H10.2083C9.72999 16.9167 9.33333 16.52 9.33333 16.0417C9.33333 15.5633 9.72999 15.1667 10.2083 15.1667H17.2083C17.6867 15.1667 18.0833 15.5633 18.0833 16.0417C18.0833 16.52 17.6867 16.9167 17.2083 16.9167Z" fill="#202C38"/>
</svg>
