<svg width="27" height="28" viewBox="0 0 27 28" fill="none" xmlns="http://www.w3.org/2000/svg">
<g id="Group 1">
<g id="Group">
<g id="Group_2">
<path id="Vector" d="M25.6945 20.6872C23.3074 18.3001 23.4639 18.4513 23.3967 18.4017L17.078 13.7365L19.5292 11.2854C21.5 11.9877 23.7313 11.5022 25.233 10.0005C26.869 8.36447 27.2985 5.86321 26.3016 3.77651C26.0693 3.29032 25.425 3.1802 25.0444 3.56084L23.0237 5.58159C22.7191 5.88613 22.2237 5.88618 21.9189 5.58159C21.6136 5.27628 21.6136 4.78222 21.9189 4.47691L23.9397 2.4561C24.3207 2.07514 24.2099 1.43096 23.7241 1.19894C21.6374 0.202079 19.1362 0.631536 17.5001 2.26753C15.998 3.76958 15.5131 6.001 16.2151 7.97127L13.3881 10.798C12.8126 10.3503 13.5721 11.115 8.151 5.36671L8.71928 4.79842C9.07872 4.43903 9.00381 3.83725 8.56884 3.57626L4.38502 1.06594C3.2883 0.4079 1.89079 0.579912 0.986401 1.4843C0.082062 2.38864 -0.090002 3.78625 0.56804 4.88292L3.07836 9.06679C3.33977 9.5026 3.94181 9.57595 4.30052 9.21724L4.83646 8.6813C10.2295 14.3998 9.51964 13.6231 9.94597 14.1713C9.95608 14.1842 9.96733 14.1957 9.97806 14.2079L7.47128 16.7144C5.50112 16.0124 3.26954 16.4973 1.76759 17.9994C0.131551 19.6354 -0.297906 22.1366 0.699003 24.2234C0.931391 24.7096 1.57558 24.8196 1.95622 24.439L3.97697 22.4182C4.28166 22.1137 4.77712 22.1138 5.08171 22.4182C5.38703 22.7236 5.38703 23.2176 5.08171 23.5229L3.06086 25.5437C2.67985 25.9247 2.7907 26.5689 3.27653 26.801C4.02656 27.1593 4.82995 27.3333 5.6277 27.3333C7.04933 27.3332 8.45251 26.7803 9.50052 25.7324C11.0026 24.2303 11.4875 21.9989 10.7855 20.0286L12.9263 17.8879L17.9108 23.9453C17.9487 23.9913 17.8236 23.8632 20.0529 26.0925C20.8645 26.9041 21.9434 27.3248 23.0044 27.3248C23.7829 27.3248 24.5517 27.0981 25.1975 26.6331C27.1683 25.2137 27.4006 22.3932 25.6945 20.6872ZM5.4212 7.02427C5.11839 6.70322 4.61074 6.69759 4.30052 7.00786L3.90321 7.40512L1.90767 4.07912C1.61918 3.5983 1.69456 2.98553 2.09109 2.58899C2.48762 2.19241 3.1004 2.11708 3.58117 2.40557L6.90716 4.40116L6.50985 4.79837C6.21109 5.09713 6.20401 5.5793 6.49391 5.88665C12.7228 12.4915 11.743 11.4976 12.2748 11.9112L11.0893 13.0966C10.6796 12.5697 11.6309 13.6088 5.4212 7.02427ZM9.31189 19.2926C9.07779 19.5268 9.01668 19.883 9.15942 20.1817C9.87148 21.6722 9.56455 23.4589 8.39583 24.6276C7.64705 25.3764 6.64477 25.7714 5.62906 25.7713C5.44637 25.7713 5.26331 25.7586 5.08114 25.7327L6.18635 24.6275C7.1022 23.7117 7.10236 22.2293 6.18635 21.3134C5.27269 20.3997 3.78589 20.3997 2.87223 21.3134L1.76702 22.4186C1.59782 21.2238 1.98883 19.9874 2.87223 19.104C4.04099 17.9352 5.82758 17.6284 7.31808 18.3404C7.61678 18.4831 7.97294 18.4221 8.20715 18.1879L17.6886 8.70709C17.9228 8.47298 17.9839 8.11677 17.8412 7.81801C17.1291 6.32757 17.436 4.54088 18.6048 3.37216C19.4883 2.48866 20.7246 2.0977 21.9193 2.26695L20.8141 3.37216C20.3715 3.81475 20.1277 4.4033 20.1277 5.02925C20.1277 5.6552 20.3715 6.24365 20.8141 6.68634C21.7278 7.60005 23.2146 7.6 24.1283 6.68634L25.2335 5.58113C25.4027 6.77589 25.0117 8.01232 24.1283 8.89572C22.9595 10.0645 21.1729 10.3714 19.6824 9.65935C19.3838 9.51667 19.0275 9.57772 18.7933 9.81183L9.31189 19.2926ZM14.0329 16.7813L15.9608 14.8536L17.9257 16.3043L15.5781 18.6518C13.982 16.7122 14.0816 16.8291 14.0329 16.7813ZM24.2844 25.3654C23.3733 26.0215 22.029 25.8594 21.1575 24.9878L19.093 22.9234L16.5754 19.8639L19.1966 17.2427L22.4217 19.6238L24.5898 21.7919C25.5807 22.7828 25.5171 24.4776 24.2844 25.3654Z" fill="#202C38"/>
</g>
</g>
<g id="Group_3">
<g id="Group_4">
<path id="Vector_2" d="M23.4716 22.7621L20.347 19.6375C20.042 19.3324 19.5473 19.3324 19.2423 19.6375C18.9372 19.9425 18.9372 20.4371 19.2423 20.7422L22.3669 23.8668C22.6719 24.1718 23.1665 24.1718 23.4716 23.8668C23.7766 23.5617 23.7766 23.0672 23.4716 22.7621Z" fill="#F5B102"/>
</g>
</g>
</g>
</svg>
