<svg width="23" height="23" viewBox="0 0 23 23" fill="none" xmlns="http://www.w3.org/2000/svg">
<path fill-rule="evenodd" clip-rule="evenodd" d="M15.3731 1.68801C15.3684 1.6856 15.3577 1.68104 15.3385 1.67766C13.0869 1.28224 10.688 1.95426 8.95095 3.69133C7.04566 5.59662 6.42153 8.29901 7.08228 10.7282C7.25465 11.3621 7.10152 12.097 6.55846 12.5825L6.55689 12.5839L2.0485 16.6431C1.74071 16.9203 1.26645 16.8954 0.989306 16.5876C0.712156 16.2798 0.737019 15.8056 1.04488 15.5284L5.5558 11.4669L5.55841 11.4646C5.62606 11.4042 5.67751 11.2787 5.63484 11.122C4.83872 8.1949 5.58931 4.93166 7.89029 2.63067C9.98773 0.533233 12.8854 -0.276108 15.598 0.20027C16.2662 0.317635 16.7124 0.799546 16.852 1.36311C16.988 1.91215 16.8342 2.52556 16.3915 2.96827L13.0585 6.30129C12.9971 6.36268 12.972 6.45152 12.9921 6.53598L13.604 9.10605C13.6258 9.19779 13.6975 9.26949 13.7893 9.29132L16.3593 9.90323C16.4438 9.92338 16.5327 9.89821 16.594 9.83683L19.9271 6.5038C20.3698 6.06109 20.9832 5.90729 21.5322 6.04331C22.0958 6.1829 22.5777 6.62912 22.6951 7.29737C23.1714 10.0099 22.3621 12.9076 20.2647 15.005C17.9637 17.306 14.7004 18.0566 11.7734 17.2605C11.6166 17.2178 11.4911 17.2693 11.4308 17.3369L11.4285 17.3395L7.36697 21.8505C7.08979 22.1583 6.61553 22.1832 6.30773 21.906C5.99985 21.6289 5.97503 21.1546 6.25215 20.8468L10.3114 16.3384L10.3126 16.337C10.7982 15.7939 11.5332 15.6406 12.1671 15.813C14.5963 16.4738 17.2987 15.8497 19.204 13.9444C20.9411 12.2073 21.6131 9.8084 21.2177 7.55683C21.2143 7.5376 21.2097 7.52699 21.2073 7.52221C21.2049 7.51741 21.2016 7.51375 21.2016 7.51375C21.1995 7.51152 21.1913 7.50416 21.1715 7.4993C21.1304 7.48911 21.0569 7.4953 20.9877 7.56446L17.6547 10.8975C17.225 11.3272 16.6031 11.5032 16.0119 11.3625L13.4419 10.7506C12.7994 10.5976 12.2978 10.0959 12.1447 9.45346L11.5329 6.88341C11.3921 6.29222 11.5681 5.67034 11.9978 5.24063L15.3309 1.90761C15.4 1.83845 15.4062 1.76497 15.396 1.7238C15.3911 1.70402 15.3838 1.69588 15.3816 1.69368C15.3816 1.69368 15.3779 1.69043 15.3731 1.68801Z"/>
</svg>
