<svg width="29" height="28" viewBox="0 0 29 28" fill="none" xmlns="http://www.w3.org/2000/svg">
<path d="M26.0417 8.45834H19.0417C18.5633 8.45834 18.1667 8.06167 18.1667 7.58334C18.1667 7.105 18.5633 6.70834 19.0417 6.70834H26.0417C26.52 6.70834 26.9167 7.105 26.9167 7.58334C26.9167 8.06167 26.52 8.45834 26.0417 8.45834Z" fill="#202C38"/>
<path d="M7.375 8.45834H2.70833C2.23 8.45834 1.83333 8.06167 1.83333 7.58334C1.83333 7.105 2.23 6.70834 2.70833 6.70834H7.375C7.85333 6.70834 8.25 7.105 8.25 7.58334C8.25 8.06167 7.85333 8.45834 7.375 8.45834Z" fill="#202C38"/>
<path d="M12.0417 12.5417C9.31167 12.5417 7.08333 10.3133 7.08333 7.58333C7.08333 4.85333 9.31167 2.625 12.0417 2.625C14.7717 2.625 17 4.85333 17 7.58333C17 10.3133 14.7717 12.5417 12.0417 12.5417ZM12.0417 4.375C10.2683 4.375 8.83333 5.81 8.83333 7.58333C8.83333 9.35667 10.2683 10.7917 12.0417 10.7917C13.815 10.7917 15.25 9.35667 15.25 7.58333C15.25 5.81 13.815 4.375 12.0417 4.375Z" fill="#202C38"/>
<path d="M26.0417 21.2917H21.375C20.8967 21.2917 20.5 20.895 20.5 20.4167C20.5 19.9383 20.8967 19.5417 21.375 19.5417H26.0417C26.52 19.5417 26.9167 19.9383 26.9167 20.4167C26.9167 20.895 26.52 21.2917 26.0417 21.2917Z" fill="#202C38"/>
<path d="M9.70833 21.2917H2.70833C2.23 21.2917 1.83333 20.895 1.83333 20.4167C1.83333 19.9383 2.23 19.5417 2.70833 19.5417H9.70833C10.1867 19.5417 10.5833 19.9383 10.5833 20.4167C10.5833 20.895 10.1867 21.2917 9.70833 21.2917Z" fill="#202C38"/>
<path d="M16.7083 25.375C13.9783 25.375 11.75 23.1467 11.75 20.4167C11.75 17.6867 13.9783 15.4583 16.7083 15.4583C19.4383 15.4583 21.6667 17.6867 21.6667 20.4167C21.6667 23.1467 19.4383 25.375 16.7083 25.375ZM16.7083 17.2083C14.935 17.2083 13.5 18.6433 13.5 20.4167C13.5 22.19 14.935 23.625 16.7083 23.625C18.4817 23.625 19.9167 22.19 19.9167 20.4167C19.9167 18.6433 18.4817 17.2083 16.7083 17.2083Z" fill="#202C38"/>
</svg>
