<svg width="20" height="20" viewBox="0 0 20 20" fill="none" xmlns="http://www.w3.org/2000/svg">
<path d="M10 17.7084H5.83334C2.79167 17.7084 1.04167 15.9584 1.04167 12.9168V7.08343C1.04167 4.04176 2.79167 2.29176 5.83334 2.29176H14.1667C17.2083 2.29176 18.9583 4.04176 18.9583 7.08343V9.58343C18.9583 9.9251 18.675 10.2084 18.3333 10.2084C17.9917 10.2084 17.7083 9.9251 17.7083 9.58343V7.08343C17.7083 4.7001 16.55 3.54176 14.1667 3.54176H5.83334C3.45001 3.54176 2.29167 4.7001 2.29167 7.08343V12.9168C2.29167 15.3001 3.45001 16.4584 5.83334 16.4584H10C10.3417 16.4584 10.625 16.7418 10.625 17.0834C10.625 17.4251 10.3417 17.7084 10 17.7084Z" fill="#202C38"/>
<path d="M9.99981 10.7251C9.29981 10.7251 8.59148 10.5084 8.04981 10.0667L5.44148 7.98339C5.17481 7.76672 5.12481 7.37507 5.34148 7.1084C5.55815 6.84173 5.9498 6.80007 6.21647 7.0084L8.82481 9.09174C9.45814 9.60007 10.5331 9.60007 11.1665 9.09174L13.7748 7.0084C14.0415 6.79174 14.4331 6.8334 14.6498 7.1084C14.8665 7.37507 14.8248 7.77506 14.5498 7.98339L11.9415 10.0667C11.4081 10.5084 10.6998 10.7251 9.99981 10.7251Z" fill="#202C38"/>
<path d="M13.1834 18.1501C12.8667 18.1501 12.5667 18.0334 12.35 17.8167C12.0917 17.5584 11.975 17.1834 12.0334 16.7917L12.1917 15.6667C12.2334 15.3751 12.4084 15.0251 12.6167 14.8167L15.5667 11.8667C15.9667 11.4667 16.3584 11.2584 16.7834 11.2167C17.3 11.1667 17.8167 11.3834 18.3 11.8667C18.7834 12.3501 19 12.8584 18.95 13.3834C18.9084 13.8001 18.6917 14.2001 18.3 14.6001L15.35 17.5501C15.1417 17.7584 14.7917 17.9334 14.5 17.9751L13.375 18.1334C13.3084 18.1417 13.25 18.1501 13.1834 18.1501ZM16.925 12.4584C16.9167 12.4584 16.9084 12.4584 16.9 12.4584C16.7834 12.4668 16.625 12.5751 16.45 12.7501L13.5 15.7001C13.475 15.7251 13.4334 15.8084 13.4334 15.8417L13.2834 16.8834L14.325 16.7334C14.3584 16.7251 14.4417 16.6834 14.4667 16.6584L17.4167 13.7084C17.5917 13.5251 17.7 13.3751 17.7084 13.2584C17.725 13.0917 17.5584 12.8917 17.4167 12.7501C17.2834 12.6167 17.0917 12.4584 16.925 12.4584Z" fill="#202C38"/>
<path d="M17.4334 15.2084C17.3751 15.2084 17.3167 15.2 17.2667 15.1834C16.1667 14.875 15.2917 14 14.9834 12.9C14.8917 12.5667 15.0834 12.225 15.4167 12.125C15.7501 12.0334 16.0917 12.225 16.1834 12.5584C16.3751 13.2417 16.9167 13.7834 17.6001 13.975C17.9334 14.0667 18.1251 14.4167 18.0334 14.75C17.9584 15.025 17.7084 15.2084 17.4334 15.2084Z" fill="#202C38"/>
</svg>
