<svg width="12" height="12" viewBox="0 0 12 12" fill="none" xmlns="http://www.w3.org/2000/svg">
<path d="M9.45245 7.35339C9.30137 7.49981 9.23195 7.71156 9.26637 7.91922L9.78495 10.7892C9.8287 11.0325 9.72604 11.2786 9.52245 11.4192C9.32295 11.5651 9.05754 11.5826 8.83995 11.4659L6.25637 10.1184C6.16654 10.0706 6.06679 10.0449 5.9647 10.042H5.80662C5.75179 10.0501 5.69812 10.0676 5.64912 10.0945L3.06495 11.4484C2.9372 11.5126 2.79254 11.5353 2.65079 11.5126C2.30545 11.4472 2.07504 11.1182 2.13162 10.7711L2.65079 7.90114C2.6852 7.69172 2.61579 7.47881 2.4647 7.33006L0.358287 5.28839C0.18212 5.11747 0.12087 4.86081 0.20137 4.62922C0.279537 4.39822 0.479037 4.22964 0.719954 4.19172L3.61912 3.77114C3.83962 3.74839 4.03329 3.61422 4.13245 3.41589L5.40995 0.796723C5.44029 0.738389 5.47937 0.684723 5.52662 0.639223L5.57912 0.598389C5.60654 0.568056 5.63804 0.542973 5.67304 0.522556L5.73662 0.499223L5.83579 0.458389H6.08137C6.3007 0.481139 6.49379 0.612389 6.5947 0.808389L7.88912 3.41589C7.98245 3.60664 8.16387 3.73906 8.37329 3.77114L11.2725 4.19172C11.5175 4.22672 11.7222 4.39589 11.8033 4.62922C11.8797 4.86314 11.8138 5.11981 11.6341 5.28839L9.45245 7.35339Z" fill="#F5B102"/>
</svg>
