<svg width="23" height="21" viewBox="0 0 23 21" xmlns="http://www.w3.org/2000/svg">
<path fill-rule="evenodd" clip-rule="evenodd" d="M2.87329 11.0524L2.85714 18.5801C2.85567 19.1651 3.08791 19.7274 3.5017 20.1419C3.91476 20.5564 4.4763 20.7894 5.06208 20.7894H18.2887C18.8738 20.7894 19.4346 20.5571 19.8476 20.1434C20.2614 19.7303 20.4937 19.1695 20.4937 18.5845V11.0465C21.7784 10.593 22.7001 9.3671 22.7001 7.92728C22.7001 7.07911 21.4741 3.5005 20.8259 1.6998C20.5201 0.809009 19.6823 0.210007 18.74 0.210007C15.8493 0.210007 7.62714 0.210007 4.66812 0.210007C3.70603 0.210007 2.85493 0.834003 2.56535 1.75126L0.836669 7.22611C0.586041 8.01989 0.683074 8.88202 1.10495 9.60009C1.49963 10.2726 2.12582 10.793 2.87329 11.0524ZM19.0237 11.2141C18.1358 11.1156 17.3538 10.6651 16.8202 10.0051C16.2139 10.7547 15.2863 11.2347 14.2478 11.2347C13.2093 11.2347 12.2818 10.7547 11.6754 10.0051C11.069 10.7547 10.1415 11.2347 9.10298 11.2347C8.06445 11.2347 7.13691 10.7547 6.53055 10.0051C5.9999 10.6607 5.22377 11.1105 4.34253 11.2126L4.3271 18.583C4.3271 18.7778 4.40426 18.9652 4.54171 19.1034C4.67988 19.2415 4.86657 19.3194 5.06208 19.3194H8.73549V16.3795C8.73549 15.1617 9.72256 14.1746 10.9404 14.1746H12.4104C13.6282 14.1746 14.6153 15.1617 14.6153 16.3795V19.3194H18.2887C18.4835 19.3194 18.6702 19.2423 18.8084 19.1041C18.9465 18.9667 19.0237 18.7792 19.0237 18.5845V11.2141ZM13.1454 19.3194H10.2054V16.3795C10.2054 15.9738 10.5347 15.6446 10.9404 15.6446H12.4104C12.8161 15.6446 13.1454 15.9738 13.1454 16.3795V19.3194ZM3.96694 2.19372C4.06396 1.88797 4.34767 1.67996 4.66812 1.67996H18.74C19.0553 1.67996 19.3353 1.88134 19.436 2.17974L19.4382 2.18636C20.0395 3.85329 21.2301 7.14379 21.2301 7.92728C21.2301 8.94155 20.4069 9.76472 19.3927 9.76472C18.3784 9.76472 17.5552 8.94155 17.5552 7.92728C17.5552 6.81452 16.0853 6.81452 16.0853 7.92728C16.0853 8.94155 15.2621 9.76472 14.2478 9.76472C13.2336 9.76472 12.4104 8.94155 12.4104 7.92728C12.4104 6.82775 10.9404 6.82775 10.9404 7.92728C10.9404 8.94155 10.1172 9.76472 9.10298 9.76472C8.08871 9.76472 7.26553 8.94155 7.26553 7.92728C7.26553 6.82702 5.79557 6.82702 5.79557 7.92728C5.79557 8.94155 4.9724 9.76472 3.95813 9.76472C3.28268 9.76472 2.69177 9.39944 2.37205 8.85556C2.16185 8.49689 2.11334 8.06545 2.23828 7.66856L3.96694 2.19372Z" />
</svg>
