<svg width="29" height="28" viewBox="0 0 29 28" fill="none" xmlns="http://www.w3.org/2000/svg">
<path d="M19.9016 15.0222L18.3479 13.4686L22.4539 9.3627L22.9856 9.89441C23.3299 10.2387 23.9093 10.1709 24.1621 9.74957L27.3525 4.43237C27.53 4.13649 27.4833 3.75774 27.2394 3.51379L25.1124 1.38692C24.8685 1.14292 24.4897 1.09635 24.1939 1.27382L18.8766 4.46415C18.457 4.71592 18.3865 5.29535 18.7318 5.64066L19.2636 6.17237L15.1576 10.2783L13.604 8.72467C14.1509 6.68136 13.5931 4.45969 12.0463 2.9129C10.1116 0.978189 7.21527 0.671979 4.95023 1.89205C4.74098 2.0048 4.59735 2.20979 4.56281 2.44497C4.52831 2.68014 4.60702 2.91777 4.77512 3.08586L7.59718 5.90792C7.8904 6.20114 7.8904 6.67821 7.59718 6.97133C7.30395 7.26456 6.82694 7.26461 6.53372 6.97133L3.71166 4.14922C3.54356 3.98113 3.30588 3.90237 3.07076 3.93691C2.83559 3.9714 2.6306 4.11508 2.51785 4.32433C1.30239 6.5809 1.59747 9.47911 3.5388 11.4204C5.08213 12.9637 7.30265 13.5262 9.35056 12.9781L9.84056 13.4681L2.89465 20.4141C1.42446 21.8843 1.42356 24.2604 2.89465 25.7316C4.36067 27.1975 6.74603 27.1976 8.2121 25.7316L15.158 18.7855L15.6481 19.2756C15.1012 21.3189 15.659 23.5406 17.2057 25.0874C19.1405 27.0221 22.0368 27.3283 24.3018 26.1083C24.5111 25.9955 24.6547 25.7905 24.6893 25.5554C24.7238 25.3202 24.645 25.0826 24.4769 24.9145L21.6549 22.0924C21.3617 21.7992 21.3617 21.3221 21.6549 21.029C21.9481 20.7358 22.4252 20.7358 22.7183 21.029L25.5404 23.8511C25.7085 24.0191 25.9461 24.0978 26.1813 24.0634C26.4165 24.0289 26.6215 23.8852 26.7342 23.6759C27.9497 21.4194 27.6546 18.5212 25.7133 16.5799C24.17 15.0366 21.9495 14.4741 19.9016 15.0222ZM24.4642 2.86553L25.7607 4.16205L23.368 8.1499L20.4763 5.25825L24.4642 2.86553ZM20.327 7.23583L21.3904 8.29924L17.2845 12.4051L16.221 11.3417L20.327 7.23583ZM7.14864 24.6682C6.26902 25.5478 4.83773 25.5478 3.95806 24.6682C3.07547 23.7856 3.07492 22.3608 3.95806 21.4776L10.9039 14.5316L14.0945 17.7222L7.14864 24.6682ZM25.8017 21.9855L23.7818 19.9656C22.9023 19.0861 21.4711 19.0861 20.5915 19.9656C19.712 20.8451 19.712 22.2763 20.5915 23.1559L22.6114 25.1758C21.0767 25.5948 19.4272 25.1819 18.2692 24.024C17.0436 22.7984 16.6275 20.9508 17.2091 19.3169C17.3064 19.0434 17.2377 18.7383 17.0324 18.533L10.0932 11.5939C9.88833 11.389 9.58343 11.3196 9.3093 11.4171C7.67538 11.9987 5.8278 11.5825 4.60221 10.357C3.44425 9.19902 3.03141 7.54956 3.45042 6.0149L5.4703 8.03479C6.34983 8.91432 7.78101 8.91427 8.66064 8.03479C9.54016 7.15527 9.54016 5.72408 8.66064 4.84446L6.64075 2.82457C8.17536 2.40546 9.82492 2.8184 10.9829 3.97636C12.2085 5.20195 12.6246 7.04959 12.043 8.68346C11.9457 8.95698 12.0145 9.26209 12.2197 9.46733L19.1589 16.4065C19.3642 16.6118 19.6693 16.6805 19.9428 16.5832C21.5766 16.0016 23.4243 16.4178 24.6499 17.6433C25.8079 18.8014 26.2207 20.4508 25.8017 21.9855Z" fill="#202C38"/>
<path d="M11.569 17.2076C11.2754 16.914 10.7993 16.914 10.5056 17.2076L5.91057 21.8028C5.61695 22.0965 5.61695 22.5726 5.91057 22.8662C6.2043 23.1599 6.68031 23.1599 6.97398 22.8662L11.569 18.271C11.8626 17.9774 11.8626 17.5013 11.569 17.2076Z" fill="#202C38"/>
</svg>
