<svg width="151" height="163" viewBox="0 0 151 163" fill="none" xmlns="http://www.w3.org/2000/svg">
<path d="M134.305 120.469C136.881 120.469 138.97 118.38 138.97 115.803C138.97 113.226 136.881 111.137 134.305 111.137C131.728 111.137 129.639 113.226 129.639 115.803C129.639 118.38 131.728 120.469 134.305 120.469Z" fill="#EAEEF9"/>
<path d="M146.523 46.1395C148.282 46.1395 149.709 44.7129 149.709 42.9532C149.709 41.1934 148.282 39.7668 146.523 39.7668C144.763 39.7668 143.336 41.1934 143.336 42.9532C143.336 44.7129 144.763 46.1395 146.523 46.1395Z" fill="#EAEEF9"/>
<path d="M32.6179 31.7211C34.3776 31.7211 35.8042 30.2945 35.8042 28.5347C35.8042 26.775 34.3776 25.3484 32.6179 25.3484C30.8581 25.3484 29.4315 26.775 29.4315 28.5347C29.4315 30.2945 30.8581 31.7211 32.6179 31.7211Z" fill="#EAEEF9"/>
<path d="M29.5817 115.763C32.8498 115.763 35.4992 113.114 35.4992 109.846C35.4992 106.578 32.8498 103.928 29.5817 103.928C26.3136 103.928 23.6642 106.578 23.6642 109.846C23.6642 113.114 26.3136 115.763 29.5817 115.763Z" fill="#EAEEF9"/>
<path d="M86.8171 127.269C118.68 127.269 144.512 101.437 144.512 69.4602C144.512 37.4831 118.567 11.651 86.8171 11.651C54.9538 11.651 29.1217 37.4831 29.1217 69.4602C29.1217 101.437 54.9538 127.269 86.8171 127.269Z" fill="#EAEEF9"/>
<g filter="url(#filter0_d_1211_51928)">
<path d="M127.972 50.187L122.405 69.6715L120.815 75.1059L106.897 124.016C105.837 127.992 101.595 130.246 97.6187 129.185L74.0252 122.425L49.769 115.4C45.7926 114.34 43.5393 110.099 44.5997 106.122L62.8912 41.8365L65.6747 32.293C66.6026 29.1119 68.8559 26.4609 71.7719 25.0029L98.9442 12.0132C103.053 10.025 107.957 11.483 110.476 15.3269L126.647 40.6435C128.37 43.427 128.9 46.8733 127.972 50.187Z" fill="url(#paint0_linear_1211_51928)"/>
</g>
<g filter="url(#filter1_d_1211_51928)">
<path d="M59.3123 119.112L24.1871 83.9865C21.2711 81.0705 21.2711 76.2988 24.1871 73.3827L78.5317 19.0382C80.9175 16.6523 84.0987 15.4594 87.4124 15.592L117.368 17.4476C121.875 17.7127 125.586 21.2915 125.851 25.9307L127.707 55.8864C127.972 59.2001 126.646 62.5138 124.261 64.7671L69.9161 119.112C67 122.028 62.2283 122.028 59.3123 119.112Z" fill="url(#paint1_linear_1211_51928)"/>
</g>
<path d="M113.728 42.3943C117.247 38.8745 117.247 33.1677 113.728 29.6478C110.208 26.1279 104.501 26.1279 100.981 29.6478C97.4613 33.1676 97.4613 38.8745 100.981 42.3943C104.501 45.9142 110.208 45.9142 113.728 42.3943Z" fill="#E5EAF6"/>
<path d="M41.6836 80.4077C41.0208 80.4077 40.3581 80.1426 39.8279 79.6124C38.7675 78.552 38.7675 76.9615 39.8279 75.9011L74.2903 41.4387C75.3507 40.3783 76.9413 40.3783 78.0016 41.4387C79.062 42.4991 79.062 44.0896 78.0016 45.15L43.6718 79.6124C43.1416 80.1426 42.4789 80.4077 41.6836 80.4077Z" fill="#E5EAF6"/>
<path d="M50.9616 89.5535C50.2989 89.5535 49.6362 89.2884 49.106 88.7582C48.0456 87.6979 48.0456 86.1073 49.106 85.0469L83.4358 50.7171C84.4962 49.6567 86.0868 49.6567 87.1471 50.7171C88.2075 51.7775 88.2075 53.368 87.1471 54.4284L52.8173 88.7582C52.2871 89.2884 51.6244 89.5535 50.9616 89.5535Z" fill="#E5EAF6"/>
<path d="M63.8188 102.411C63.156 102.411 62.4933 102.146 61.9631 101.615C60.9027 100.555 60.9027 98.9644 61.9631 97.904L73.3622 86.5049C74.4226 85.4446 76.0131 85.4446 77.0735 86.5049C78.1339 87.5653 78.1339 89.1559 77.0735 90.2163L65.6744 101.615C65.1442 102.146 64.4815 102.411 63.8188 102.411Z" fill="#E5EAF6"/>
<path d="M138.708 22.4845C138.708 30.1723 134.202 37.1973 127.044 40.2459L126.514 38.9204V37.4624C132.213 34.6789 135.925 28.8468 135.925 22.4845C135.925 13.3387 128.502 5.7835 119.224 5.7835C110.078 5.7835 102.523 13.2062 102.523 22.4845C102.523 24.3402 102.788 26.0633 103.451 27.7864C105.306 33.2209 109.813 37.4624 115.512 38.7879L115.247 40.1133L114.452 41.4388C108.222 39.8483 103.318 35.3416 101.065 29.5095C100.269 27.3888 99.7392 25.0029 99.7392 22.6171C99.8718 11.7481 108.487 3 119.224 3C130.093 3 138.708 11.7481 138.708 22.4845Z" fill="#989FB0"/>
<defs>
<filter id="filter0_d_1211_51928" x="22.3382" y="0.125641" width="128.086" height="162.321" filterUnits="userSpaceOnUse" color-interpolation-filters="sRGB">
<feFlood flood-opacity="0" result="BackgroundImageFix"/>
<feColorMatrix in="SourceAlpha" type="matrix" values="0 0 0 0 0 0 0 0 0 0 0 0 0 0 0 0 0 0 127 0" result="hardAlpha"/>
<feOffset dy="11"/>
<feGaussianBlur stdDeviation="11"/>
<feColorMatrix type="matrix" values="0 0 0 0 0.397708 0 0 0 0 0.47749 0 0 0 0 0.575 0 0 0 0.27 0"/>
<feBlend mode="normal" in2="BackgroundImageFix" result="effect1_dropShadow_1211_51928"/>
<feBlend mode="normal" in="SourceGraphic" in2="effect1_dropShadow_1211_51928" result="shape"/>
</filter>
<filter id="filter1_d_1211_51928" x="9.53674e-05" y="4.582" width="149.74" height="149.717" filterUnits="userSpaceOnUse" color-interpolation-filters="sRGB">
<feFlood flood-opacity="0" result="BackgroundImageFix"/>
<feColorMatrix in="SourceAlpha" type="matrix" values="0 0 0 0 0 0 0 0 0 0 0 0 0 0 0 0 0 0 127 0" result="hardAlpha"/>
<feOffset dy="11"/>
<feGaussianBlur stdDeviation="11"/>
<feColorMatrix type="matrix" values="0 0 0 0 0.397708 0 0 0 0 0.47749 0 0 0 0 0.575 0 0 0 0.27 0"/>
<feBlend mode="normal" in2="BackgroundImageFix" result="effect1_dropShadow_1211_51928"/>
<feBlend mode="normal" in="SourceGraphic" in2="effect1_dropShadow_1211_51928" result="shape"/>
</filter>
<linearGradient id="paint0_linear_1211_51928" x1="86.3537" y1="8.38876" x2="86.3537" y2="130.722" gradientUnits="userSpaceOnUse">
<stop stop-color="#FDFEFF"/>
<stop offset="0.9964" stop-color="#ECF0F5"/>
</linearGradient>
<linearGradient id="paint1_linear_1211_51928" x1="74.8357" y1="13.1367" x2="74.8357" y2="122.438" gradientUnits="userSpaceOnUse">
<stop stop-color="#FDFEFF"/>
<stop offset="0.9964" stop-color="#ECF0F5"/>
</linearGradient>
</defs>
</svg>
