<svg width="65" height="64" viewBox="0 0 65 64" fill="none" xmlns="http://www.w3.org/2000/svg">
<path d="M32.4997 5.33334C17.8063 5.33334 5.83301 17.3067 5.83301 32C5.83301 46.6933 17.8063 58.6667 32.4997 58.6667C47.193 58.6667 59.1663 46.6933 59.1663 32C59.1663 17.3067 47.193 5.33334 32.4997 5.33334ZM45.2463 25.8667L30.1263 40.9867C29.753 41.36 29.2463 41.5733 28.713 41.5733C28.1797 41.5733 27.673 41.36 27.2997 40.9867L19.753 33.44C18.9797 32.6667 18.9797 31.3867 19.753 30.6133C20.5263 29.84 21.8063 29.84 22.5797 30.6133L28.713 36.7467L42.4197 23.04C43.193 22.2667 44.473 22.2667 45.2463 23.04C46.0197 23.8133 46.0197 25.0667 45.2463 25.8667Z" fill="#1BB045"/>
</svg>
