<svg width="16" height="16" viewBox="0 0 16 16" fill="none" xmlns="http://www.w3.org/2000/svg">
<path d="M8.00002 15.1667C4.50669 15.1667 1.66669 12.3267 1.66669 8.83333C1.66669 5.34 4.50669 2.5 8.00002 2.5C11.4934 2.5 14.3334 5.34 14.3334 8.83333C14.3334 12.3267 11.4934 15.1667 8.00002 15.1667ZM8.00002 3.5C5.06002 3.5 2.66669 5.89333 2.66669 8.83333C2.66669 11.7733 5.06002 14.1667 8.00002 14.1667C10.94 14.1667 13.3334 11.7733 13.3334 8.83333C13.3334 5.89333 10.94 3.5 8.00002 3.5Z" fill="#202C38"/>
<path d="M8 9.16683C7.72667 9.16683 7.5 8.94016 7.5 8.66683V5.3335C7.5 5.06016 7.72667 4.8335 8 4.8335C8.27333 4.8335 8.5 5.06016 8.5 5.3335V8.66683C8.5 8.94016 8.27333 9.16683 8 9.16683Z" fill="#202C38"/>
<path d="M10 1.8335H6C5.72667 1.8335 5.5 1.60683 5.5 1.3335C5.5 1.06016 5.72667 0.833496 6 0.833496H10C10.2733 0.833496 10.5 1.06016 10.5 1.3335C10.5 1.60683 10.2733 1.8335 10 1.8335Z" fill="#202C38"/>
</svg>
