<svg width="33" height="32" viewBox="0 0 33 32" fill="none" xmlns="http://www.w3.org/2000/svg">
<g clip-path="url(#clip0_57_8804)">
<path d="M5.67179 22.5608H5.27493C4.78358 22.5608 4.38672 22.9577 4.38672 23.449C4.38672 23.9404 4.78358 24.3372 5.27493 24.3372H5.67179C6.16315 24.3372 6.56001 23.9404 6.56001 23.449C6.56001 22.9577 6.15685 22.5608 5.67179 22.5608Z" fill="#F5B102"/>
<path d="M9.99317 22.5608H9.59631C9.10496 22.5608 8.7081 22.9577 8.7081 23.449C8.7081 23.9404 9.10496 24.3372 9.59631 24.3372H9.99317C10.4845 24.3372 10.8814 23.9404 10.8814 23.449C10.8814 22.9577 10.4845 22.5608 9.99317 22.5608Z" fill="#F5B102"/>
<path d="M14.3146 22.5608H13.9177C13.4263 22.5608 13.0295 22.9577 13.0295 23.449C13.0295 23.9404 13.4263 24.3372 13.9177 24.3372H14.3146C14.8059 24.3372 15.2028 23.9404 15.2028 23.449C15.2028 22.9577 14.8059 22.5608 14.3146 22.5608Z" fill="#F5B102"/>
<path d="M18.6359 22.5608H18.2391C17.7477 22.5608 17.3509 22.9577 17.3509 23.449C17.3509 23.9404 17.7477 24.3372 18.2391 24.3372H18.6359C19.1273 24.3372 19.5241 23.9404 19.5241 23.449C19.5241 22.9577 19.1273 22.5608 18.6359 22.5608Z" fill="#F5B102"/>
<path d="M32.4883 26.9074C32.419 26.4727 32.0095 26.1704 31.5623 26.1704H27.1905V20.7592C27.1905 20.3182 26.8881 19.9088 26.4535 19.8332C25.8991 19.745 25.4141 20.167 25.4141 20.7088V22.5608H23.3227C22.9321 20.5072 21.1305 18.9576 18.9635 18.9576H16.0406V17.1244H18.1194C18.6107 17.1244 19.0076 16.7276 19.0076 16.2362V14.5858C19.0076 8.76515 14.2894 4.05321 8.47502 4.05321H4.44972C3.95836 4.05321 3.5615 4.45007 3.5615 4.94142V16.2362C3.5615 16.7276 3.95836 17.1244 4.44972 17.1244H6.52851V18.9576H4.99776C2.5095 18.9576 0.5 20.9671 0.5 23.449C0.5 25.931 2.5095 27.9468 4.99776 27.9468H18.9698C21.1305 27.9468 22.9384 26.3908 23.329 24.3435H25.4204V27.0586C25.4204 27.5499 25.8172 27.9468 26.3086 27.9468H31.619C32.1544 27.9468 32.5765 27.4617 32.4883 26.9074ZM5.33793 15.3417V5.82333H8.47502C13.3067 5.82333 17.2312 9.75415 17.2312 14.5795V15.3417H5.33793ZM14.2705 17.1244V18.9576H8.31124V17.1244H14.2705ZM18.9698 26.1704H4.99776C3.49851 26.1704 2.28273 24.9546 2.28273 23.4553C2.28273 21.9561 3.49851 20.7403 4.99776 20.7403H18.9698C20.4376 20.7403 21.6281 21.9876 21.6281 23.4553C21.6281 24.9231 20.4376 26.1704 18.9698 26.1704Z" fill="#202C38"/>
</g>
<defs>
<clipPath id="clip0_57_8804">
<rect width="32" height="32" fill="white" transform="translate(0.5)"/>
</clipPath>
</defs>
</svg>
