<svg width="65" height="64" viewBox="0 0 65 64" fill="none" xmlns="http://www.w3.org/2000/svg">
<g clip-path="url(#clip0_3713_613)">
<path d="M38.2673 49.6551H25.0259V55.1724H38.2673V49.6551Z" fill="#03A1FA"/>
<path d="M38.2673 47.4482H25.0259V50.7586H38.2673V47.4482Z" fill="#0391E0"/>
<path d="M62.5431 41.931V33.8262C62.5431 32.7666 61.79 31.8566 60.7493 31.6584L39.9445 27.6956C39.5856 27.6273 39.2161 27.741 38.9578 27.9994L37.487 29.4701C37.2801 29.677 37.1639 29.9578 37.1639 30.2504V45.2414H62.5431V41.931Z" fill="#0391E0"/>
<path d="M37.1637 56.2759H61.4396C62.6585 56.2759 63.6465 55.2879 63.6465 54.069V40.8276C63.6465 40.2182 63.1524 39.7241 62.543 39.7241H51.3191C50.7339 39.7241 50.1725 39.9566 49.7586 40.3705L46.6375 43.4916C46.2236 43.9055 45.6624 44.138 45.077 44.138H37.1637C36.5544 44.138 36.0602 44.6321 36.0602 45.2415V55.1725C36.0604 55.7817 36.5544 56.2759 37.1637 56.2759Z" fill="#0270AD"/>
<path d="M5.16375 5.51724H2.95688V35.3104H5.16375V5.51724Z" fill="#625D6B"/>
<path d="M7.37076 19.8621H6.26726C5.65788 19.8621 5.16376 20.3562 5.16376 20.9656V35.3105H8.47413V20.9655C8.47413 20.3561 7.98013 19.8621 7.37076 19.8621Z" fill="#736F7B"/>
<path d="M24.5134 26.6716L26.0739 25.1111L22.953 21.9901L21.3925 23.5506L24.5134 26.6716Z" fill="#504B5A"/>
<path d="M27.2328 25.3792H25.0259V43.0344H27.2328V25.3792Z" fill="#625D6B"/>
<path d="M21.7155 41.931H9.57764V34.2069H19.5086C20.7275 34.2069 21.7155 35.1949 21.7155 36.4138V41.931Z" fill="#736F7B"/>
<path d="M5.16375 45.2414H1.8535C1.24412 45.2414 0.75 44.7473 0.75 44.1379V35.3103C0.75 34.7009 1.24412 34.2068 1.8535 34.2068H10.7509C11.4058 34.2068 12.027 34.4976 12.4464 35.0009L16.6401 40.0334C17.0594 40.5365 17.6805 40.8275 18.3356 40.8275H26.1294C26.7387 40.8275 27.2329 41.3216 27.2329 41.931V55.1724C27.2329 55.7818 26.7387 56.2759 26.1294 56.2759H5.16375V45.2414Z" fill="#FFDC5A"/>
<path d="M9.57763 60.6897C14.453 60.6897 18.4053 56.7375 18.4053 51.8621C18.4053 46.9867 14.453 43.0345 9.57763 43.0345C4.70226 43.0345 0.75 46.9867 0.75 51.8621C0.75 56.7375 4.70226 60.6897 9.57763 60.6897Z" fill="#504B5A"/>
<path d="M9.57763 58.4829C13.2342 58.4829 16.1984 55.5187 16.1984 51.8621C16.1984 48.2056 13.2342 45.2414 9.57763 45.2414C5.92109 45.2414 2.95688 48.2056 2.95688 51.8621C2.95688 55.5187 5.92109 58.4829 9.57763 58.4829Z" fill="#FFDC5A"/>
<path d="M9.57763 56.2759C12.0153 56.2759 13.9914 54.2998 13.9914 51.8621C13.9914 49.4245 12.0153 47.4484 9.57763 47.4484C7.13998 47.4484 5.16388 49.4245 5.16388 51.8621C5.16388 54.2998 7.13998 56.2759 9.57763 56.2759Z" fill="#625D6B"/>
<path d="M55.9224 60.6897C60.7977 60.6897 64.75 56.7375 64.75 51.8621C64.75 46.9867 60.7977 43.0345 55.9224 43.0345C51.047 43.0345 47.0948 46.9867 47.0948 51.8621C47.0948 56.7375 51.047 60.6897 55.9224 60.6897Z" fill="#504B5A"/>
<path d="M55.9224 58.4829C59.5789 58.4829 62.5431 55.5187 62.5431 51.8621C62.5431 48.2056 59.5789 45.2414 55.9224 45.2414C52.2658 45.2414 49.3016 48.2056 49.3016 51.8621C49.3016 55.5187 52.2658 58.4829 55.9224 58.4829Z" fill="#FFDC5A"/>
<path d="M55.9224 55.1725C57.7506 55.1725 59.2327 53.6904 59.2327 51.8621C59.2327 50.0339 57.7506 48.5518 55.9224 48.5518C54.0941 48.5518 52.612 50.0339 52.612 51.8621C52.612 53.6904 54.0941 55.1725 55.9224 55.1725Z" fill="#625D6B"/>
<path d="M9.57763 54.069C8.35876 54.069 7.37076 53.081 7.37076 51.8621V41.9311C7.37076 41.3218 7.86488 40.8276 8.47426 40.8276H10.6811C11.2905 40.8276 11.7846 41.3218 11.7846 41.9311V51.8621C11.7845 53.0809 10.7965 54.069 9.57763 54.069Z" fill="#FFC84B"/>
<path d="M10.681 44.1379H8.47414C7.86476 44.1379 7.37064 43.6437 7.37064 43.0344V41.9309C7.37064 41.3215 7.86476 40.8274 8.47414 40.8274H10.681C11.2904 40.8274 11.7845 41.3215 11.7845 41.9309V43.0344C11.7845 43.6439 11.2904 44.1379 10.681 44.1379Z" fill="#736F7B"/>
<path d="M28.4145 24.3313L23.733 29.0128C23.3021 29.4436 22.6035 29.4436 22.1725 29.0128C21.7416 28.5819 21.7416 27.8833 22.1725 27.4523L26.854 22.7708C27.2849 22.3399 27.9835 22.3399 28.4145 22.7708C28.8456 23.2016 28.8456 23.9004 28.4145 24.3313Z" fill="#FFDC5A"/>
<path d="M24.5133 21.9905L21.3923 25.1115C20.9614 25.5424 20.2628 25.5424 19.8318 25.1115C19.4009 24.6806 19.4009 23.982 19.8318 23.551L22.9528 20.43C23.3836 19.9991 24.0823 19.9991 24.5133 20.43C24.9443 20.861 24.9443 21.5596 24.5133 21.9905Z" fill="#625D6B"/>
<path d="M31.6465 6.62074H1.8535C1.24413 6.62074 0.75 6.12662 0.75 5.51724V4.41374C0.75 3.80437 1.24413 3.31024 1.8535 3.31024H31.6466C32.256 3.31024 32.7501 3.80437 32.7501 4.41374V5.51724C32.75 6.12662 32.2559 6.62074 31.6465 6.62074Z" fill="#FFDC5A"/>
<path d="M43.7845 38.6207H40.4741C39.8648 38.6207 39.3706 38.1266 39.3706 37.5172C39.3706 36.9079 39.8648 36.4137 40.4741 36.4137H43.7845C44.3939 36.4137 44.888 36.9079 44.888 37.5172C44.8879 38.1266 44.3939 38.6207 43.7845 38.6207Z" fill="#625D6B"/>
<path d="M43.7845 35.3104H40.4741C39.8648 35.3104 39.3706 34.8162 39.3706 34.2069C39.3706 33.5975 39.8648 33.1034 40.4741 33.1034H43.7845C44.3939 33.1034 44.888 33.5975 44.888 34.2069C44.8879 34.8162 44.3939 35.3104 43.7845 35.3104Z" fill="#625D6B"/>
<path d="M43.7845 41.931H40.4741C39.8648 41.931 39.3706 41.4369 39.3706 40.8275C39.3706 40.2181 39.8648 39.724 40.4741 39.724H43.7845C44.3939 39.724 44.888 40.2181 44.888 40.8275C44.8879 41.437 44.3939 41.931 43.7845 41.931Z" fill="#625D6B"/>
</g>
<defs>
<clipPath id="clip0_3713_613">
<rect width="64" height="64" fill="white" transform="translate(0.75)"/>
</clipPath>
</defs>
</svg>
