<svg width="20" height="20" viewBox="0 0 20 20" fill="none" xmlns="http://www.w3.org/2000/svg">
<path d="M12.6083 15.8834H5.94167C5.6 15.8834 5.31667 15.6 5.31667 15.2584C5.31667 14.9167 5.6 14.6334 5.94167 14.6334H12.6083C14.5583 14.6334 16.15 13.0417 16.15 11.0917C16.15 9.14172 14.5583 7.55005 12.6083 7.55005H3.44167C3.1 7.55005 2.81667 7.26672 2.81667 6.92505C2.81667 6.58338 3.1 6.30005 3.44167 6.30005H12.6083C15.25 6.30005 17.4 8.45005 17.4 11.0917C17.4 13.7334 15.25 15.8834 12.6083 15.8834Z" fill="white"/>
<path d="M5.35833 9.63324C5.2 9.63324 5.04166 9.5749 4.91666 9.4499L2.78333 7.31657C2.54166 7.0749 2.54166 6.6749 2.78333 6.43324L4.91666 4.2999C5.15833 4.05824 5.55833 4.05824 5.8 4.2999C6.04166 4.54157 6.04166 4.94157 5.8 5.18324L4.10833 6.8749L5.8 8.56657C6.04166 8.80824 6.04166 9.20824 5.8 9.4499C5.68333 9.5749 5.51666 9.63324 5.35833 9.63324Z" fill="white"/>
</svg>
