<svg width="65" height="64" viewBox="0 0 65 64" fill="none" xmlns="http://www.w3.org/2000/svg">
<g id="vuesax/bold/undo">
<g id="vuesax/bold/undo_2">
<g id="undo">
<path id="Vector" d="M43.6735 5.33337H21.3268C11.6202 5.33337 5.8335 11.12 5.8335 20.8267V43.1467C5.8335 52.88 11.6202 58.6667 21.3268 58.6667H43.6468C53.3535 58.6667 59.1402 52.88 59.1402 43.1734V20.8267C59.1668 11.12 53.3802 5.33337 43.6735 5.33337ZM37.6202 44.3467H24.5002C23.4068 44.3467 22.5002 43.44 22.5002 42.3467C22.5002 41.2534 23.4068 40.3467 24.5002 40.3467H37.6202C41.0335 40.3467 43.8335 37.5734 43.8335 34.1334C43.8335 30.6934 41.0602 27.92 37.6202 27.92H24.1002L24.7935 28.6134C25.5668 29.3867 25.5668 30.6667 24.7935 31.44C24.3935 31.84 23.8868 32.0267 23.3802 32.0267C22.8735 32.0267 22.3668 31.84 21.9668 31.44L17.7802 27.2534C17.0068 26.48 17.0068 25.2 17.7802 24.4267L21.9668 20.24C22.7402 19.4667 24.0202 19.4667 24.7935 20.24C25.5668 21.0134 25.5668 22.2934 24.7935 23.0667L23.8868 23.9467H37.6202C43.2468 23.9467 47.8335 28.5334 47.8335 34.16C47.8335 39.7867 43.2468 44.3467 37.6202 44.3467Z" fill="#D63120"/>
</g>
</g>
</g>
</svg>
