<svg width="16" height="22" viewBox="0 0 16 22" fill="none" xmlns="http://www.w3.org/2000/svg">
<g id="Group">
<path id="Vector" fill-rule="evenodd" clip-rule="evenodd" d="M8 0.125C8.6213 0.125 9.125 0.628677 9.125 1.25V20.75C9.125 21.3713 8.6213 21.875 8 21.875C7.3787 21.875 6.875 21.3713 6.875 20.75V1.25C6.875 0.628677 7.3787 0.125 8 0.125Z" fill="#202C38"/>
<path id="Vector_2" fill-rule="evenodd" clip-rule="evenodd" d="M2.67786 3.80286C3.5921 2.88862 4.83208 2.375 6.125 2.375H9.5C10.1402 2.375 10.7741 2.5011 11.3656 2.74609C11.9571 2.99108 12.4945 3.35017 12.9472 3.80286C13.3999 4.25554 13.7589 4.79295 14.0039 5.38442C14.2489 5.97588 14.375 6.6098 14.375 7.25C14.375 7.8713 13.8713 8.375 13.25 8.375C12.6287 8.375 12.125 7.8713 12.125 7.25C12.125 6.9053 12.0571 6.5639 11.9252 6.24546C11.7933 5.92698 11.5999 5.6376 11.3562 5.39385C11.1124 5.15009 10.823 4.95673 10.5045 4.82481C10.1861 4.6929 9.8447 4.625 9.5 4.625H6.125C5.42877 4.625 4.76112 4.90156 4.26882 5.39385C3.77652 5.88613 3.5 6.55377 3.5 7.25C3.5 7.94623 3.77652 8.61388 4.26882 9.10618C4.76112 9.59847 5.42877 9.875 6.125 9.875H10.25C11.5429 9.875 12.7829 10.3886 13.6972 11.3028C14.6114 12.2171 15.125 13.4571 15.125 14.75C15.125 16.0429 14.6114 17.2829 13.6972 18.1972C12.7829 19.1114 11.5429 19.625 10.25 19.625H5.75C4.45708 19.625 3.21709 19.1114 2.30286 18.1972C1.38861 17.2829 0.875 16.0429 0.875 14.75C0.875 14.1287 1.37868 13.625 2 13.625C2.62132 13.625 3.125 14.1287 3.125 14.75C3.125 15.4462 3.40156 16.1139 3.89382 16.6062C4.38612 17.0985 5.05377 17.375 5.75 17.375H10.25C10.9462 17.375 11.6139 17.0985 12.1062 16.6062C12.5985 16.1139 12.875 15.4462 12.875 14.75C12.875 14.0538 12.5985 13.3861 12.1062 12.8938C11.6139 12.4015 10.9462 12.125 10.25 12.125H6.125C4.83208 12.125 3.5921 11.6114 2.67786 10.6972C1.76361 9.7829 1.25 8.54292 1.25 7.25C1.25 5.95707 1.76361 4.71709 2.67786 3.80286Z" fill="#202C38"/>
</g>
</svg>
