<svg width="24" height="24" viewBox="0 0 24 24" fill="none" xmlns="http://www.w3.org/2000/svg">
<path d="M11.295 14.94C11.1976 14.1989 11.2594 13.4455 11.4764 12.7302C11.6933 12.0148 12.0603 11.354 12.5529 10.7918C13.0456 10.2296 13.6525 9.77899 14.3331 9.47C15.0138 9.16102 15.7525 9.00079 16.5 9.00001H20.25V8.25001C20.2482 7.65382 20.0106 7.08256 19.589 6.66099C19.1675 6.23942 18.5962 6.00179 18 6.00001H3.75C3.32392 6.00024 2.90272 5.90935 2.51465 5.73343C2.12659 5.5575 1.78063 5.30062 1.5 4.98001V20.25C1.50178 20.8462 1.73941 21.4175 2.16098 21.839C2.58255 22.2606 3.15381 22.4982 3.75 22.5H18C18.5962 22.4982 19.1675 22.2606 19.589 21.839C20.0106 21.4175 20.2482 20.8462 20.25 20.25V19.5H16.68C15.3831 19.5181 14.1235 19.0664 13.1337 18.2283C12.1439 17.3901 11.4908 16.2221 11.295 14.94Z" fill="#F5B102"/>
<path d="M3.75 4.5H17.25V2.25C17.25 2.05109 17.171 1.86032 17.0303 1.71967C16.8897 1.57902 16.6989 1.5 16.5 1.5H3.75C3.35218 1.5 2.97064 1.65804 2.68934 1.93934C2.40804 2.22064 2.25 2.60218 2.25 3C2.25 3.39782 2.40804 3.77936 2.68934 4.06066C2.97064 4.34196 3.35218 4.5 3.75 4.5Z" fill="#F5B102"/>
<path d="M21 10.5H16.5C15.5054 10.5 14.5516 10.8951 13.8483 11.5983C13.1451 12.3016 12.75 13.2554 12.75 14.25C12.75 15.2446 13.1451 16.1984 13.8483 16.9017C14.5516 17.6049 15.5054 18 16.5 18H21C21.3978 18 21.7794 17.842 22.0607 17.5607C22.342 17.2794 22.5 16.8978 22.5 16.5V12C22.5 11.6022 22.342 11.2206 22.0607 10.9393C21.7794 10.658 21.3978 10.5 21 10.5ZM16.5 15C16.3517 15 16.2067 14.956 16.0833 14.8736C15.96 14.7912 15.8639 14.6741 15.8071 14.537C15.7503 14.4 15.7355 14.2492 15.7644 14.1037C15.7933 13.9582 15.8648 13.8246 15.9697 13.7197C16.0746 13.6148 16.2082 13.5433 16.3537 13.5144C16.4992 13.4855 16.65 13.5003 16.787 13.5571C16.9241 13.6139 17.0412 13.71 17.1236 13.8333C17.206 13.9567 17.25 14.1017 17.25 14.25C17.25 14.4489 17.171 14.6397 17.0303 14.7803C16.8897 14.921 16.6989 15 16.5 15Z" fill="#03A1FA"/>
</svg>
