<svg width="24" height="24" viewBox="0 0 24 24" fill="none" xmlns="http://www.w3.org/2000/svg">
<path d="M21.7121 8.2022C19.9151 6.95432 18.1182 5.69931 16.3212 4.45143C15.1375 3.6314 13.9538 2.80423 12.763 1.9842C11.9358 1.52783 11.1087 2.06264 11.0873 2.0769C10.6095 2.41204 10.1389 2.74719 9.66112 3.0752C7.30085 4.72953 4.94058 6.37673 2.57318 8.00967C2.18099 8.28063 1.82445 8.56586 1.68896 9.05075C1.68896 13.0796 1.68896 17.1156 1.68896 21.1445C1.74601 21.2871 1.79593 21.4368 1.87436 21.5652C2.12394 21.9716 2.49474 22.1927 2.9725 22.1927C8.99083 22.1927 15.0092 22.1927 21.0346 22.1927C21.762 22.1927 22.3253 21.6294 22.3253 20.9092C22.3253 17.0443 22.3253 13.1794 22.3253 9.32172C22.3253 8.83683 22.1042 8.47316 21.7121 8.2022ZM11.5508 21.0019C11.5508 21.173 11.4153 21.3085 11.2441 21.3085H6.74465C6.57351 21.3085 6.43803 21.173 6.43803 21.0019V17.3509C6.43803 17.1798 6.57351 17.0443 6.74465 17.0443H8.25637C8.4275 17.0443 8.56299 17.1869 8.56299 17.3581C8.56299 17.5149 8.56299 17.6718 8.57725 17.8287C8.59151 17.9713 8.65569 18.1282 8.74839 18.2351C8.85535 18.3564 9.02649 18.3635 9.17623 18.2922C9.33311 18.2209 9.42581 18.0925 9.43294 17.9142C9.43294 17.7289 9.43294 17.5506 9.43294 17.3581C9.43294 17.1869 9.56842 17.0514 9.73956 17.0514H11.2513C11.4224 17.0514 11.5579 17.1869 11.5579 17.3581V21.0019H11.5508ZM11.7718 13.0939C12.0642 13.2864 12.4278 13.0867 12.4421 12.7159C12.4492 12.5733 12.4421 12.4307 12.4421 12.2952C12.4421 12.2453 12.4421 12.1883 12.4421 12.1384C12.4421 11.9957 12.5562 11.8888 12.6917 11.8888H14.3175C14.4601 11.8888 14.5671 12.0029 14.5671 12.1384V15.8891C14.5671 16.0317 14.453 16.1387 14.3175 16.1387H9.68251C9.5399 16.1387 9.43294 16.0246 9.43294 15.8891V12.1384C9.43294 11.9957 9.54703 11.8888 9.68251 11.8888H11.3083C11.4509 11.8888 11.5579 12.0029 11.5579 12.1384C11.5579 12.3166 11.5579 12.4949 11.5579 12.6732C11.5722 12.8514 11.6292 12.994 11.7718 13.0939ZM17.5834 21.0019C17.5834 21.173 17.4479 21.3085 17.2767 21.3085H12.7701C12.599 21.3085 12.4635 21.173 12.4635 21.0019V17.3509C12.4635 17.1798 12.599 17.0443 12.7701 17.0443H14.2818C14.453 17.0443 14.5885 17.1798 14.5885 17.3509C14.5885 17.5078 14.5885 17.6647 14.5885 17.8144C14.5885 18.121 14.7525 18.3136 15.0092 18.3136C15.273 18.3136 15.437 18.1353 15.4441 17.8216C15.4513 17.6647 15.4513 17.4935 15.4513 17.3224C15.4513 17.1513 15.7294 17.0514 15.7294 17.0514L15.7579 17.0443L17.2696 17.03C17.4407 17.03 17.5762 17.1655 17.5762 17.3367V21.0019H17.5834ZM21.4696 20.7452C21.4696 21.2015 21.3413 21.3299 20.8849 21.337C20.1504 21.337 19.4231 21.337 18.6886 21.337C18.5674 21.337 18.4676 21.2372 18.4676 21.1159V21.0232C18.4676 19.59 18.4676 18.1638 18.4676 16.7305C18.4676 16.317 18.325 16.1815 17.9114 16.1744C17.1769 16.1744 16.4496 16.1744 15.7151 16.1744C15.6438 16.1744 15.5725 16.1744 15.4655 16.1744C15.4655 16.0817 15.4655 16.0032 15.4655 15.9248C15.4655 14.4844 15.4655 13.0511 15.4655 11.6107C15.4655 11.0402 15.2659 10.976 14.4886 11.0331C12.8272 11.1614 11.1657 11.1472 9.50424 11.0331C8.76265 10.9832 8.57725 11.0545 8.57725 11.6107C8.57725 13.044 8.57725 14.4701 8.57725 15.9034C8.57725 15.9818 8.57725 16.0603 8.57725 16.1601C8.49168 16.1672 8.42037 16.1744 8.34907 16.1744C7.60747 16.1744 6.87301 16.1744 6.13141 16.1744C5.7107 16.1744 5.57521 16.317 5.57521 16.7234C5.57521 18.1638 5.57521 19.6042 5.57521 21.0446C5.57521 21.2514 5.29711 21.3156 5.2472 21.3299H3.1365C2.82275 21.3299 2.57318 21.0732 2.57318 20.7594C2.57318 16.9801 2.57318 13.208 2.57318 9.42868C2.57318 9.17911 2.66587 9.0151 2.86554 8.87962C5.66791 6.93293 8.47029 4.98624 11.2727 3.03242C11.2727 3.03242 12.0784 2.53327 12.7915 3.03242C15.5582 4.97911 18.3535 6.9258 21.1487 8.86535C21.3484 9.00084 21.4696 9.23615 21.4696 9.4786C21.4625 13.2294 21.4696 16.9873 21.4696 20.7452Z" fill="#202C38"/>
<mask id="path-2-outside-1_7172_92821" maskUnits="userSpaceOnUse" x="0.510681" y="0.628967" width="23" height="22" fill="black">
<rect fill="white" x="0.510681" y="0.628967" width="23" height="22"/>
<path d="M12.4849 22.371C9.31883 22.371 6.14566 22.371 2.97961 22.371C2.44481 22.371 2.01696 22.1215 1.7246 21.658C1.66043 21.5581 1.61764 21.4512 1.58199 21.3442C1.56773 21.3014 1.54633 21.2586 1.53207 21.2159L1.51068 21.1802V9.02943L1.51781 9.00804C1.67469 8.45184 2.08114 8.13809 2.47333 7.86712C4.4628 6.49089 6.4808 5.08614 8.43462 3.72417L9.56128 2.93979C10.039 2.60464 10.5168 2.2695 10.9874 1.94149C11.0302 1.91296 11.9287 1.32824 12.8485 1.83452L12.8628 1.84166L13.9467 2.59751C14.7667 3.16797 15.5939 3.73843 16.4139 4.30889C17.2625 4.90074 18.111 5.48546 18.9524 6.07731C19.9008 6.74047 20.8492 7.39649 21.7976 8.05965C22.254 8.38053 22.4893 8.80125 22.4893 9.32179C22.4893 13.1866 22.4893 17.0515 22.4893 20.9092C22.4893 21.7293 21.8404 22.371 21.0204 22.371C18.1823 22.371 15.33 22.371 12.4849 22.371ZM1.86722 21.1089C1.88148 21.1445 1.89574 21.1802 1.91 21.2159C1.94566 21.3085 1.98131 21.3941 2.02409 21.4726C2.24515 21.8291 2.56603 22.0145 2.97248 22.0145C8.99082 22.0145 15.0092 22.0145 21.0346 22.0145C21.6621 22.0145 22.147 21.5296 22.147 20.9092C22.147 17.0444 22.147 13.1795 22.147 9.32179C22.147 8.92247 21.9687 8.60872 21.6051 8.35914C20.6567 7.69598 19.7083 7.03996 18.7599 6.3768C17.9114 5.78495 17.0628 5.20023 16.2214 4.60838C15.4013 4.03792 14.5742 3.46746 13.7541 2.897L12.6774 2.14115C11.9501 1.74896 11.2227 2.21245 11.1942 2.23385C10.7236 2.56899 10.2458 2.897 9.76807 3.23215L8.64141 4.01653C6.68759 5.3785 4.66959 6.78325 2.68012 8.15948C2.33072 8.40193 2.0027 8.65863 1.86722 9.07935V21.1089ZM20.0221 21.5082C19.801 21.5082 19.5728 21.5082 19.3518 21.5082H18.6815C18.4604 21.5082 18.2822 21.3299 18.2822 21.1089V16.7235C18.2822 16.4097 18.218 16.3527 17.9042 16.3456C17.3837 16.3456 16.8631 16.3456 16.3426 16.3456H15.2801V14.7198C15.2801 13.6787 15.2801 12.6447 15.2801 11.6036C15.2801 11.4111 15.2587 11.3041 15.2017 11.2542C15.1161 11.1758 14.8523 11.1758 14.4957 11.2043C12.9056 11.3255 11.2227 11.3255 9.48997 11.2043C9.19761 11.1829 8.91951 11.1758 8.82681 11.2614C8.7769 11.3113 8.7555 11.4182 8.7555 11.6108C8.7555 12.6518 8.7555 13.6929 8.7555 14.734V16.3313L8.58437 16.3384C8.55584 16.3384 8.52732 16.3384 8.50593 16.3456C8.44888 16.3456 8.39897 16.3527 8.34905 16.3527C8.0353 16.3527 7.71442 16.3527 7.40066 16.3527C6.97995 16.3527 6.55924 16.3527 6.13139 16.3527C5.81764 16.3527 5.75347 16.4169 5.75347 16.7235V19.8111V21.0447C5.75347 21.3157 5.51102 21.4583 5.27571 21.5011H5.24005H3.12936C2.71577 21.5011 2.38776 21.1659 2.38776 20.7524V17.6933C2.38776 14.9337 2.38776 12.1812 2.38776 9.42162C2.38776 9.12213 2.50185 8.90108 2.75856 8.72281C5.36841 6.9116 8.11374 5.00057 11.1657 2.87561L11.3012 2.77578L11.3154 2.79004C11.5579 2.67595 12.0784 2.50481 12.6061 2.71874V2.69734L12.8842 2.88987C15.9861 5.05048 18.7243 6.96152 21.2628 8.71568C21.5124 8.88682 21.6621 9.17205 21.6621 9.47154C21.655 12.3524 21.655 15.276 21.655 18.1069V20.7381C21.655 21.2943 21.4482 21.5011 20.892 21.5082C20.5925 21.5082 20.3073 21.5082 20.0221 21.5082ZM16.9701 15.989C17.2767 15.989 17.5905 15.989 17.8971 15.989C18.4105 15.989 18.6316 16.2101 18.6316 16.7235V21.1089C18.6316 21.1303 18.653 21.1517 18.6743 21.1517H19.3446C19.8509 21.1517 20.3643 21.1517 20.8706 21.1517C21.2271 21.1517 21.2771 21.1018 21.2771 20.7381V18.1069C21.2771 15.276 21.2771 12.3524 21.2842 9.47154C21.2842 9.28614 21.1915 9.115 21.0417 9.00804C18.5317 7.26814 15.8221 5.38563 12.763 3.25354L12.6631 3.18223C12.057 2.75439 11.344 3.18223 11.3368 3.18936C8.29914 5.31432 5.54667 7.22536 2.94396 9.02943C2.78708 9.13639 2.73004 9.25048 2.73004 9.43588C2.73004 12.1955 2.73004 14.9479 2.73004 17.7075V20.7666C2.73004 20.9805 2.90117 21.1588 3.1151 21.1588H5.2044C5.27571 21.1445 5.37554 21.0946 5.37554 21.0518V19.8182V16.7306C5.37554 16.2172 5.59659 16.0033 6.11 16.0033C6.53071 16.0033 6.95143 16.0033 7.37927 16.0033C7.69302 16.0033 8.01391 16.0033 8.32766 16.0033C8.34192 16.0033 8.36331 16.0033 8.37757 16.0033V14.7411C8.37757 13.7001 8.37757 12.659 8.37757 11.6179C8.37757 11.404 8.39897 11.1615 8.56297 11.0118C8.74837 10.8406 9.0336 10.8264 9.4971 10.862C11.2156 10.9833 12.8771 10.9833 14.453 10.862C14.9521 10.8264 15.2445 10.8335 15.4299 11.0046C15.5939 11.1615 15.6224 11.3968 15.6224 11.6108C15.6224 12.6518 15.6224 13.6858 15.6224 14.7269V15.9962H16.3283C16.5494 15.989 16.7633 15.989 16.9701 15.989ZM17.2767 21.4868H12.7701C12.5063 21.4868 12.2852 21.2729 12.2852 21.0019V17.351C12.2852 17.0872 12.4991 16.8661 12.7701 16.8661H14.2818C14.4102 16.8661 14.5314 16.916 14.6241 17.0087C14.7168 17.1014 14.7667 17.2226 14.7667 17.351C14.7667 17.5079 14.7667 17.6576 14.7667 17.8145C14.7667 17.9642 14.8095 18.1354 15.0163 18.1354C15.0163 18.1354 15.0163 18.1354 15.0234 18.1354C15.1874 18.1354 15.273 18.0284 15.2801 17.8145C15.2873 17.6719 15.2873 17.515 15.2873 17.3581V17.3225C15.2873 17.0444 15.6153 16.9089 15.6794 16.8804L15.7008 16.8732L15.7436 16.8661L17.2767 16.8518C17.5477 16.8518 17.7616 17.0658 17.7616 17.3367V20.9877C17.7616 21.2658 17.5406 21.4868 17.2767 21.4868ZM12.7701 17.2298C12.6988 17.2298 12.6418 17.2868 12.6418 17.3581V21.0091C12.6418 21.0804 12.6988 21.1374 12.7701 21.1374H17.2767C17.348 21.1374 17.4051 21.0804 17.4051 21.0091V17.3581C17.4051 17.2868 17.348 17.2298 17.2767 17.2298L15.7864 17.244C15.7222 17.2726 15.6438 17.3225 15.6367 17.351V17.3795C15.6367 17.5364 15.6367 17.6933 15.6295 17.843C15.6224 18.2495 15.38 18.5062 15.0163 18.5062H15.0092C14.6455 18.499 14.4102 18.2352 14.4102 17.8288C14.4102 17.6719 14.4102 17.515 14.4102 17.3581C14.4102 17.3225 14.3959 17.2939 14.3745 17.2654C14.3531 17.244 14.3175 17.2298 14.2818 17.2298H12.7701ZM11.2441 21.4868H6.74464C6.4808 21.4868 6.25975 21.2729 6.25975 21.0019V17.351C6.25975 17.0872 6.47367 16.8661 6.74464 16.8661H8.25635C8.38471 16.8661 8.51306 16.916 8.59863 17.0087C8.69133 17.1014 8.74124 17.2226 8.73411 17.3581C8.73411 17.4936 8.72698 17.6576 8.74837 17.8074C8.76263 17.9143 8.81255 18.0355 8.87673 18.114C8.9409 18.1853 9.06212 18.1425 9.09778 18.1211C9.19761 18.0712 9.24752 18.007 9.24752 17.9072C9.24752 17.7218 9.24752 17.5435 9.24752 17.3581C9.24752 17.2298 9.29744 17.1085 9.39014 17.0158C9.48284 16.9232 9.60406 16.8732 9.73241 16.8732H11.2441C11.508 16.8732 11.729 17.0872 11.729 17.3581V21.0019C11.729 21.2658 11.5151 21.4868 11.2441 21.4868ZM6.74464 17.2226C6.67333 17.2226 6.61628 17.2797 6.61628 17.351V21.0019C6.61628 21.0732 6.67333 21.1303 6.74464 21.1303H11.2441C11.3154 21.1303 11.3725 21.0732 11.3725 21.0019V17.3581C11.3725 17.2868 11.3154 17.2298 11.2441 17.2298H9.73241C9.69676 17.2298 9.66824 17.244 9.63971 17.2654C9.61832 17.2868 9.60406 17.3225 9.60406 17.3581C9.60406 17.5435 9.60406 17.7289 9.60406 17.9143C9.60406 18.1568 9.47571 18.3493 9.24752 18.4491C9.00508 18.5632 8.7555 18.5204 8.60576 18.3422C8.49167 18.2067 8.41323 18.0213 8.39184 17.843C8.37757 17.6719 8.37757 17.5007 8.37757 17.351C8.37757 17.3153 8.36331 17.2868 8.34192 17.2583C8.32053 17.2369 8.28487 17.2226 8.24922 17.2226H6.74464ZM14.3246 16.3242H9.68963C9.45431 16.3242 9.26178 16.1316 9.26178 15.8963V12.1456C9.26178 11.9102 9.45431 11.7177 9.68963 11.7177H11.3154C11.5507 11.7177 11.7433 11.9102 11.7433 12.1456C11.7433 12.3238 11.7433 12.5021 11.7433 12.6804C11.7433 12.8444 11.8075 12.9085 11.8645 12.9442C11.9715 13.0155 12.0642 12.987 12.1069 12.9656C12.1996 12.9228 12.2567 12.823 12.2638 12.7089C12.271 12.6162 12.271 12.5235 12.2638 12.4308C12.2638 12.388 12.2638 12.3452 12.2638 12.2953V12.1384C12.2638 11.9031 12.4564 11.7106 12.6917 11.7106H14.3175C14.5528 11.7106 14.7453 11.9031 14.7453 12.1384V15.8892C14.7596 16.1316 14.567 16.3242 14.3246 16.3242ZM9.69676 12.0671C9.65397 12.0671 9.62545 12.1028 9.62545 12.1384V15.8892C9.62545 15.932 9.66111 15.9605 9.69676 15.9605H14.3317C14.3745 15.9605 14.403 15.9248 14.403 15.8892V12.1313C14.403 12.0885 14.3674 12.06 14.3317 12.06H12.7059C12.6631 12.06 12.6346 12.0956 12.6346 12.1313V12.2882C12.6346 12.331 12.6346 12.3737 12.6346 12.4165C12.6346 12.5164 12.6346 12.6162 12.6346 12.7232C12.6204 12.9727 12.492 13.1795 12.2852 13.2793C12.0927 13.372 11.8716 13.3578 11.6862 13.2366C11.5008 13.1153 11.401 12.9228 11.4081 12.6732C11.4081 12.495 11.4081 12.3167 11.4081 12.1384C11.4081 12.0956 11.3725 12.0671 11.3368 12.0671H9.69676Z"/>
</mask>
<path d="M12.4849 22.371C9.31883 22.371 6.14566 22.371 2.97961 22.371C2.44481 22.371 2.01696 22.1215 1.7246 21.658C1.66043 21.5581 1.61764 21.4512 1.58199 21.3442C1.56773 21.3014 1.54633 21.2586 1.53207 21.2159L1.51068 21.1802V9.02943L1.51781 9.00804C1.67469 8.45184 2.08114 8.13809 2.47333 7.86712C4.4628 6.49089 6.4808 5.08614 8.43462 3.72417L9.56128 2.93979C10.039 2.60464 10.5168 2.2695 10.9874 1.94149C11.0302 1.91296 11.9287 1.32824 12.8485 1.83452L12.8628 1.84166L13.9467 2.59751C14.7667 3.16797 15.5939 3.73843 16.4139 4.30889C17.2625 4.90074 18.111 5.48546 18.9524 6.07731C19.9008 6.74047 20.8492 7.39649 21.7976 8.05965C22.254 8.38053 22.4893 8.80125 22.4893 9.32179C22.4893 13.1866 22.4893 17.0515 22.4893 20.9092C22.4893 21.7293 21.8404 22.371 21.0204 22.371C18.1823 22.371 15.33 22.371 12.4849 22.371ZM1.86722 21.1089C1.88148 21.1445 1.89574 21.1802 1.91 21.2159C1.94566 21.3085 1.98131 21.3941 2.02409 21.4726C2.24515 21.8291 2.56603 22.0145 2.97248 22.0145C8.99082 22.0145 15.0092 22.0145 21.0346 22.0145C21.6621 22.0145 22.147 21.5296 22.147 20.9092C22.147 17.0444 22.147 13.1795 22.147 9.32179C22.147 8.92247 21.9687 8.60872 21.6051 8.35914C20.6567 7.69598 19.7083 7.03996 18.7599 6.3768C17.9114 5.78495 17.0628 5.20023 16.2214 4.60838C15.4013 4.03792 14.5742 3.46746 13.7541 2.897L12.6774 2.14115C11.9501 1.74896 11.2227 2.21245 11.1942 2.23385C10.7236 2.56899 10.2458 2.897 9.76807 3.23215L8.64141 4.01653C6.68759 5.3785 4.66959 6.78325 2.68012 8.15948C2.33072 8.40193 2.0027 8.65863 1.86722 9.07935V21.1089ZM20.0221 21.5082C19.801 21.5082 19.5728 21.5082 19.3518 21.5082H18.6815C18.4604 21.5082 18.2822 21.3299 18.2822 21.1089V16.7235C18.2822 16.4097 18.218 16.3527 17.9042 16.3456C17.3837 16.3456 16.8631 16.3456 16.3426 16.3456H15.2801V14.7198C15.2801 13.6787 15.2801 12.6447 15.2801 11.6036C15.2801 11.4111 15.2587 11.3041 15.2017 11.2542C15.1161 11.1758 14.8523 11.1758 14.4957 11.2043C12.9056 11.3255 11.2227 11.3255 9.48997 11.2043C9.19761 11.1829 8.91951 11.1758 8.82681 11.2614C8.7769 11.3113 8.7555 11.4182 8.7555 11.6108C8.7555 12.6518 8.7555 13.6929 8.7555 14.734V16.3313L8.58437 16.3384C8.55584 16.3384 8.52732 16.3384 8.50593 16.3456C8.44888 16.3456 8.39897 16.3527 8.34905 16.3527C8.0353 16.3527 7.71442 16.3527 7.40066 16.3527C6.97995 16.3527 6.55924 16.3527 6.13139 16.3527C5.81764 16.3527 5.75347 16.4169 5.75347 16.7235V19.8111V21.0447C5.75347 21.3157 5.51102 21.4583 5.27571 21.5011H5.24005H3.12936C2.71577 21.5011 2.38776 21.1659 2.38776 20.7524V17.6933C2.38776 14.9337 2.38776 12.1812 2.38776 9.42162C2.38776 9.12213 2.50185 8.90108 2.75856 8.72281C5.36841 6.9116 8.11374 5.00057 11.1657 2.87561L11.3012 2.77578L11.3154 2.79004C11.5579 2.67595 12.0784 2.50481 12.6061 2.71874V2.69734L12.8842 2.88987C15.9861 5.05048 18.7243 6.96152 21.2628 8.71568C21.5124 8.88682 21.6621 9.17205 21.6621 9.47154C21.655 12.3524 21.655 15.276 21.655 18.1069V20.7381C21.655 21.2943 21.4482 21.5011 20.892 21.5082C20.5925 21.5082 20.3073 21.5082 20.0221 21.5082ZM16.9701 15.989C17.2767 15.989 17.5905 15.989 17.8971 15.989C18.4105 15.989 18.6316 16.2101 18.6316 16.7235V21.1089C18.6316 21.1303 18.653 21.1517 18.6743 21.1517H19.3446C19.8509 21.1517 20.3643 21.1517 20.8706 21.1517C21.2271 21.1517 21.2771 21.1018 21.2771 20.7381V18.1069C21.2771 15.276 21.2771 12.3524 21.2842 9.47154C21.2842 9.28614 21.1915 9.115 21.0417 9.00804C18.5317 7.26814 15.8221 5.38563 12.763 3.25354L12.6631 3.18223C12.057 2.75439 11.344 3.18223 11.3368 3.18936C8.29914 5.31432 5.54667 7.22536 2.94396 9.02943C2.78708 9.13639 2.73004 9.25048 2.73004 9.43588C2.73004 12.1955 2.73004 14.9479 2.73004 17.7075V20.7666C2.73004 20.9805 2.90117 21.1588 3.1151 21.1588H5.2044C5.27571 21.1445 5.37554 21.0946 5.37554 21.0518V19.8182V16.7306C5.37554 16.2172 5.59659 16.0033 6.11 16.0033C6.53071 16.0033 6.95143 16.0033 7.37927 16.0033C7.69302 16.0033 8.01391 16.0033 8.32766 16.0033C8.34192 16.0033 8.36331 16.0033 8.37757 16.0033V14.7411C8.37757 13.7001 8.37757 12.659 8.37757 11.6179C8.37757 11.404 8.39897 11.1615 8.56297 11.0118C8.74837 10.8406 9.0336 10.8264 9.4971 10.862C11.2156 10.9833 12.8771 10.9833 14.453 10.862C14.9521 10.8264 15.2445 10.8335 15.4299 11.0046C15.5939 11.1615 15.6224 11.3968 15.6224 11.6108C15.6224 12.6518 15.6224 13.6858 15.6224 14.7269V15.9962H16.3283C16.5494 15.989 16.7633 15.989 16.9701 15.989ZM17.2767 21.4868H12.7701C12.5063 21.4868 12.2852 21.2729 12.2852 21.0019V17.351C12.2852 17.0872 12.4991 16.8661 12.7701 16.8661H14.2818C14.4102 16.8661 14.5314 16.916 14.6241 17.0087C14.7168 17.1014 14.7667 17.2226 14.7667 17.351C14.7667 17.5079 14.7667 17.6576 14.7667 17.8145C14.7667 17.9642 14.8095 18.1354 15.0163 18.1354C15.0163 18.1354 15.0163 18.1354 15.0234 18.1354C15.1874 18.1354 15.273 18.0284 15.2801 17.8145C15.2873 17.6719 15.2873 17.515 15.2873 17.3581V17.3225C15.2873 17.0444 15.6153 16.9089 15.6794 16.8804L15.7008 16.8732L15.7436 16.8661L17.2767 16.8518C17.5477 16.8518 17.7616 17.0658 17.7616 17.3367V20.9877C17.7616 21.2658 17.5406 21.4868 17.2767 21.4868ZM12.7701 17.2298C12.6988 17.2298 12.6418 17.2868 12.6418 17.3581V21.0091C12.6418 21.0804 12.6988 21.1374 12.7701 21.1374H17.2767C17.348 21.1374 17.4051 21.0804 17.4051 21.0091V17.3581C17.4051 17.2868 17.348 17.2298 17.2767 17.2298L15.7864 17.244C15.7222 17.2726 15.6438 17.3225 15.6367 17.351V17.3795C15.6367 17.5364 15.6367 17.6933 15.6295 17.843C15.6224 18.2495 15.38 18.5062 15.0163 18.5062H15.0092C14.6455 18.499 14.4102 18.2352 14.4102 17.8288C14.4102 17.6719 14.4102 17.515 14.4102 17.3581C14.4102 17.3225 14.3959 17.2939 14.3745 17.2654C14.3531 17.244 14.3175 17.2298 14.2818 17.2298H12.7701ZM11.2441 21.4868H6.74464C6.4808 21.4868 6.25975 21.2729 6.25975 21.0019V17.351C6.25975 17.0872 6.47367 16.8661 6.74464 16.8661H8.25635C8.38471 16.8661 8.51306 16.916 8.59863 17.0087C8.69133 17.1014 8.74124 17.2226 8.73411 17.3581C8.73411 17.4936 8.72698 17.6576 8.74837 17.8074C8.76263 17.9143 8.81255 18.0355 8.87673 18.114C8.9409 18.1853 9.06212 18.1425 9.09778 18.1211C9.19761 18.0712 9.24752 18.007 9.24752 17.9072C9.24752 17.7218 9.24752 17.5435 9.24752 17.3581C9.24752 17.2298 9.29744 17.1085 9.39014 17.0158C9.48284 16.9232 9.60406 16.8732 9.73241 16.8732H11.2441C11.508 16.8732 11.729 17.0872 11.729 17.3581V21.0019C11.729 21.2658 11.5151 21.4868 11.2441 21.4868ZM6.74464 17.2226C6.67333 17.2226 6.61628 17.2797 6.61628 17.351V21.0019C6.61628 21.0732 6.67333 21.1303 6.74464 21.1303H11.2441C11.3154 21.1303 11.3725 21.0732 11.3725 21.0019V17.3581C11.3725 17.2868 11.3154 17.2298 11.2441 17.2298H9.73241C9.69676 17.2298 9.66824 17.244 9.63971 17.2654C9.61832 17.2868 9.60406 17.3225 9.60406 17.3581C9.60406 17.5435 9.60406 17.7289 9.60406 17.9143C9.60406 18.1568 9.47571 18.3493 9.24752 18.4491C9.00508 18.5632 8.7555 18.5204 8.60576 18.3422C8.49167 18.2067 8.41323 18.0213 8.39184 17.843C8.37757 17.6719 8.37757 17.5007 8.37757 17.351C8.37757 17.3153 8.36331 17.2868 8.34192 17.2583C8.32053 17.2369 8.28487 17.2226 8.24922 17.2226H6.74464ZM14.3246 16.3242H9.68963C9.45431 16.3242 9.26178 16.1316 9.26178 15.8963V12.1456C9.26178 11.9102 9.45431 11.7177 9.68963 11.7177H11.3154C11.5507 11.7177 11.7433 11.9102 11.7433 12.1456C11.7433 12.3238 11.7433 12.5021 11.7433 12.6804C11.7433 12.8444 11.8075 12.9085 11.8645 12.9442C11.9715 13.0155 12.0642 12.987 12.1069 12.9656C12.1996 12.9228 12.2567 12.823 12.2638 12.7089C12.271 12.6162 12.271 12.5235 12.2638 12.4308C12.2638 12.388 12.2638 12.3452 12.2638 12.2953V12.1384C12.2638 11.9031 12.4564 11.7106 12.6917 11.7106H14.3175C14.5528 11.7106 14.7453 11.9031 14.7453 12.1384V15.8892C14.7596 16.1316 14.567 16.3242 14.3246 16.3242ZM9.69676 12.0671C9.65397 12.0671 9.62545 12.1028 9.62545 12.1384V15.8892C9.62545 15.932 9.66111 15.9605 9.69676 15.9605H14.3317C14.3745 15.9605 14.403 15.9248 14.403 15.8892V12.1313C14.403 12.0885 14.3674 12.06 14.3317 12.06H12.7059C12.6631 12.06 12.6346 12.0956 12.6346 12.1313V12.2882C12.6346 12.331 12.6346 12.3737 12.6346 12.4165C12.6346 12.5164 12.6346 12.6162 12.6346 12.7232C12.6204 12.9727 12.492 13.1795 12.2852 13.2793C12.0927 13.372 11.8716 13.3578 11.6862 13.2366C11.5008 13.1153 11.401 12.9228 11.4081 12.6732C11.4081 12.495 11.4081 12.3167 11.4081 12.1384C11.4081 12.0956 11.3725 12.0671 11.3368 12.0671H9.69676Z" fill="#202C38"/>
<path d="M12.4849 22.371C9.31883 22.371 6.14566 22.371 2.97961 22.371C2.44481 22.371 2.01696 22.1215 1.7246 21.658C1.66043 21.5581 1.61764 21.4512 1.58199 21.3442C1.56773 21.3014 1.54633 21.2586 1.53207 21.2159L1.51068 21.1802V9.02943L1.51781 9.00804C1.67469 8.45184 2.08114 8.13809 2.47333 7.86712C4.4628 6.49089 6.4808 5.08614 8.43462 3.72417L9.56128 2.93979C10.039 2.60464 10.5168 2.2695 10.9874 1.94149C11.0302 1.91296 11.9287 1.32824 12.8485 1.83452L12.8628 1.84166L13.9467 2.59751C14.7667 3.16797 15.5939 3.73843 16.4139 4.30889C17.2625 4.90074 18.111 5.48546 18.9524 6.07731C19.9008 6.74047 20.8492 7.39649 21.7976 8.05965C22.254 8.38053 22.4893 8.80125 22.4893 9.32179C22.4893 13.1866 22.4893 17.0515 22.4893 20.9092C22.4893 21.7293 21.8404 22.371 21.0204 22.371C18.1823 22.371 15.33 22.371 12.4849 22.371ZM1.86722 21.1089C1.88148 21.1445 1.89574 21.1802 1.91 21.2159C1.94566 21.3085 1.98131 21.3941 2.02409 21.4726C2.24515 21.8291 2.56603 22.0145 2.97248 22.0145C8.99082 22.0145 15.0092 22.0145 21.0346 22.0145C21.6621 22.0145 22.147 21.5296 22.147 20.9092C22.147 17.0444 22.147 13.1795 22.147 9.32179C22.147 8.92247 21.9687 8.60872 21.6051 8.35914C20.6567 7.69598 19.7083 7.03996 18.7599 6.3768C17.9114 5.78495 17.0628 5.20023 16.2214 4.60838C15.4013 4.03792 14.5742 3.46746 13.7541 2.897L12.6774 2.14115C11.9501 1.74896 11.2227 2.21245 11.1942 2.23385C10.7236 2.56899 10.2458 2.897 9.76807 3.23215L8.64141 4.01653C6.68759 5.3785 4.66959 6.78325 2.68012 8.15948C2.33072 8.40193 2.0027 8.65863 1.86722 9.07935V21.1089ZM20.0221 21.5082C19.801 21.5082 19.5728 21.5082 19.3518 21.5082H18.6815C18.4604 21.5082 18.2822 21.3299 18.2822 21.1089V16.7235C18.2822 16.4097 18.218 16.3527 17.9042 16.3456C17.3837 16.3456 16.8631 16.3456 16.3426 16.3456H15.2801V14.7198C15.2801 13.6787 15.2801 12.6447 15.2801 11.6036C15.2801 11.4111 15.2587 11.3041 15.2017 11.2542C15.1161 11.1758 14.8523 11.1758 14.4957 11.2043C12.9056 11.3255 11.2227 11.3255 9.48997 11.2043C9.19761 11.1829 8.91951 11.1758 8.82681 11.2614C8.7769 11.3113 8.7555 11.4182 8.7555 11.6108C8.7555 12.6518 8.7555 13.6929 8.7555 14.734V16.3313L8.58437 16.3384C8.55584 16.3384 8.52732 16.3384 8.50593 16.3456C8.44888 16.3456 8.39897 16.3527 8.34905 16.3527C8.0353 16.3527 7.71442 16.3527 7.40066 16.3527C6.97995 16.3527 6.55924 16.3527 6.13139 16.3527C5.81764 16.3527 5.75347 16.4169 5.75347 16.7235V19.8111V21.0447C5.75347 21.3157 5.51102 21.4583 5.27571 21.5011H5.24005H3.12936C2.71577 21.5011 2.38776 21.1659 2.38776 20.7524V17.6933C2.38776 14.9337 2.38776 12.1812 2.38776 9.42162C2.38776 9.12213 2.50185 8.90108 2.75856 8.72281C5.36841 6.9116 8.11374 5.00057 11.1657 2.87561L11.3012 2.77578L11.3154 2.79004C11.5579 2.67595 12.0784 2.50481 12.6061 2.71874V2.69734L12.8842 2.88987C15.9861 5.05048 18.7243 6.96152 21.2628 8.71568C21.5124 8.88682 21.6621 9.17205 21.6621 9.47154C21.655 12.3524 21.655 15.276 21.655 18.1069V20.7381C21.655 21.2943 21.4482 21.5011 20.892 21.5082C20.5925 21.5082 20.3073 21.5082 20.0221 21.5082ZM16.9701 15.989C17.2767 15.989 17.5905 15.989 17.8971 15.989C18.4105 15.989 18.6316 16.2101 18.6316 16.7235V21.1089C18.6316 21.1303 18.653 21.1517 18.6743 21.1517H19.3446C19.8509 21.1517 20.3643 21.1517 20.8706 21.1517C21.2271 21.1517 21.2771 21.1018 21.2771 20.7381V18.1069C21.2771 15.276 21.2771 12.3524 21.2842 9.47154C21.2842 9.28614 21.1915 9.115 21.0417 9.00804C18.5317 7.26814 15.8221 5.38563 12.763 3.25354L12.6631 3.18223C12.057 2.75439 11.344 3.18223 11.3368 3.18936C8.29914 5.31432 5.54667 7.22536 2.94396 9.02943C2.78708 9.13639 2.73004 9.25048 2.73004 9.43588C2.73004 12.1955 2.73004 14.9479 2.73004 17.7075V20.7666C2.73004 20.9805 2.90117 21.1588 3.1151 21.1588H5.2044C5.27571 21.1445 5.37554 21.0946 5.37554 21.0518V19.8182V16.7306C5.37554 16.2172 5.59659 16.0033 6.11 16.0033C6.53071 16.0033 6.95143 16.0033 7.37927 16.0033C7.69302 16.0033 8.01391 16.0033 8.32766 16.0033C8.34192 16.0033 8.36331 16.0033 8.37757 16.0033V14.7411C8.37757 13.7001 8.37757 12.659 8.37757 11.6179C8.37757 11.404 8.39897 11.1615 8.56297 11.0118C8.74837 10.8406 9.0336 10.8264 9.4971 10.862C11.2156 10.9833 12.8771 10.9833 14.453 10.862C14.9521 10.8264 15.2445 10.8335 15.4299 11.0046C15.5939 11.1615 15.6224 11.3968 15.6224 11.6108C15.6224 12.6518 15.6224 13.6858 15.6224 14.7269V15.9962H16.3283C16.5494 15.989 16.7633 15.989 16.9701 15.989ZM17.2767 21.4868H12.7701C12.5063 21.4868 12.2852 21.2729 12.2852 21.0019V17.351C12.2852 17.0872 12.4991 16.8661 12.7701 16.8661H14.2818C14.4102 16.8661 14.5314 16.916 14.6241 17.0087C14.7168 17.1014 14.7667 17.2226 14.7667 17.351C14.7667 17.5079 14.7667 17.6576 14.7667 17.8145C14.7667 17.9642 14.8095 18.1354 15.0163 18.1354C15.0163 18.1354 15.0163 18.1354 15.0234 18.1354C15.1874 18.1354 15.273 18.0284 15.2801 17.8145C15.2873 17.6719 15.2873 17.515 15.2873 17.3581V17.3225C15.2873 17.0444 15.6153 16.9089 15.6794 16.8804L15.7008 16.8732L15.7436 16.8661L17.2767 16.8518C17.5477 16.8518 17.7616 17.0658 17.7616 17.3367V20.9877C17.7616 21.2658 17.5406 21.4868 17.2767 21.4868ZM12.7701 17.2298C12.6988 17.2298 12.6418 17.2868 12.6418 17.3581V21.0091C12.6418 21.0804 12.6988 21.1374 12.7701 21.1374H17.2767C17.348 21.1374 17.4051 21.0804 17.4051 21.0091V17.3581C17.4051 17.2868 17.348 17.2298 17.2767 17.2298L15.7864 17.244C15.7222 17.2726 15.6438 17.3225 15.6367 17.351V17.3795C15.6367 17.5364 15.6367 17.6933 15.6295 17.843C15.6224 18.2495 15.38 18.5062 15.0163 18.5062H15.0092C14.6455 18.499 14.4102 18.2352 14.4102 17.8288C14.4102 17.6719 14.4102 17.515 14.4102 17.3581C14.4102 17.3225 14.3959 17.2939 14.3745 17.2654C14.3531 17.244 14.3175 17.2298 14.2818 17.2298H12.7701ZM11.2441 21.4868H6.74464C6.4808 21.4868 6.25975 21.2729 6.25975 21.0019V17.351C6.25975 17.0872 6.47367 16.8661 6.74464 16.8661H8.25635C8.38471 16.8661 8.51306 16.916 8.59863 17.0087C8.69133 17.1014 8.74124 17.2226 8.73411 17.3581C8.73411 17.4936 8.72698 17.6576 8.74837 17.8074C8.76263 17.9143 8.81255 18.0355 8.87673 18.114C8.9409 18.1853 9.06212 18.1425 9.09778 18.1211C9.19761 18.0712 9.24752 18.007 9.24752 17.9072C9.24752 17.7218 9.24752 17.5435 9.24752 17.3581C9.24752 17.2298 9.29744 17.1085 9.39014 17.0158C9.48284 16.9232 9.60406 16.8732 9.73241 16.8732H11.2441C11.508 16.8732 11.729 17.0872 11.729 17.3581V21.0019C11.729 21.2658 11.5151 21.4868 11.2441 21.4868ZM6.74464 17.2226C6.67333 17.2226 6.61628 17.2797 6.61628 17.351V21.0019C6.61628 21.0732 6.67333 21.1303 6.74464 21.1303H11.2441C11.3154 21.1303 11.3725 21.0732 11.3725 21.0019V17.3581C11.3725 17.2868 11.3154 17.2298 11.2441 17.2298H9.73241C9.69676 17.2298 9.66824 17.244 9.63971 17.2654C9.61832 17.2868 9.60406 17.3225 9.60406 17.3581C9.60406 17.5435 9.60406 17.7289 9.60406 17.9143C9.60406 18.1568 9.47571 18.3493 9.24752 18.4491C9.00508 18.5632 8.7555 18.5204 8.60576 18.3422C8.49167 18.2067 8.41323 18.0213 8.39184 17.843C8.37757 17.6719 8.37757 17.5007 8.37757 17.351C8.37757 17.3153 8.36331 17.2868 8.34192 17.2583C8.32053 17.2369 8.28487 17.2226 8.24922 17.2226H6.74464ZM14.3246 16.3242H9.68963C9.45431 16.3242 9.26178 16.1316 9.26178 15.8963V12.1456C9.26178 11.9102 9.45431 11.7177 9.68963 11.7177H11.3154C11.5507 11.7177 11.7433 11.9102 11.7433 12.1456C11.7433 12.3238 11.7433 12.5021 11.7433 12.6804C11.7433 12.8444 11.8075 12.9085 11.8645 12.9442C11.9715 13.0155 12.0642 12.987 12.1069 12.9656C12.1996 12.9228 12.2567 12.823 12.2638 12.7089C12.271 12.6162 12.271 12.5235 12.2638 12.4308C12.2638 12.388 12.2638 12.3452 12.2638 12.2953V12.1384C12.2638 11.9031 12.4564 11.7106 12.6917 11.7106H14.3175C14.5528 11.7106 14.7453 11.9031 14.7453 12.1384V15.8892C14.7596 16.1316 14.567 16.3242 14.3246 16.3242ZM9.69676 12.0671C9.65397 12.0671 9.62545 12.1028 9.62545 12.1384V15.8892C9.62545 15.932 9.66111 15.9605 9.69676 15.9605H14.3317C14.3745 15.9605 14.403 15.9248 14.403 15.8892V12.1313C14.403 12.0885 14.3674 12.06 14.3317 12.06H12.7059C12.6631 12.06 12.6346 12.0956 12.6346 12.1313V12.2882C12.6346 12.331 12.6346 12.3737 12.6346 12.4165C12.6346 12.5164 12.6346 12.6162 12.6346 12.7232C12.6204 12.9727 12.492 13.1795 12.2852 13.2793C12.0927 13.372 11.8716 13.3578 11.6862 13.2366C11.5008 13.1153 11.401 12.9228 11.4081 12.6732C11.4081 12.495 11.4081 12.3167 11.4081 12.1384C11.4081 12.0956 11.3725 12.0671 11.3368 12.0671H9.69676Z" stroke="#202C38" stroke-width="0.24" mask="url(#path-2-outside-1_7172_92821)"/>
</svg>
